<svg width="125" height="109" viewBox="0 0 125 109" fill="none" xmlns="http://www.w3.org/2000/svg">
<path d="M116.25 50.4851L113.012 37.5371C113.897 37.3491 114.562 36.564 114.562 35.6233V33.5356C114.562 29.0029 110.874 25.3154 106.341 25.3154H91.5972V21.0093C91.5972 18.7788 89.7827 16.9644 87.5522 16.9644H12.3955C10.165 16.9644 8.35059 18.7788 8.35059 21.0093V56.5C8.35059 57.5808 9.22681 58.4573 10.3079 58.4573C11.3887 58.4573 12.2651 57.5811 12.2651 56.5V21.0093C12.2651 20.9373 12.3235 20.8789 12.3955 20.8789H87.552C87.624 20.8789 87.6824 20.9373 87.6824 21.0093V56.5005C87.6824 57.5813 88.5586 58.4578 89.6396 58.4578C90.7205 58.4578 91.5969 57.5816 91.5969 56.5005V54.2817H114.685C114.687 54.2817 114.688 54.2822 114.69 54.2822C114.692 54.2822 114.694 54.282 114.696 54.282C117.537 54.2839 119.949 56.1487 120.778 58.7183H114.692C113.611 58.7183 112.734 59.5945 112.734 60.6755V64.8508C112.734 68.2324 115.485 70.9834 118.867 70.9834H121.085V79.595H115.968C114.286 74.7407 109.672 71.2441 104.253 71.2441C98.8345 71.2441 94.2197 74.7407 92.5388 79.595H91.5964V64.8506C91.5964 63.7698 90.7202 62.8933 89.6392 62.8933C88.5583 62.8933 87.6819 63.7695 87.6819 64.8506V79.5945H47.0745C45.3933 74.7402 40.7788 71.2437 35.3601 71.2437C29.9414 71.2437 25.3267 74.7402 23.6458 79.5945H12.3955C12.3235 79.5945 12.2651 79.5361 12.2651 79.4641V75.1582H20.7463C21.8271 75.1582 22.7036 74.282 22.7036 73.2009C22.7036 72.1199 21.8274 71.2437 20.7463 71.2437H1.95728C0.876465 71.2437 0 72.1199 0 73.2009C0 74.282 0.876221 75.1582 1.95728 75.1582H8.35083V79.4641C8.35083 81.6946 10.1653 83.509 12.3958 83.509H22.968C22.9675 83.5525 22.9646 83.5957 22.9646 83.6394C22.9646 90.4744 28.5254 96.0349 35.3601 96.0349C42.1948 96.0349 47.7556 90.4744 47.7556 83.6394C47.7556 83.5955 47.7527 83.5525 47.7522 83.509H91.8611C91.8606 83.5525 91.8577 83.5957 91.8577 83.6394C91.8577 90.4744 97.4185 96.0349 104.253 96.0349C111.088 96.0349 116.649 90.4744 116.649 83.6394C116.649 83.5955 116.646 83.5525 116.645 83.509H123.042C124.123 83.509 125 82.6328 125 81.5518V60.6751C125 55.5208 121.197 51.2383 116.25 50.4851ZM91.5972 29.2297H106.341C108.716 29.2297 110.647 31.1614 110.647 33.5356V33.666H91.5972V29.2297ZM91.5972 50.3674V37.5803H108.989L112.185 50.3674H91.5972ZM35.3601 92.1211C30.6836 92.1211 26.8789 88.3167 26.8789 83.6399C26.8789 78.9631 30.6836 75.1587 35.3601 75.1587C40.0366 75.1587 43.8413 78.9631 43.8413 83.6399C43.8413 88.3167 40.0366 92.1211 35.3601 92.1211ZM104.254 92.1211C99.5771 92.1211 95.7725 88.3167 95.7725 83.6399C95.7725 78.9631 99.5771 75.1587 104.254 75.1587C108.93 75.1587 112.735 78.9631 112.735 83.6399C112.735 88.3167 108.93 92.1211 104.254 92.1211ZM121.086 67.0689H118.867C117.644 67.0689 116.649 66.0737 116.649 64.8506V62.6323H121.085V67.0689H121.086Z" fill="black"/>
<path d="M35.3601 79.595C33.1296 79.595 31.3152 81.4094 31.3152 83.6399C31.3152 85.8704 33.1296 87.6848 35.3601 87.6848C37.5906 87.6848 39.405 85.8704 39.405 83.6399C39.405 81.4094 37.5906 79.595 35.3601 79.595Z" fill="black"/>
<path d="M104.254 79.595C102.023 79.595 100.209 81.4094 100.209 83.6399C100.209 85.8704 102.023 87.6848 104.254 87.6848C106.484 87.6848 108.299 85.8704 108.299 83.6399C108.299 81.4094 106.484 79.595 104.254 79.595Z" fill="black"/>
<path d="M81.2891 71.2444H52.0615C50.9807 71.2444 50.1042 72.1206 50.1042 73.2017C50.1042 74.2827 50.9805 75.1589 52.0615 75.1589H81.2891C82.3699 75.1589 83.2463 74.2827 83.2463 73.2017C83.2463 72.1206 82.3701 71.2444 81.2891 71.2444Z" fill="black"/>
<path d="M31.1848 62.8936H6.13257C5.05176 62.8936 4.17529 63.7698 4.17529 64.8508C4.17529 65.9319 5.05151 66.8081 6.13257 66.8081H31.1848C32.2656 66.8081 33.1421 65.9319 33.1421 64.8508C33.1421 63.7698 32.2656 62.8936 31.1848 62.8936Z" fill="black"/>
<path d="M68.0594 36.3267C67.2952 35.5625 66.0557 35.5625 65.2916 36.3269L47.8863 53.732L38.8318 44.6775C38.0674 43.9131 36.8282 43.9131 36.064 44.6775C35.2996 45.4419 35.2996 46.6809 36.064 47.4453L46.5025 57.8838C46.8846 58.2661 47.3856 58.4571 47.8863 58.4571C48.387 58.4571 48.8882 58.2661 49.2701 57.8838L68.0591 39.0948C68.8235 38.3301 68.8236 37.0911 68.0594 36.3267Z" fill="black"/>
</svg>
