<svg width="104" height="94" viewBox="0 0 104 94" fill="none" xmlns="http://www.w3.org/2000/svg">
<path d="M100.417 74.7422L101.534 73.0578C102.857 71.0788 103.563 68.7521 103.562 66.3719V5.90625C103.558 4.53998 103.014 3.23084 102.048 2.26474C101.082 1.29864 99.7725 0.75408 98.4062 0.75H5.59375C4.22748 0.75408 2.91834 1.29864 1.95224 2.26474C0.986137 3.23084 0.44158 4.53998 0.4375 5.90625V67.7812C0.44158 69.1475 0.986137 70.4567 1.95224 71.4228C2.91834 72.3889 4.22748 72.9334 5.59375 72.9375H41.6875V79.8125H29.6562C28.29 79.8166 26.9808 80.3611 26.0147 81.3272C25.0486 82.2933 24.5041 83.6025 24.5 84.9688V91.8438C24.5 92.2996 24.6811 92.7368 25.0034 93.0591C25.3257 93.3814 25.7629 93.5625 26.2188 93.5625H101.844C102.3 93.5625 102.737 93.3814 103.059 93.0591C103.381 92.7368 103.562 92.2996 103.562 91.8438V78.0938C103.562 77.6379 103.381 77.2007 103.059 76.8784C102.737 76.5561 102.3 76.375 101.844 76.375H100.125V75.7047C100.127 75.3622 100.228 75.0277 100.417 74.7422ZM5.59375 69.5C5.13791 69.5 4.70074 69.3189 4.37841 68.9966C4.05608 68.6743 3.875 68.2371 3.875 67.7812V5.90625C3.875 5.45041 4.05608 5.01324 4.37841 4.69091C4.70074 4.36858 5.13791 4.1875 5.59375 4.1875H98.4062C98.8621 4.1875 99.2993 4.36858 99.6216 4.69091C99.9439 5.01324 100.125 5.45041 100.125 5.90625V42.3266C99.0123 41.9429 97.804 41.9368 96.6875 42.3094V9.34375C96.6875 8.88791 96.5064 8.45074 96.1841 8.12841C95.8618 7.80608 95.4246 7.625 94.9688 7.625H9.03125C8.57541 7.625 8.13824 7.80608 7.81591 8.12841C7.49358 8.45074 7.3125 8.88791 7.3125 9.34375V57.4688C7.3125 57.9246 7.49358 58.3618 7.81591 58.6841C8.13824 59.0064 8.57541 59.1875 9.03125 59.1875H65.75V66.3719C65.7542 67.429 65.8987 68.4809 66.1797 69.5H5.59375ZM81.4422 26.3422C80.9097 25.8051 80.2659 25.3914 79.5561 25.1301C78.8464 24.8687 78.088 24.7662 77.3344 24.8297C76.027 24.9721 74.8197 25.5971 73.9487 26.5825C73.0777 27.5679 72.6057 28.8428 72.625 30.1578V45.4375H70.9062C69.54 45.4416 68.2308 45.9861 67.2647 46.9522C66.2986 47.9183 65.7541 49.2275 65.75 50.5938V55.75H10.75V11.0625H93.25V38.9062C92.5585 38.6629 91.8239 38.5662 91.093 38.6225C90.362 38.6787 89.6508 38.8866 89.0047 39.2328C88.8098 38.9205 88.5791 38.6321 88.3172 38.3734C87.6226 37.6899 86.7521 37.2124 85.8023 36.9939C84.8526 36.7754 83.8609 36.8246 82.9375 37.1359V29.9688C82.9412 29.2953 82.811 28.6278 82.5542 28.0052C82.2975 27.3826 81.9195 26.8173 81.4422 26.3422ZM58.875 72.9375V79.8125H45.125V72.9375H58.875ZM65.75 90.125H27.9375V84.9688C27.9375 84.5129 28.1186 84.0757 28.4409 83.7534C28.7632 83.4311 29.2004 83.25 29.6562 83.25H65.75V90.125ZM65.75 78.0938V79.8125H62.3125V72.9375H67.5547C67.6022 72.9342 67.6487 72.9226 67.6922 72.9031C67.7266 72.9547 67.7438 73.0062 67.7781 73.0578L68.8953 74.7422C69.0844 75.0277 69.1859 75.3622 69.1875 75.7047V76.375H67.4688C67.0129 76.375 66.5757 76.5561 66.2534 76.8784C65.9311 77.2007 65.75 77.6379 65.75 78.0938ZM100.125 90.125H69.1875V79.8125H100.125V90.125ZM98.6813 71.15L97.5469 72.8344C96.9826 73.685 96.6835 74.6839 96.6875 75.7047V76.375H72.625V75.7047C72.629 74.6839 72.3299 73.685 71.7656 72.8344L70.6312 71.15C69.6894 69.7345 69.1871 68.0721 69.1875 66.3719V50.5938C69.1875 50.1379 69.3686 49.7007 69.6909 49.3784C70.0132 49.0561 70.4504 48.875 70.9062 48.875H72.625V57.4688C72.625 57.9246 72.8061 58.3618 73.1284 58.6841C73.4507 59.0064 73.8879 59.1875 74.3438 59.1875C74.7996 59.1875 75.2368 59.0064 75.5591 58.6841C75.8814 58.3618 76.0625 57.9246 76.0625 57.4688V30.1578C76.0487 29.7045 76.1995 29.2616 76.4871 28.9108C76.7746 28.5601 77.1794 28.3254 77.6266 28.25C77.8812 28.2278 78.1376 28.2643 78.376 28.3567C78.6143 28.449 78.8283 28.5948 79.0016 28.7828C79.1624 28.935 79.2898 29.1191 79.3756 29.3233C79.4615 29.5275 79.5038 29.7473 79.5 29.9688V50.5938C79.5 51.0496 79.6811 51.4868 80.0034 51.8091C80.3257 52.1314 80.7629 52.3125 81.2188 52.3125C81.6746 52.3125 82.1118 52.1314 82.4341 51.8091C82.7564 51.4868 82.9375 51.0496 82.9375 50.5938V42C82.9375 41.5442 83.1186 41.107 83.4409 40.7847C83.7632 40.4623 84.2004 40.2812 84.6562 40.2812C84.8857 40.2792 85.113 40.3256 85.3232 40.4175C85.5335 40.5093 85.7221 40.6444 85.8766 40.8141C86.0374 40.9663 86.1648 41.1504 86.2506 41.3545C86.3365 41.5587 86.3788 41.7785 86.375 42V50.5938C86.375 51.0496 86.5561 51.4868 86.8784 51.8091C87.2007 52.1314 87.6379 52.3125 88.0938 52.3125C88.5496 52.3125 88.9868 52.1314 89.3091 51.8091C89.6314 51.4868 89.8125 51.0496 89.8125 50.5938V43.7188C89.8125 43.2629 89.9936 42.8257 90.3159 42.5034C90.6382 42.1811 91.0754 42 91.5312 42C91.7607 41.998 91.988 42.0444 92.1982 42.1362C92.4085 42.228 92.5971 42.3632 92.7516 42.5328C92.9124 42.6851 93.0398 42.8691 93.1256 43.0733C93.2115 43.2775 93.2538 43.4973 93.25 43.7188V50.5938C93.25 51.0496 93.4311 51.4868 93.7534 51.8091C94.0757 52.1314 94.5129 52.3125 94.9688 52.3125C95.4246 52.3125 95.8618 52.1314 96.1841 51.8091C96.5064 51.4868 96.6875 51.0496 96.6875 50.5938V47.1562C96.6875 46.7004 96.8686 46.2632 97.1909 45.9409C97.5132 45.6186 97.9504 45.4375 98.4062 45.4375C98.6357 45.4355 98.863 45.4819 99.0732 45.5737C99.2835 45.6655 99.4721 45.8007 99.6266 45.9703C99.7874 46.1226 99.9148 46.3066 100.001 46.5108C100.086 46.715 100.129 46.9348 100.125 47.1562V66.3719C100.125 68.0721 99.6231 69.7345 98.6813 71.15Z" fill="black"/>
<path d="M53.7188 62.625H50.2812C49.8254 62.625 49.3882 62.8061 49.0659 63.1284C48.7436 63.4507 48.5625 63.8879 48.5625 64.3438C48.5625 64.7996 48.7436 65.2368 49.0659 65.5591C49.3882 65.8814 49.8254 66.0625 50.2812 66.0625H53.7188C54.1746 66.0625 54.6118 65.8814 54.9341 65.5591C55.2564 65.2368 55.4375 64.7996 55.4375 64.3438C55.4375 63.8879 55.2564 63.4507 54.9341 63.1284C54.6118 62.8061 54.1746 62.625 53.7188 62.625Z" fill="black"/>
<path d="M36.5312 17.9375H19.3438C18.8879 17.9375 18.4507 18.1186 18.1284 18.4409C17.8061 18.7632 17.625 19.2004 17.625 19.6562V29.9688C17.625 30.4246 17.8061 30.8618 18.1284 31.1841C18.4507 31.5064 18.8879 31.6875 19.3438 31.6875H36.5312C36.9871 31.6875 37.4243 31.5064 37.7466 31.1841C38.0689 30.8618 38.25 30.4246 38.25 29.9688V19.6562C38.25 19.2004 38.0689 18.7632 37.7466 18.4409C37.4243 18.1186 36.9871 17.9375 36.5312 17.9375ZM34.8125 28.25H21.0625V21.375H34.8125V28.25Z" fill="black"/>
<path d="M36.5312 35.125H19.3438C18.8879 35.125 18.4507 35.3061 18.1284 35.6284C17.8061 35.9507 17.625 36.3879 17.625 36.8438V47.1562C17.625 47.6121 17.8061 48.0493 18.1284 48.3716C18.4507 48.6939 18.8879 48.875 19.3438 48.875H36.5312C36.9871 48.875 37.4243 48.6939 37.7466 48.3716C38.0689 48.0493 38.25 47.6121 38.25 47.1562V36.8438C38.25 36.3879 38.0689 35.9507 37.7466 35.6284C37.4243 35.3061 36.9871 35.125 36.5312 35.125ZM34.8125 45.4375H21.0625V38.5625H34.8125V45.4375Z" fill="black"/>
<path d="M60.5938 17.9375H43.4062C42.9504 17.9375 42.5132 18.1186 42.1909 18.4409C41.8686 18.7632 41.6875 19.2004 41.6875 19.6562V29.9688C41.6875 30.4246 41.8686 30.8618 42.1909 31.1841C42.5132 31.5064 42.9504 31.6875 43.4062 31.6875H60.5938C61.0496 31.6875 61.4868 31.5064 61.8091 31.1841C62.1314 30.8618 62.3125 30.4246 62.3125 29.9688V19.6562C62.3125 19.2004 62.1314 18.7632 61.8091 18.4409C61.4868 18.1186 61.0496 17.9375 60.5938 17.9375ZM58.875 28.25H45.125V21.375H58.875V28.25Z" fill="black"/>
<path d="M60.5938 35.125H43.4062C42.9504 35.125 42.5132 35.3061 42.1909 35.6284C41.8686 35.9507 41.6875 36.3879 41.6875 36.8438V47.1562C41.6875 47.6121 41.8686 48.0493 42.1909 48.3716C42.5132 48.6939 42.9504 48.875 43.4062 48.875H60.5938C61.0496 48.875 61.4868 48.6939 61.8091 48.3716C62.1314 48.0493 62.3125 47.6121 62.3125 47.1562V36.8438C62.3125 36.3879 62.1314 35.9507 61.8091 35.6284C61.4868 35.3061 61.0496 35.125 60.5938 35.125ZM58.875 45.4375H45.125V38.5625H58.875V45.4375Z" fill="black"/>
<path d="M84.6562 17.9375H67.4688C67.0129 17.9375 66.5757 18.1186 66.2534 18.4409C65.9311 18.7632 65.75 19.2004 65.75 19.6562V29.9688C65.75 30.4246 65.9311 30.8618 66.2534 31.1841C66.5757 31.5064 67.0129 31.6875 67.4688 31.6875H69.1875C69.6433 31.6875 70.0805 31.5064 70.4028 31.1841C70.7252 30.8618 70.9062 30.4246 70.9062 29.9688C70.9062 29.5129 70.7252 29.0757 70.4028 28.7534C70.0805 28.4311 69.6433 28.25 69.1875 28.25V21.375H82.9375V26.5312C82.9375 26.9871 83.1186 27.4243 83.4409 27.7466C83.7632 28.0689 84.2004 28.25 84.6562 28.25C85.1121 28.25 85.5493 28.0689 85.8716 27.7466C86.1939 27.4243 86.375 26.9871 86.375 26.5312V19.6562C86.375 19.2004 86.1939 18.7632 85.8716 18.4409C85.5493 18.1186 85.1121 17.9375 84.6562 17.9375Z" fill="black"/>
<path d="M67.4688 35.125C67.0129 35.125 66.5757 35.3061 66.2534 35.6284C65.9311 35.9507 65.75 36.3879 65.75 36.8438V42C65.75 42.4558 65.9311 42.893 66.2534 43.2153C66.5757 43.5377 67.0129 43.7188 67.4688 43.7188C67.9246 43.7188 68.3618 43.5377 68.6841 43.2153C69.0064 42.893 69.1875 42.4558 69.1875 42V36.8438C69.1875 36.3879 69.0064 35.9507 68.6841 35.6284C68.3618 35.3061 67.9246 35.125 67.4688 35.125Z" fill="black"/>
</svg>
