<svg width="78" height="110" viewBox="0 0 78 110" fill="none" xmlns="http://www.w3.org/2000/svg">
<g clip-path="url(#clip0)">
<path d="M3.25 58.185C5.044 58.185 6.5 56.729 6.5 54.935C6.5 37.0502 20.9885 22.5 38.7969 22.5C46.6083 22.5 53.9468 25.2657 59.7318 30.2334H56.7531C54.9591 30.2334 53.5031 31.6894 53.5031 33.4834C53.5031 35.2774 54.9591 36.7334 56.7531 36.7334H67.4196C69.2136 36.7334 70.6696 35.2774 70.6696 33.4834V22.7714C70.6696 20.9774 69.2136 19.5214 67.4196 19.5214C65.6256 19.5214 64.1696 20.9774 64.1696 22.7714V25.4803C57.1886 19.393 48.2853 16 38.7969 16C17.4038 16 0 33.4671 0 54.935C0 56.729 1.456 58.185 3.25 58.185Z" fill="#3C3A41"/>
<path d="M74.7501 51.815C72.9561 51.815 71.5001 53.271 71.5001 55.065C71.5001 72.9497 57.0116 87.5 39.2032 87.5C31.4828 87.5 24.2223 84.8025 18.4698 79.9437H21.5915C23.3855 79.9437 24.8415 78.4877 24.8415 76.6937C24.8415 74.8997 23.3855 73.4437 21.5915 73.4437H10.9233C10.8941 73.4437 10.8681 73.4519 10.8405 73.4519C10.717 73.4551 10.5951 73.4714 10.4716 73.4892C10.3806 73.5022 10.2896 73.5104 10.2002 73.5315C10.093 73.5559 9.98734 73.5949 9.88171 73.6306C9.78421 73.6647 9.68509 73.694 9.59084 73.7362C9.50146 73.7769 9.41696 73.8289 9.33084 73.8776C9.22846 73.9361 9.12771 73.993 9.03184 74.0612C9.00746 74.0791 8.97984 74.0889 8.95546 74.1084C8.90021 74.1506 8.85796 74.2026 8.80596 74.2481C8.71984 74.3229 8.63371 74.3976 8.55571 74.4821C8.48259 74.5601 8.41921 74.6414 8.35584 74.7242C8.29246 74.8071 8.23071 74.89 8.17384 74.9777C8.11696 75.0687 8.06821 75.163 8.02109 75.2572C7.97396 75.3499 7.93009 75.4441 7.89271 75.5416C7.85534 75.6424 7.82609 75.7431 7.79846 75.8471C7.77246 75.9462 7.74484 76.0454 7.72859 76.1477C7.70909 76.2631 7.70096 76.3785 7.69284 76.4955C7.68796 76.5621 7.67334 76.6271 7.67334 76.6954V87.4074C7.67334 89.2014 9.12934 90.6574 10.9233 90.6574C12.7173 90.6574 14.1733 89.2014 14.1733 87.4074V84.8236C21.1007 90.7207 29.8708 94 39.2032 94C60.5963 94 78.0001 76.5329 78.0001 55.065C78.0001 53.271 76.5441 51.815 74.7501 51.815Z" fill="#3C3A41"/>
</g>
<defs>
<clipPath id="clip0">
<rect width="78" height="110" fill="white"/>
</clipPath>
</defs>
</svg>
