<svg width="18" height="19" viewBox="0 0 18 19" fill="none" xmlns="http://www.w3.org/2000/svg">
<path d="M8.87305 5.27808C7.67957 5.27808 6.53498 5.75218 5.69107 6.5961C4.84715 7.44001 4.37305 8.5846 4.37305 9.77808C4.37305 10.9716 4.84715 12.1161 5.69107 12.9601C6.53498 13.804 7.67957 14.2781 8.87305 14.2781C10.0665 14.2781 11.2111 13.804 12.055 12.9601C12.8989 12.1161 13.373 10.9716 13.373 9.77808C13.373 8.5846 12.8989 7.44001 12.055 6.5961C11.2111 5.75218 10.0665 5.27808 8.87305 5.27808ZM8.87305 12.7005C8.0977 12.7005 7.35411 12.3925 6.80586 11.8443C6.25761 11.296 5.9496 10.5524 5.9496 9.7771C5.9496 9.00176 6.25761 8.25817 6.80586 7.70992C7.35411 7.16167 8.0977 6.85366 8.87305 6.85366C9.64839 6.85366 10.392 7.16167 10.9402 7.70992C11.4885 8.25817 11.7965 9.00176 11.7965 9.7771C11.7965 10.5524 11.4885 11.296 10.9402 11.8443C10.392 12.3925 9.64839 12.7005 8.87305 12.7005Z" fill="white"/>
<path d="M13.7261 6.03003C14.2784 6.03003 14.7261 5.58231 14.7261 5.03003C14.7261 4.47774 14.2784 4.03003 13.7261 4.03003C13.1738 4.03003 12.7261 4.47774 12.7261 5.03003C12.7261 5.58231 13.1738 6.03003 13.7261 6.03003Z" fill="white"/>
<path d="M17.5232 4.00581C17.2918 3.40918 16.9382 2.86737 16.485 2.41505C16.0318 1.96273 15.489 1.60987 14.8914 1.37906C14.192 1.11694 13.4532 0.975209 12.7064 0.959898C11.7438 0.917982 11.4389 0.906006 8.998 0.906006C6.55709 0.906006 6.24422 0.906006 5.28965 0.959898C4.54337 0.974426 3.80507 1.11619 3.10662 1.37906C2.50882 1.6096 1.96589 1.96236 1.51266 2.41472C1.05943 2.86707 0.705915 3.40902 0.474789 4.00581C0.21221 4.70402 0.0705831 5.44177 0.0559751 6.18744C0.0129942 7.14752 0 7.45191 0 9.89004C0 12.3272 -7.44727e-09 12.6375 0.0559751 13.5926C0.0709685 14.3391 0.211906 15.0757 0.474789 15.7753C0.706564 16.3718 1.06042 16.9136 1.51376 17.3659C1.9671 17.8182 2.50995 18.1711 3.10762 18.402C3.80474 18.6747 4.54335 18.8265 5.29165 18.8511C6.25422 18.893 6.55908 18.906 9 18.906C11.4409 18.906 11.7538 18.906 12.7084 18.8511C13.4551 18.836 14.1939 18.6946 14.8934 18.433C15.4909 18.2016 16.0335 17.8484 16.4866 17.396C16.9398 16.9436 17.2935 16.4018 17.5252 15.8052C17.7881 15.1066 17.929 14.3701 17.944 13.6236C17.987 12.6635 18 12.3591 18 9.92098C18 7.48285 18 7.17347 17.944 6.21838C17.9324 5.46217 17.79 4.71364 17.5232 4.00581ZM16.3058 13.5188C16.2993 14.0939 16.1942 14.6637 15.9949 15.2034C15.8448 15.5915 15.615 15.9439 15.3203 16.238C15.0255 16.5321 14.6724 16.7613 14.2837 16.911C13.7491 17.109 13.1845 17.214 12.6144 17.2214C11.6648 17.2653 11.3969 17.2763 8.96202 17.2763C6.5251 17.2763 6.27621 17.2763 5.30864 17.2214C4.73882 17.2144 4.17447 17.1094 3.64038 16.911C3.25024 16.7623 2.89571 16.5334 2.59973 16.2393C2.30375 15.9452 2.07291 15.5922 1.92215 15.2034C1.72568 14.6695 1.62059 14.1064 1.61128 13.5377C1.5683 12.5896 1.55831 12.3222 1.55831 9.89104C1.55831 7.4589 1.55831 7.2104 1.61128 6.24333C1.61774 5.6685 1.72289 5.09904 1.92215 4.5597C2.22701 3.77227 2.85173 3.15251 3.64038 2.85112C4.17473 2.65365 4.73892 2.54868 5.30864 2.54074C6.25922 2.49782 6.5261 2.48585 8.96202 2.48585C11.3979 2.48585 11.6478 2.48585 12.6144 2.54074C13.1845 2.54758 13.7492 2.65258 14.2837 2.85112C14.6724 3.00109 15.0255 3.23056 15.3202 3.5248C15.6149 3.81904 15.8447 4.17155 15.9949 4.5597C16.1914 5.09358 16.2964 5.65666 16.3058 6.22537C16.3487 7.17447 16.3597 7.44094 16.3597 9.87307C16.3597 12.3042 16.3597 12.5657 16.3167 13.5198H16.3058V13.5188Z" fill="white"/>
</svg>
