<svg width="18" height="19" viewBox="0 0 18 19" fill="none" xmlns="http://www.w3.org/2000/svg">
<g clip-path="url(#clip0)">
<path d="M14.5221 8.30343C14.5856 8.30124 14.6489 8.31187 14.7083 8.33467C14.7676 8.35747 14.8217 8.39198 14.8675 8.43615C14.9132 8.48032 14.9495 8.53325 14.9744 8.59177C14.9992 8.65029 15.012 8.71321 15.012 8.77678C15.012 8.84035 14.9992 8.90327 14.9744 8.96179C14.9495 9.02031 14.9132 9.07323 14.8675 9.1174C14.8217 9.16157 14.7676 9.19609 14.7083 9.21889C14.6489 9.24169 14.5856 9.25231 14.5221 9.25012H13.2064V10.0939H14.5221C14.586 10.0907 14.6499 10.1006 14.7098 10.123C14.7698 10.1453 14.8246 10.1795 14.871 10.2236C14.9173 10.2678 14.9542 10.3209 14.9794 10.3797C15.0046 10.4385 15.0176 10.5018 15.0176 10.5658C15.0176 10.6298 15.0046 10.6931 14.9794 10.7519C14.9542 10.8108 14.9173 10.8638 14.871 10.908C14.8246 10.9521 14.7698 10.9864 14.7098 11.0087C14.6499 11.031 14.586 11.0409 14.5221 11.0377H12.735C12.6101 11.0373 12.4904 10.9874 12.4022 10.899C12.314 10.8105 12.2643 10.6907 12.2642 10.5658V6.98831C12.2642 6.72787 12.4751 6.51412 12.735 6.51412H14.5254C14.6469 6.5204 14.7613 6.57316 14.8449 6.66148C14.9285 6.74979 14.975 6.8669 14.9746 6.98852C14.9743 7.11015 14.9271 7.22697 14.843 7.31479C14.7588 7.40261 14.6441 7.45469 14.5226 7.46025H13.2069V8.304L14.5221 8.30343ZM11.6342 10.5652C11.6332 10.6905 11.5827 10.8103 11.4938 10.8986C11.4049 10.9869 11.2847 11.0365 11.1594 11.0366C11.0853 11.0373 11.0119 11.0208 10.9452 10.9883C10.8786 10.9558 10.8204 10.9082 10.7753 10.8493L8.94431 8.35912V10.5647C8.94431 10.6898 8.89459 10.8099 8.80609 10.8984C8.71758 10.9869 8.59754 11.0366 8.47237 11.0366C8.34721 11.0366 8.22717 10.9869 8.13867 10.8984C8.05016 10.8099 8.00044 10.6898 8.00044 10.5647V6.98718C8.00044 6.78525 8.13262 6.60412 8.32275 6.53943C8.3697 6.52285 8.41921 6.51466 8.469 6.51525C8.61525 6.51525 8.75025 6.59456 8.84081 6.70593L10.6864 9.20175V6.98718C10.6864 6.72675 10.8973 6.513 11.1583 6.513C11.4193 6.513 11.6331 6.72675 11.6331 6.98718L11.6342 10.5652ZM7.32769 10.5652C7.32709 10.6907 7.27679 10.8108 7.18781 10.8993C7.09882 10.9877 6.97841 11.0373 6.85294 11.0372C6.7284 11.0361 6.60931 10.986 6.52157 10.8976C6.43382 10.8092 6.38452 10.6898 6.38438 10.5652V6.98775C6.38438 6.72731 6.59531 6.51356 6.85631 6.51356C7.11675 6.51356 7.32825 6.72731 7.32825 6.98775L7.32769 10.5652ZM5.47875 11.0372H3.68831C3.56298 11.0369 3.44282 10.9872 3.35393 10.8988C3.26504 10.8104 3.2146 10.6906 3.21356 10.5652V6.98775C3.21356 6.72731 3.42731 6.51356 3.68831 6.51356C3.94931 6.51356 4.16025 6.72731 4.16025 6.98775V10.0933H5.47875C5.60392 10.0933 5.72395 10.143 5.81246 10.2315C5.90097 10.32 5.95069 10.4401 5.95069 10.5652C5.95069 10.6904 5.90097 10.8105 5.81246 10.899C5.72395 10.9875 5.60392 11.0372 5.47875 11.0372ZM18 8.63981C18 4.61175 13.9596 1.3335 9 1.3335C4.04044 1.3335 0 4.61175 0 8.63981C0 12.2494 3.20231 15.2728 7.52625 15.8471C7.81931 15.9084 8.21756 16.0406 8.3205 16.2898C8.41106 16.5148 8.379 16.8636 8.34975 17.1015L8.22656 17.8659C8.19112 18.0915 8.04488 18.7541 9.01181 18.3497C9.98156 17.9452 14.2003 15.2914 16.0898 13.1167C17.3818 11.7021 18 10.2486 18 8.63981Z" fill="white"/>
</g>
<defs>
<clipPath id="clip0">
<rect width="18" height="18" fill="white" transform="translate(0 0.906006)"/>
</clipPath>
</defs>
</svg>
