<svg width="18" height="19" viewBox="0 0 18 19" fill="none" xmlns="http://www.w3.org/2000/svg">
<path d="M3.52957 0.910889C1.59066 0.910889 0.00378418 2.49773 0.00378418 4.43667V15.3778C0.00378418 17.3167 1.59063 18.903 3.52957 18.903H14.4707C16.4096 18.903 17.9959 17.3167 17.9959 15.3778V4.43667C17.9959 2.49777 16.4096 0.910889 14.4707 0.910889H3.52957ZM4.41636 3.87995C5.34602 3.87995 5.91866 4.49026 5.93633 5.2925C5.93633 6.07703 5.34599 6.70449 4.39838 6.70449H4.38093C3.46896 6.70449 2.87952 6.07707 2.87952 5.2925C2.87952 4.49028 3.4868 3.87995 4.41634 3.87995H4.41636ZM12.4278 7.62953C14.2157 7.62953 15.556 8.79813 15.556 11.3094V15.9975H12.8389V11.6237C12.8389 10.5246 12.4456 9.77477 11.4623 9.77477C10.7116 9.77477 10.2642 10.2802 10.0677 10.7684C9.99596 10.9431 9.97832 11.187 9.97832 11.4314V15.9975H7.26117C7.26117 15.9975 7.29683 8.58843 7.26117 7.82127H9.97888V8.9791C10.34 8.422 10.9858 7.62951 12.4278 7.62951V7.62953ZM3.03979 7.82186H5.75695V15.9975H3.03979V7.82186Z" fill="white"/>
</svg>
