<svg width="32" height="30" viewBox="0 0 32 30" fill="none" xmlns="http://www.w3.org/2000/svg">
<path fill-rule="evenodd" clip-rule="evenodd" d="M24.5373 7.04125C23.4285 5.99486 22.1092 5.16515 20.6558 4.60019C19.2025 4.03523 17.644 3.74626 16.0707 3.75001C9.47333 3.75001 4.10267 8.78376 4.1 14.9713C4.1 16.9488 4.65067 18.8788 5.69733 20.5813L4 26.395L10.3453 24.8338C12.1005 25.7295 14.0669 26.1992 16.0653 26.2H16.0707C22.6667 26.2 28.0373 21.1663 28.04 14.9788C28.0445 13.5044 27.7373 12.0437 27.1361 10.6813C26.5349 9.31891 25.6516 8.08172 24.5373 7.04125ZM16.0707 24.3063H16.0667C14.2847 24.3064 12.5355 23.857 11.0027 23.005L10.64 22.8025L6.87467 23.7288L7.87867 20.2875L7.64267 19.935C6.64638 18.448 6.11898 16.7272 6.12133 14.9713C6.124 9.82876 10.5867 5.64501 16.0747 5.64501C17.3817 5.64228 18.6763 5.88261 19.8835 6.35207C21.0908 6.82153 22.1868 7.51081 23.108 8.38C24.0342 9.24506 24.7683 10.2736 25.2678 11.4063C25.7674 12.5389 26.0226 13.7531 26.0187 14.9788C26.016 20.1213 21.5533 24.3063 16.0707 24.3063ZM21.528 17.32C21.228 17.1788 19.7587 16.5013 19.484 16.4075C19.2107 16.3138 19.012 16.2675 18.812 16.5475C18.612 16.8275 18.0387 17.4588 17.864 17.6463C17.6893 17.8338 17.5147 17.8563 17.216 17.7163C16.9173 17.5763 15.9533 17.28 14.8107 16.325C13.9213 15.5813 13.3213 14.6638 13.1467 14.3825C12.972 14.1013 13.128 13.95 13.2787 13.81C13.4133 13.685 13.5773 13.4825 13.7267 13.3188C13.876 13.155 13.9253 13.0388 14.0253 12.8513C14.1253 12.6638 14.076 12.5 14 12.36C13.9253 12.2188 13.3267 10.8388 13.0773 10.2775C12.836 9.73375 12.5893 9.80625 12.4053 9.79876C12.2148 9.79145 12.0241 9.78811 11.8333 9.78875C11.6817 9.79238 11.5324 9.82534 11.395 9.88556C11.2576 9.94579 11.1349 10.032 11.0347 10.1388C10.76 10.42 9.988 11.0975 9.988 12.4775C9.988 13.8575 11.06 15.1913 11.2093 15.3788C11.3587 15.5663 13.3187 18.3975 16.3187 19.6125C17.0333 19.9013 17.5907 20.0738 18.024 20.2038C18.74 20.4175 19.392 20.3863 19.908 20.315C20.4827 20.235 21.6773 19.6375 21.9267 18.9825C22.176 18.3275 22.176 17.7663 22.1013 17.6488C22.0267 17.5313 21.8253 17.46 21.528 17.32Z" fill="white"/>
</svg>
