<svg width="625" height="340" viewBox="0 0 625 340" fill="none" xmlns="http://www.w3.org/2000/svg">
<g clip-path="url(#clip0)">
<path d="M141.49 295.646C141.37 309.318 140.369 322.967 138.492 336.509C138.427 336.985 138.355 337.46 138.289 337.936L10.2687 337.221C9.89281 336.748 9.52283 336.27 9.16437 335.787C7.96916 334.186 6.84896 332.54 5.82062 330.836C0.877928 322.632 -1.38488 313.026 0.882674 306.398L0.923277 306.295C1.41276 304.844 2.18407 303.503 3.19293 302.351C8.36291 296.531 18.8161 297.501 28.3022 302.199C19.7938 292.885 13.0189 281.132 12.5042 270.641C11.9994 260.408 17.3496 253.098 23.1526 246.886C23.343 246.68 23.5334 246.481 23.7238 246.281C23.8162 246.178 23.9141 246.081 24.0062 245.979C28.5338 241.244 33.8122 236.578 41.4522 237.142C49.8314 237.762 59.1213 244.781 65.6351 252.961C72.1489 261.134 76.4774 270.419 80.8649 279.481C85.258 288.537 90.011 297.824 97.0605 305.565C87.5124 293.487 79.8141 279.744 76.9703 266.379C74.1266 253.014 76.6293 240.177 85.1389 233.883C87.7223 232.03 90.7118 230.824 93.857 230.365C94.2241 230.304 94.597 230.254 94.9758 230.21C102.853 229.314 112.259 232.039 120.261 238.552C129.074 245.723 135.184 256.354 138.224 266.446C141.264 276.538 141.588 286.254 141.49 295.646Z" fill="#F2F2F2"/>
<path d="M57.7316 337.486L55.2836 337.472C54.5063 336.986 53.7254 336.506 52.9407 336.031C52.455 335.725 51.9636 335.429 51.472 335.129C43.352 330.169 35.1812 325.411 26.9596 320.856C18.7456 316.298 10.4902 311.949 2.19349 307.81C1.97357 307.714 1.79415 307.545 1.6864 307.33C1.57866 307.116 1.54939 306.871 1.60371 306.637C1.61259 306.606 1.62637 306.577 1.6445 306.551C1.76023 306.334 2.01886 306.244 2.39634 306.429C3.41399 306.94 4.43751 307.45 5.45509 307.972C13.7744 312.181 22.0581 316.601 30.306 321.231C38.5483 325.858 46.7436 330.691 54.8919 335.727C55.0632 335.831 55.2348 335.941 55.4061 336.045C56.1831 336.525 56.9546 337.006 57.7316 337.486Z" fill="white"/>
<path d="M89.2954 337.662L87.7817 337.654C87.4402 337.176 87.1047 336.698 86.7633 336.22C78.7417 324.971 70.7218 313.721 62.7036 302.471C49.5728 284.054 36.4459 265.637 23.323 247.219C23.2452 247.12 23.1873 247.007 23.1526 246.886C23.0404 246.478 23.3399 246.239 23.7238 246.281C23.8857 246.304 24.0407 246.362 24.1786 246.449C24.3165 246.537 24.4342 246.653 24.5236 246.79C31.8855 257.119 39.2454 267.443 46.6035 277.764C59.666 296.089 72.7265 314.413 85.7852 332.734C86.6159 333.897 87.4465 335.066 88.2771 336.229C88.6185 336.707 88.9599 337.184 89.2954 337.662Z" fill="white"/>
<path d="M123.019 328.871C122.942 331.422 122.773 333.933 122.553 336.42C122.51 336.896 122.467 337.372 122.424 337.847L120.836 337.839C120.885 337.363 120.933 336.887 120.976 336.411C121.311 332.818 121.55 329.184 121.582 325.451C121.624 315.102 120.616 304.775 118.572 294.629C116.4 283.705 113.28 272.991 109.25 262.608C105.019 251.658 99.9188 241.064 93.9972 230.927C93.8857 230.762 93.836 230.563 93.8571 230.365C93.9226 229.912 94.5253 229.778 94.9758 230.21C95.0648 230.295 95.1415 230.392 95.2035 230.498C95.9362 231.758 96.6555 233.022 97.3614 234.289C103.065 244.482 107.946 255.113 111.96 266.081C115.783 276.498 118.691 287.229 120.651 298.15C122.487 308.283 123.28 318.577 123.019 328.871V328.871Z" fill="white"/>
<path d="M566.501 263.35C566.501 257.21 543.392 252.232 514.885 252.232C486.379 252.232 463.269 257.21 463.269 263.35C463.269 267.286 472.77 270.741 487.092 272.717V333.633C487.092 335.002 487.636 336.315 488.604 337.283C489.572 338.251 490.885 338.795 492.254 338.795C493.623 338.795 494.935 338.251 495.903 337.283C496.871 336.315 497.415 335.002 497.415 333.633V273.814C502.872 274.237 508.752 274.468 514.885 274.468C521.018 274.468 526.898 274.237 532.355 273.814V333.633C532.355 335.002 532.899 336.315 533.867 337.283C534.835 338.251 536.148 338.795 537.517 338.795C538.886 338.795 540.198 338.251 541.166 337.283C542.134 336.315 542.678 335.002 542.678 333.633V272.717C557 270.741 566.501 267.286 566.501 263.35Z" fill="#CCCCCC"/>
<path d="M520.593 161.585C532.872 161.585 542.827 151.63 542.827 139.349C542.827 127.068 532.872 117.112 520.593 117.112C508.313 117.112 498.358 127.068 498.358 139.349C498.358 151.63 508.313 161.585 520.593 161.585Z" fill="#2F2E41"/>
<path d="M465.26 329.602H455.524L450.893 292.048H465.262L465.26 329.602Z" fill="#A0616A"/>
<path d="M448.571 326.819H467.346V338.642H436.749C436.749 337.089 437.055 335.552 437.649 334.118C438.243 332.683 439.114 331.38 440.212 330.282C441.31 329.184 442.613 328.313 444.047 327.719C445.481 327.125 447.018 326.819 448.571 326.819V326.819Z" fill="#2F2E41"/>
<path d="M450.064 324.168L440.774 321.253L447.597 284.035L461.306 288.336L450.064 324.168Z" fill="#A0616A"/>
<path d="M434.972 316.516L452.886 322.138L449.347 333.418L420.154 324.256C420.619 322.775 421.371 321.4 422.367 320.209C423.363 319.018 424.584 318.036 425.96 317.317C427.336 316.598 428.84 316.157 430.387 316.02C431.933 315.883 433.491 316.051 434.972 316.516Z" fill="#2F2E41"/>
<path d="M453.23 309.184C452.804 309.184 452.381 309.107 451.982 308.957L444.82 306.271C444.016 305.967 443.348 305.384 442.938 304.628C442.528 303.872 442.403 302.995 442.585 302.155C444.389 294.046 450.534 266.441 453.899 251.634C457.89 234.071 516.11 230.808 518.586 230.677L518.79 230.667L525.339 238.897C527.706 246.505 526.956 252.438 523.11 256.534C511.887 268.484 478.381 261.069 474.385 260.13L456.576 306.883C456.317 307.56 455.858 308.142 455.261 308.553C454.663 308.964 453.955 309.184 453.23 309.184V309.184Z" fill="#2F2E41"/>
<path d="M463.554 314.743C463.127 314.743 462.704 314.666 462.305 314.516L455.143 311.83C454.339 311.526 453.671 310.943 453.261 310.187C452.851 309.432 452.726 308.554 452.909 307.714C454.712 299.605 460.857 272 464.222 257.193C468.213 239.63 526.433 236.367 528.91 236.237L529.113 236.226L535.662 244.456C538.029 252.064 537.279 257.997 533.433 262.093C522.211 274.042 488.704 266.628 484.709 265.689L466.899 312.442C466.64 313.119 466.181 313.701 465.584 314.112C464.986 314.523 464.279 314.743 463.554 314.743V314.743Z" fill="#2F2E41"/>
<path d="M442.832 200.369C443.095 200.721 443.33 201.093 443.535 201.482L482.699 205.609L488.337 197.878L501.115 204.862L490.041 223.621L442.009 211.373C440.797 212.555 439.254 213.34 437.586 213.623C435.917 213.906 434.202 213.675 432.668 212.959C431.134 212.244 429.855 211.079 428.999 209.618C428.144 208.158 427.753 206.471 427.879 204.784C428.006 203.096 428.643 201.486 429.706 200.169C430.769 198.852 432.208 197.89 433.831 197.411C435.454 196.932 437.185 196.958 438.793 197.486C440.4 198.015 441.809 199.02 442.832 200.369L442.832 200.369Z" fill="#A0616A"/>
<path d="M533.845 247.607C533.279 247.605 532.721 247.469 532.217 247.209C524.386 243.226 509.136 236.33 494.995 234.886C494.511 234.839 494.042 234.691 493.619 234.451C493.196 234.212 492.827 233.887 492.537 233.496C492.241 233.102 492.029 232.651 491.915 232.171C491.801 231.692 491.788 231.194 491.875 230.708C493.151 223.644 496.078 205.655 495.701 191.238C495.59 186.805 496.99 182.466 499.672 178.935C502.354 175.403 506.157 172.89 510.457 171.807V171.807C513.045 171.124 515.674 170.606 518.328 170.255C521.379 169.869 524.477 170.202 527.376 171.229C530.274 172.255 532.892 173.946 535.019 176.167C537.147 178.387 538.725 181.075 539.626 184.015C540.528 186.954 540.729 190.065 540.213 193.096C537.691 208.037 535.149 228.905 537.358 243.472C537.46 244.124 537.379 244.793 537.124 245.402C536.869 246.012 536.45 246.539 535.914 246.925C535.314 247.366 534.589 247.604 533.845 247.607Z" fill="#4B8343"/>
<path d="M496.426 209.605C495.938 209.604 495.455 209.504 495.007 209.309L484.805 204.892C483.936 204.515 483.252 203.808 482.903 202.927C482.555 202.046 482.57 201.063 482.945 200.193L490.831 181.973C491.307 180.872 491.996 179.875 492.857 179.04C493.718 178.205 494.735 177.547 495.851 177.105C496.966 176.664 498.157 176.446 499.357 176.465C500.556 176.483 501.74 176.738 502.841 177.215C503.942 177.691 504.939 178.38 505.773 179.242C506.608 180.104 507.265 181.122 507.706 182.237C508.147 183.353 508.364 184.545 508.345 185.744C508.325 186.944 508.07 188.128 507.592 189.229L499.706 207.448C499.429 208.088 498.97 208.633 498.388 209.016C497.805 209.399 497.123 209.604 496.426 209.605V209.605Z" fill="#4B8343"/>
<path d="M519.78 164.057C530.551 164.057 539.283 155.324 539.283 144.551C539.283 133.779 530.551 125.046 519.78 125.046C509.008 125.046 500.276 133.779 500.276 144.551C500.276 155.324 509.008 164.057 519.78 164.057Z" fill="#A0616A"/>
<path d="M499.925 134.968C509.163 140.608 519.578 144.04 530.359 144.997L527.151 141.153C529.487 142.017 531.945 142.505 534.434 142.599C536.919 142.56 539.524 141.603 540.934 139.556C541.564 138.539 541.937 137.384 542.024 136.19C542.11 134.997 541.907 133.801 541.431 132.703C540.453 130.513 538.932 128.611 537.011 127.175C533.606 124.482 529.588 122.673 525.314 121.909C521.041 121.145 516.644 121.45 512.518 122.798C509.687 123.644 507.151 125.27 505.202 127.491C503.353 129.772 499.794 131.804 500.74 134.584L499.925 134.968Z" fill="#2F2E41"/>
<path d="M523.059 119.227C516.908 112.989 509.464 108.175 501.251 105.124C495.979 103.171 490.241 101.964 484.73 103.073C479.219 104.182 474.007 107.995 472.469 113.403C471.212 117.826 472.51 122.587 474.461 126.75C476.412 130.912 479.017 134.773 480.595 139.091C482.205 143.497 482.689 148.235 482.004 152.876C481.318 157.516 479.485 161.912 476.669 165.664C473.854 169.416 470.146 172.406 465.883 174.361C461.619 176.317 456.935 177.177 452.255 176.862C457.67 177.589 462.662 180.134 467.955 181.488C473.248 182.843 479.495 182.751 483.428 178.959C487.59 174.946 487.673 168.423 487.472 162.645C487.173 154.056 486.874 145.467 486.575 136.878C486.422 132.498 486.292 127.978 487.872 123.89C489.451 119.801 493.205 116.222 497.587 116.259C500.908 116.287 503.848 118.299 506.512 120.283C509.175 122.268 511.994 124.385 515.303 124.68C518.611 124.975 522.388 122.527 522.141 119.215" fill="#2F2E41"/>
<path d="M486.989 242.596C485.697 242.595 484.421 242.307 483.253 241.753C482.086 241.199 481.056 240.393 480.237 239.392C479.419 238.392 478.832 237.223 478.52 235.969C478.207 234.715 478.177 233.407 478.431 232.14C478.685 230.872 479.217 229.677 479.989 228.64C480.76 227.603 481.752 226.75 482.893 226.143C484.033 225.536 485.295 225.189 486.585 225.128C487.876 225.066 489.165 225.292 490.358 225.789H490.358C490.717 225.941 491.065 226.117 491.399 226.317L526.928 210.365L527.926 200.728L543.24 200.318L543.139 216.362C543.12 218.22 542.503 220.023 541.378 221.503C540.253 222.982 538.682 224.06 536.896 224.575L495.348 236.403C495.267 236.677 495.172 236.947 495.063 237.212C494.396 238.804 493.275 240.165 491.839 241.123C490.402 242.08 488.716 242.593 486.989 242.596V242.596Z" fill="#A0616A"/>
<path d="M541.943 208.183C541.508 208.403 541.032 208.532 540.544 208.561L529.448 209.244C528.502 209.3 527.573 208.98 526.863 208.352C526.153 207.725 525.721 206.842 525.662 205.896L524.444 186.08C524.368 184.882 524.53 183.68 524.919 182.544C525.308 181.408 525.917 180.361 526.711 179.46C527.506 178.56 528.47 177.826 529.548 177.298C530.627 176.771 531.799 176.462 532.997 176.388C534.195 176.314 535.396 176.478 536.531 176.869C537.666 177.26 538.713 177.871 539.612 178.667C540.511 179.463 541.244 180.428 541.769 181.508C542.294 182.587 542.602 183.76 542.673 184.958L543.891 204.774C543.934 205.471 543.772 206.164 543.426 206.769C543.08 207.375 542.565 207.866 541.943 208.183L541.943 208.183Z" fill="#4B8343"/>
<path d="M517.827 244.6H455.094C454.357 244.6 453.65 244.307 453.129 243.786C452.608 243.265 452.315 242.558 452.315 241.82C452.315 241.083 452.608 240.376 453.129 239.855C453.65 239.334 454.357 239.041 455.094 239.041H517.827C518.564 239.041 519.271 239.334 519.792 239.855C520.313 240.376 520.606 241.083 520.606 241.82V241.82C520.606 242.558 520.313 243.265 519.792 243.786C519.271 244.307 518.564 244.6 517.827 244.6V244.6Z" fill="#3F3D56"/>
<path d="M427.698 239.438V200.524C427.7 199.156 428.244 197.844 429.212 196.876C430.179 195.908 431.491 195.364 432.86 195.362H503.533C504.902 195.364 506.214 195.908 507.181 196.876C508.149 197.844 508.693 199.156 508.695 200.524V239.438C508.693 240.806 508.149 242.119 507.181 243.086C506.214 244.054 504.902 244.598 503.533 244.6H432.86C431.491 244.598 430.179 244.054 429.212 243.086C428.244 242.119 427.7 240.806 427.698 239.438V239.438Z" fill="#3F3D56"/>
<path d="M468.197 224.746C470.828 224.746 472.961 222.613 472.961 219.981C472.961 217.35 470.828 215.216 468.197 215.216C465.565 215.216 463.432 217.35 463.432 219.981C463.432 222.613 465.565 224.746 468.197 224.746Z" fill="white"/>
<path d="M219.788 174.188C219.145 173.214 218.296 172.393 217.301 171.782C216.305 171.172 215.189 170.787 214.029 170.655C212.869 170.523 211.694 170.647 210.587 171.018C209.48 171.389 208.468 171.998 207.623 172.803L182.407 159.786L183.974 174.45L207.679 184.563C209.125 185.894 211.009 186.649 212.974 186.684C214.939 186.72 216.849 186.033 218.341 184.754C219.834 183.475 220.806 181.693 221.072 179.746C221.339 177.798 220.882 175.821 219.788 174.188H219.788Z" fill="#FFB8B8"/>
<path d="M197.379 180.09C196.923 180.299 196.427 180.41 195.925 180.416C195.423 180.421 194.926 180.321 194.465 180.121L170.514 169.73C162.324 166.179 155.704 159.773 151.883 151.705L139.291 125.124C138.362 123.93 137.677 122.564 137.276 121.105C136.875 119.647 136.765 118.123 136.953 116.622C137.141 115.12 137.623 113.671 138.372 112.356C139.12 111.041 140.121 109.887 141.316 108.959C142.511 108.031 143.877 107.348 145.336 106.948C146.795 106.549 148.319 106.441 149.82 106.631C151.321 106.821 152.769 107.305 154.083 108.055C155.397 108.805 156.55 109.807 157.476 111.003L179.61 152.072L200.047 167.511C200.632 167.955 201.067 168.568 201.292 169.267C201.517 169.966 201.523 170.718 201.307 171.42L199.301 177.899C199.086 178.594 198.664 179.207 198.091 179.656C197.872 179.828 197.633 179.974 197.379 180.09V180.09Z" fill="#DABB4F"/>
<path d="M138.737 93.8628C149.509 93.8628 158.241 85.13 158.241 74.3575C158.241 63.585 149.509 54.8522 138.737 54.8522C127.965 54.8522 119.233 63.585 119.233 74.3575C119.233 85.13 127.965 93.8628 138.737 93.8628Z" fill="#FFB8B8"/>
<path d="M146.637 330.231H156.372L161.004 292.677H146.635L146.637 330.231Z" fill="#FFB8B8"/>
<path d="M175.148 339.271L144.551 339.272L144.55 327.45L163.326 327.449C166.461 327.449 169.468 328.694 171.685 330.911C173.902 333.128 175.148 336.135 175.148 339.271V339.271L175.148 339.271Z" fill="#2F2E41"/>
<path d="M114.874 330.231H124.608L129.24 292.677H114.871L114.874 330.231Z" fill="#FFB8B8"/>
<path d="M143.384 339.271L112.787 339.272L112.787 327.45L131.562 327.449C134.697 327.449 137.704 328.694 139.921 330.911C142.139 333.128 143.384 336.135 143.384 339.271V339.271L143.384 339.271Z" fill="#2F2E41"/>
<path d="M111.474 319.482C111.139 319.099 110.889 318.649 110.742 318.161C110.594 317.674 110.553 317.161 110.62 316.656L127.665 188.809L170.013 196.001L174.532 193.289L162.845 314.592C162.748 315.41 162.371 316.171 161.779 316.744C161.186 317.318 160.414 317.669 159.592 317.739L146.77 318.808C146.26 318.851 145.747 318.783 145.265 318.611C144.784 318.438 144.345 318.164 143.979 317.807C143.612 317.45 143.327 317.018 143.142 316.541C142.957 316.064 142.876 315.553 142.905 315.042L146.225 257.274C146.231 257.175 146.2 257.079 146.139 257.002C146.077 256.925 145.99 256.874 145.893 256.858C145.796 256.842 145.696 256.863 145.614 256.916C145.531 256.969 145.471 257.051 145.445 257.146L129.021 318.058C128.816 318.816 128.367 319.486 127.743 319.964C127.12 320.442 126.357 320.701 125.571 320.702H114.162C113.653 320.702 113.15 320.593 112.686 320.383C112.223 320.172 111.809 319.865 111.474 319.482Z" fill="#2F2E41"/>
<path d="M140.801 197.758C140.315 197.318 139.691 197.062 139.035 197.034C138.38 197.007 137.736 197.21 137.215 197.608L128.749 204.194C128.288 204.553 127.746 204.794 127.171 204.895C126.595 204.996 126.004 204.955 125.448 204.774C124.892 204.593 124.39 204.278 123.984 203.858C123.578 203.437 123.282 202.924 123.121 202.362C118.968 187.817 109.559 151.204 111.877 125.435C113.191 110.829 125.803 99.7276 139.992 100.659C149.692 101.306 156.074 106.902 158.959 117.292C166.045 142.802 173.831 189.595 175.32 198.717C175.438 199.425 175.338 200.151 175.036 200.802C174.733 201.452 174.241 201.996 173.623 202.361C169.618 204.766 165.041 206.054 160.369 206.092C154.715 206.092 147.937 204.123 140.801 197.758Z" fill="#DABB4F"/>
<path d="M143.996 206.832C144.091 205.669 143.929 204.498 143.523 203.404C143.117 202.309 142.475 201.317 141.644 200.498C140.813 199.678 139.812 199.05 138.712 198.659C137.612 198.268 136.44 198.123 135.278 198.234L123.468 172.429L115.653 184.935L128.066 207.522C128.382 209.462 129.398 211.219 130.923 212.46C132.447 213.7 134.374 214.339 136.338 214.253C138.301 214.168 140.165 213.366 141.577 211.998C142.988 210.63 143.849 208.792 143.996 206.832H143.996Z" fill="#FFB8B8"/>
<path d="M122.721 197.646C122.232 197.529 121.774 197.311 121.376 197.005C120.978 196.7 120.648 196.314 120.409 195.872L107.974 172.914C103.722 165.065 102.465 155.938 104.437 147.232L110.931 118.545C110.937 117.032 111.241 115.535 111.826 114.14C112.411 112.744 113.265 111.478 114.339 110.413C115.413 109.348 116.687 108.505 118.087 107.933C119.487 107.36 120.986 107.07 122.499 107.077C124.012 107.084 125.508 107.39 126.903 107.976C128.297 108.562 129.563 109.417 130.626 110.493C131.69 111.568 132.532 112.843 133.103 114.244C133.674 115.645 133.963 117.144 133.954 118.657L126.028 164.633L132.582 189.395C132.769 190.105 132.732 190.856 132.478 191.545C132.224 192.234 131.765 192.828 131.162 193.248L125.585 197.109C124.987 197.522 124.277 197.744 123.549 197.744C123.27 197.744 122.992 197.711 122.721 197.646V197.646Z" fill="#DABB4F"/>
<path opacity="0.2" d="M132.372 138.046L125.225 168.224L135.548 193.637L128.402 169.019L132.372 138.046Z" fill="black"/>
<path d="M127.607 90.3969C125.872 90.4291 124.148 90.1172 122.535 89.4791C121.825 89.2055 121.088 88.9805 120.379 88.7067C114.12 86.2884 109.997 79.6223 109.85 72.9138C109.702 66.2052 113.176 59.6939 118.334 55.4028C123.493 51.1117 130.174 48.9086 136.864 48.3991C144.071 47.8504 152.185 49.6781 156.212 55.6802C157.284 57.2778 158.034 59.2162 157.399 61.1452C157.209 61.7273 156.869 62.2493 156.413 62.6588C154.615 64.2589 152.822 63.0558 150.989 62.9495C148.469 62.8034 146.206 64.8432 145.392 67.2328C144.579 69.6224 144.937 72.2531 145.594 74.6905C146.094 76.1571 146.41 77.6804 146.533 79.2252C146.586 79.9997 146.44 80.775 146.11 81.4776C145.779 82.1801 145.275 82.7865 144.644 83.2394C143.069 84.1912 141.002 83.6403 139.426 82.69C137.851 81.7397 136.489 80.4184 134.787 79.719C133.086 79.0197 130.799 79.1748 129.809 80.7255C129.494 81.2897 129.281 81.9049 129.179 82.543C128.291 86.5891 128.495 86.3508 127.607 90.3969L127.607 90.3969Z" fill="#2F2E41"/>
<path d="M296.709 156.59C296.386 156.181 296.16 155.703 296.049 155.193C295.938 154.683 295.944 154.155 296.068 153.648C299.03 141.241 299.03 128.312 296.068 115.906C295.944 115.399 295.938 114.87 296.049 114.36C296.16 113.85 296.386 113.372 296.709 112.963C297.026 112.559 297.431 112.233 297.892 112.01C298.354 111.786 298.861 111.67 299.374 111.672H331.036C331.845 111.674 332.627 111.962 333.243 112.487C333.86 113.011 334.27 113.737 334.401 114.536C336.466 127.951 336.466 141.603 334.401 155.018C334.27 155.816 333.86 156.542 333.243 157.067C332.627 157.591 331.845 157.88 331.036 157.881H299.374C298.861 157.883 298.354 157.768 297.892 157.544C297.431 157.32 297.026 156.994 296.709 156.59V156.59Z" fill="#E6E6E6"/>
<path d="M247.729 44.9179C247.406 44.5086 247.18 44.0308 247.069 43.521C246.958 43.0111 246.964 42.4827 247.088 41.9759C250.05 29.5694 250.05 16.64 247.088 4.2335C246.964 3.72667 246.958 3.19822 247.069 2.6884C247.18 2.17858 247.406 1.70082 247.729 1.2915C248.046 0.887701 248.45 0.561487 248.912 0.337681C249.374 0.113875 249.881 -0.00161076 250.394 1.69706e-05H282.056C282.865 0.00164773 283.647 0.290333 284.263 0.8147C284.879 1.33907 285.289 2.06508 285.421 2.8635C287.486 16.2786 287.486 29.9308 285.421 43.3459C285.289 44.1443 284.879 44.8703 284.263 45.3947C283.647 45.919 282.865 46.2077 282.056 46.2094H250.394C249.881 46.211 249.374 46.0955 248.912 45.8717C248.45 45.6479 248.046 45.3217 247.729 44.9179Z" fill="#E6E6E6"/>
<path d="M325.639 82.2732C323.573 68.8582 323.573 55.206 325.639 41.7909C325.769 40.9924 326.179 40.2664 326.796 39.742C327.412 39.2176 328.194 38.9289 329.003 38.9274H360.665C361.178 38.9258 361.685 39.0412 362.147 39.265C362.608 39.4888 363.013 39.8151 363.33 40.2189C363.653 40.6282 363.879 41.1059 363.99 41.6158C364.101 42.1256 364.095 42.654 363.971 43.1609C361.009 55.5673 361.009 68.4968 363.971 80.9032C364.095 81.4101 364.101 81.9385 363.99 82.4483C363.879 82.9582 363.653 83.4359 363.33 83.8452C363.013 84.249 362.608 84.5752 362.147 84.7991C361.685 85.0229 361.178 85.1384 360.665 85.1367H329.003C328.194 85.1352 327.412 84.8465 326.796 84.3221C326.179 83.7978 325.769 83.0717 325.639 82.2732V82.2732Z" fill="#4B8343"/>
<path d="M193.087 80.8597C191.022 67.4446 191.022 53.7924 193.087 40.3773C193.218 39.5789 193.628 38.8529 194.244 38.3286C194.86 37.8042 195.643 37.5155 196.452 37.5139H228.114C228.627 37.5122 229.134 37.6277 229.595 37.8515C230.057 38.0753 230.462 38.4015 230.778 38.8053C231.102 39.2147 231.328 39.6924 231.439 40.2022C231.55 40.7121 231.543 41.2405 231.419 41.7474C228.458 54.1538 228.458 67.0833 231.419 79.4897C231.543 79.9966 231.55 80.525 231.439 81.0348C231.328 81.5447 231.102 82.0224 230.778 82.4317C230.462 82.8355 230.057 83.1617 229.595 83.3856C229.134 83.6094 228.627 83.7248 228.114 83.7232H196.452C195.643 83.7216 194.86 83.4329 194.244 82.9085C193.628 82.3842 193.218 81.6582 193.087 80.8597Z" fill="#DABB4F"/>
<path d="M200.918 174.309C200.589 173.893 200.36 173.408 200.247 172.889C200.134 172.371 200.141 171.834 200.267 171.319C203.277 158.708 203.277 145.566 200.266 132.956C200.14 132.441 200.134 131.904 200.247 131.386C200.36 130.867 200.589 130.382 200.918 129.965C201.24 129.555 201.651 129.224 202.121 128.996C202.59 128.769 203.105 128.652 203.626 128.653H235.809C236.631 128.655 237.426 128.948 238.052 129.481C238.679 130.014 239.095 130.752 239.228 131.564C241.328 145.199 241.328 159.076 239.228 172.711C239.095 173.523 238.679 174.261 238.052 174.794C237.426 175.327 236.631 175.62 235.809 175.622H203.626C203.105 175.623 202.59 175.506 202.121 175.279C201.651 175.051 201.24 174.72 200.918 174.309V174.309Z" fill="#4B8343"/>
<path d="M9.99116 340H624.054C624.305 340 624.546 339.9 624.723 339.723C624.9 339.546 625 339.305 625 339.054C625 338.804 624.9 338.563 624.723 338.386C624.546 338.208 624.305 338.109 624.054 338.109H9.99116C9.86676 338.108 9.74352 338.133 9.62849 338.18C9.51346 338.227 9.40891 338.297 9.32082 338.385C9.23273 338.473 9.16284 338.577 9.11515 338.692C9.06746 338.807 9.04291 338.93 9.04291 339.054C9.04291 339.179 9.06746 339.302 9.11515 339.417C9.16284 339.532 9.23273 339.636 9.32082 339.724C9.40891 339.812 9.51346 339.881 9.62849 339.929C9.74352 339.976 9.86676 340 9.99116 340V340Z" fill="#3F3D56"/>
<path d="M229.598 145.983H212.645C212.013 145.982 211.408 145.731 210.961 145.285C210.515 144.838 210.264 144.232 210.263 143.601V142.589C210.264 141.957 210.515 141.352 210.961 140.905C211.408 140.458 212.013 140.207 212.645 140.206H229.598C230.23 140.207 230.835 140.458 231.282 140.905C231.729 141.352 231.98 141.957 231.981 142.589V143.601C231.98 144.232 231.729 144.838 231.282 145.285C230.835 145.731 230.23 145.982 229.598 145.983V145.983Z" fill="white"/>
<path d="M229.598 155.948H212.645C212.013 155.947 211.408 155.696 210.961 155.249C210.515 154.802 210.264 154.197 210.263 153.565V152.553C210.264 151.922 210.515 151.316 210.961 150.87C211.408 150.423 212.013 150.172 212.645 150.171H229.598C230.23 150.172 230.835 150.423 231.282 150.87C231.729 151.316 231.98 151.922 231.981 152.553V153.565C231.98 154.197 231.729 154.802 231.282 155.249C230.835 155.696 230.23 155.947 229.598 155.948V155.948Z" fill="white"/>
<path d="M218.37 57.111H201.755C201.124 57.1103 200.518 56.859 200.071 56.4124C199.625 55.9657 199.374 55.3601 199.373 54.7285V53.7978C199.374 53.1662 199.625 52.5606 200.071 52.1139C200.518 51.6673 201.124 51.4161 201.755 51.4154H218.37C219.002 51.4161 219.608 51.6673 220.054 52.1139C220.501 52.5606 220.752 53.1662 220.753 53.7978V54.7285C220.752 55.3601 220.501 55.9657 220.054 56.4124C219.608 56.859 219.002 57.1103 218.37 57.111V57.111Z" fill="white"/>
<path d="M324.524 127.099H307.909C307.277 127.099 306.671 126.847 306.225 126.401C305.778 125.954 305.527 125.349 305.526 124.717V123.786C305.527 123.154 305.778 122.549 306.225 122.102C306.671 121.655 307.277 121.404 307.909 121.403H324.524C325.155 121.404 325.761 121.655 326.207 122.102C326.654 122.549 326.905 123.154 326.906 123.786V124.717C326.905 125.349 326.654 125.954 326.207 126.401C325.761 126.847 325.155 127.099 324.524 127.099Z" fill="white"/>
<path d="M324.524 138.864H307.909C307.277 138.863 306.671 138.612 306.225 138.165C305.778 137.718 305.527 137.113 305.526 136.481V135.55C305.527 134.918 305.778 134.313 306.225 133.866C306.671 133.42 307.277 133.168 307.909 133.168H324.524C325.155 133.168 325.761 133.42 326.207 133.866C326.654 134.313 326.905 134.918 326.906 135.55V136.481C326.905 137.113 326.654 137.718 326.207 138.165C325.761 138.612 325.155 138.863 324.524 138.864Z" fill="white"/>
<path d="M324.524 150.628H307.909C307.277 150.627 306.671 150.376 306.225 149.929C305.778 149.483 305.527 148.877 305.526 148.245V147.314C305.527 146.683 305.778 146.077 306.225 145.63C306.671 145.184 307.277 144.933 307.909 144.932H324.524C325.155 144.933 325.761 145.184 326.207 145.63C326.654 146.077 326.905 146.683 326.906 147.314V148.245C326.905 148.877 326.654 149.483 326.207 149.929C325.761 150.376 325.155 150.627 324.524 150.628V150.628Z" fill="white"/>
<path d="M218.37 66.9146H201.755C201.124 66.9139 200.518 66.6627 200.071 66.216C199.625 65.7694 199.374 65.1638 199.373 64.5321V63.6011C199.374 62.9694 199.625 62.3639 200.071 61.9172C200.518 61.4705 201.124 61.2193 201.755 61.2186H218.37C219.002 61.2193 219.608 61.4705 220.054 61.9172C220.501 62.3639 220.752 62.9694 220.753 63.6011V64.5321C220.752 65.1638 220.501 65.7694 220.054 66.216C219.608 66.6627 219.002 66.9139 218.37 66.9146Z" fill="white"/>
<path d="M275.685 17.3881H259.07C258.439 17.3874 257.833 17.1361 257.387 16.6895C256.94 16.2428 256.689 15.6372 256.688 15.0056V14.0745C256.689 13.4429 256.94 12.8373 257.387 12.3906C257.833 11.944 258.439 11.6928 259.07 11.6921H275.685C276.317 11.6928 276.922 11.944 277.369 12.3906C277.816 12.8373 278.067 13.4429 278.068 14.0745V15.0056C278.067 15.6372 277.816 16.2428 277.369 16.6895C276.922 17.1361 276.317 17.3874 275.685 17.3881V17.3881Z" fill="white"/>
<path d="M351.5 59.5051H334.885C334.253 59.5044 333.648 59.2531 333.201 58.8065C332.754 58.3598 332.503 57.7542 332.503 57.1226V56.1915C332.503 55.5599 332.754 54.9543 333.201 54.5077C333.648 54.061 334.253 53.8098 334.885 53.8091H351.5C352.132 53.8098 352.737 54.061 353.184 54.5077C353.63 54.9543 353.881 55.5599 353.882 56.1915V57.1226C353.881 57.7542 353.63 58.3598 353.184 58.8065C352.737 59.2531 352.132 59.5044 351.5 59.5051Z" fill="white"/>
</g>
<defs>
<clipPath id="clip0">
<rect width="625" height="340" fill="white"/>
</clipPath>
</defs>
</svg>
