<svg width="500" height="336" viewBox="0 0 500 336" fill="none" xmlns="http://www.w3.org/2000/svg">
<g clip-path="url(#clip0)">
<path d="M500 290.4H0V290.65H500V290.4Z" fill="#EBEBEB"/>
<path d="M449.9 306.49H416.78V306.74H449.9V306.49Z" fill="#EBEBEB"/>
<path d="M331.22 309.21H322.53V309.46H331.22V309.21Z" fill="#EBEBEB"/>
<path d="M415.78 297.21H396.59V297.46H415.78V297.21Z" fill="#EBEBEB"/>
<path d="M95.65 298.89H52.46V299.14H95.65V298.89Z" fill="#EBEBEB"/>
<path d="M110.89 298.89H104.56V299.14H110.89V298.89Z" fill="#EBEBEB"/>
<path d="M225.15 303.11H131.47V303.36H225.15V303.11Z" fill="#EBEBEB"/>
<path d="M429.08 17.7H269.76C268.589 17.7 267.64 18.6492 267.64 19.82V22.09C267.64 23.2608 268.589 24.21 269.76 24.21H429.08C430.251 24.21 431.2 23.2608 431.2 22.09V19.82C431.2 18.6492 430.251 17.7 429.08 17.7Z" fill="#E0E0E0"/>
<path d="M421.49 22.88H277.36V150.78H421.49V22.88Z" fill="#E6E6E6"/>
<path d="M417.7 26.39H280.97V147.34H417.7V26.39Z" fill="#F0F0F0"/>
<path d="M313.06 26.39L280.97 147.08V90.37L297.91 26.39H313.06Z" fill="white"/>
<path d="M324.42 26.39L292.05 147.34H286.89L319.26 26.39H324.42Z" fill="white"/>
<path d="M417.7 102.71V122.04L411.15 147.34H405.98L417.7 102.71Z" fill="white"/>
<path d="M328.65 24.22H326.35V150.05H328.65V24.22Z" fill="#E6E6E6"/>
<path d="M373.29 24.22H370.99V150.05H373.29V24.22Z" fill="#E6E6E6"/>
<path d="M397 19.78C397 19.78 400.32 63.06 419.39 85.11C419.39 85.11 405.5 140.8 405.51 160.21L431.32 155.45L422.02 85.45L426.47 19.8L397 19.78Z" fill="#E0E0E0"/>
<path d="M300.85 19.78C300.85 19.78 297.54 63.06 278.46 85.11C278.46 85.11 292.35 140.8 292.34 160.21L266.53 155.45L275.84 85.45L271.39 19.8L300.85 19.78Z" fill="#E0E0E0"/>
<path d="M240.37 69.33H90.16V289.56H240.37V69.33Z" fill="#F0F0F0"/>
<path d="M235.06 76.26H95.47V116.93H235.06V76.26Z" fill="#E0E0E0"/>
<path d="M103.4 82.85H95.47V116.94H103.4V82.85Z" fill="#EBEBEB"/>
<path d="M141.74 82.85H133.81V116.94H141.74V82.85Z" fill="#EBEBEB"/>
<path d="M185.273 81.9931L177.458 83.3401L183.249 116.935L191.063 115.588L185.273 81.9931Z" fill="#EBEBEB"/>
<path d="M113.22 87.34H105.29V116.94H113.22V87.34Z" fill="#EBEBEB"/>
<path d="M131.45 87.34H123.52V116.94H131.45V87.34Z" fill="#EBEBEB"/>
<path d="M177.46 87.34H169.53V116.94H177.46V87.34Z" fill="#EBEBEB"/>
<path d="M152.165 86.3136L144.424 88.034L150.845 116.929L158.586 115.209L152.165 86.3136Z" fill="#EBEBEB"/>
<path d="M120.08 81.15H116.12V116.93H120.08V81.15Z" fill="#EBEBEB"/>
<path d="M167.24 81.15H163.28V116.93H167.24V81.15Z" fill="#EBEBEB"/>
<path d="M95.47 164.05L235.06 164.05V123.38L95.47 123.38V164.05Z" fill="#E0E0E0"/>
<path d="M227.13 164.05H235.06V129.96H227.13V164.05Z" fill="#EBEBEB"/>
<path d="M188.78 164.05H196.71V129.96H188.78V164.05Z" fill="#EBEBEB"/>
<path d="M139.475 162.699L147.29 164.046L153.081 130.451L145.266 129.104L139.475 162.699Z" fill="#EBEBEB"/>
<path d="M217.31 164.05H225.24V134.45H217.31V164.05Z" fill="#EBEBEB"/>
<path d="M199.07 164.05H207V134.45H199.07V164.05Z" fill="#EBEBEB"/>
<path d="M153.07 164.05H161V134.45H153.07V164.05Z" fill="#EBEBEB"/>
<path d="M171.969 162.32L179.71 164.04L186.131 135.145L178.39 133.425L171.969 162.32Z" fill="#EBEBEB"/>
<path d="M210.45 164.05H214.41V128.27H210.45V164.05Z" fill="#EBEBEB"/>
<path d="M163.29 164.05H167.25V128.27H163.29V164.05Z" fill="#EBEBEB"/>
<path d="M103.4 129.96H95.47V164.05H103.4V129.96Z" fill="#EBEBEB"/>
<path d="M113.22 134.45H105.29V164.05H113.22V134.45Z" fill="#EBEBEB"/>
<path d="M131.45 134.45H123.52V164.05H131.45V134.45Z" fill="#EBEBEB"/>
<path d="M120.08 128.27H116.12V164.05H120.08V128.27Z" fill="#EBEBEB"/>
<path d="M235.06 170.49H95.47V211.16H235.06V170.49Z" fill="#E0E0E0"/>
<path d="M183.52 177.08H175.59V211.17H183.52V177.08Z" fill="#EBEBEB"/>
<path d="M227.052 176.217L219.237 177.564L225.028 211.158L232.843 209.811L227.052 176.217Z" fill="#EBEBEB"/>
<path d="M155 181.57H147.07V211.17H155V181.57Z" fill="#EBEBEB"/>
<path d="M173.23 181.57H165.3V211.17H173.23V181.57Z" fill="#EBEBEB"/>
<path d="M219.23 181.57H211.3V211.17H219.23V181.57Z" fill="#EBEBEB"/>
<path d="M193.943 180.545L186.202 182.265L192.623 211.16L200.365 209.44L193.943 180.545Z" fill="#EBEBEB"/>
<path d="M161.85 175.38H157.89V211.16H161.85V175.38Z" fill="#EBEBEB"/>
<path d="M209.02 175.38H205.06V211.16H209.02V175.38Z" fill="#EBEBEB"/>
<path d="M135.828 176.224L128.013 177.571L133.804 211.165L141.618 209.818L135.828 176.224Z" fill="#EBEBEB"/>
<path d="M128 181.57H120.07V211.17H128V181.57Z" fill="#EBEBEB"/>
<path d="M102.716 180.547L94.9746 182.268L101.396 211.163L109.137 209.442L102.716 180.547Z" fill="#EBEBEB"/>
<path d="M117.79 175.38H113.83V211.16H117.79V175.38Z" fill="#EBEBEB"/>
<path d="M64.25 290.13H90.16L90.16 69.33H64.25L64.25 290.13Z" fill="#E0E0E0"/>
<path d="M250 335.56C357.082 335.56 443.89 330.492 443.89 324.24C443.89 317.988 357.082 312.92 250 312.92C142.917 312.92 56.11 317.988 56.11 324.24C56.11 330.492 142.917 335.56 250 335.56Z" fill="#707070"/>
<path d="M240.09 4.05001V320.17C240.09 320.783 239.968 321.389 239.732 321.954C239.495 322.519 239.149 323.032 238.712 323.462C238.276 323.892 237.758 324.231 237.189 324.459C236.621 324.687 236.013 324.799 235.4 324.79H76.28C75.7236 324.797 75.1715 324.692 74.6568 324.48C74.142 324.269 73.6751 323.956 73.284 323.56C72.8929 323.165 72.5856 322.694 72.3804 322.177C72.1753 321.66 72.0765 321.106 72.09 320.55V3.67001C72.0699 3.17927 72.1469 2.6894 72.3167 2.22852C72.4864 1.76763 72.7455 1.3448 73.079 0.984291C73.4126 0.623787 73.814 0.332701 74.2604 0.127754C74.7067 -0.0771928 75.1892 -0.191968 75.68 -0.209991H113.46C114.044 -0.199564 114.613 -0.0151387 115.092 0.319733C115.571 0.654604 115.939 1.12471 116.15 1.67001L117.88 5.93001C118.094 6.47156 118.464 6.93743 118.942 7.26856C119.421 7.5997 119.988 7.78118 120.57 7.79001H191.7C192.275 7.79083 192.837 7.62124 193.316 7.30266C193.795 6.98407 194.169 6.53078 194.39 6.00001L196.12 1.72001C196.336 1.17734 196.705 0.709453 197.183 0.373726C197.661 0.0379984 198.226 -0.150966 198.81 -0.169991H236C237.096 -0.136195 238.137 0.323283 238.9 1.11105C239.664 1.89882 240.09 2.95296 240.09 4.05001Z" fill="#6ECAE8"/>
<path opacity="0.3" d="M240.09 19.54H72.09V303.79H240.09V19.54Z" fill="white"/>
<path opacity="0.6" d="M91.95 12.54H94.12V9.64001H91.95V12.54Z" fill="white"/>
<path opacity="0.6" d="M88.4 12.53H90.57V8.67001H88.4V12.53Z" fill="white"/>
<path opacity="0.6" d="M84.86 12.53H87.03V7.70001H84.86V12.53Z" fill="white"/>
<path opacity="0.6" d="M81.32 12.53H83.49V6.73001H81.32V12.53Z" fill="white"/>
<path opacity="0.6" d="M220.63 8.58001H219.34V11.48H220.63V8.58001Z" fill="white"/>
<path opacity="0.6" d="M221.51 12.53L231.78 12.53V7.52001L221.51 7.52001V12.53Z" fill="white"/>
<path opacity="0.4" d="M144.65 88.12H77.58V155.19H144.65V88.12Z" fill="white"/>
<path opacity="0.4" d="M144.65 159.29H77.58V226.36H144.65V159.29Z" fill="white"/>
<path opacity="0.4" d="M216.77 159.29H149.7V226.36H216.77V159.29Z" fill="white"/>
<path opacity="0.4" d="M144.65 230.47H77.58V297.54H144.65V230.47Z" fill="white"/>
<path opacity="0.4" d="M216.77 88.12H149.7V155.19H216.77V88.12Z" fill="white"/>
<path opacity="0.4" d="M216.77 230.47H149.7V297.54H216.77V230.47Z" fill="white"/>
<path d="M232.92 88.12H226.79V297.54H232.92V88.12Z" fill="#6ECAE8"/>
<path d="M232.71 94.81H226.99C226.399 94.81 225.92 95.2891 225.92 95.88V116.59C225.92 117.181 226.399 117.66 226.99 117.66H232.71C233.301 117.66 233.78 117.181 233.78 116.59V95.88C233.78 95.2891 233.301 94.81 232.71 94.81Z" fill="white"/>
<path d="M233.78 26.8H77.45V81.47H233.78V26.8Z" fill="#6ECAE8"/>
<path d="M129.33 104.6H92.24C91.9376 104.6 91.6477 104.72 91.4339 104.934C91.2201 105.148 91.1 105.438 91.1 105.74V129.3C91.1026 129.601 91.2239 129.888 91.4374 130.1C91.6509 130.311 91.9394 130.43 92.24 130.43H129.33C129.629 130.427 129.915 130.308 130.126 130.096C130.337 129.885 130.457 129.599 130.46 129.3V105.74C130.46 105.439 130.341 105.151 130.13 104.937C129.918 104.724 129.631 104.603 129.33 104.6ZM129.57 128.6H92V105.85H129.58L129.57 128.6Z" fill="white"/>
<path d="M115.3 131.15H106.27V134.45H115.3V131.15Z" fill="white"/>
<path d="M119 135.26H102.6C102.444 135.263 102.296 135.326 102.186 135.436C102.076 135.546 102.013 135.694 102.01 135.85V136.78H119.59V135.85C119.59 135.694 119.528 135.543 119.417 135.433C119.307 135.322 119.156 135.26 119 135.26Z" fill="white"/>
<path d="M201.64 106.26H164.55C164.248 106.26 163.958 106.38 163.744 106.594C163.53 106.808 163.41 107.098 163.41 107.4V131.63H202.77V107.4C202.77 107.099 202.651 106.811 202.44 106.597C202.228 106.384 201.941 106.263 201.64 106.26ZM201.88 130.26H164.3V107.5H201.88V130.26Z" fill="white"/>
<path d="M188.35 132.52V133.46C188.35 133.627 188.284 133.787 188.165 133.905C188.047 134.024 187.887 134.09 187.72 134.09H178.47C178.303 134.09 178.143 134.024 178.024 133.905C177.906 133.787 177.84 133.627 177.84 133.46V132.52H159.6V134.52C159.603 134.681 159.668 134.835 159.781 134.949C159.895 135.062 160.049 135.127 160.21 135.13H206C206.162 135.13 206.317 135.066 206.431 134.951C206.546 134.837 206.61 134.682 206.61 134.52V132.52H188.35Z" fill="white"/>
<path d="M123 59.68L124.37 56.68C126.06 57.843 128.059 58.4734 130.11 58.49C132.49 58.49 133.46 57.69 133.46 56.63C133.46 53.37 123.35 55.63 123.35 49.14C123.35 46.14 125.73 43.73 130.68 43.73C132.782 43.6935 134.855 44.2255 136.68 45.27L135.44 48.27C133.978 47.4077 132.317 46.9391 130.62 46.91C128.23 46.91 127.31 47.8 127.31 48.91C127.31 52.11 137.43 49.91 137.43 56.29C137.43 59.2 135.01 61.68 130.04 61.68C127.546 61.7362 125.092 61.0392 123 59.68Z" fill="white"/>
<path d="M151.7 57.66H143.62L142.08 61.39H138L145.75 43.99H149.75L157.53 61.39H153.3L151.7 57.66ZM150.43 54.66L147.67 48L144.91 54.66H150.43Z" fill="white"/>
<path d="M159.28 44H163.28V58.12H172V61.4H159.28V44Z" fill="white"/>
<path d="M187.76 58.16V61.39H174.29V44H187.44V47.23H178.29V51H186.37V54.13H178.29V58.13L187.76 58.16Z" fill="white"/>
<path d="M121.84 169.82H99.72C99.3752 169.82 99.0445 169.957 98.8007 170.201C98.5569 170.445 98.42 170.775 98.42 171.12V211.37C98.42 211.715 98.5569 212.045 98.8007 212.289C99.0445 212.533 99.3752 212.67 99.72 212.67H121.84C122.185 212.67 122.515 212.533 122.759 212.289C123.003 212.045 123.14 211.715 123.14 211.37V171.12C123.14 170.775 123.003 170.445 122.759 170.201C122.515 169.957 122.185 169.82 121.84 169.82ZM121.43 209.29H100.13V173.2H121.43V209.29Z" fill="white"/>
<path d="M130.91 248.87H90.66C90.3152 248.87 89.9845 249.007 89.7407 249.251C89.4969 249.495 89.36 249.825 89.36 250.17V278.3C89.3626 278.643 89.5007 278.971 89.7443 279.213C89.9878 279.454 90.3169 279.59 90.66 279.59H130.91C131.252 279.59 131.58 279.454 131.822 279.212C132.064 278.97 132.2 278.642 132.2 278.3V250.17C132.2 249.827 132.064 249.498 131.823 249.254C131.581 249.011 131.253 248.873 130.91 248.87ZM130.56 277.87H91V250.59H130.56V277.87Z" fill="white"/>
<path d="M202.89 180.27H193.89C193.347 180.269 192.817 180.108 192.365 179.808C191.913 179.507 191.56 179.08 191.35 178.58L190.52 176.58C190.311 176.079 189.958 175.651 189.506 175.35C189.054 175.05 188.523 174.89 187.98 174.89H178.25C177.706 174.889 177.173 175.049 176.719 175.349C176.266 175.65 175.911 176.078 175.7 176.58L174.88 178.58C174.668 179.081 174.313 179.508 173.859 179.809C173.406 180.11 172.874 180.27 172.33 180.27H163.33C163.024 180.27 162.721 180.33 162.438 180.447C162.156 180.564 161.899 180.736 161.682 180.952C161.466 181.169 161.294 181.426 161.177 181.708C161.06 181.991 161 182.294 161 182.6V203.73C161 204.348 161.245 204.941 161.682 205.378C162.119 205.815 162.712 206.06 163.33 206.06H202.93C203.548 206.06 204.141 205.815 204.578 205.378C205.014 204.941 205.26 204.348 205.26 203.73V182.6C205.26 182.291 205.198 181.984 205.079 181.699C204.959 181.414 204.784 181.155 204.563 180.938C204.343 180.721 204.081 180.55 203.794 180.436C203.507 180.321 203.199 180.265 202.89 180.27ZM180.78 177.08H185.41V179.17H180.78V177.08ZM183.09 201.39C181.462 201.39 179.87 200.907 178.517 200.002C177.163 199.098 176.108 197.812 175.485 196.307C174.863 194.803 174.7 193.147 175.019 191.551C175.337 189.954 176.122 188.488 177.274 187.337C178.426 186.186 179.893 185.403 181.491 185.087C183.088 184.77 184.743 184.935 186.246 185.559C187.75 186.184 189.035 187.24 189.938 188.595C190.841 189.95 191.322 191.542 191.32 193.17C191.32 194.25 191.107 195.32 190.693 196.318C190.28 197.316 189.673 198.223 188.909 198.986C188.145 199.749 187.237 200.355 186.239 200.767C185.24 201.18 184.17 201.391 183.09 201.39ZM202.53 186H197.9V183.9H202.53V186Z" fill="white"/>
<path d="M170.09 250.58V277.65H196.09V250.58H170.09ZM194.65 275.19H171.54V253H194.65V275.19Z" fill="white"/>
<path d="M205.06 250.54H197.83V277.69H205.06C206.013 277.687 206.926 277.307 207.599 276.632C208.272 275.957 208.65 275.043 208.65 274.09V254.09C208.639 253.145 208.257 252.242 207.584 251.577C206.912 250.913 206.005 250.54 205.06 250.54ZM200.61 265.36C200.312 265.333 200.035 265.195 199.833 264.974C199.631 264.753 199.519 264.464 199.519 264.165C199.519 263.866 199.631 263.577 199.833 263.356C200.035 263.135 200.312 262.997 200.61 262.97C200.776 262.955 200.944 262.974 201.102 263.028C201.26 263.081 201.405 263.166 201.528 263.279C201.652 263.391 201.75 263.528 201.817 263.681C201.885 263.833 201.919 263.998 201.919 264.165C201.919 264.332 201.885 264.497 201.817 264.649C201.75 264.802 201.652 264.939 201.528 265.051C201.405 265.164 201.26 265.249 201.102 265.302C200.944 265.356 200.776 265.375 200.61 265.36ZM203.14 260.36C203.377 260.36 203.609 260.43 203.807 260.562C204.004 260.694 204.158 260.881 204.249 261.101C204.339 261.32 204.363 261.561 204.317 261.794C204.271 262.027 204.156 262.241 203.989 262.409C203.821 262.576 203.607 262.691 203.374 262.737C203.141 262.783 202.9 262.759 202.681 262.669C202.461 262.578 202.274 262.424 202.142 262.227C202.01 262.029 201.94 261.797 201.94 261.56C201.936 261.4 201.964 261.242 202.023 261.093C202.081 260.945 202.169 260.809 202.281 260.695C202.393 260.582 202.527 260.491 202.674 260.43C202.822 260.369 202.98 260.339 203.14 260.34V260.36ZM203.24 267.91C203.003 267.91 202.771 267.84 202.573 267.708C202.376 267.576 202.222 267.388 202.131 267.169C202.04 266.95 202.017 266.709 202.063 266.476C202.109 266.243 202.224 266.029 202.391 265.861C202.559 265.694 202.773 265.579 203.006 265.533C203.239 265.487 203.48 265.511 203.699 265.601C203.918 265.692 204.106 265.846 204.238 266.043C204.37 266.241 204.44 266.473 204.44 266.71C204.439 266.866 204.407 267.021 204.346 267.165C204.285 267.309 204.196 267.439 204.084 267.549C203.973 267.658 203.841 267.745 203.696 267.803C203.551 267.862 203.396 267.891 203.24 267.89V267.91ZM205.77 265.28C205.604 265.295 205.436 265.276 205.278 265.222C205.12 265.169 204.975 265.084 204.852 264.971C204.728 264.859 204.63 264.722 204.563 264.569C204.495 264.417 204.461 264.252 204.461 264.085C204.461 263.918 204.495 263.753 204.563 263.601C204.63 263.448 204.728 263.311 204.852 263.199C204.975 263.086 205.12 263.001 205.278 262.948C205.436 262.894 205.604 262.875 205.77 262.89C206.068 262.917 206.345 263.055 206.547 263.276C206.749 263.497 206.861 263.786 206.861 264.085C206.861 264.384 206.749 264.673 206.547 264.894C206.345 265.115 206.068 265.253 205.77 265.28Z" fill="white"/>
<path d="M161.13 250.54C160.177 250.54 159.263 250.918 158.588 251.591C157.913 252.264 157.533 253.177 157.53 254.13V274.13C157.53 275.085 157.909 276 158.584 276.676C159.26 277.351 160.175 277.73 161.13 277.73H168.36V250.54H161.13ZM160.42 265.36C160.182 265.36 159.95 265.289 159.752 265.157C159.555 265.025 159.401 264.837 159.31 264.617C159.22 264.397 159.197 264.155 159.244 263.922C159.291 263.689 159.406 263.475 159.575 263.308C159.744 263.141 159.959 263.027 160.192 262.982C160.425 262.937 160.667 262.962 160.886 263.054C161.105 263.147 161.292 263.302 161.423 263.501C161.553 263.699 161.622 263.932 161.62 264.17C161.62 264.327 161.589 264.483 161.528 264.628C161.468 264.773 161.379 264.904 161.268 265.015C161.156 265.126 161.024 265.213 160.878 265.272C160.733 265.332 160.577 265.361 160.42 265.36ZM162.94 260.36C163.106 260.345 163.274 260.364 163.432 260.418C163.59 260.471 163.735 260.556 163.858 260.669C163.982 260.781 164.08 260.918 164.147 261.071C164.215 261.223 164.249 261.388 164.249 261.555C164.249 261.722 164.215 261.887 164.147 262.039C164.08 262.192 163.982 262.329 163.858 262.441C163.735 262.554 163.59 262.639 163.432 262.692C163.274 262.746 163.106 262.765 162.94 262.75C162.642 262.723 162.365 262.585 162.163 262.364C161.961 262.143 161.849 261.854 161.849 261.555C161.849 261.256 161.961 260.967 162.163 260.746C162.365 260.525 162.642 260.387 162.94 260.36ZM163.05 267.91C162.884 267.925 162.716 267.906 162.558 267.852C162.4 267.799 162.255 267.714 162.132 267.601C162.008 267.489 161.91 267.352 161.843 267.199C161.775 267.047 161.741 266.882 161.741 266.715C161.741 266.548 161.775 266.383 161.843 266.231C161.91 266.078 162.008 265.941 162.132 265.829C162.255 265.716 162.4 265.631 162.558 265.578C162.716 265.524 162.884 265.505 163.05 265.52C163.348 265.547 163.625 265.685 163.827 265.906C164.029 266.127 164.141 266.416 164.141 266.715C164.141 267.014 164.029 267.303 163.827 267.524C163.625 267.745 163.348 267.883 163.05 267.91ZM165.57 265.28C165.333 265.28 165.101 265.21 164.903 265.078C164.706 264.946 164.552 264.758 164.461 264.539C164.371 264.32 164.347 264.079 164.393 263.846C164.439 263.613 164.554 263.399 164.721 263.231C164.889 263.064 165.103 262.949 165.336 262.903C165.569 262.857 165.81 262.881 166.029 262.971C166.248 263.062 166.436 263.216 166.568 263.413C166.7 263.611 166.77 263.843 166.77 264.08C166.769 264.236 166.737 264.391 166.676 264.535C166.615 264.679 166.526 264.809 166.414 264.919C166.303 265.028 166.171 265.115 166.026 265.173C165.881 265.232 165.726 265.261 165.57 265.26V265.28Z" fill="white"/>
<path d="M122.53 94.48L124.56 95.16L126.08 93.66L127.88 94.82L129.73 93.74L131.18 95.31L133.24 94.73L134.26 96.62L136.4 96.56L136.91 98.64L139 99.12L138.98 101.26L140.88 102.25L140.34 104.32L141.93 105.74L140.88 107.61L142.07 109.39L140.6 110.94L141.31 112.96L139.49 114.09L139.68 116.22L137.64 116.87L137.29 118.98L135.15 119.1L134.29 121.06L132.19 120.64L130.87 122.32L128.94 121.39L127.23 122.69L125.6 121.31L123.63 122.15L122.38 120.41L120.27 120.73L119.49 118.73L117.36 118.52L117.11 116.39L115.1 115.65L115.39 113.53L113.63 112.32L114.43 110.33L113.03 108.72L114.3 107L113.34 105.08L115 103.73L114.55 101.64L116.49 100.74L116.57 98.6L118.68 98.22L119.29 96.17L121.43 96.32L122.53 94.48Z" fill="#6ECAE8"/>
<path d="M124.57 110C124.98 111.12 124.5 112.47 122.57 113.16C121.68 113.514 120.705 113.594 119.77 113.39L120 112C120.7 112.186 121.441 112.151 122.12 111.9C122.89 111.61 123.25 111.12 123.05 110.58C122.85 110.04 122.38 109.9 121.5 110.23L120.8 110.48L120.42 109.48L121.22 107.42L118.39 108.42L117.93 107.18L122.59 105.46L122.96 106.46L122.09 108.73C122.587 108.578 123.125 108.625 123.588 108.862C124.051 109.099 124.403 109.507 124.57 110Z" fill="white"/>
<path d="M130.19 107.89C130.63 109.07 130.14 110.41 128.24 111.11C127.349 111.459 126.376 111.539 125.44 111.34L125.61 109.94C126.31 110.126 127.051 110.091 127.73 109.84C128.5 109.55 128.85 109.05 128.65 108.51C128.45 107.97 127.99 107.77 126.78 108.22L125.08 108.85L124 105L128.06 103.5L128.52 104.73L125.74 105.73L126.1 107.03L126.65 106.83C128.65 106.11 129.76 106.71 130.19 107.89Z" fill="white"/>
<path d="M129.83 104.14C129.758 103.995 129.718 103.836 129.712 103.675C129.706 103.513 129.734 103.352 129.795 103.202C129.855 103.052 129.946 102.916 130.063 102.804C130.179 102.692 130.318 102.605 130.47 102.55C130.777 102.471 131.102 102.509 131.383 102.656C131.664 102.804 131.88 103.05 131.99 103.347C132.099 103.645 132.094 103.973 131.976 104.267C131.858 104.561 131.635 104.801 131.35 104.94C131.198 104.995 131.036 105.018 130.875 105.007C130.713 104.996 130.556 104.952 130.413 104.877C130.27 104.801 130.144 104.697 130.044 104.57C129.943 104.443 129.87 104.297 129.83 104.14ZM131.36 103.58C131.19 103.11 130.93 102.96 130.66 103.06C130.39 103.16 130.29 103.45 130.46 103.91C130.63 104.37 130.9 104.53 131.16 104.43C131.42 104.33 131.53 104 131.36 103.58ZM133.07 101.64L133.81 101.37L132.45 106.8L131.71 107.08L133.07 101.64ZM133.54 105.1C133.474 104.956 133.439 104.801 133.436 104.643C133.433 104.485 133.463 104.328 133.524 104.182C133.584 104.036 133.674 103.904 133.788 103.794C133.902 103.685 134.037 103.6 134.185 103.544C134.333 103.489 134.491 103.465 134.649 103.474C134.807 103.483 134.961 103.524 135.102 103.595C135.243 103.665 135.368 103.765 135.469 103.886C135.571 104.007 135.646 104.148 135.69 104.3C135.756 104.444 135.791 104.599 135.794 104.757C135.796 104.915 135.767 105.072 135.706 105.218C135.646 105.364 135.556 105.496 135.442 105.606C135.328 105.715 135.193 105.8 135.045 105.856C134.897 105.911 134.739 105.935 134.581 105.926C134.423 105.917 134.269 105.876 134.128 105.805C133.987 105.735 133.862 105.635 133.76 105.514C133.659 105.393 133.584 105.252 133.54 105.1ZM135.06 104.53C134.89 104.08 134.63 103.91 134.36 104.01C134.09 104.11 133.99 104.4 134.16 104.87C134.33 105.34 134.6 105.49 134.86 105.39C135.12 105.29 135.23 105 135.06 104.53Z" fill="white"/>
<path d="M131.64 108.77C131.557 108.587 131.532 108.383 131.567 108.185C131.602 107.987 131.696 107.804 131.837 107.66C131.977 107.516 132.158 107.418 132.355 107.379C132.552 107.339 132.757 107.36 132.942 107.438C133.127 107.517 133.284 107.649 133.393 107.819C133.502 107.988 133.557 108.186 133.551 108.387C133.546 108.588 133.48 108.783 133.362 108.946C133.244 109.108 133.079 109.232 132.89 109.3C132.773 109.35 132.648 109.376 132.521 109.376C132.394 109.377 132.269 109.351 132.152 109.302C132.035 109.252 131.93 109.18 131.842 109.088C131.754 108.997 131.685 108.889 131.64 108.77ZM133.09 108.23C133.064 108.161 133.025 108.098 132.975 108.044C132.925 107.99 132.865 107.947 132.798 107.916C132.731 107.885 132.659 107.868 132.586 107.865C132.512 107.863 132.439 107.874 132.37 107.9C132.301 107.926 132.238 107.965 132.184 108.015C132.13 108.065 132.087 108.125 132.056 108.192C132.025 108.259 132.008 108.331 132.005 108.404C132.003 108.478 132.014 108.551 132.04 108.62C132.066 108.689 132.105 108.752 132.155 108.806C132.205 108.86 132.265 108.903 132.332 108.934C132.398 108.965 132.471 108.982 132.544 108.985C132.618 108.987 132.691 108.976 132.76 108.95C132.829 108.924 132.892 108.885 132.946 108.835C133 108.785 133.043 108.725 133.074 108.658C133.105 108.591 133.122 108.519 133.125 108.446C133.127 108.372 133.116 108.299 133.09 108.23Z" fill="white"/>
<path d="M134 107.3L134.17 107.75L134.95 107.46L135.07 107.77L134.28 108.06L134.51 108.68L134.12 108.82L133.49 107.13L134.77 106.66L134.89 106.97L134 107.3Z" fill="white"/>
<path d="M135.53 106.73L135.69 107.17L136.47 106.88L136.59 107.2L135.81 107.49L136.04 108.11L135.64 108.25L135.02 106.56L136.3 106.09L136.41 106.4L135.53 106.73Z" fill="white"/>
<path d="M122.53 169.64L124.56 170.32L126.08 168.82L127.88 169.98L129.73 168.9L131.18 170.47L133.24 169.89L134.26 171.77L136.4 171.72L136.91 173.8L139 174.28L138.98 176.42L140.88 177.41L140.34 179.48L141.93 180.9L140.88 182.77L142.07 184.55L140.6 186.1L141.31 188.12L139.49 189.25L139.68 191.38L137.64 192.02L137.29 194.14L135.15 194.25L134.29 196.21L132.19 195.8L130.87 197.48L128.94 196.55L127.23 197.85L125.6 196.47L123.63 197.31L122.38 195.57L120.27 195.89L119.49 193.89L117.36 193.68L117.11 191.55L115.1 190.81L115.39 188.69L113.63 187.47L114.43 185.49L113.03 183.88L114.3 182.15L113.34 180.24L115 178.89L114.55 176.8L116.49 175.9L116.57 173.76L118.68 173.38L119.29 171.33L121.43 171.48L122.53 169.64Z" fill="#6ECAE8"/>
<path d="M125 185C125.108 185.317 125.15 185.654 125.122 185.988C125.094 186.322 124.997 186.647 124.837 186.942C124.678 187.237 124.459 187.496 124.194 187.702C123.929 187.908 123.625 188.057 123.3 188.14C121.46 188.82 119.9 188.09 119.11 185.94C118.32 183.79 119.17 181.85 121.17 181.11C121.805 180.859 122.495 180.78 123.17 180.88L123.01 182.22C122.554 182.123 122.079 182.168 121.65 182.35C121.388 182.426 121.145 182.558 120.939 182.738C120.734 182.917 120.57 183.14 120.459 183.39C120.348 183.639 120.294 183.91 120.299 184.183C120.305 184.456 120.37 184.725 120.49 184.97C120.634 184.685 120.833 184.431 121.077 184.225C121.321 184.019 121.605 183.864 121.91 183.77C122.191 183.633 122.498 183.556 122.811 183.545C123.124 183.533 123.436 183.587 123.727 183.703C124.017 183.819 124.281 183.994 124.5 184.217C124.719 184.44 124.89 184.707 125 185ZM123.54 185.62C123.491 185.469 123.41 185.331 123.302 185.215C123.194 185.099 123.062 185.008 122.915 184.949C122.768 184.89 122.61 184.864 122.452 184.873C122.294 184.881 122.139 184.925 122 185C121.852 185.038 121.712 185.105 121.591 185.199C121.47 185.293 121.369 185.41 121.295 185.544C121.221 185.678 121.176 185.826 121.161 185.978C121.146 186.131 121.163 186.284 121.21 186.43C121.267 186.574 121.355 186.704 121.466 186.811C121.577 186.918 121.71 187.001 121.856 187.053C122.001 187.105 122.157 187.125 122.311 187.113C122.465 187.1 122.615 187.055 122.75 186.98C122.898 186.948 123.037 186.884 123.159 186.794C123.281 186.703 123.382 186.588 123.455 186.456C123.529 186.323 123.574 186.177 123.587 186.026C123.6 185.875 123.58 185.723 123.53 185.58L123.54 185.62Z" fill="white"/>
<path d="M130.58 182.9C131.02 184.08 130.53 185.43 128.58 186.13C127.688 186.476 126.715 186.553 125.78 186.35L126 185C126.696 185.197 127.436 185.161 128.11 184.9C128.88 184.62 129.24 184.12 129.04 183.58C128.84 183.04 128.38 182.84 127.17 183.28L125.47 183.91L124.47 180.04L128.53 178.54L128.98 179.78L126.21 180.78L126.57 182.09L127.11 181.89C129 181.13 130.15 181.72 130.58 182.9Z" fill="white"/>
<path d="M130 179.25C129.947 179.035 129.957 178.809 130.029 178.599C130.101 178.389 130.232 178.205 130.407 178.068C130.581 177.931 130.792 177.848 131.013 177.828C131.234 177.808 131.456 177.852 131.652 177.956C131.848 178.059 132.01 178.217 132.119 178.41C132.227 178.603 132.278 178.824 132.264 179.045C132.25 179.267 132.172 179.479 132.04 179.658C131.908 179.836 131.728 179.972 131.52 180.05C131.368 180.109 131.206 180.134 131.043 180.125C130.881 180.115 130.722 180.071 130.578 179.995C130.434 179.92 130.308 179.814 130.208 179.685C130.109 179.557 130.038 179.408 130 179.25ZM131.53 178.69C131.36 178.22 131.09 178.07 130.82 178.17C130.55 178.27 130.45 178.57 130.62 179.02C130.79 179.47 131.06 179.64 131.33 179.54C131.6 179.44 131.66 179.15 131.49 178.69H131.53ZM133.24 176.75L133.97 176.48L132.61 181.91L131.88 182.19L133.24 176.75ZM133.7 180.21C133.647 179.995 133.657 179.769 133.729 179.559C133.801 179.349 133.932 179.165 134.107 179.028C134.281 178.891 134.492 178.808 134.713 178.788C134.934 178.768 135.156 178.812 135.352 178.916C135.548 179.019 135.71 179.177 135.819 179.37C135.927 179.563 135.978 179.784 135.964 180.005C135.95 180.227 135.872 180.439 135.74 180.618C135.608 180.796 135.428 180.932 135.22 181.01C135.066 181.074 134.9 181.103 134.733 181.097C134.566 181.09 134.403 181.047 134.255 180.971C134.106 180.895 133.976 180.787 133.874 180.656C133.771 180.525 133.698 180.372 133.66 180.21H133.7ZM135.23 179.65C135.06 179.19 134.79 179.02 134.52 179.13C134.25 179.24 134.15 179.52 134.32 179.98C134.49 180.44 134.76 180.6 135.03 180.5C135.3 180.4 135.36 180.11 135.19 179.65H135.23Z" fill="white"/>
<path d="M131.76 183.88C131.71 183.644 131.746 183.398 131.863 183.187C131.979 182.976 132.168 182.815 132.395 182.732C132.621 182.649 132.87 182.651 133.095 182.737C133.32 182.823 133.506 182.987 133.62 183.2C133.67 183.436 133.634 183.682 133.517 183.893C133.401 184.104 133.212 184.265 132.985 184.348C132.759 184.431 132.51 184.429 132.285 184.343C132.06 184.257 131.874 184.093 131.76 183.88ZM133.22 183.34C133.194 183.27 133.155 183.206 133.105 183.152C133.055 183.097 132.994 183.053 132.927 183.022C132.86 182.991 132.787 182.974 132.713 182.971C132.639 182.968 132.565 182.979 132.495 183.005C132.425 183.031 132.362 183.07 132.307 183.12C132.253 183.17 132.208 183.231 132.177 183.298C132.146 183.365 132.129 183.438 132.126 183.512C132.123 183.586 132.134 183.66 132.16 183.73C132.186 183.8 132.225 183.863 132.275 183.918C132.325 183.972 132.386 184.017 132.453 184.048C132.52 184.079 132.593 184.096 132.667 184.099C132.741 184.102 132.815 184.091 132.885 184.065C132.955 184.039 133.018 184 133.073 183.95C133.127 183.9 133.172 183.839 133.203 183.772C133.234 183.705 133.251 183.632 133.254 183.558C133.257 183.484 133.246 183.41 133.22 183.34Z" fill="white"/>
<path d="M134.11 182.41L134.27 182.86L135.06 182.57L135.17 182.88L134.39 183.17L134.62 183.79L134.22 183.93L133.6 182.24L134.88 181.77L134.99 182.08L134.11 182.41Z" fill="white"/>
<path d="M135.65 181.84L135.82 182.29L136.6 182L136.72 182.31L135.93 182.6L136.16 183.22L135.77 183.36L135.14 181.67L136.42 181.2L136.54 181.51L135.65 181.84Z" fill="white"/>
<path d="M192.87 169.58L194.9 170.26L196.43 168.75L198.23 169.92L200.08 168.84L201.53 170.41L203.59 169.83L204.6 171.71L206.74 171.66L207.26 173.74L209.35 174.22L209.33 176.36L211.23 177.34L210.68 179.41L212.28 180.84L211.23 182.71L212.42 184.49L210.94 186.03L211.65 188.05L209.84 189.18L210.02 191.32L207.98 191.96L207.63 194.07L205.5 194.19L204.63 196.15L202.53 195.73L201.21 197.41L199.28 196.49L197.58 197.79L195.94 196.41L193.97 197.25L192.73 195.5L190.61 195.82L189.84 193.83L187.71 193.61L187.46 191.49L185.45 190.75L185.73 188.63L183.97 187.41L184.78 185.43L183.37 183.81L184.64 182.09L183.69 180.18L185.34 178.82L184.89 176.73L186.84 175.84L186.92 173.7L189.03 173.31L189.64 171.26L191.77 171.41L192.87 169.58Z" fill="#6ECAE8"/>
<path d="M193.45 180.42L193.82 181.42L193.43 187.99L191.76 188.61L192.15 182.33L189.95 183.15L190.35 184.23L188.98 184.74L188.12 182.4L193.45 180.42Z" fill="white"/>
<path d="M200.68 182.93C201.12 184.11 200.63 185.45 198.68 186.16C197.788 186.507 196.815 186.583 195.88 186.38L196.06 184.98C196.757 185.165 197.494 185.13 198.17 184.88C198.94 184.59 199.29 184.09 199.09 183.55C198.89 183.01 198.43 182.81 197.22 183.26L195.52 183.89L194.52 180.02L198.58 178.52L199.04 179.75L196.26 180.75L196.62 182.05L197.16 181.85C199.14 181.15 200.25 181.75 200.68 182.93Z" fill="white"/>
<path d="M200.22 179.22C200.148 179.075 200.108 178.916 200.102 178.755C200.096 178.593 200.124 178.432 200.185 178.282C200.245 178.132 200.336 177.996 200.453 177.884C200.569 177.772 200.708 177.685 200.86 177.63C201.011 177.571 201.173 177.546 201.335 177.555C201.497 177.565 201.655 177.609 201.798 177.685C201.941 177.761 202.066 177.867 202.165 177.995C202.264 178.124 202.334 178.272 202.37 178.43C202.438 178.574 202.476 178.731 202.48 178.891C202.485 179.051 202.456 179.21 202.395 179.358C202.335 179.506 202.244 179.639 202.129 179.75C202.014 179.861 201.878 179.947 201.728 180.002C201.578 180.057 201.418 180.081 201.258 180.07C201.099 180.06 200.943 180.017 200.801 179.944C200.659 179.87 200.534 179.768 200.434 179.643C200.334 179.518 200.261 179.374 200.22 179.22ZM201.75 178.65C201.58 178.19 201.32 178.03 201.05 178.13C200.78 178.23 200.68 178.53 200.85 178.99C201.02 179.45 201.29 179.61 201.55 179.51C201.81 179.41 201.92 179.12 201.75 178.65ZM203.46 176.72L204.2 176.45L202.84 181.88L202.1 182.15L203.46 176.72ZM203.93 180.18C203.876 179.964 203.885 179.738 203.957 179.527C204.029 179.317 204.161 179.132 204.336 178.995C204.511 178.858 204.722 178.774 204.943 178.754C205.165 178.735 205.387 178.78 205.584 178.884C205.78 178.988 205.942 179.147 206.05 179.341C206.158 179.535 206.208 179.757 206.193 179.978C206.177 180.2 206.098 180.413 205.965 180.591C205.831 180.768 205.649 180.904 205.44 180.98C205.289 181.034 205.128 181.055 204.967 181.044C204.807 181.032 204.651 180.987 204.509 180.912C204.367 180.837 204.242 180.733 204.143 180.607C204.043 180.481 203.971 180.335 203.93 180.18ZM205.45 179.61C205.28 179.15 205.02 178.99 204.75 179.09C204.48 179.19 204.38 179.48 204.55 179.95C204.72 180.42 204.99 180.57 205.25 180.47C205.51 180.37 205.62 180.07 205.45 179.61Z" fill="white"/>
<path d="M202 183.85C201.917 183.667 201.892 183.463 201.927 183.265C201.962 183.067 202.056 182.884 202.197 182.74C202.337 182.596 202.518 182.498 202.715 182.459C202.912 182.419 203.117 182.44 203.302 182.518C203.487 182.597 203.644 182.729 203.753 182.899C203.862 183.068 203.917 183.266 203.911 183.467C203.906 183.668 203.84 183.863 203.722 184.026C203.604 184.188 203.439 184.312 203.25 184.38C203.134 184.432 203.008 184.459 202.881 184.46C202.753 184.461 202.627 184.436 202.51 184.386C202.393 184.336 202.287 184.263 202.199 184.171C202.112 184.079 202.044 183.97 202 183.85ZM203.45 183.31C203.408 183.209 203.336 183.122 203.245 183.061C203.154 182.999 203.047 182.966 202.937 182.966C202.827 182.965 202.719 182.997 202.627 183.057C202.535 183.117 202.463 183.203 202.419 183.303C202.376 183.404 202.363 183.516 202.382 183.624C202.401 183.732 202.452 183.832 202.528 183.912C202.603 183.991 202.701 184.047 202.808 184.072C202.915 184.096 203.027 184.089 203.13 184.05C203.204 184.028 203.273 183.991 203.331 183.94C203.39 183.89 203.437 183.828 203.47 183.758C203.503 183.688 203.521 183.612 203.523 183.535C203.524 183.458 203.51 183.381 203.48 183.31H203.45Z" fill="white"/>
<path d="M204.37 182.38L204.54 182.82L205.32 182.53L205.44 182.85L204.65 183.14L204.88 183.75L204.49 183.9L203.86 182.21L205.14 181.74L205.26 182.05L204.37 182.38Z" fill="white"/>
<path d="M205.92 181.81L206.08 182.25L206.86 181.96L206.98 182.28L206.2 182.57L206.42 183.18L206.03 183.33L205.41 181.64L206.69 181.16L206.8 181.48L205.92 181.81Z" fill="white"/>
<path d="M122.53 239.63L124.56 240.31L126.08 238.8L127.88 239.96L129.73 238.89L131.18 240.46L133.24 239.88L134.26 241.76L136.4 241.71L136.91 243.79L139 244.27L138.98 246.41L140.88 247.39L140.34 249.46L141.93 250.89L140.88 252.75L142.07 254.53L140.6 256.08L141.31 258.1L139.49 259.23L139.68 261.37L137.64 262.01L137.29 264.12L135.15 264.24L134.29 266.2L132.19 265.78L130.87 267.46L128.94 266.54L127.23 267.84L125.6 266.46L123.63 267.3L122.38 265.55L120.27 265.87L119.49 263.88L117.36 263.66L117.11 261.54L115.1 260.8L115.39 258.68L113.63 257.46L114.43 255.48L113.03 253.86L114.3 252.14L113.34 250.23L115 248.87L114.55 246.78L116.49 245.89L116.57 243.75L118.68 243.36L119.29 241.31L121.43 241.46L122.53 239.63Z" fill="#6ECAE8"/>
<path d="M124.87 255.18C125.34 256.43 124.51 257.64 122.82 258.26C121.13 258.88 119.73 258.51 119.27 257.26C119.142 256.931 119.114 256.572 119.188 256.227C119.263 255.882 119.437 255.567 119.69 255.32C119.401 255.271 119.13 255.145 118.906 254.955C118.683 254.765 118.515 254.518 118.42 254.24C117.99 253.07 118.76 251.95 120.27 251.39C121.78 250.83 123.12 251.17 123.55 252.34C123.657 252.616 123.688 252.915 123.641 253.207C123.593 253.499 123.469 253.772 123.28 254C123.632 254.018 123.97 254.14 124.253 254.35C124.536 254.56 124.75 254.849 124.87 255.18ZM120 253.73C120.18 254.23 120.7 254.4 121.32 254.17C121.94 253.94 122.25 253.47 122.07 252.96C121.89 252.45 121.34 252.28 120.71 252.51C120.08 252.74 119.78 253.21 120 253.73ZM123.32 255.73C123.1 255.14 122.48 254.96 121.71 255.24C120.94 255.52 120.61 256.06 120.83 256.65C121.05 257.24 121.66 257.43 122.42 257.15C123.18 256.87 123.52 256.3 123.3 255.71L123.32 255.73Z" fill="white"/>
<path d="M125.06 253.52C124.25 251.33 125.06 249.63 126.64 249.03C128.22 248.43 129.95 249.22 130.76 251.42C131.57 253.62 130.83 255.3 129.18 255.91C127.53 256.52 125.87 255.72 125.06 253.52ZM129.21 251.99C128.66 250.48 127.89 250.05 127.12 250.33C126.35 250.61 126.06 251.44 126.62 252.95C127.18 254.46 127.94 254.89 128.7 254.61C129.46 254.33 129.77 253.5 129.21 252V251.99Z" fill="white"/>
<path d="M130.21 249.15C130.138 249.004 130.098 248.845 130.092 248.683C130.086 248.52 130.114 248.358 130.174 248.208C130.234 248.057 130.326 247.92 130.442 247.807C130.559 247.694 130.698 247.606 130.85 247.55C131.082 247.437 131.343 247.397 131.599 247.436C131.854 247.474 132.092 247.589 132.281 247.765C132.47 247.941 132.601 248.17 132.658 248.422C132.714 248.674 132.693 248.937 132.597 249.177C132.501 249.417 132.335 249.622 132.12 249.766C131.906 249.909 131.653 249.984 131.394 249.981C131.136 249.979 130.885 249.898 130.673 249.749C130.462 249.601 130.3 249.392 130.21 249.15ZM131.74 248.58C131.57 248.12 131.31 247.96 131.04 248.06C130.77 248.16 130.67 248.46 130.84 248.91C131.01 249.36 131.28 249.53 131.54 249.44C131.8 249.35 131.91 249.05 131.74 248.58ZM133.45 246.65L134.19 246.37L132.83 251.81L132.09 252.08L133.45 246.65ZM133.92 250.1C133.866 249.884 133.875 249.658 133.947 249.447C134.019 249.237 134.151 249.052 134.326 248.915C134.501 248.778 134.712 248.694 134.933 248.674C135.155 248.655 135.377 248.7 135.574 248.804C135.77 248.908 135.932 249.067 136.04 249.261C136.148 249.455 136.198 249.677 136.183 249.898C136.167 250.12 136.088 250.333 135.955 250.511C135.821 250.688 135.639 250.824 135.43 250.9C135.279 250.957 135.117 250.981 134.956 250.971C134.795 250.961 134.637 250.916 134.495 250.84C134.352 250.765 134.227 250.66 134.128 250.532C134.029 250.404 133.958 250.257 133.92 250.1ZM135.44 249.54C135.27 249.08 135.01 248.92 134.74 249.02C134.47 249.12 134.37 249.41 134.54 249.87C134.71 250.33 134.98 250.49 135.24 250.39C135.5 250.29 135.61 250 135.44 249.54Z" fill="white"/>
<path d="M132 253.77C131.919 253.586 131.896 253.382 131.932 253.185C131.969 252.987 132.065 252.805 132.206 252.663C132.348 252.52 132.529 252.424 132.726 252.386C132.923 252.348 133.128 252.37 133.312 252.45C133.496 252.529 133.653 252.663 133.76 252.832C133.868 253.002 133.922 253.2 133.915 253.401C133.908 253.602 133.841 253.796 133.723 253.958C133.604 254.12 133.439 254.243 133.25 254.31C133.133 254.36 133.007 254.385 132.879 254.385C132.752 254.385 132.626 254.358 132.509 254.308C132.392 254.257 132.287 254.184 132.199 254.091C132.112 253.999 132.044 253.889 132 253.77ZM133.45 253.23C133.408 253.129 133.336 253.042 133.245 252.981C133.154 252.919 133.047 252.886 132.937 252.886C132.827 252.885 132.719 252.917 132.627 252.977C132.535 253.037 132.463 253.123 132.419 253.223C132.376 253.324 132.363 253.436 132.382 253.544C132.401 253.652 132.452 253.752 132.528 253.832C132.603 253.911 132.701 253.967 132.808 253.992C132.915 254.016 133.027 254.009 133.13 253.97C133.204 253.948 133.273 253.911 133.331 253.86C133.389 253.81 133.436 253.747 133.468 253.677C133.501 253.607 133.517 253.531 133.518 253.454C133.518 253.377 133.502 253.3 133.47 253.23H133.45Z" fill="white"/>
<path d="M134.36 252.3L134.53 252.75L135.31 252.46L135.43 252.77L134.64 253.06L134.87 253.68L134.48 253.83L133.85 252.13L135.13 251.66L135.25 251.97L134.36 252.3Z" fill="white"/>
<path d="M135.91 251.73L136.07 252.18L136.85 251.89L136.97 252.2L136.19 252.49L136.41 253.11L136.02 253.25L135.4 251.56L136.68 251.09L136.79 251.4L135.91 251.73Z" fill="white"/>
<path d="M192.87 94.42L194.9 95.1L196.43 93.59L198.23 94.76L200.08 93.68L201.53 95.25L203.59 94.67L204.6 96.55L206.74 96.5L207.26 98.58L209.35 99.06L209.33 101.2L211.23 102.19L210.68 104.25L212.28 105.68L211.23 107.55L212.42 109.33L210.94 110.88L211.65 112.89L209.84 114.03L210.02 116.16L207.98 116.8L207.63 118.92L205.5 119.03L204.63 120.99L202.53 120.57L201.21 122.26L199.28 121.33L197.58 122.63L195.94 121.25L193.97 122.09L192.73 120.35L190.61 120.67L189.84 118.67L187.71 118.45L187.46 116.33L185.45 115.59L185.73 113.47L183.97 112.25L184.78 110.27L183.37 108.65L184.64 106.93L183.69 105.02L185.34 103.67L184.89 101.57L186.84 100.68L186.92 98.54L189.03 98.16L189.64 96.1L191.77 96.26L192.87 94.42Z" fill="#6ECAE8"/>
<path d="M194.77 110C195.21 111.17 194.72 112.52 192.77 113.22C191.879 113.567 190.905 113.643 189.97 113.44L190.14 112.04C190.839 112.236 191.583 112.201 192.26 111.94C193.03 111.66 193.38 111.16 193.18 110.62C192.98 110.08 192.52 109.88 191.31 110.32L189.61 110.95L188.61 107.08L192.67 105.58L193.13 106.82L190.35 107.82L190.71 109.13L191.25 108.93C193.23 108.18 194.34 108.78 194.77 110Z" fill="white"/>
<path d="M194.94 108.49C194.13 106.29 194.89 104.6 196.52 103.99C198.15 103.38 199.84 104.19 200.65 106.38C201.46 108.57 200.71 110.27 199.07 110.87C197.43 111.47 195.75 110.68 194.94 108.49ZM199.1 107C198.54 105.49 197.77 105.06 197 105.35C196.23 105.64 195.94 106.45 196.5 107.96C197.06 109.47 197.82 109.9 198.58 109.62C199.34 109.34 199.65 108.46 199.1 107Z" fill="white"/>
<path d="M200.4 104C200.328 103.854 200.288 103.695 200.282 103.533C200.276 103.37 200.304 103.208 200.364 103.058C200.424 102.907 200.516 102.77 200.632 102.657C200.749 102.544 200.888 102.456 201.04 102.4C201.272 102.287 201.533 102.247 201.789 102.286C202.044 102.324 202.282 102.439 202.471 102.615C202.66 102.791 202.791 103.02 202.848 103.272C202.904 103.524 202.883 103.787 202.787 104.027C202.691 104.267 202.525 104.472 202.31 104.616C202.096 104.759 201.843 104.834 201.584 104.831C201.326 104.829 201.075 104.748 200.863 104.599C200.652 104.451 200.49 104.242 200.4 104ZM201.93 103.43C201.76 102.97 201.5 102.81 201.23 102.91C200.96 103.01 200.86 103.31 201.03 103.77C201.2 104.23 201.47 104.38 201.74 104.29C202.01 104.2 202.11 103.9 201.93 103.43ZM203.64 101.5L204.38 101.22L203 106.66L202.26 106.93L203.64 101.5ZM204.11 104.95C204.056 104.734 204.065 104.508 204.137 104.297C204.209 104.087 204.341 103.902 204.516 103.765C204.691 103.628 204.902 103.544 205.123 103.524C205.345 103.505 205.567 103.55 205.764 103.654C205.96 103.758 206.122 103.917 206.23 104.111C206.338 104.305 206.388 104.527 206.373 104.749C206.357 104.97 206.278 105.183 206.145 105.361C206.011 105.538 205.829 105.674 205.62 105.75C205.472 105.808 205.314 105.834 205.155 105.827C204.997 105.819 204.841 105.779 204.699 105.709C204.557 105.638 204.431 105.539 204.33 105.417C204.228 105.295 204.153 105.153 204.11 105V104.95ZM205.63 104.39C205.46 103.93 205.2 103.77 204.93 103.87C204.66 103.97 204.56 104.26 204.73 104.72C204.9 105.18 205.17 105.34 205.43 105.24C205.69 105.14 205.8 104.85 205.63 104.39Z" fill="white"/>
<path d="M202.21 108.62C202.129 108.436 202.106 108.232 202.142 108.035C202.179 107.837 202.275 107.655 202.416 107.513C202.558 107.37 202.739 107.274 202.936 107.236C203.133 107.198 203.338 107.22 203.522 107.3C203.706 107.379 203.863 107.513 203.97 107.682C204.078 107.852 204.132 108.05 204.125 108.251C204.118 108.452 204.051 108.646 203.933 108.808C203.814 108.97 203.649 109.093 203.46 109.16C203.343 109.21 203.217 109.235 203.089 109.235C202.962 109.235 202.836 109.208 202.719 109.158C202.602 109.107 202.497 109.034 202.409 108.941C202.322 108.849 202.254 108.739 202.21 108.62ZM203.66 108.08C203.638 108.008 203.601 107.942 203.552 107.886C203.503 107.829 203.442 107.784 203.375 107.752C203.307 107.72 203.233 107.702 203.159 107.7C203.084 107.698 203.009 107.712 202.94 107.74C202.83 107.776 202.733 107.844 202.661 107.936C202.59 108.028 202.548 108.139 202.541 108.255C202.534 108.371 202.561 108.486 202.62 108.586C202.679 108.686 202.767 108.766 202.872 108.816C202.977 108.865 203.095 108.882 203.209 108.864C203.324 108.847 203.431 108.795 203.516 108.715C203.601 108.636 203.66 108.533 203.685 108.42C203.711 108.307 203.702 108.188 203.66 108.08Z" fill="white"/>
<path d="M204.55 107.15L204.72 107.6L205.5 107.31L205.62 107.62L204.83 107.91L205.06 108.53L204.67 108.68L204 107L205.28 106.53L205.4 106.84L204.55 107.15Z" fill="white"/>
<path d="M206.1 106.58L206.26 107.03L207.04 106.74L207.16 107.05L206.38 107.34L206.61 107.96L206.21 108.1L205.59 106.41L206.87 105.94L206.98 106.25L206.1 106.58Z" fill="white"/>
<path d="M192.87 239.56L194.9 240.24L196.43 238.74L198.23 239.9L200.08 238.82L201.53 240.4L203.59 239.81L204.6 241.7L206.74 241.64L207.26 243.72L209.35 244.2L209.33 246.34L211.23 247.33L210.68 249.4L212.28 250.82L211.23 252.69L212.42 254.47L210.94 256.02L211.65 258.04L209.84 259.17L210.02 261.3L207.98 261.95L207.63 264.06L205.5 264.18L204.63 266.14L202.53 265.72L201.21 267.4L199.28 266.47L197.58 267.77L195.94 266.39L193.97 267.23L192.73 265.49L190.61 265.81L189.84 263.81L187.71 263.6L187.46 261.47L185.45 260.73L185.73 258.61L183.97 257.4L184.78 255.41L183.37 253.8L184.64 252.08L183.69 250.16L185.34 248.81L184.89 246.72L186.84 245.82L186.92 243.68L189.03 243.3L189.64 241.25L191.77 241.4L192.87 239.56Z" fill="#6ECAE8"/>
<path d="M196.08 255.41L194.99 255.81L195.51 257.2L194 257.76L193.49 256.36L189.91 257.68L189.52 256.68L191.1 251.3L192.72 250.7L191.29 255.78L193.07 255.12L192.61 253.87L194.07 253.34L194.53 254.58L195.61 254.18L196.08 255.41Z" fill="white"/>
<path d="M201.28 252.69C201.72 253.87 201.23 255.22 199.33 255.92C198.439 256.267 197.465 256.343 196.53 256.14L196.7 254.74C197.399 254.936 198.143 254.901 198.82 254.64C199.59 254.36 199.94 253.86 199.74 253.32C199.54 252.78 199.08 252.58 197.87 253.02L196.17 253.65L195.17 249.78L199.23 248.28L199.69 249.52L196.91 250.52L197.27 251.83L197.81 251.63C199.74 250.92 200.85 251.52 201.28 252.69Z" fill="white"/>
<path d="M200.42 249.13C200.367 248.915 200.377 248.689 200.449 248.479C200.521 248.269 200.652 248.085 200.827 247.948C201.001 247.811 201.212 247.728 201.433 247.708C201.654 247.688 201.876 247.732 202.072 247.836C202.268 247.939 202.43 248.097 202.539 248.29C202.647 248.483 202.698 248.704 202.684 248.925C202.67 249.147 202.592 249.359 202.46 249.538C202.328 249.716 202.148 249.852 201.94 249.93C201.788 249.987 201.626 250.011 201.464 250.001C201.302 249.991 201.144 249.946 201.001 249.871C200.857 249.795 200.731 249.69 200.631 249.563C200.531 249.435 200.459 249.287 200.42 249.13ZM201.95 248.57C201.78 248.1 201.52 247.95 201.25 248.05C200.98 248.15 200.88 248.44 201.05 248.9C201.22 249.36 201.49 249.52 201.75 249.42C202.01 249.32 202.12 249 202 248.57H201.95ZM203.66 246.63L204.4 246.36L203 251.79L202.26 252.07L203.66 246.63ZM204.13 250.09C204.064 249.946 204.029 249.791 204.026 249.633C204.023 249.475 204.053 249.318 204.114 249.172C204.174 249.026 204.264 248.894 204.378 248.784C204.492 248.675 204.627 248.59 204.775 248.534C204.923 248.479 205.081 248.455 205.239 248.464C205.396 248.473 205.551 248.514 205.692 248.585C205.833 248.655 205.958 248.755 206.059 248.876C206.161 248.997 206.236 249.138 206.28 249.29C206.346 249.434 206.381 249.589 206.384 249.747C206.387 249.905 206.357 250.062 206.296 250.208C206.236 250.354 206.146 250.486 206.032 250.596C205.918 250.705 205.783 250.79 205.635 250.846C205.487 250.901 205.329 250.925 205.171 250.916C205.013 250.907 204.859 250.866 204.718 250.795C204.577 250.725 204.452 250.625 204.35 250.504C204.249 250.383 204.174 250.242 204.13 250.09ZM205.65 249.52C205.48 249.07 205.22 248.9 204.95 249C204.68 249.1 204.58 249.4 204.75 249.86C204.92 250.32 205.19 250.48 205.45 250.38C205.71 250.28 205.82 250 205.65 249.52Z" fill="white"/>
<path d="M202.23 253.76C202.147 253.577 202.122 253.373 202.157 253.175C202.192 252.977 202.286 252.794 202.427 252.65C202.567 252.506 202.748 252.408 202.945 252.369C203.142 252.329 203.347 252.35 203.532 252.428C203.717 252.507 203.874 252.639 203.983 252.809C204.092 252.978 204.147 253.176 204.141 253.377C204.136 253.578 204.069 253.773 203.952 253.936C203.834 254.098 203.669 254.222 203.48 254.29C203.363 254.34 203.238 254.366 203.111 254.366C202.984 254.367 202.859 254.341 202.742 254.292C202.625 254.242 202.519 254.17 202.432 254.078C202.344 253.987 202.275 253.879 202.23 253.76ZM203.68 253.22C203.659 253.148 203.623 253.08 203.574 253.023C203.526 252.965 203.465 252.918 203.398 252.885C203.33 252.852 203.256 252.834 203.18 252.831C203.105 252.829 203.03 252.842 202.96 252.87C202.85 252.905 202.752 252.973 202.681 253.064C202.609 253.155 202.566 253.265 202.558 253.381C202.55 253.497 202.576 253.612 202.634 253.712C202.692 253.813 202.779 253.893 202.883 253.944C202.987 253.995 203.104 254.013 203.219 253.997C203.334 253.98 203.441 253.93 203.526 253.852C203.612 253.774 203.673 253.672 203.7 253.559C203.727 253.447 203.72 253.329 203.68 253.22Z" fill="white"/>
<path d="M204.57 252.29L204.74 252.74L205.52 252.45L205.64 252.76L204.85 253.05L205.08 253.67L204.69 253.81L204.06 252.12L205.34 251.65L205.46 251.96L204.57 252.29Z" fill="white"/>
<path d="M206.12 251.72L206.28 252.17L207.06 251.88L207.18 252.19L206.4 252.48L206.63 253.1L206.23 253.24L205.61 251.55L206.89 251.08L207 251.39L206.12 251.72Z" fill="white"/>
<path opacity="0.5" d="M113.78 72.41L117.64 49.17C117.689 48.8731 117.619 48.5688 117.445 48.3234C117.271 48.0779 117.007 47.9114 116.71 47.86L80.12 41.79C79.9728 41.7642 79.822 41.7679 79.6763 41.8008C79.5305 41.8337 79.3927 41.8952 79.2709 41.9816C79.1491 42.0681 79.0456 42.1779 78.9665 42.3047C78.8874 42.4314 78.8342 42.5726 78.81 42.72L77.45 50.93V56.37L79.67 43L116.75 49.16L113 71.56L77.43 65.65V67.53L112.43 73.34C112.58 73.3717 112.735 73.3726 112.885 73.3425C113.036 73.3124 113.178 73.252 113.305 73.165C113.431 73.078 113.538 72.9662 113.62 72.8364C113.702 72.7066 113.756 72.5615 113.78 72.41Z" fill="white"/>
<path opacity="0.5" d="M89.6148 70.276L89.0742 73.5314L97.9821 75.0109L98.5228 71.7555L89.6148 70.276Z" fill="white"/>
<path opacity="0.5" d="M101.48 76.41L85.3 73.72C85.1451 73.6968 84.9873 73.735 84.8602 73.8266C84.7332 73.9181 84.647 74.0557 84.62 74.21L84.47 75.13L101.81 78L101.97 77.08C101.99 76.9267 101.951 76.7714 101.86 76.6466C101.768 76.5218 101.632 76.437 101.48 76.41Z" fill="white"/>
<path opacity="0.5" d="M191.24 33.5L203.75 54.26L233.75 36.16V34.54L203.75 52.61L192.02 33.13L202.53 26.8H200.12L191.59 31.94C191.339 32.1022 191.161 32.3566 191.096 32.6484C191.03 32.9402 191.082 33.246 191.24 33.5Z" fill="white"/>
<path opacity="0.5" d="M233.78 27.83L233.16 26.8H232.12L233.78 29.55V27.83Z" fill="white"/>
<path opacity="0.5" d="M226.05 43C226.094 43.0708 226.123 43.1496 226.136 43.2318C226.149 43.3139 226.146 43.3979 226.126 43.4788C226.107 43.5597 226.071 43.6359 226.022 43.703C225.973 43.7702 225.911 43.8269 225.84 43.87L217.91 48.64C217.84 48.6835 217.762 48.7126 217.681 48.7255C217.599 48.7385 217.516 48.7351 217.436 48.7156C217.356 48.696 217.28 48.6607 217.214 48.6117C217.148 48.5626 217.092 48.5009 217.05 48.43L216.56 47.63L201 57L202 58.7C202.039 58.7699 202.092 58.831 202.156 58.8798C202.219 58.9285 202.292 58.9637 202.37 58.9834C202.448 59.003 202.528 59.0067 202.607 58.994C202.687 58.9814 202.762 58.9528 202.83 58.91L233.83 40.25V37.25L225.62 42.25L226.05 43Z" fill="white"/>
<path opacity="0.5" d="M190.81 67.64L182.5 72.09C182.371 72.16 182.275 72.2778 182.232 72.418C182.189 72.5583 182.202 72.7098 182.27 72.84L186.9 81.47H187.73L183.33 73.27L191.33 68.99L198 81.47H198.82L191.54 67.87C191.472 67.7444 191.358 67.6501 191.222 67.6072C191.085 67.5643 190.938 67.576 190.81 67.64Z" fill="white"/>
<path opacity="0.5" d="M85 35.44L93.32 31C93.4489 30.93 93.5452 30.8123 93.5882 30.672C93.6313 30.5318 93.6175 30.3802 93.55 30.25L91.7 26.8H90.88L92.48 29.8L84.48 34.08L80.57 26.8H79.75L84.25 35.21C84.32 35.3389 84.4377 35.4353 84.578 35.4783C84.7182 35.5213 84.8698 35.5075 85 35.44Z" fill="white"/>
<path opacity="0.5" d="M128.68 81L120.68 76C120.618 75.9616 120.55 75.9358 120.478 75.9241C120.406 75.9124 120.333 75.9149 120.262 75.9317C120.192 75.9484 120.125 75.979 120.066 76.0216C120.008 76.0642 119.958 76.1181 119.92 76.18L116.66 81.43H117.52L120.07 77.31L126.72 81.43H128.94C128.934 81.3428 128.907 81.2584 128.862 81.1836C128.817 81.1088 128.754 81.0459 128.68 81Z" fill="white"/>
<path opacity="0.5" d="M221.79 57.17L212.45 73.88C212.392 73.9807 212.355 74.0921 212.34 74.2075C212.326 74.3229 212.335 74.4399 212.367 74.5518C212.398 74.6637 212.452 74.768 212.525 74.8588C212.598 74.9495 212.688 75.0247 212.79 75.08L224.22 81.47H226.61L213.56 74.18L222.63 58L233.78 64.23V62.9L222.99 56.9C222.794 56.7794 222.559 56.7401 222.335 56.7905C222.111 56.841 221.915 56.9772 221.79 57.17Z" fill="white"/>
<path opacity="0.5" d="M133.43 37.49L151.92 43.49C152.209 43.5849 152.524 43.5614 152.796 43.4245C153.068 43.2877 153.274 43.0488 153.37 42.76L156.6 32.89C156.647 32.7475 156.665 32.5972 156.654 32.4477C156.642 32.2981 156.602 32.1523 156.534 32.0185C156.466 31.8847 156.372 31.7657 156.259 31.6681C156.145 31.5706 156.013 31.4964 155.87 31.45L151.65 30.07C151.396 29.9864 151.173 29.8299 151.007 29.6201C150.842 29.4102 150.742 29.1563 150.72 28.89L150.64 27.89C150.618 27.6544 150.534 27.4287 150.397 27.2356C150.26 27.0426 150.075 26.8889 149.86 26.79H146.55L148.19 27.32L147.87 28.32L145.7 27.61L145.97 26.81H142.46C142.175 26.9099 141.865 26.9099 141.58 26.81H141.51H135.72L132.72 36.06C132.628 36.3439 132.65 36.6527 132.783 36.9201C132.916 37.1874 133.148 37.3921 133.43 37.49ZM153 32.43L155.16 33.14L154.84 34.14L152.68 33.43L153 32.43ZM140.83 33.24C141.083 32.4943 141.551 31.8399 142.175 31.359C142.798 30.8781 143.55 30.5919 144.336 30.5365C145.122 30.4811 145.906 30.6588 146.591 31.0474C147.276 31.436 147.831 32.0182 148.187 32.721C148.542 33.4237 148.682 34.2158 148.59 34.9979C148.497 35.78 148.175 36.5173 147.665 37.1174C147.155 37.7174 146.479 38.1535 145.722 38.371C144.965 38.5885 144.161 38.5777 143.41 38.34C142.901 38.1814 142.428 37.9226 142.021 37.5787C141.613 37.2348 141.278 36.8129 141.036 36.3377C140.793 35.8625 140.649 35.3436 140.61 34.8116C140.571 34.2797 140.639 33.7453 140.81 33.24H140.83Z" fill="white"/>
<path opacity="0.5" d="M147.81 74.62L149.88 81.47H150.73L148.99 75.71L161.47 71.94L164.35 81.47H165.2L161.85 70.37L147.81 74.62Z" fill="white"/>
<path opacity="0.5" d="M172.47 81L169.21 70.23C169.137 69.9723 169.013 69.7319 168.845 69.523C168.677 69.3142 168.469 69.1412 168.233 69.0144C167.997 68.8875 167.738 68.8094 167.471 68.7846C167.204 68.7598 166.935 68.7888 166.68 68.87L162.78 70.05L166.22 81.45H172.55C172.533 81.2984 172.506 81.1481 172.47 81ZM166.7 77.6C166.573 77.6375 166.438 77.6367 166.312 77.5977C166.186 77.5587 166.074 77.4831 165.99 77.3806C165.907 77.2781 165.855 77.1532 165.843 77.0217C165.83 76.8901 165.857 76.7577 165.919 76.6412C165.982 76.5247 166.077 76.4292 166.194 76.3668C166.31 76.3045 166.443 76.278 166.574 76.2907C166.706 76.3034 166.831 76.3547 166.933 76.4382C167.036 76.5217 167.111 76.6337 167.15 76.76C167.179 76.8459 167.191 76.9369 167.184 77.0274C167.177 77.1179 167.151 77.206 167.109 77.2865C167.067 77.3669 167.009 77.4379 166.939 77.4953C166.869 77.5526 166.787 77.595 166.7 77.62V77.6ZM166.79 75.32C166.751 75.1516 166.778 74.9747 166.864 74.8252C166.951 74.6757 167.091 74.5648 167.257 74.5152C167.423 74.4655 167.601 74.4807 167.756 74.5578C167.91 74.6349 168.03 74.7679 168.09 74.93C168.129 75.0984 168.102 75.2753 168.016 75.4248C167.929 75.5743 167.788 75.6852 167.623 75.7349C167.457 75.7845 167.279 75.7693 167.124 75.6922C166.97 75.6152 166.85 75.4821 166.79 75.32ZM168.53 78.53C168.445 78.5556 168.356 78.5643 168.268 78.5555C168.18 78.5468 168.095 78.5208 168.017 78.479C167.939 78.4372 167.87 78.3804 167.814 78.312C167.758 78.2435 167.716 78.1647 167.69 78.08C167.664 77.9953 167.656 77.9064 167.664 77.8183C167.673 77.7303 167.699 77.6448 167.741 77.5668C167.783 77.4888 167.84 77.4198 167.908 77.3637C167.976 77.3077 168.055 77.2656 168.14 77.24C168.311 77.19 168.495 77.2091 168.652 77.2932C168.809 77.3774 168.927 77.5199 168.98 77.69C169.011 77.7759 169.023 77.8672 169.017 77.9581C169.011 78.0491 168.986 78.1378 168.943 78.2186C168.901 78.2994 168.843 78.3706 168.771 78.4276C168.7 78.4847 168.618 78.5263 168.53 78.55V78.53ZM169.47 76.7C169.385 76.7276 169.296 76.7377 169.207 76.7298C169.119 76.722 169.032 76.6963 168.954 76.6542C168.875 76.6122 168.806 76.5547 168.751 76.4852C168.695 76.4158 168.654 76.3357 168.63 76.25C168.604 76.1653 168.595 76.0763 168.603 75.9881C168.612 75.8998 168.638 75.8142 168.68 75.736C168.721 75.6579 168.778 75.5889 168.847 75.5329C168.916 75.4769 168.995 75.4352 169.08 75.41C169.251 75.3583 169.436 75.3766 169.593 75.461C169.751 75.5454 169.868 75.6889 169.92 75.86C169.972 76.0311 169.953 76.2157 169.869 76.3732C169.785 76.5307 169.641 76.6483 169.47 76.7Z" fill="white"/>
<path opacity="0.5" d="M143 76.06C142.743 76.1332 142.504 76.2571 142.296 76.4242C142.088 76.5914 141.916 76.7985 141.789 77.0333C141.662 77.2682 141.584 77.526 141.558 77.7916C141.532 78.0573 141.56 78.3253 141.64 78.58L142.52 81.47H145.15C145.185 81.3721 145.242 81.2835 145.317 81.2107C145.391 81.138 145.481 81.083 145.58 81.05C145.744 81.0043 145.92 81.0222 146.072 81.1C146.224 81.1778 146.341 81.3099 146.4 81.47H148.9L146.9 74.88L143 76.06Z" fill="white"/>
<path opacity="0.5" d="M182.31 26.8H179.57L181.06 28.16L182.31 26.8Z" fill="white"/>
<path opacity="0.5" d="M177.66 31.91L180.42 28.91L178.12 26.81H174.47C174.49 26.9125 174.487 27.0183 174.459 27.119C174.431 27.2197 174.38 27.3125 174.31 27.39C174.183 27.514 174.012 27.5834 173.835 27.5834C173.657 27.5834 173.487 27.514 173.36 27.39C173.278 27.3118 173.217 27.2136 173.184 27.1049C173.15 26.9963 173.146 26.881 173.17 26.77H172.38C172.43 26.8875 172.445 27.0167 172.423 27.1425C172.402 27.2683 172.345 27.3854 172.26 27.48C172.133 27.604 171.962 27.6734 171.785 27.6734C171.607 27.6734 171.437 27.604 171.31 27.48C171.21 27.3864 171.141 27.2643 171.112 27.1302C171.083 26.996 171.097 26.8564 171.15 26.73H169.07L174.8 32C174.992 32.1848 175.219 32.3292 175.468 32.4249C175.717 32.5206 175.982 32.5656 176.249 32.5572C176.515 32.5488 176.777 32.4872 177.02 32.3761C177.262 32.2649 177.48 32.1065 177.66 31.91Z" fill="white"/>
<path opacity="0.5" d="M105.25 34.9L103.85 34.31C103.703 34.2446 103.581 34.1355 103.498 33.9977C103.416 33.8599 103.378 33.7001 103.39 33.54L101.92 32.91L101.84 33.11C101.569 33.7453 101.562 34.462 101.819 35.103C102.075 35.744 102.576 36.2571 103.21 36.53L106.91 38.1C107.224 38.2353 107.562 38.3072 107.905 38.3115C108.247 38.3159 108.587 38.2526 108.905 38.1253C109.222 37.998 109.512 37.8092 109.756 37.5698C110.001 37.3303 110.196 37.045 110.33 36.73L110.41 36.53L106.12 34.7C106.016 34.8222 105.875 34.9075 105.718 34.9435C105.561 34.9796 105.397 34.9643 105.25 34.9Z" fill="white"/>
<path opacity="0.5" d="M109.32 32.46L105.62 30.89C105.306 30.7547 104.968 30.6828 104.625 30.6785C104.283 30.6742 103.943 30.7374 103.625 30.8647C103.308 30.992 103.018 31.1808 102.774 31.4202C102.529 31.6597 102.334 31.9451 102.2 32.26L102.12 32.46L103.59 33.09C103.695 32.9687 103.835 32.8833 103.991 32.8456C104.147 32.808 104.311 32.82 104.46 32.88L105.86 33.48C106.007 33.5454 106.129 33.6545 106.212 33.7923C106.294 33.9301 106.332 34.0899 106.32 34.25L110.61 36.07L110.69 35.88C110.825 35.5656 110.897 35.2275 110.901 34.8853C110.906 34.543 110.843 34.2032 110.715 33.8855C110.588 33.5677 110.399 33.2782 110.16 33.0336C109.92 32.789 109.635 32.5941 109.32 32.46Z" fill="white"/>
<path d="M184.44 324.79H179.03L180.86 306.71H188.1L184.44 324.79Z" fill="#263238"/>
<path d="M240.25 324.79H234.84L236.67 306.71H243.91L240.25 324.79Z" fill="#263238"/>
<path d="M275.1 324.79H280.51L278.68 306.71H271.44L275.1 324.79Z" fill="#263238"/>
<path d="M219.28 324.79H224.7L222.87 306.71H215.63L219.28 324.79Z" fill="#263238"/>
<path d="M353.79 324.79H359.2L357.37 306.71H350.13L353.79 324.79Z" fill="#263238"/>
<path d="M297.97 324.79H303.39L301.56 306.71H294.31L297.97 324.79Z" fill="#263238"/>
<path opacity="0.2" d="M275.1 324.79H280.51L278.68 306.71H271.44L275.1 324.79Z" fill="white"/>
<path opacity="0.2" d="M219.28 324.79H224.7L222.87 306.71H215.63L219.28 324.79Z" fill="white"/>
<path opacity="0.2" d="M353.79 324.79H359.2L357.37 306.71H350.13L353.79 324.79Z" fill="white"/>
<path opacity="0.2" d="M297.97 324.79H303.39L301.56 306.71H294.31L297.97 324.79Z" fill="white"/>
<path d="M111.24 324.79H105.83L107.66 306.71H114.9L111.24 324.79Z" fill="#263238"/>
<path d="M167.06 324.79H161.64L163.47 306.71H170.72L167.06 324.79Z" fill="#263238"/>
<path d="M249.5 265.05H362L379.14 176.5C379.581 174.229 379.514 171.889 378.944 169.647C378.375 167.405 377.316 165.317 375.844 163.533C374.372 161.748 372.523 160.311 370.431 159.325C368.338 158.34 366.053 157.829 363.74 157.83H283.2C279.558 157.829 276.028 159.095 273.218 161.413C270.408 163.73 268.492 166.954 267.8 170.53L249.5 265.05Z" fill="#263238"/>
<path d="M330.07 265.05H362.07L379.21 176.5C379.651 174.229 379.584 171.889 379.014 169.647C378.445 167.405 377.386 165.317 375.914 163.533C374.442 161.748 372.593 160.311 370.501 159.325C368.408 158.34 366.123 157.829 363.81 157.83C360.168 157.829 356.638 159.095 353.828 161.413C351.018 163.73 349.102 166.954 348.41 170.53L330.07 265.05Z" fill="#263238"/>
<g opacity="0.6">
<path opacity="0.6" d="M249.5 265.05H362L379.14 176.5C379.581 174.229 379.514 171.889 378.944 169.647C378.375 167.405 377.316 165.317 375.844 163.533C374.372 161.748 372.523 160.311 370.431 159.325C368.338 158.34 366.053 157.829 363.74 157.83H283.2C279.558 157.829 276.028 159.095 273.218 161.413C270.408 163.73 268.492 166.954 267.8 170.53L249.5 265.05Z" fill="white"/>
<path opacity="0.6" d="M330.07 265.05H362.07L379.21 176.5C379.651 174.229 379.584 171.889 379.014 169.647C378.445 167.405 377.386 165.317 375.914 163.533C374.442 161.748 372.593 160.311 370.501 159.325C368.408 158.34 366.123 157.829 363.81 157.83C360.168 157.829 356.638 159.095 353.828 161.413C351.018 163.73 349.102 166.954 348.41 170.53L330.07 265.05Z" fill="white"/>
</g>
<path opacity="0.6" d="M249.49 264.88H330.07L348.37 170.45C349.066 166.883 350.985 163.67 353.797 161.366C356.608 159.062 360.135 157.812 363.77 157.83H283.2C279.566 157.814 276.04 159.065 273.229 161.368C270.418 163.672 268.498 166.883 267.8 170.45L249.49 264.88Z" fill="white"/>
<path d="M358.38 263.97H182.97C178.601 263.97 175.06 267.511 175.06 271.88V302.72C175.06 307.089 178.601 310.63 182.97 310.63H358.38C362.749 310.63 366.29 307.089 366.29 302.72V271.88C366.29 267.511 362.749 263.97 358.38 263.97Z" fill="#263238"/>
<path opacity="0.6" d="M285.18 263.97H182.97C178.601 263.97 175.06 267.511 175.06 271.88V302.72C175.06 307.089 178.601 310.63 182.97 310.63H285.18C289.549 310.63 293.09 307.089 293.09 302.72V271.88C293.09 267.511 289.549 263.97 285.18 263.97Z" fill="white"/>
<path opacity="0.6" d="M358.38 263.97H182.97C178.601 263.97 175.06 267.511 175.06 271.88V302.72C175.06 307.089 178.601 310.63 182.97 310.63H358.38C362.749 310.63 366.29 307.089 366.29 302.72V271.88C366.29 267.511 362.749 263.97 358.38 263.97Z" fill="white"/>
<path d="M281.52 263.97H106.11C101.741 263.97 98.2 267.511 98.2 271.88V302.72C98.2 307.089 101.741 310.63 106.11 310.63H281.52C285.889 310.63 289.43 307.089 289.43 302.72V271.88C289.43 267.511 285.889 263.97 281.52 263.97Z" fill="#263238"/>
<path opacity="0.6" d="M208.32 263.97H106.11C101.741 263.97 98.2 267.511 98.2 271.88V302.72C98.2 307.089 101.741 310.63 106.11 310.63H208.32C212.689 310.63 216.23 307.089 216.23 302.72V271.88C216.23 267.511 212.689 263.97 208.32 263.97Z" fill="white"/>
<path opacity="0.6" d="M281.52 263.97H106.11C101.741 263.97 98.2 267.511 98.2 271.88V302.72C98.2 307.089 101.741 310.63 106.11 310.63H281.52C285.889 310.63 289.43 307.089 289.43 302.72V271.88C289.43 267.511 285.889 263.97 281.52 263.97Z" fill="white"/>
<path d="M230.48 242C230.57 242.16 230.67 242.22 230.78 242.21C233.97 241.63 242.51 246.3 252.91 251.7L255.83 253.2C256.15 253.38 256.48 253.54 256.83 253.71C262.08 256.39 267.65 259.1 273.16 261.31C279.64 263.94 286.04 265.89 291.67 266.31C292.43 266.37 293.18 266.4 293.91 266.4C319.19 266.4 310.91 224.68 310.91 224.68L280.72 222.37L277.16 228.51L275.23 231.83L270.87 230.66C268.69 230.07 265.43 229.31 261.69 228.52L260.82 228.33C259.57 228.06 258.26 227.79 256.92 227.53C247.07 225.53 235.76 223.6 231.57 223.53C228.61 223.51 229.13 240 230.48 242Z" fill="#E4897B"/>
<path d="M261.14 226.86L255.27 255.86C255.27 255.86 275.45 272.25 292.79 265.86C310.13 259.47 304.68 230 304.68 230L283.45 216.63L275 228.43L261.14 226.86Z" fill="#6ECAE8"/>
<path d="M262.14 226.29L256.04 257.71L252.38 254.82L257.26 225.68L262.14 226.29Z" fill="#6ECAE8"/>
<path opacity="0.4" d="M252.38 254.82L256.04 257.71L256.25 256.62L256.82 253.66L259.3 240.88L261.72 228.47L261.98 227.07L262.14 226.29L257.25 225.69L256.95 227.48L254.66 241.15L252.91 251.65L252.38 254.82Z" fill="white"/>
<path opacity="0.2" d="M230.48 242C230.57 242.16 230.67 242.22 230.78 242.21C233.97 241.63 242.51 246.3 252.91 251.7L252.38 254.87L256.04 257.76L256.25 256.56C260.132 259.245 264.241 261.587 268.53 263.56L273.15 261.21L279.83 257.72L277.08 232.72L273.08 238.21C273.08 238.21 263.84 240.45 259.26 240.89L258.26 240.99C257 241.09 255.78 241.16 254.63 241.17C253.83 241.17 253.07 241.17 252.35 241.1C244.51 240.53 236 240.24 230.48 242Z" fill="black"/>
<path d="M167 258.8L167.29 264.85H167.99C168.88 264.91 170.57 264.99 172.87 265.1C185.87 265.7 217.98 266.83 231.68 264.1L294.68 265.31L280.84 241.07L194.25 254.54L167.6 258.69L167 258.8Z" fill="#E4897B"/>
<path d="M156.55 251.6C156.66 253.96 156.75 256.09 156.84 258.06C156.97 260.75 157.07 263.15 157.18 265.43C157.37 269.43 160.63 266.77 167.7 266.28C167.87 266.28 167.93 265.71 167.94 264.88C167.94 263.12 167.69 260.14 167.54 258.71L167.46 257.89C166.595 257.092 165.776 256.244 165.01 255.35C163.04 253.243 161.535 250.745 160.59 248.02C159.18 243.07 156.3 246 156.55 251.6Z" fill="#263238"/>
<path d="M263.58 242.91L270.68 267.69L284.62 266.35C284.62 266.35 324.7 276.93 313.56 219.47L283.45 216.58L274.67 239.48L263.58 242.91Z" fill="#6ECAE8"/>
<path d="M265.11 241.56L273.12 268.08H268.39L261.37 242.91L265.11 241.56Z" fill="#6ECAE8"/>
<path opacity="0.4" d="M265.11 241.56L273.12 268.08H268.39L261.37 242.91L265.11 241.56Z" fill="white"/>
<path opacity="0.2" d="M156.84 258.06C156.97 260.75 157.07 263.15 157.18 265.43C157.37 269.43 160.63 266.77 167.7 266.28C167.87 266.28 167.93 265.71 167.94 264.88C168.83 264.94 170.52 265.02 172.82 265.13C179.5 261.37 188.82 257 194.19 254.56L167.54 258.71L167.46 257.89C166.595 257.092 165.776 256.244 165.01 255.35L156.84 258.06Z" fill="black"/>
<path d="M231.59 223.53C232.69 223.53 231.94 241.94 230.79 242.15C225.87 243.04 158.79 262.83 158.79 262.83L156.79 256.96C156.79 256.96 220.61 223.47 231.59 223.53Z" fill="#E4897B"/>
<path d="M159.62 264C160.27 263.77 157.11 256 157.11 256C157.11 256 150.51 252.76 147.81 248.38C145.11 244 143.14 247.6 144.91 252.91C146.68 258.22 148.02 262.28 149.28 266.06C150.54 269.84 153 266.35 159.62 264Z" fill="#263238"/>
<path d="M314.04 219.32L314.34 223.89L283.18 217.29L284.52 212.24L314.04 219.32Z" fill="#263238"/>
<path d="M302.847 223.653L304.322 223.927L305.715 216.415L304.241 216.141L302.847 223.653Z" fill="#6ECAE8"/>
<path d="M290.184 219.14L296.652 220.598L297.758 215.691L291.29 214.233L290.184 219.14Z" fill="white"/>
<path d="M284.804 219.223L286.279 219.497L287.671 211.985L286.196 211.711L284.804 219.223Z" fill="#6ECAE8"/>
<path d="M297.2 132C297.2 132 312.98 124.32 318.2 140.84C323.42 157.36 316.73 168.77 316.73 168.77C316.73 168.77 298.46 164.08 283.07 167.35C283.07 167.35 286.39 153.27 285.6 145.19C284.81 137.11 297.2 132 297.2 132Z" fill="#263238"/>
<path d="M284.88 169.4C281.41 169.56 266.88 189.08 266.88 189.08L261.48 182.08C261.48 182.08 253.15 198.26 257.27 205.96C261.39 213.66 283.09 192.61 283.09 192.61L284.88 169.4Z" fill="#6ECAE8"/>
<path opacity="0.6" d="M284.88 169.4L283.45 185L283.08 192.62C283.08 192.62 279.51 196.07 275 199.67C268.38 204.96 259.71 210.54 257.26 205.97C253.14 198.27 261.47 182.09 261.47 182.09L266.87 189.09V189.04C267.73 187.85 281.52 169.55 284.88 169.4Z" fill="white"/>
<path opacity="0.2" d="M283.45 185L283.08 192.62C283.08 192.62 279.51 196.07 275 199.67C274.57 190.53 283.08 177.22 283.08 177.22L283.45 185Z" fill="black"/>
<path opacity="0.2" d="M266.87 189.08L267.64 190.57L265.38 199.38C265.38 199.38 271.62 193.69 267.64 188.13L266.87 189.08Z" fill="black"/>
<path d="M284.25 213.14L314 219.47C314 219.47 313.91 202.99 316.24 193.89C317 190.94 317.95 187.63 319.16 183.78C319.67 182.16 320.23 180.44 320.85 178.6C321.47 176.76 322.02 175.06 322.68 173.15C318.677 171.871 314.586 170.885 310.44 170.2C306.062 169.418 301.634 168.95 297.19 168.8C291.46 168.75 284.86 169.4 284.86 169.4C284.86 169.4 283.93 169.63 283.33 175.71C282.81 181.42 283.06 192.36 284.25 213.14Z" fill="#6ECAE8"/>
<path opacity="0.6" d="M284.25 213.13L314 219.47C314 219.47 314 219.11 314 218.47C314.13 214.64 314.21 201.7 316.21 193.9C316.75 191.8 317.39 189.5 318.16 186.96C318.46 185.96 318.78 184.9 319.16 183.8C319.67 182.17 320.23 180.45 320.84 178.61C321.45 176.77 322.01 175.08 322.68 173.17C318.676 171.881 314.586 170.879 310.44 170.17C306.062 169.394 301.634 168.926 297.19 168.77C291.45 168.77 284.86 169.37 284.86 169.37C284.86 169.37 283.92 169.6 283.33 175.68C282.81 181.43 283.06 192.36 284.25 213.13Z" fill="white"/>
<path d="M299.65 175.32C306.92 174.39 309.11 171.32 309.11 171.32C306.11 168.52 306.67 164.38 307.43 161.8C307.664 160.983 307.965 160.187 308.33 159.42L299.57 161C299.774 162.22 299.887 163.453 299.91 164.69C299.939 165.6 299.859 166.51 299.67 167.4C299.07 170.01 297.58 170.05 297.58 170.05C296 172.94 299.65 175.32 299.65 175.32Z" fill="#E4897B"/>
<path opacity="0.2" d="M299.91 164.71C299.939 165.62 299.859 166.53 299.67 167.42C303.14 166.96 305.78 164.18 307.43 161.76C307.664 160.943 307.965 160.147 308.33 159.38L299.57 161C299.775 162.227 299.888 163.467 299.91 164.71Z" fill="black"/>
<path d="M297.58 136.45C289.52 138.1 287.81 142.94 288.91 151.36C290.29 161.89 294.1 168.79 303.72 164.52C316.79 158.72 311 133.72 297.58 136.45Z" fill="#E4897B"/>
<path d="M294 149.85C293.599 151.184 293.042 152.467 292.34 153.67C292.644 153.954 293.02 154.149 293.428 154.234C293.835 154.318 294.258 154.289 294.65 154.15L294 149.85Z" fill="#DE5753"/>
<path d="M297.77 142.6C298.393 142.394 299.054 142.333 299.704 142.421C300.354 142.51 300.975 142.745 301.52 143.11" stroke="#263238" stroke-width="0.72468" stroke-linecap="round" stroke-linejoin="round"/>
<path d="M291.85 143.46C291.27 143.432 290.692 143.537 290.158 143.765C289.624 143.994 289.15 144.341 288.77 144.78" stroke="#263238" stroke-width="0.72468" stroke-linecap="round" stroke-linejoin="round"/>
<path d="M309.16 148.23C309.16 148.23 304.04 142.38 303.57 137.16C303.57 137.16 286.27 133.89 288.79 150.26C288.79 150.26 284.29 136.19 298.08 133.04C311.87 129.89 315.94 150.17 310.02 157.66C310 157.66 312.33 151.9 309.16 148.23Z" fill="#263238"/>
<path d="M308.19 150.2C308.08 149.254 308.348 148.303 308.936 147.553C309.524 146.804 310.385 146.318 311.33 146.2C313.89 145.96 316.12 150.84 310.16 153.34C309.31 153.7 308.63 152.93 308.19 150.2Z" fill="#E4897B"/>
<path d="M294.9 156.56C295.585 157.297 296.217 158.083 296.79 158.91L297.27 158.68C299.43 157.62 300.08 156.41 300.15 155.4C300.169 154.617 299.918 153.851 299.44 153.23C298.401 154.493 297.101 155.516 295.63 156.23C295.19 156.43 294.9 156.56 294.9 156.56Z" fill="#263238"/>
<path d="M295.63 156.19L296.21 156.87C298.21 155.87 299.53 154.87 299.87 153.96C299.762 153.698 299.617 153.452 299.44 153.23C298.397 154.478 297.097 155.488 295.63 156.19Z" fill="white"/>
<path d="M297.27 158.68C299.43 157.62 300.08 156.41 300.15 155.4C299.338 155.818 298.607 156.377 297.99 157.05C297.583 157.503 297.331 158.074 297.27 158.68Z" fill="#DE5753"/>
<path d="M297.87 137C297.87 137 303.82 149.59 312.13 147.72C320.44 145.85 304.13 131.72 304.13 131.72C304.13 131.72 289.46 129.36 284.21 137.96C278.96 146.56 288.78 150.26 288.78 150.26C288.78 150.26 286.18 140.1 297.87 137Z" fill="#263238"/>
<path d="M297.76 136.07C297.76 136.07 298.62 145.32 305.87 147.15" stroke="#263238" stroke-width="0.5" stroke-linecap="round" stroke-linejoin="round"/>
<path d="M298.74 148.62C298.74 149.26 299.13 149.76 299.56 149.75C299.99 149.74 300.31 149.2 300.28 148.56C300.25 147.92 299.89 147.42 299.47 147.43C299.05 147.44 298.72 148 298.74 148.62Z" fill="#263238"/>
<path d="M299.65 147.46L298.23 146.97C298.23 146.97 299 148.11 299.65 147.46Z" fill="#263238"/>
<path d="M290.79 148.81C290.79 149.45 291.18 149.95 291.61 149.93C292.04 149.91 292.36 149.38 292.33 148.74C292.3 148.1 291.94 147.6 291.51 147.62C291.08 147.64 290.76 148.17 290.79 148.81Z" fill="#263238"/>
<path d="M291.69 147.64L290.28 147.15C290.28 147.15 291 148.29 291.69 147.64Z" fill="#263238"/>
<path d="M279.58 182.29C279.596 182.396 279.589 182.505 279.558 182.608C279.528 182.711 279.475 182.806 279.403 182.887C279.331 182.967 279.243 183.03 279.144 183.073C279.045 183.115 278.938 183.134 278.83 183.13H270.46C270.231 183.119 270.012 183.03 269.841 182.877C269.67 182.724 269.556 182.517 269.52 182.29L267.65 165.79C267.627 165.674 267.629 165.554 267.656 165.438C267.683 165.322 267.734 165.214 267.805 165.119C267.877 165.025 267.968 164.947 268.072 164.89C268.177 164.833 268.292 164.799 268.41 164.79H276.77C277.019 164.82 277.25 164.937 277.421 165.119C277.593 165.302 277.695 165.54 277.71 165.79L279.58 182.29Z" fill="#263238"/>
<path opacity="0.5" d="M276.79 165.68L278.68 182.35C278.704 182.447 278.705 182.548 278.682 182.645C278.659 182.742 278.614 182.833 278.55 182.909C278.485 182.985 278.403 183.045 278.311 183.083C278.219 183.122 278.119 183.138 278.02 183.13H270.93C270.45 183.13 269.58 182.87 269.53 182.4L267.64 165.68C267.58 165.21 268.4 164.84 268.87 164.84H276C276.212 164.857 276.411 164.953 276.557 165.108C276.703 165.263 276.786 165.467 276.79 165.68Z" fill="white"/>
<path d="M262.06 183.67L266.42 176.27C266.386 174.662 266.51 173.054 266.79 171.47C267.17 170.55 271.44 168.47 272.28 168.8C273.12 169.13 273.43 176.73 272.66 177.8C271.89 178.87 269.23 179.97 269.23 179.97L269.41 181.42L266.87 189.12L262.06 183.67Z" fill="#E4897B"/>
<path d="M260.31 182.83L261.76 181.38L268.62 189.08L267.64 192.13L260.31 182.83Z" fill="#6ECAE8"/>
<path opacity="0.2" d="M295.08 195.13C295.08 195.13 303.15 213.52 313.56 219.47C313.69 215.64 314.26 201.69 316.26 193.89C316.8 191.79 317.44 189.49 318.21 186.95L315 183.14C315 183.14 312.81 189.95 313.78 195.86L301.64 188.42L295.08 195.13Z" fill="black"/>
<path d="M302.89 190.91L293 183.13C292.426 181.449 291.724 179.814 290.9 178.24C290.29 177.52 281.61 174.31 280.9 174.24C280.19 174.17 280.9 181.36 281.99 182.59C283.08 183.82 290.07 186.23 290.07 186.23L300.41 196L302.89 190.91Z" fill="#E4897B"/>
<path d="M322.7 173.15C328.52 176.07 331.11 208.93 321.01 214.6C310.91 220.27 295.8 194.6 295.8 194.6L301.67 188.37C301.67 188.37 313.97 198.67 315.45 197.73C316.93 196.79 315.25 186.73 315.25 186.73C315.25 186.73 313.52 183.68 317.16 178.89C320.8 174.1 322.7 173.15 322.7 173.15Z" fill="#6ECAE8"/>
<path opacity="0.6" d="M322.7 173.15C328.52 176.07 331.11 208.93 321.01 214.6C310.91 220.27 295.8 194.6 295.8 194.6L301.67 188.37C301.67 188.37 313.97 198.67 315.45 197.73C316.93 196.79 315.25 186.73 315.25 186.73C315.25 186.73 313.52 183.68 317.16 178.89C320.8 174.1 322.7 173.15 322.7 173.15Z" fill="white"/>
<path d="M295.69 196.92L293.93 195.87L300.52 186.21L302.94 187.55L295.69 196.92Z" fill="#6ECAE8"/>
<path d="M355.71 213.24H386.71C386.906 213.24 387.094 213.318 387.233 213.457C387.372 213.596 387.45 213.784 387.45 213.98V240.81H355V214C354.995 213.805 355.066 213.617 355.199 213.474C355.332 213.332 355.515 213.248 355.71 213.24Z" fill="#263238"/>
<path d="M385 214.1H356.59C355.916 214.1 355.37 214.646 355.37 215.32V238.74C355.37 239.414 355.916 239.96 356.59 239.96H385C385.674 239.96 386.22 239.414 386.22 238.74V215.32C386.22 214.646 385.674 214.1 385 214.1Z" fill="#6ECAE8"/>
<path opacity="0.2" d="M385 214.1H356.59C355.916 214.1 355.37 214.646 355.37 215.32V238.74C355.37 239.414 355.916 239.96 356.59 239.96H385C385.674 239.96 386.22 239.414 386.22 238.74V215.32C386.22 214.646 385.674 214.1 385 214.1Z" fill="black"/>
<path d="M383 214.1H354.59C353.916 214.1 353.37 214.646 353.37 215.32V238.74C353.37 239.414 353.916 239.96 354.59 239.96H383C383.674 239.96 384.22 239.414 384.22 238.74V215.32C384.22 214.646 383.674 214.1 383 214.1Z" fill="#6ECAE8"/>
<path opacity="0.7" d="M383 214.1H354.59C353.916 214.1 353.37 214.646 353.37 215.32V238.74C353.37 239.414 353.916 239.96 354.59 239.96H383C383.674 239.96 384.22 239.414 384.22 238.74V215.32C384.22 214.646 383.674 214.1 383 214.1Z" fill="white"/>
<path d="M354.59 214.1H383C383.16 214.1 383.319 214.132 383.467 214.193C383.615 214.254 383.749 214.344 383.863 214.457C383.976 214.571 384.066 214.705 384.127 214.853C384.188 215.001 384.22 215.16 384.22 215.32V223H353.37V215.33C353.369 215.169 353.399 215.009 353.46 214.86C353.521 214.711 353.61 214.575 353.724 214.461C353.837 214.346 353.972 214.256 354.121 214.194C354.27 214.132 354.429 214.1 354.59 214.1Z" fill="#6ECAE8"/>
<path d="M359.87 221.21V218.72L358.64 220.78H358.33L357.09 218.78V221.24H356.43V217.48H357L358.49 219.97L359.96 217.48H360.53V221.24L359.87 221.21Z" fill="white"/>
<path d="M361.27 219.33C361.256 218.932 361.361 218.538 361.573 218.2C361.784 217.862 362.091 217.595 362.455 217.433C362.819 217.271 363.223 217.221 363.616 217.29C364.008 217.359 364.371 217.544 364.658 217.821C364.944 218.098 365.142 218.454 365.225 218.843C365.308 219.233 365.273 219.639 365.124 220.008C364.974 220.378 364.718 220.694 364.388 220.917C364.058 221.14 363.668 221.26 363.27 221.26C363.011 221.269 362.752 221.226 362.51 221.134C362.268 221.041 362.047 220.9 361.86 220.72C361.673 220.54 361.525 220.324 361.423 220.085C361.322 219.846 361.27 219.589 361.27 219.33ZM364.62 219.33C364.62 219.069 364.543 218.814 364.398 218.597C364.253 218.38 364.046 218.21 363.805 218.11C363.564 218.011 363.299 217.984 363.042 218.035C362.786 218.086 362.551 218.212 362.367 218.397C362.182 218.581 362.056 218.816 362.005 219.072C361.954 219.329 361.981 219.594 362.08 219.835C362.18 220.076 362.35 220.283 362.567 220.428C362.784 220.573 363.039 220.65 363.3 220.65C363.475 220.656 363.649 220.625 363.812 220.561C363.974 220.496 364.122 220.399 364.246 220.276C364.369 220.152 364.466 220.004 364.531 219.842C364.595 219.679 364.626 219.505 364.62 219.33Z" fill="white"/>
<path d="M369.4 217.45V221.21H368.83L366.75 218.66V221.21H366.06V217.45H366.63L368.71 219.99V217.45H369.4Z" fill="white"/>
<path d="M370.41 217.45H372.05C372.313 217.423 372.579 217.451 372.831 217.533C373.082 217.615 373.314 217.749 373.51 217.927C373.707 218.104 373.864 218.32 373.971 218.562C374.079 218.804 374.134 219.065 374.134 219.33C374.134 219.595 374.079 219.856 373.971 220.098C373.864 220.34 373.707 220.556 373.51 220.733C373.314 220.911 373.082 221.045 372.831 221.127C372.579 221.209 372.313 221.237 372.05 221.21H370.41V217.45ZM372.02 220.62C372.189 220.62 372.357 220.587 372.514 220.522C372.67 220.457 372.812 220.362 372.932 220.242C373.052 220.122 373.147 219.98 373.212 219.824C373.277 219.667 373.31 219.499 373.31 219.33C373.31 219.161 373.277 218.993 373.212 218.836C373.147 218.68 373.052 218.538 372.932 218.418C372.812 218.298 372.67 218.203 372.514 218.138C372.357 218.073 372.189 218.04 372.02 218.04H371.1V220.62H372.02Z" fill="white"/>
<path d="M377.22 220.34H375.34L374.97 221.21H374.25L375.94 217.45H376.63L378.33 221.21H377.6L377.22 220.34ZM376.99 219.79L376.28 218.15L375.58 219.79H376.99Z" fill="white"/>
<path d="M380.2 219.88V221.21H379.5V219.89L378 217.45H378.74L379.84 219.28L380.96 217.45H381.64L380.2 219.88Z" fill="white"/>
<path d="M367.9 233C367.9 234.62 366.68 236 364.1 236C362.809 236.028 361.542 235.639 360.49 234.89L361.26 233.5C362.061 234.127 363.053 234.462 364.07 234.45C365.35 234.45 366.07 233.88 366.07 232.99C366.07 232.1 365.44 231.57 363.99 231.57H363.11V230.35L365.29 227.75H361V226.26H367.54V227.45L365.21 230.22C367 230.52 367.9 231.6 367.9 233Z" fill="#6ECAE8"/>
<path d="M369.06 231.12C369.06 227.96 370.79 226.18 373.06 226.18C375.33 226.18 377.06 227.96 377.06 231.12C377.06 234.28 375.33 236.06 373.06 236.06C370.79 236.06 369.06 234.27 369.06 231.12ZM375.29 231.12C375.29 228.8 374.39 227.73 373.07 227.73C371.75 227.73 370.86 228.8 370.86 231.12C370.86 233.44 371.77 234.51 373.07 234.51C374.37 234.51 375.29 233.44 375.29 231.12Z" fill="#6ECAE8"/>
<path d="M362.62 215.37C362.408 215.37 362.204 215.286 362.054 215.136C361.904 214.986 361.82 214.782 361.82 214.57V213.26C361.82 213.048 361.904 212.844 362.054 212.694C362.204 212.544 362.408 212.46 362.62 212.46H363.49C363.702 212.46 363.906 212.544 364.056 212.694C364.206 212.844 364.29 213.048 364.29 213.26V214.1H365V213.26C364.997 212.86 364.837 212.478 364.555 212.195C364.272 211.913 363.89 211.753 363.49 211.75H362.62C362.221 211.753 361.84 211.913 361.559 212.196C361.278 212.479 361.12 212.861 361.12 213.26V214.57C361.12 214.969 361.278 215.351 361.559 215.634C361.84 215.917 362.221 216.077 362.62 216.08C362.672 216.089 362.724 216.086 362.775 216.072C362.825 216.058 362.872 216.034 362.912 216C362.952 215.966 362.984 215.924 363.006 215.877C363.028 215.829 363.04 215.777 363.04 215.725C363.04 215.673 363.028 215.621 363.006 215.573C362.984 215.526 362.952 215.484 362.912 215.45C362.872 215.416 362.825 215.392 362.775 215.378C362.724 215.364 362.672 215.361 362.62 215.37Z" fill="#263238"/>
<path d="M372.62 215.37C372.408 215.37 372.204 215.286 372.054 215.136C371.904 214.986 371.82 214.782 371.82 214.57V213.26C371.82 213.048 371.904 212.844 372.054 212.694C372.204 212.544 372.408 212.46 372.62 212.46H373.49C373.702 212.46 373.906 212.544 374.056 212.694C374.206 212.844 374.29 213.048 374.29 213.26V214.1H375V213.26C374.997 212.86 374.837 212.478 374.555 212.195C374.272 211.913 373.89 211.753 373.49 211.75H372.62C372.221 211.753 371.84 211.913 371.559 212.196C371.278 212.479 371.12 212.861 371.12 213.26V214.57C371.12 214.969 371.278 215.351 371.559 215.634C371.84 215.917 372.221 216.077 372.62 216.08C372.672 216.089 372.724 216.086 372.775 216.072C372.825 216.058 372.872 216.034 372.912 216C372.952 215.966 372.984 215.924 373.006 215.877C373.028 215.829 373.04 215.777 373.04 215.725C373.04 215.673 373.028 215.621 373.006 215.573C372.984 215.526 372.952 215.484 372.912 215.45C372.872 215.416 372.825 215.392 372.775 215.378C372.724 215.364 372.672 215.361 372.62 215.37Z" fill="#263238"/>
<path d="M389.22 241.77V241.43C389.221 241.319 389.201 241.209 389.159 241.107C389.117 241.004 389.055 240.911 388.977 240.833C388.899 240.755 388.806 240.693 388.703 240.651C388.601 240.609 388.491 240.589 388.38 240.59H353.53C353.307 240.59 353.094 240.678 352.936 240.836C352.779 240.994 352.69 241.207 352.69 241.43V241.77H389.22Z" fill="#263238"/>
<path d="M402.87 191.75H399.09V242.19H402.87V191.75Z" fill="#263238"/>
<path d="M421.17 209.08H380.78L384.05 180.5H417.9L421.17 209.08Z" fill="#6ECAE8"/>
<g opacity="0.6">
<path opacity="0.6" d="M421.17 209.08H380.78L384.05 180.5H417.9L421.17 209.08Z" fill="white"/>
</g>
<path opacity="0.2" d="M402.87 220.59V242.19H399.08V218.22L402.87 220.59Z" fill="white"/>
<path d="M394.36 239.97H407.6L409.96 242.19H392L394.36 239.97Z" fill="#6ECAE8"/>
<path opacity="0.2" d="M394.36 239.97H407.6L409.96 242.19H392L394.36 239.97Z" fill="white"/>
<path d="M421.37 241.82H347.07V324.79H421.37V241.82Z" fill="#6ECAE8"/>
<path opacity="0.2" d="M421.38 241.82H398.58V324.79H421.38V241.82Z" fill="black"/>
<path opacity="0.2" d="M393.5 245.5H350.77V261.57H393.5V245.5Z" fill="white"/>
<path opacity="0.2" d="M393.5 265.5H350.77V281.57H393.5V265.5Z" fill="white"/>
<path opacity="0.2" d="M393.5 285.5H350.77V320.23H393.5V285.5Z" fill="white"/>
<path opacity="0.2" d="M372.72 248.6C372.687 249.024 372.496 249.421 372.183 249.71C371.871 249.999 371.461 250.16 371.035 250.16C370.609 250.16 370.199 249.999 369.887 249.71C369.574 249.421 369.383 249.024 369.35 248.6C369.332 248.368 369.362 248.134 369.439 247.914C369.515 247.695 369.637 247.493 369.795 247.322C369.953 247.151 370.145 247.015 370.358 246.921C370.572 246.828 370.802 246.78 371.035 246.78C371.268 246.78 371.498 246.828 371.712 246.921C371.925 247.015 372.117 247.151 372.275 247.322C372.433 247.493 372.554 247.695 372.631 247.914C372.708 248.134 372.738 248.368 372.72 248.6Z" fill="black"/>
<path opacity="0.2" d="M372.72 267.89C372.687 268.314 372.496 268.711 372.183 269C371.871 269.289 371.461 269.45 371.035 269.45C370.609 269.45 370.199 269.289 369.887 269C369.574 268.711 369.383 268.314 369.35 267.89C369.332 267.658 369.362 267.424 369.439 267.204C369.515 266.985 369.637 266.783 369.795 266.612C369.953 266.441 370.145 266.305 370.358 266.211C370.572 266.118 370.802 266.07 371.035 266.07C371.268 266.07 371.498 266.118 371.712 266.211C371.925 266.305 372.117 266.441 372.275 266.612C372.433 266.783 372.554 266.985 372.631 267.204C372.708 267.424 372.738 267.658 372.72 267.89Z" fill="black"/>
<path opacity="0.2" d="M354.52 302.86C354.52 303.194 354.421 303.521 354.235 303.799C354.049 304.077 353.786 304.293 353.477 304.421C353.168 304.549 352.828 304.583 352.5 304.518C352.172 304.452 351.871 304.291 351.635 304.055C351.399 303.819 351.238 303.518 351.172 303.19C351.107 302.862 351.141 302.522 351.269 302.213C351.397 301.904 351.613 301.641 351.891 301.455C352.169 301.269 352.496 301.17 352.83 301.17C353.278 301.17 353.708 301.348 354.025 301.665C354.342 301.982 354.52 302.412 354.52 302.86Z" fill="black"/>
</g>
<defs>
<clipPath id="clip0">
<rect width="500" height="336" fill="white"/>
</clipPath>
</defs>
</svg>
