<svg width="889" height="318" viewBox="0 0 889 318" fill="none" xmlns="http://www.w3.org/2000/svg">
<g clip-path="url(#clip0_339_1762)">
<rect width="889" height="318" fill="white"/>
<rect width="889" height="318" fill="#1BA58A"/>
<path d="M136.26 416.416L136.107 416.645C131.144 424.411 127.402 432.876 125.013 441.809C118.817 464.923 122.002 489.073 133.969 509.798C145.936 530.523 165.266 545.358 188.381 551.543C236.106 564.327 285.347 535.912 298.132 488.189C300.521 479.245 301.525 470.05 301.099 460.854L300.99 458.585L301.056 458.596L295.547 187.502L136.26 416.416ZM211.551 558C203.598 558 195.537 556.975 187.508 554.815C163.509 548.39 143.459 532.999 131.034 511.5C118.61 489.989 115.315 464.923 121.74 440.936C124.009 432.461 127.435 424.389 131.951 416.917L131.82 416.895L133.282 414.768L298.721 177.009L304.503 461.225C304.885 470.595 303.837 479.954 301.405 489.062C290.278 530.556 252.6 558 211.551 558Z" fill="white"/>
<path d="M136.26 416.416L136.107 416.645C131.144 424.411 127.402 432.876 125.013 441.809C118.817 464.923 122.002 489.073 133.969 509.798C145.936 530.523 165.266 545.358 188.381 551.543C236.106 564.327 285.347 535.912 298.132 488.189C300.521 479.245 301.525 470.05 301.099 460.854L300.99 458.585L301.056 458.596L295.547 187.502L136.26 416.416ZM211.551 558C203.598 558 195.537 556.975 187.508 554.815C163.509 548.39 143.459 532.999 131.034 511.5C118.61 489.989 115.315 464.923 121.74 440.936C124.009 432.461 127.435 424.389 131.951 416.917L131.82 416.895L133.282 414.768L298.721 177.009L304.503 461.225C304.885 470.595 303.837 479.954 301.405 489.062C290.278 530.556 252.6 558 211.551 558V558Z" stroke="white" stroke-width="0.566667" stroke-miterlimit="10"/>
<path d="M123.801 -63.4042C99.868 -63.4042 77.3636 -54.0889 60.4443 -37.1598C43.5142 -20.2307 34.1982 2.26139 34.1982 26.1934C34.1982 50.1362 43.5142 72.6283 60.4334 89.5574C77.3636 106.486 99.868 115.802 123.801 115.802C147.735 115.802 170.239 106.486 187.17 89.5574C222.11 54.6194 222.11 -2.22176 187.17 -37.1598C170.239 -54.0889 147.735 -63.4042 123.801 -63.4042ZM123.801 119.194C98.9626 119.194 75.6073 109.519 58.0444 91.9462C40.4816 74.3845 30.8057 51.0307 30.8057 26.1934C30.8057 1.35604 40.4816 -21.9978 58.0444 -39.5595C75.6073 -57.1213 98.9626 -66.7966 123.801 -66.7966C148.64 -66.7966 171.996 -57.1213 189.559 -39.5595C225.83 -3.30164 225.83 55.6883 189.559 91.9462C171.996 109.519 148.64 119.194 123.801 119.194Z" fill="white"/>
<path d="M123.801 -63.4042C99.868 -63.4042 77.3636 -54.0889 60.4443 -37.1598C43.5142 -20.2307 34.1982 2.26139 34.1982 26.1934C34.1982 50.1362 43.5142 72.6283 60.4334 89.5574C77.3636 106.486 99.868 115.802 123.801 115.802C147.735 115.802 170.239 106.486 187.17 89.5574C222.11 54.6194 222.11 -2.22175 187.17 -37.1598C170.239 -54.0889 147.735 -63.4042 123.801 -63.4042ZM123.801 119.194C98.9626 119.194 75.6073 109.519 58.0444 91.9462C40.4816 74.3845 30.8057 51.0307 30.8057 26.1934C30.8057 1.35604 40.4816 -21.9978 58.0444 -39.5595C75.6073 -57.1213 98.9626 -66.7966 123.801 -66.7966C148.64 -66.7966 171.996 -57.1213 189.558 -39.5595C225.83 -3.30164 225.83 55.6883 189.558 91.9462C171.996 109.519 148.64 119.194 123.801 119.194Z" stroke="white" stroke-width="0.566667" stroke-miterlimit="10"/>
<g clip-path="url(#clip1_339_1762)">
<path opacity="0.1" d="M800.76 205.457C800.456 205.68 800.176 205.896 799.877 206.106C798.776 206.885 797.623 207.588 796.426 208.21C790.157 211.514 782.429 213.128 774.903 214.224C758.022 216.685 740.787 217.163 723.626 217.632C677.256 218.905 630.774 220.175 584.517 217.242C566.241 216.085 547.563 214.148 531.002 208.21C528.628 207.362 526.301 206.426 524.02 205.402C519.405 203.329 514.973 200.804 511.288 197.789C507.824 194.963 505.016 191.717 503.338 188.026C499.838 180.34 501.69 171.707 505.686 164.173C507.346 161.125 509.218 158.198 511.288 155.412C514.373 151.17 517.776 147.05 520.88 142.811C531.925 127.743 539.131 108.68 528.936 93.2256C526.006 88.7856 521.772 84.8877 519.384 80.2529C516.338 74.3239 516.573 67.7401 517.541 61.3451C517.667 60.5331 517.8 59.7291 517.94 58.9333C519.594 49.4505 522.707 39.2337 532.305 33.3138C542.275 27.1625 556.433 27.4731 568.806 29.6596C588.048 33.0946 605.797 40.2448 623.735 46.7006C641.673 53.1565 660.439 59.0551 680.153 59.6885C697.561 60.2488 717.866 56.0556 729.419 45.1567C740.641 34.5715 761.735 33.7645 776.937 40.1595C787.373 44.5477 795.159 52.4531 798.442 61.3451C799.107 63.1303 799.586 64.9795 799.871 66.8631C800.134 68.5845 800.22 70.3284 800.127 72.0673C800.081 72.9261 799.993 73.7757 799.871 74.6162C797.331 92.1628 779.045 106.003 767.93 121.677C762.499 129.333 758.664 138.529 762.399 146.785C768.095 159.365 787.903 163.838 799.865 173.199C802.116 174.903 804.098 176.936 805.744 179.229C811.546 187.56 809.405 198.813 800.76 205.457Z" fill="white"/>
<path d="M547.584 126.927C547.584 126.927 533.572 102.102 512.457 94.9523C503.597 91.9497 495.863 86.3039 490.575 78.5873C488.071 74.9236 485.91 71.0378 484.117 66.9789" stroke="#535461" stroke-width="2" stroke-miterlimit="10"/>
<path d="M470.84 62.3835C473.246 64.707 484.449 67.1432 484.449 67.1432C484.449 67.1432 481.708 56.022 479.296 53.6863C478.136 52.5885 476.59 51.9918 474.994 52.0254C473.397 52.059 471.878 52.7204 470.765 53.8661C469.653 55.0118 469.037 56.5496 469.051 58.1462C469.065 59.7428 469.708 61.2696 470.84 62.3957V62.3835Z" fill="white"/>
<path d="M477.179 82.5096C480.466 83.1612 491.191 79.102 491.191 79.102C491.191 79.102 482.829 71.2575 479.54 70.6058C477.976 70.3305 476.367 70.6785 475.057 71.5752C473.747 72.4719 472.841 73.8458 472.532 75.4027C472.223 76.9595 472.537 78.5753 473.405 79.9037C474.274 81.2322 475.629 82.1676 477.179 82.5096Z" fill="white"/>
<path d="M500.252 104.295C503.42 103.199 510.608 94.2854 510.608 94.2854C510.608 94.2854 499.435 91.7304 496.271 92.8267C495.494 93.0679 494.774 93.4626 494.153 93.9873C493.532 94.5121 493.023 95.1563 492.655 95.8816C492.288 96.6069 492.07 97.3985 492.015 98.2096C491.96 99.0206 492.068 99.8345 492.333 100.603C492.599 101.371 493.016 102.079 493.56 102.683C494.104 103.287 494.764 103.776 495.5 104.12C496.237 104.465 497.035 104.658 497.848 104.688C498.66 104.718 499.471 104.584 500.231 104.295H500.252Z" fill="white"/>
<path d="M521.422 116.838C524.73 116.29 533.332 108.723 533.332 108.723C533.332 108.723 522.753 104.316 519.445 104.862C517.856 105.124 516.437 106.006 515.499 107.314C514.561 108.623 514.181 110.25 514.443 111.838C514.705 113.426 515.588 114.845 516.897 115.783C518.205 116.721 519.833 117.1 521.422 116.838Z" fill="white"/>
<path d="M500.524 70.411C500.524 73.7608 494.462 83.4841 494.462 83.4841C494.462 83.4841 488.388 73.7668 488.385 70.4171C488.367 69.6089 488.511 68.8051 488.808 68.0531C489.105 67.3011 489.549 66.616 490.114 66.038C490.679 65.4599 491.355 65.0007 492.1 64.6871C492.845 64.3736 493.646 64.212 494.455 64.212C495.263 64.212 496.064 64.3736 496.809 64.6871C497.554 65.0007 498.23 65.4599 498.795 66.038C499.36 66.616 499.804 67.3011 500.101 68.0531C500.398 68.8051 500.542 69.6089 500.524 70.4171V70.411Z" fill="white"/>
<path d="M525.099 85.4145C524.097 88.612 515.4 96.0728 515.4 96.0728C515.4 96.0728 512.513 84.973 513.503 81.7603C514.035 80.2893 515.114 79.0805 516.516 78.386C517.918 77.6915 519.534 77.565 521.027 78.0328C522.52 78.5006 523.775 79.5266 524.529 80.8969C525.284 82.2671 525.48 83.8757 525.077 85.3871L525.099 85.4145Z" fill="white"/>
<path d="M546.981 103.245C546.537 106.567 539.226 115.389 539.226 115.389C539.226 115.389 534.505 104.95 534.962 101.628C535.198 100.052 536.045 98.632 537.32 97.6751C538.595 96.7183 540.194 96.3009 541.774 96.5132C543.354 96.7255 544.787 97.5505 545.763 98.8099C546.74 100.069 547.182 101.662 546.994 103.245H546.981Z" fill="white"/>
<path opacity="0.25" d="M470.84 62.3835C473.246 64.707 484.449 67.1432 484.449 67.1432C484.449 67.1432 481.708 56.022 479.296 53.6863C478.136 52.5885 476.59 51.9918 474.994 52.0254C473.397 52.059 471.878 52.7204 470.765 53.8661C469.653 55.0118 469.037 56.5496 469.051 58.1462C469.065 59.7428 469.708 61.2696 470.84 62.3957V62.3835Z" fill="black"/>
<path opacity="0.25" d="M477.179 82.5096C480.466 83.1612 491.191 79.102 491.191 79.102C491.191 79.102 482.829 71.2575 479.54 70.6058C477.976 70.3305 476.367 70.6785 475.057 71.5752C473.747 72.4719 472.841 73.8458 472.532 75.4027C472.223 76.9595 472.537 78.5753 473.405 79.9037C474.274 81.2322 475.629 82.1676 477.179 82.5096Z" fill="black"/>
<path opacity="0.25" d="M500.252 104.295C503.42 103.199 510.608 94.2854 510.608 94.2854C510.608 94.2854 499.435 91.7304 496.271 92.8267C495.494 93.0679 494.774 93.4626 494.153 93.9873C493.532 94.5121 493.023 95.1563 492.655 95.8816C492.288 96.6069 492.07 97.3985 492.015 98.2096C491.96 99.0206 492.068 99.8345 492.333 100.603C492.599 101.371 493.016 102.079 493.56 102.683C494.104 103.287 494.764 103.776 495.5 104.12C496.237 104.465 497.035 104.658 497.848 104.688C498.66 104.718 499.471 104.584 500.231 104.295H500.252Z" fill="black"/>
<path opacity="0.25" d="M521.422 116.838C524.73 116.29 533.332 108.723 533.332 108.723C533.332 108.723 522.753 104.316 519.445 104.862C517.856 105.124 516.437 106.006 515.499 107.314C514.561 108.623 514.181 110.25 514.443 111.838C514.705 113.426 515.588 114.845 516.897 115.783C518.205 116.721 519.833 117.1 521.422 116.838Z" fill="black"/>
<path opacity="0.25" d="M500.524 70.411C500.524 73.7608 494.462 83.4841 494.462 83.4841C494.462 83.4841 488.388 73.7668 488.385 70.4171C488.367 69.6089 488.511 68.8051 488.808 68.0531C489.105 67.3011 489.549 66.616 490.114 66.038C490.679 65.4599 491.355 65.0007 492.1 64.6871C492.845 64.3736 493.646 64.212 494.455 64.212C495.263 64.212 496.064 64.3736 496.809 64.6871C497.554 65.0007 498.23 65.4599 498.795 66.038C499.36 66.616 499.804 67.3011 500.101 68.0531C500.398 68.8051 500.542 69.6089 500.524 70.4171V70.411Z" fill="black"/>
<path opacity="0.25" d="M525.099 85.4145C524.097 88.612 515.4 96.0728 515.4 96.0728C515.4 96.0728 512.513 84.973 513.503 81.7603C514.035 80.2893 515.114 79.0805 516.516 78.386C517.918 77.6915 519.534 77.565 521.027 78.0328C522.52 78.5006 523.775 79.5266 524.529 80.8969C525.284 82.2671 525.48 83.8757 525.077 85.3871L525.099 85.4145Z" fill="black"/>
<path opacity="0.25" d="M546.981 103.245C546.537 106.567 539.226 115.389 539.226 115.389C539.226 115.389 534.505 104.95 534.962 101.628C535.198 100.052 536.045 98.632 537.32 97.6751C538.595 96.7183 540.194 96.3009 541.774 96.5132C543.354 96.7255 544.787 97.5505 545.763 98.8099C546.74 100.069 547.182 101.662 546.994 103.245H546.981Z" fill="black"/>
<path d="M546.777 126.434C546.777 126.434 544.036 98.0584 527.624 82.9663C520.743 76.6322 515.961 68.3492 514.252 59.1404C513.45 54.7757 513.05 50.3467 513.058 45.9089" stroke="#535461" stroke-width="2" stroke-miterlimit="10"/>
<path d="M502.777 36.3379C504.032 39.447 513.295 46.1922 513.295 46.1922C513.295 46.1922 515.29 34.9096 514.038 31.8005C513.436 30.3063 512.265 29.1124 510.783 28.4814C509.301 27.8503 507.628 27.8338 506.134 28.4355C504.639 29.0372 503.445 30.2078 502.814 31.6898C502.183 33.1717 502.166 34.8437 502.768 36.3379H502.777Z" fill="white"/>
<path d="M500.404 57.3043C503.146 59.2319 514.59 59.8623 514.59 59.8623C514.59 59.8623 510.151 49.3075 507.41 47.3799C506.094 46.4511 504.462 46.0832 502.874 46.357C501.287 46.6308 499.873 47.524 498.944 48.8401C498.015 50.1561 497.647 51.7872 497.92 53.3746C498.194 54.9619 499.088 56.3755 500.404 57.3043Z" fill="white"/>
<path d="M512.683 86.5626C516.034 86.8458 526.22 81.6111 526.22 81.6111C526.22 81.6111 517.042 74.7502 513.701 74.47C512.897 74.3844 512.084 74.4603 511.309 74.6931C510.535 74.9259 509.815 75.311 509.192 75.8258C508.569 76.3406 508.054 76.9747 507.679 77.6909C507.304 78.4071 507.076 79.1909 507.009 79.9964C506.941 80.8019 507.035 81.6127 507.285 82.3815C507.535 83.1502 507.936 83.8613 508.464 84.4729C508.993 85.0846 509.638 85.5845 510.363 85.9433C511.087 86.3022 511.876 86.5127 512.683 86.5626Z" fill="white"/>
<path d="M526.951 106.612C530.198 107.453 541.13 104.018 541.13 104.018C541.13 104.018 533.244 95.7044 530 94.8639C528.452 94.4888 526.818 94.7374 525.451 95.556C524.084 96.3747 523.094 97.6976 522.694 99.2396C522.294 100.782 522.517 102.419 523.314 103.798C524.111 105.177 525.418 106.188 526.954 106.612H526.951Z" fill="white"/>
<path d="M526.661 55.7025C525.306 58.766 515.82 65.1945 515.82 65.1945C515.82 65.1945 514.206 53.8541 515.561 50.7875C515.875 50.0456 516.334 49.3736 516.91 48.8107C517.487 48.2477 518.169 47.8051 518.919 47.5087C519.668 47.2123 520.469 47.0679 521.274 47.0841C522.08 47.1003 522.874 47.2766 523.611 47.6028C524.348 47.9291 525.012 48.3987 525.566 48.9843C526.119 49.5699 526.55 50.2597 526.834 51.0136C527.118 51.7676 527.249 52.5704 527.219 53.3754C527.189 54.1805 527 54.9715 526.661 55.7025Z" fill="white"/>
<path d="M543.049 79.3576C540.837 81.876 529.862 85.174 529.862 85.174C529.862 85.174 531.714 73.8702 533.929 71.3518C534.455 70.7531 535.093 70.2638 535.808 69.9119C536.523 69.56 537.3 69.3523 538.096 69.3007C538.891 69.2491 539.688 69.3546 540.443 69.6112C541.197 69.8677 541.894 70.2703 542.493 70.796C543.091 71.3217 543.581 71.9601 543.933 72.6749C544.285 73.3896 544.493 74.1667 544.544 74.9617C544.596 75.7567 544.49 76.5542 544.234 77.3084C543.977 78.0627 543.574 78.759 543.049 79.3576Z" fill="white"/>
<path d="M555.842 104.539C554.088 107.395 543.829 112.499 543.829 112.499C543.829 112.499 543.744 101.043 545.498 98.1864C546.341 96.8134 547.694 95.8312 549.261 95.456C550.828 95.0808 552.48 95.3433 553.853 96.1856C555.227 97.028 556.209 98.3813 556.584 99.9478C556.96 101.514 556.697 103.166 555.854 104.539H555.842Z" fill="white"/>
<path opacity="0.1" d="M593.327 287.362C612.089 287.362 627.299 285.382 627.299 282.94C627.299 280.498 612.089 278.518 593.327 278.518C574.564 278.518 559.354 280.498 559.354 282.94C559.354 285.382 574.564 287.362 593.327 287.362Z" fill="white"/>
<path opacity="0.1" d="M524.706 284.365C530.405 284.365 535.026 283.575 535.026 282.599C535.026 281.624 530.405 280.833 524.706 280.833C519.006 280.833 514.386 281.624 514.386 282.599C514.386 283.575 519.006 284.365 524.706 284.365Z" fill="white"/>
<path d="M526.948 262.933C526.948 262.933 528.62 265.122 526.174 268.414C523.728 271.706 521.711 274.505 522.519 276.566C522.519 276.566 526.207 270.43 529.22 270.345C532.232 270.26 530.256 266.624 526.948 262.933Z" fill="white"/>
<path opacity="0.1" d="M526.948 262.933C527.094 263.145 527.209 263.377 527.289 263.621C530.219 267.062 531.782 270.275 528.964 270.354C526.341 270.43 523.192 275.12 522.439 276.305C522.464 276.396 522.494 276.487 522.528 276.576C522.528 276.576 526.217 270.439 529.229 270.354C532.242 270.269 530.256 266.624 526.948 262.933Z" fill="black"/>
<path d="M530.058 265.722C530.058 266.493 529.972 267.117 529.866 267.117C529.759 267.117 529.671 266.508 529.671 265.722C529.671 264.937 529.781 265.314 529.887 265.314C529.994 265.314 530.058 264.952 530.058 265.722Z" fill="#FFD037"/>
<path d="M531.126 266.642C530.45 267.011 529.859 267.233 529.807 267.138C529.756 267.044 530.264 266.669 530.94 266.301C531.617 265.933 531.349 266.201 531.4 266.301C531.452 266.402 531.802 266.274 531.126 266.642Z" fill="#FFD037"/>
<path d="M518.108 262.933C518.108 262.933 516.436 265.122 518.882 268.414C521.328 271.706 523.344 274.505 522.537 276.566C522.537 276.566 518.848 270.43 515.836 270.345C512.823 270.26 514.806 266.624 518.108 262.933Z" fill="white"/>
<path opacity="0.1" d="M518.108 262.933C517.962 263.145 517.847 263.377 517.767 263.621C514.836 267.062 513.274 270.275 516.091 270.354C518.717 270.43 521.864 275.12 522.616 276.305C522.593 276.397 522.563 276.487 522.528 276.576C522.528 276.576 518.839 270.439 515.826 270.354C512.814 270.269 514.806 266.624 518.108 262.933Z" fill="black"/>
<path d="M514.998 265.722C514.998 266.493 515.083 267.117 515.19 267.117C515.297 267.117 515.385 266.508 515.385 265.722C515.385 264.937 515.275 265.314 515.169 265.314C515.062 265.314 514.998 264.952 514.998 265.722Z" fill="#FFD037"/>
<path d="M513.932 266.642C514.608 267.011 515.196 267.233 515.248 267.138C515.299 267.044 514.791 266.669 514.115 266.301C513.438 265.933 513.706 266.201 513.655 266.301C513.603 266.402 513.256 266.274 513.932 266.642Z" fill="#FFD037"/>
<path d="M515.531 276.289C515.531 276.289 520.21 276.143 521.623 275.141C523.037 274.139 528.818 272.937 529.168 274.547C529.519 276.158 536.199 282.553 530.917 282.596C525.635 282.639 518.644 281.774 517.237 280.918C515.83 280.062 515.531 276.289 515.531 276.289Z" fill="#A8A8A8"/>
<path opacity="0.2" d="M531.008 282.036C525.726 282.078 518.736 281.213 517.328 280.358C516.256 279.703 515.83 277.361 515.687 276.283H515.531C515.531 276.283 515.836 280.053 517.234 280.912C518.632 281.771 525.632 282.633 530.914 282.59C532.437 282.59 532.967 282.036 532.936 281.232C532.726 281.725 532.144 282.027 531.008 282.036Z" fill="black"/>
<path d="M671.773 276.11C671.773 276.11 658.895 275.333 660.415 284.356C660.415 284.356 660.11 285.949 661.557 286.674C661.557 286.674 661.581 286.007 662.879 286.232C663.341 286.31 663.81 286.332 664.277 286.299C664.91 286.257 665.511 286.009 665.989 285.592C665.989 285.592 669.608 284.1 671.015 278.183C671.015 278.183 672.057 276.892 672.017 276.56L669.842 277.474C669.842 277.474 670.585 279.042 670.001 280.346C670.001 280.346 669.93 277.532 669.513 277.605C669.428 277.605 668.383 278.147 668.383 278.147C668.383 278.147 669.662 280.888 668.688 282.861C668.688 282.861 669.053 279.511 667.975 278.345L666.452 279.237C666.452 279.237 667.944 282.057 666.933 284.359C666.933 284.359 667.192 280.83 666.132 279.453L664.746 280.534C664.746 280.534 666.147 283.315 665.291 285.224C665.291 285.224 665.182 281.116 664.445 280.805C664.445 280.805 663.226 281.874 663.046 282.328C663.046 282.328 664.006 284.344 663.412 285.41C663.412 285.41 663.046 282.669 662.745 282.669C662.745 282.669 661.527 284.496 661.411 285.714C661.411 285.714 661.466 283.866 662.453 282.483C661.756 282.616 661.113 282.949 660.604 283.443C660.604 283.443 660.792 282.161 662.736 282.048C662.736 282.048 663.735 280.671 664.003 280.589C664.003 280.589 662.053 280.425 660.872 280.948C660.872 280.948 661.91 279.73 664.359 280.288L665.727 279.173C665.727 279.173 663.162 278.82 662.072 279.21C662.072 279.21 663.327 278.138 666.096 278.905L667.588 278.016C667.588 278.016 665.398 277.544 664.094 277.711C664.094 277.711 665.471 276.968 668.024 277.772L669.09 277.294C669.09 277.294 667.485 276.99 667.015 276.932C666.546 276.874 666.522 276.752 666.522 276.752C667.538 276.583 668.581 276.699 669.534 277.087C669.534 277.087 671.813 276.253 671.773 276.11Z" fill="white"/>
<path opacity="0.1" d="M662.904 289C667.937 289 672.017 288.31 672.017 287.459C672.017 286.608 667.937 285.918 662.904 285.918C657.87 285.918 653.79 286.608 653.79 287.459C653.79 288.31 657.87 289 662.904 289Z" fill="white"/>
<path d="M649.211 276.591C649.211 276.591 641.95 276.152 642.815 281.241C642.771 281.499 642.81 281.764 642.926 281.999C643.042 282.233 643.229 282.425 643.46 282.547C643.46 282.547 643.46 282.17 644.207 282.298C644.466 282.34 644.73 282.353 644.993 282.337C645.349 282.311 645.687 282.171 645.958 281.938C645.958 281.938 647.999 281.095 648.794 277.76C648.794 277.76 649.379 277.032 649.358 276.847L648.139 277.367C648.139 277.367 648.556 278.253 648.227 278.987C648.227 278.987 648.188 277.401 647.953 277.437C647.905 277.437 647.317 277.742 647.317 277.742C647.317 277.742 648.036 279.265 647.493 280.4C647.493 280.4 647.697 278.503 647.091 277.852L646.229 278.357C646.229 278.357 647.07 279.947 646.5 281.244C646.5 281.244 646.647 279.252 646.047 278.479L645.267 279.088C645.267 279.088 646.056 280.656 645.571 281.731C645.571 281.731 645.507 279.414 645.093 279.24C644.797 279.49 644.532 279.776 644.304 280.09C644.304 280.09 644.846 281.229 644.511 281.829C644.511 281.829 644.304 280.285 644.137 280.279C644.137 280.279 643.454 281.302 643.384 282.002C643.415 281.352 643.617 280.722 643.969 280.175C643.577 280.249 643.215 280.437 642.927 280.714C642.927 280.714 643.034 279.989 644.146 279.928C644.146 279.928 644.706 279.152 644.859 279.106C644.859 279.106 643.759 279.012 643.092 279.307C643.092 279.307 643.68 278.625 645.06 278.936L645.83 278.305C645.83 278.305 644.383 278.107 643.771 278.327C643.771 278.327 644.478 277.718 646.04 278.162L646.878 277.663C646.233 277.52 645.571 277.462 644.91 277.492C644.91 277.492 645.687 277.075 647.125 277.526L647.734 277.258C647.734 277.258 646.82 277.078 646.567 277.051C646.315 277.023 646.287 276.95 646.287 276.95C646.86 276.855 647.449 276.92 647.987 277.139C647.987 277.139 649.233 276.673 649.211 276.591Z" fill="white"/>
<path opacity="0.1" d="M644.21 283.86C647.048 283.86 649.349 283.471 649.349 282.992C649.349 282.513 647.048 282.124 644.21 282.124C641.372 282.124 639.071 282.513 639.071 282.992C639.071 283.471 641.372 283.86 644.21 283.86Z" fill="white"/>
<path d="M663.031 265.808C663.031 265.808 654.268 265.278 655.3 271.42C655.247 271.732 655.294 272.052 655.434 272.335C655.574 272.619 655.8 272.85 656.08 272.998C656.08 272.998 656.08 272.544 656.979 272.693C657.293 272.743 657.612 272.758 657.929 272.739C658.36 272.708 658.769 272.539 659.096 272.258C659.096 272.258 661.56 271.24 662.516 267.212C662.516 267.212 663.226 266.335 663.199 266.109L661.718 266.74C661.718 266.74 662.224 267.808 661.828 268.695C661.828 268.695 661.779 266.779 661.493 266.825C661.438 266.825 660.725 267.193 660.725 267.193C660.725 267.193 661.597 269.054 660.939 270.403C660.939 270.403 661.188 268.113 660.454 267.327L659.413 267.936C659.413 267.936 660.43 269.855 659.741 271.423C659.741 271.423 659.918 269.02 659.193 268.073L658.249 268.807C658.249 268.807 659.205 270.698 658.624 271.999C658.624 271.999 658.547 269.203 658.045 268.99C658.045 268.99 657.219 269.718 657.094 270.016C657.094 270.016 657.749 271.39 657.341 272.114C657.341 272.114 657.094 270.254 656.89 270.245C656.89 270.245 656.068 271.463 655.977 272.325C656.016 271.543 656.26 270.784 656.683 270.126C656.209 270.216 655.772 270.442 655.425 270.778C655.425 270.778 655.553 269.904 656.887 269.827C656.887 269.827 657.567 268.893 657.749 268.835C657.749 268.835 656.421 268.725 655.617 269.081C655.617 269.081 656.324 268.256 657.993 268.631L658.925 267.872C658.925 267.872 657.177 267.632 656.437 267.897C656.437 267.897 657.289 267.169 659.178 267.699L660.192 267.09C660.192 267.09 658.703 266.785 657.816 266.886C657.816 266.886 658.752 266.38 660.491 266.925L661.216 266.603C661.216 266.603 660.122 266.386 659.802 266.353C659.483 266.319 659.467 266.231 659.467 266.231C660.159 266.116 660.868 266.195 661.517 266.459C661.517 266.459 663.062 265.905 663.031 265.808Z" fill="white"/>
<path opacity="0.1" d="M656.998 274.581C660.425 274.581 663.202 274.112 663.202 273.533C663.202 272.955 660.425 272.486 656.998 272.486C653.571 272.486 650.793 272.955 650.793 273.533C650.793 274.112 653.571 274.581 656.998 274.581Z" fill="white"/>
<path d="M800.438 206.045V57.094H510.654V197.5C514.355 200.588 518.805 203.186 523.448 205.32C525.734 206.374 528.069 207.337 530.453 208.21H796.98L800.438 206.045Z" fill="url(#paint0_linear_339_1762)"/>
<path d="M799.877 206.106V61.3573H511.288V197.814C514.974 200.816 519.406 203.341 524.02 205.427C526.299 206.442 528.626 207.378 531.002 208.234H796.426L799.877 206.106Z" fill="white"/>
<path d="M799.877 57.5172H511.291V65.1729H799.877V57.5172Z" fill="#5A5773"/>
<path d="M517.054 63.3246C518.148 63.3246 519.034 62.4384 519.034 61.3452C519.034 60.252 518.148 59.3658 517.054 59.3658C515.961 59.3658 515.074 60.252 515.074 61.3452C515.074 62.4384 515.961 63.3246 517.054 63.3246Z" fill="white"/>
<path d="M522.384 63.3246C523.478 63.3246 524.364 62.4384 524.364 61.3452C524.364 60.252 523.478 59.3658 522.384 59.3658C521.291 59.3658 520.404 60.252 520.404 61.3452C520.404 62.4384 521.291 63.3246 522.384 63.3246Z" fill="white"/>
<path d="M527.715 63.3246C528.809 63.3246 529.695 62.4384 529.695 61.3452C529.695 60.252 528.809 59.3658 527.715 59.3658C526.622 59.3658 525.735 60.252 525.735 61.3452C525.735 62.4384 526.622 63.3246 527.715 63.3246Z" fill="white"/>
<path d="M632.708 81.9979H585.038V111.945H632.708V81.9979Z" fill="#1BA58A" fill-opacity="0.5"/>
<path opacity="0.2" d="M566.704 81.9979H519.034V111.945H566.704V81.9979Z" fill="#5A5773"/>
<path opacity="0.2" d="M698.713 81.9979H651.043V111.945H698.713V81.9979Z" fill="#5A5773"/>
<path opacity="0.2" d="M566.704 124.811H519.034V154.758H566.704V124.811Z" fill="#5A5773"/>
<path opacity="0.2" d="M632.708 124.811H585.038V154.758H632.708V124.811Z" fill="#5A5773"/>
<path opacity="0.2" d="M698.713 124.811H651.043V154.758H698.713V124.811Z" fill="#5A5773"/>
<path opacity="0.2" d="M566.704 167.62H519.034V197.567H566.704V167.62Z" fill="#5A5773"/>
<path opacity="0.2" d="M632.708 167.62H585.038V197.567H632.708V167.62Z" fill="#5A5773"/>
<path opacity="0.2" d="M698.713 167.62H651.043V197.567H698.713V167.62Z" fill="#5A5773"/>
<path d="M621.027 108.23L617.737 109.393L616.543 107.413C615.63 105.891 614.362 103.808 613.427 102.294C611.776 99.6329 613.936 95.5767 613.936 95.5767C613.936 95.5767 614.326 91.5052 615.715 90.2506C617.104 88.996 617.491 95.5767 617.491 95.5767C623.068 98.1103 620.08 104.07 620.08 104.07L620.622 106.433L621.027 108.23Z" fill="#EFB7B9"/>
<path opacity="0.1" d="M621.027 108.23L617.737 109.393L616.543 107.413V107.24C616.543 107.24 618.428 105.946 620.628 106.433L621.027 108.23Z" fill="black"/>
<path d="M615.715 121.568L617.363 120.173L616.537 107.62C616.537 107.62 620.802 104.703 623.957 109.268C623.957 109.268 623.829 112.057 623.957 112.819C624.085 113.58 623.071 114.341 623.957 115.1C624.844 115.858 623.957 118.398 623.957 118.398C623.957 118.398 624.96 120.173 625.593 120.678C626.227 121.184 626.863 125.371 625.593 126.257C624.323 127.143 621.941 129.175 621.941 130.061C621.941 130.947 618.895 133.106 618.895 133.106L616.22 129.57L615.715 121.568Z" fill="#1BA58A"/>
<path d="M580.076 197.765C573.929 195.159 575.294 188.791 576.451 185.584C576.683 184.935 576.954 184.3 577.265 183.684L580.713 181.592C580.713 181.592 581.417 183.386 582.169 185.791C583.914 191.389 585.922 200.247 580.076 197.765Z" fill="#EFB7B9"/>
<path d="M588.526 255.865C588.11 256.676 587.803 257.538 587.612 258.429C587.308 259.863 587.175 261.328 587.216 262.793C587.241 263.807 587.326 264.471 587.326 264.471L580.479 269.179C580.479 269.179 580.518 268.628 580.585 267.818C580.762 265.661 581.13 261.66 581.478 261.142C581.718 260.783 581.886 259.34 581.992 258C582.099 256.66 582.142 255.484 582.142 255.484C582.142 255.484 590.381 252.396 588.526 255.865Z" fill="#EFB7B9"/>
<path d="M604.698 259.242C604.698 259.242 604.698 260.552 604.649 262.074C604.6 263.597 604.509 265.394 604.317 266.231C604.141 266.998 604.128 268.408 604.162 269.709C604.208 271.231 604.317 272.602 604.317 272.602C604.317 272.602 597.327 265.993 598.039 265.47C598.231 265.33 598.42 264.766 598.594 264.017C598.807 263.104 598.999 261.885 599.142 260.85C599.313 259.617 599.419 258.624 599.419 258.624L604.698 259.242Z" fill="#EFB7B9"/>
<path opacity="0.1" d="M588.526 255.865C588.11 256.676 587.803 257.538 587.612 258.429C585.738 258.38 583.868 258.237 582.008 258C582.111 256.69 582.157 255.484 582.157 255.484C582.157 255.484 590.381 252.396 588.526 255.865Z" fill="black"/>
<path opacity="0.1" d="M604.698 259.242C604.698 259.242 604.698 260.552 604.649 262.074C602.468 262.631 600.226 261.517 599.142 260.856C599.312 259.623 599.419 258.63 599.419 258.63L604.698 259.242Z" fill="black"/>
<path d="M619.011 194.47C616.221 200.561 615.078 207.784 615.078 207.784L614.064 213.874C614.064 213.874 614.573 216.536 614.064 217.55C613.555 218.564 612.541 220.215 612.541 220.215C612.541 220.215 613.302 226.427 612.541 227.06C611.779 227.694 612.541 231.497 612.541 231.497L610.004 244.287L606.452 260.768C603.028 263.56 598.471 260.01 598.471 260.01L599.477 249.232C599.477 249.232 601 230.352 600.366 229.579C599.732 228.805 600.619 226.409 600.619 226.409C600.619 226.409 601.508 224.125 600.875 223.238C600.241 222.352 601 220.449 601 220.449C601 220.449 600.747 212.714 601.508 210.939C602.27 209.163 601.508 198.182 601.508 198.182L601.204 194.763L601.027 192.868L601.012 192.683C601.012 192.683 600.896 193.441 600.707 194.616C600.147 198.195 598.953 205.61 598.481 207.135C598.16 208.235 597.724 209.297 597.18 210.305C597.18 210.305 597.838 214.109 597.18 215.123C596.522 216.137 597.079 217.279 597.079 217.279C597.079 217.279 597.713 220.449 595.809 221.716C593.905 222.983 595.809 223.619 595.809 223.619C595.809 223.619 594.414 226.664 593.908 227.928C593.403 229.192 593.908 230.973 593.908 230.973L592.894 241.242C592.894 241.242 592.005 245.551 592.133 248.468C592.261 251.385 590.99 258.103 590.99 258.103C590.99 258.103 581.225 258.103 579.72 256.961C578.215 255.819 582.233 244.68 582.233 244.68C582.233 244.68 583.375 225.154 583.119 224.648C582.864 224.143 583.119 220.336 584.009 219.578C584.898 218.82 584.009 217.294 584.009 217.294C584.009 217.294 583.756 214.249 584.009 213.491C584.262 212.732 583.969 210.193 583.969 210.193C583.969 210.193 583.119 203.98 582.995 200.43C582.87 196.879 582.233 188.894 582.233 188.894C582.233 188.894 582.897 183.955 582.998 181.604C583.034 180.739 583.421 179.658 583.911 178.641C584.46 177.493 585.091 176.385 585.8 175.328C585.8 175.328 615.849 166.448 617.11 167.331C617.445 167.566 617.932 169.158 618.414 171.464C619.754 177.904 621.064 189.994 619.011 194.47Z" fill="#444053"/>
<path d="M600.497 116.978C605.33 116.978 609.249 113.061 609.249 108.229C609.249 103.397 605.33 99.4805 600.497 99.4805C595.664 99.4805 591.746 103.397 591.746 108.229C591.746 113.061 595.664 116.978 600.497 116.978Z" fill="#A1616A"/>
<path opacity="0.1" d="M618.414 171.47C617.405 171.987 616.729 172.344 616.729 172.344C616.729 172.344 602.525 179.065 598.486 178.684C595.361 178.379 587.384 178.553 583.908 178.638C584.457 177.49 585.088 176.383 585.797 175.325C585.797 175.325 615.849 166.448 617.11 167.331C617.445 167.572 617.932 169.158 618.414 171.47Z" fill="black"/>
<path d="M594.408 122.201C594.408 122.201 586.303 123.48 584.39 124.735C582.477 125.989 578.688 128.413 578.688 133.611C578.688 138.81 577.801 144.136 577.292 145.655C576.784 147.175 585.282 159.474 585.282 159.474L582.236 178.114C582.236 178.114 594.42 177.734 598.478 178.114C602.535 178.495 616.732 171.774 616.732 171.774C616.732 171.774 625.103 167.337 626.879 167.206C628.654 167.075 623.327 157.443 623.327 157.443C623.327 157.443 615.081 141.852 616.476 139.315C617.872 136.778 618.895 133.103 618.895 133.103L617.372 120.173C617.372 120.173 615.091 119.412 613.187 120.806C611.283 122.201 604.816 121.44 604.816 121.44L594.408 122.201Z" fill="#1BA58A"/>
<path opacity="0.1" d="M580.649 144.769L577.469 145.655L576.588 157.587C576.588 157.587 577.731 160.757 576.588 161.771C575.446 162.785 575.193 184.467 575.193 184.467C575.193 184.467 578.873 187.128 583.183 185.1C583.183 185.1 582.549 182.691 584.453 173.942C586.357 165.194 586.354 160.757 586.354 160.757C586.354 160.757 586.354 149.852 587.243 148.076C588.133 146.301 587.243 141.864 587.243 141.864C587.243 141.864 585.468 139.455 585.592 138.569C585.717 137.683 580.649 144.769 580.649 144.769Z" fill="black"/>
<path opacity="0.1" d="M582.17 185.8C580.302 186.429 578.269 186.355 576.452 185.593C576.683 184.944 576.955 184.309 577.265 183.693L580.714 181.601C580.714 181.601 581.429 183.395 582.17 185.8Z" fill="black"/>
<path d="M580.457 144.769L577.286 145.655L576.4 157.587C576.4 157.587 577.542 160.757 576.4 161.771C575.258 162.785 575.005 184.467 575.005 184.467C575.005 184.467 578.688 187.125 582.995 185.088C582.995 185.088 582.361 182.679 584.262 173.93C586.162 165.181 586.166 160.744 586.166 160.744C586.166 160.744 586.166 149.839 587.052 148.064C587.938 146.289 587.052 141.852 587.052 141.852C587.052 141.852 585.276 139.443 585.404 138.557C585.532 137.671 580.457 144.769 580.457 144.769Z" fill="#1BA58A"/>
<path opacity="0.1" d="M612.925 146.669C612.925 146.669 611.277 160.869 606.455 163.534C606.455 163.534 617.235 160.492 612.925 146.669Z" fill="black"/>
<path opacity="0.1" d="M588.703 147.939C588.703 147.939 594.661 150.853 593.272 152.882C591.883 154.91 588.703 147.939 588.703 147.939Z" fill="black"/>
<path opacity="0.1" d="M588.703 153.771C588.703 153.771 592.508 157.702 591.749 159.097C590.991 160.492 588.703 153.771 588.703 153.771Z" fill="black"/>
<path opacity="0.1" d="M619.392 121.187C619.392 121.187 620.884 123.721 621.027 125.371C621.17 127.022 619.392 121.187 619.392 121.187Z" fill="black"/>
<path opacity="0.1" d="M619.392 117.764C619.392 117.764 620.141 117.128 622.054 117.764C623.967 118.401 619.392 117.764 619.392 117.764Z" fill="black"/>
<path opacity="0.1" d="M612.069 191.87C608.926 192.315 605.722 191.905 602.793 190.682L601.194 194.775L601.018 192.881C601.28 191.291 601.788 189.589 602.793 189.159C602.793 189.159 606.315 191.964 612.069 191.87Z" fill="black"/>
<path opacity="0.1" d="M586.053 197.196C586.053 197.196 593.854 198.813 596.041 198.526L586.053 197.196Z" fill="black"/>
<path opacity="0.1" d="M586.863 199.239C586.863 199.239 590.193 199.096 591.856 199.763L586.863 199.239Z" fill="black"/>
<path opacity="0.1" d="M587.244 200.619C588.763 200.941 590.305 201.145 591.856 201.228L587.244 200.619Z" fill="black"/>
<path opacity="0.1" d="M587.052 218.068C587.195 217.973 593.71 216.451 594.521 217.544L587.052 218.068Z" fill="black"/>
<path opacity="0.1" d="M587.052 220.065C587.052 220.065 592.711 219.398 592.854 220.065C592.998 220.732 587.052 220.065 587.052 220.065Z" fill="black"/>
<path opacity="0.1" d="M587.052 221.871C587.052 221.871 593.092 220.623 593.805 220.927C594.518 221.232 587.052 221.871 587.052 221.871Z" fill="black"/>
<path opacity="0.1" d="M587.339 264.474L580.491 269.182C580.491 269.182 580.531 268.63 580.598 267.82C582.121 264.075 584.104 262.098 584.104 262.098C585.648 261.697 586.623 262.068 587.229 262.796C587.253 263.807 587.339 264.474 587.339 264.474Z" fill="black"/>
<path d="M588.005 268.704C587.038 270.911 586.551 273.298 586.577 275.708C586.615 277.683 586.114 279.632 585.127 281.344C584.984 281.586 584.823 281.816 584.645 282.033C584.645 282.033 579.888 281.993 578.221 280.614C578.034 280.465 577.881 280.278 577.774 280.065C576.82 278.165 579.629 270.89 579.629 270.89C581.103 265.281 584.097 262.284 584.097 262.284C589.431 260.905 588.005 268.704 588.005 268.704Z" fill="#444053"/>
<path opacity="0.1" d="M585.127 281.329C584.984 281.57 584.823 281.8 584.646 282.017C584.646 282.017 579.888 281.978 578.222 280.598C579.041 277.888 581.655 269.687 582.879 271.082C584.03 272.391 584.832 278.692 585.127 281.329Z" fill="black"/>
<path d="M584.475 271.59L584.143 283.875H585.739C585.739 283.875 585.998 273.098 586.71 271.59C587.423 270.083 584.475 271.59 584.475 271.59Z" fill="#444053"/>
<path opacity="0.1" d="M604.317 272.602C604.317 272.602 597.327 265.993 598.039 265.47C598.231 265.33 598.42 264.766 598.594 264.017C599.937 263.783 602.249 264.343 604.162 269.709C604.208 271.231 604.317 272.602 604.317 272.602Z" fill="black"/>
<path d="M605.362 279.971C605.308 279.994 605.252 280.01 605.194 280.02C604.372 280.163 601.341 280.08 599.644 280.02C599.333 280.009 599.039 279.879 598.822 279.656C598.606 279.432 598.484 279.134 598.484 278.823C598.484 278.366 598.484 277.809 598.447 277.215C598.368 275.339 598.143 273.107 597.469 272.604C596.278 271.691 595.337 268.591 597.469 264.666C597.469 264.666 601.557 261.544 604.506 270.927C604.506 270.927 604.792 273.603 606.074 274.553C607.357 275.504 605.934 279.7 605.362 279.971Z" fill="#444053"/>
<path opacity="0.1" d="M605.188 280.02C604.366 280.163 601.335 280.081 599.638 280.02C599.328 280.009 599.033 279.879 598.816 279.656C598.6 279.432 598.479 279.134 598.478 278.823C598.478 278.366 598.478 277.809 598.441 277.215C598.956 274.943 599.696 272.604 600.65 272.072C600.656 272.069 603.54 271.743 605.188 280.02Z" fill="black"/>
<path d="M597.987 271.795L598.755 282.017H599.73V270.924L597.987 271.795Z" fill="#444053"/>
<path opacity="0.1" d="M600.369 94.2887C597.606 94.4943 594.931 95.3533 592.565 96.7949C591.956 97.1633 591.347 97.611 591.094 98.2718C590.874 98.8443 590.966 99.4899 590.975 100.099C591.057 105.343 585.209 109.311 585.392 114.552C585.465 116.631 586.51 118.568 586.701 120.642C587.021 124.101 584.974 127.284 583.013 130.149C585.034 130.272 587.024 129.612 588.572 128.307C590.642 135.204 590.909 142.517 589.348 149.547H592.154C592.431 149.527 592.709 149.561 592.973 149.648C593.219 149.765 593.44 149.929 593.622 150.132C596.245 152.742 598.002 156.6 597 160.163L602.97 157.925C604.399 157.389 605.849 156.844 607.092 155.961C608.334 155.077 609.376 153.795 609.638 152.291C609.799 151.377 609.748 150.287 610.5 149.757C610.871 149.56 611.266 149.414 611.676 149.322C613.315 148.743 614.039 146.849 614.375 145.144C614.783 143.052 614.911 140.914 614.755 138.789C614.49 135.226 613.436 131.608 614.304 128.13C614.795 126.178 615.885 124.36 615.974 122.344C616.117 119.022 613.519 116.159 613.132 112.855C612.861 110.553 613.692 108.224 613.421 105.921C613.271 104.733 612.836 103.599 612.153 102.614C611.471 101.63 610.561 100.824 609.501 100.266C608.767 99.8888 607.978 99.6361 607.253 99.2189C605.599 98.2596 604.542 96.533 603.04 95.3453C601.539 94.1577 599.038 93.7101 597.908 95.254L600.369 94.2887Z" fill="black"/>
<path d="M600.369 93.9077C597.606 94.1133 594.931 94.9723 592.565 96.4139C591.956 96.7823 591.347 97.23 591.094 97.8908C590.874 98.4633 590.966 99.1089 590.975 99.7179C591.057 104.962 585.209 108.93 585.392 114.174C585.465 116.25 586.51 118.187 586.701 120.264C587.021 123.723 584.974 126.906 583.013 129.774C585.033 129.893 587.022 129.234 588.572 127.932C590.641 134.827 590.909 142.138 589.348 149.166H592.154C592.431 149.147 592.709 149.182 592.973 149.27C593.22 149.385 593.441 149.548 593.622 149.751C596.245 152.364 598.002 156.219 597 159.782L602.97 157.544C604.399 157.008 605.849 156.463 607.091 155.58C608.334 154.696 609.376 153.414 609.638 151.91C609.799 150.996 609.748 149.906 610.5 149.376C610.871 149.179 611.266 149.033 611.676 148.941C613.315 148.362 614.039 146.468 614.375 144.763C614.786 142.669 614.917 140.53 614.764 138.401C614.499 134.838 613.445 131.221 614.314 127.743C614.804 125.791 615.894 123.973 615.983 121.957C616.126 118.635 613.528 115.772 613.141 112.468C612.87 110.166 613.701 107.84 613.43 105.534C613.279 104.346 612.844 103.212 612.162 102.228C611.479 101.243 610.57 100.438 609.51 99.8793C608.776 99.5017 607.987 99.249 607.262 98.8348C605.608 97.8725 604.551 96.1459 603.049 94.9583C601.548 93.7706 599.047 93.323 597.917 94.8669L600.369 93.9077Z" fill="black"/>
<g opacity="0.1">
<path opacity="0.1" d="M590.968 98.4514C590.956 98.5688 590.95 98.6867 590.95 98.8047C590.959 98.689 590.965 98.5702 590.968 98.4514Z" fill="black"/>
<path opacity="0.1" d="M613.107 110.642C613.217 109.028 613.576 107.408 613.442 105.8C613.342 107.414 612.982 109.034 613.107 110.642Z" fill="black"/>
<path opacity="0.1" d="M586.701 118.666C586.524 116.778 585.644 115.011 585.437 113.126C585.395 113.472 585.38 113.82 585.391 114.168C585.464 116.223 586.485 118.145 586.692 120.191C586.742 119.684 586.745 119.173 586.701 118.666Z" fill="black"/>
<path opacity="0.1" d="M614.326 126.166C614.041 127.405 613.938 128.679 614.021 129.948C614.052 129.208 614.154 128.473 614.326 127.752C614.816 125.801 615.907 123.983 615.995 121.967C616.009 121.609 615.993 121.25 615.946 120.895C615.709 122.707 614.761 124.394 614.326 126.166Z" fill="black"/>
<path opacity="0.1" d="M588.572 126.331C587.301 127.395 585.729 128.034 584.076 128.158C583.729 128.7 583.369 129.23 583.013 129.753C585.033 129.872 587.022 129.213 588.572 127.911C589.684 131.613 590.281 135.451 590.344 139.315C590.435 134.921 589.837 130.54 588.572 126.331Z" fill="black"/>
<path opacity="0.1" d="M614.383 143.168C614.048 144.873 613.323 146.767 611.685 147.343C611.274 147.434 610.879 147.582 610.509 147.781C609.756 148.311 609.808 149.407 609.647 150.315C609.385 151.819 608.346 153.098 607.1 153.969C605.854 154.84 604.408 155.4 602.979 155.936L597.283 158.068C597.253 158.64 597.161 159.206 597.009 159.758L602.979 157.52C604.408 156.984 605.857 156.439 607.1 155.556C608.343 154.672 609.385 153.39 609.647 151.886C609.808 150.972 609.756 149.882 610.509 149.352C610.879 149.155 611.275 149.009 611.685 148.917C613.323 148.338 614.048 146.444 614.383 144.739C614.73 142.964 614.874 141.156 614.813 139.349C614.773 140.631 614.629 141.908 614.383 143.168Z" fill="black"/>
<path opacity="0.1" d="M593.631 148.146C593.45 147.943 593.23 147.778 592.983 147.662C592.719 147.576 592.441 147.541 592.163 147.559H589.675C589.577 148.088 589.474 148.618 589.37 149.145H592.176C592.453 149.126 592.731 149.161 592.995 149.249C593.242 149.363 593.462 149.527 593.644 149.73C595.563 151.642 597.016 154.218 597.265 156.862C597.573 153.701 595.934 150.448 593.631 148.146Z" fill="black"/>
</g>
<path opacity="0.1" d="M579.714 158.525C579.714 158.525 581.98 157.574 582.486 158.525C582.991 159.475 579.714 158.525 579.714 158.525Z" fill="black"/>
<path opacity="0.1" d="M580.516 160.154C580.516 160.154 582.782 159.204 583.291 160.154C583.799 161.104 580.516 160.154 580.516 160.154Z" fill="black"/>
<path opacity="0.1" d="M720.97 37.2026C720.97 37.2026 709.38 36.5053 710.748 44.6238C710.748 44.6238 710.477 46.0581 711.777 46.7098C711.777 46.7098 711.799 46.1007 712.965 46.3109C713.381 46.3808 713.803 46.4012 714.223 46.3718C714.791 46.3325 715.33 46.109 715.759 45.7353C715.759 45.7353 719.015 44.3924 720.282 39.0693C720.282 39.0693 721.22 37.9061 721.196 37.6076L719.24 38.4451C719.24 38.4451 719.907 39.855 719.38 41.0274C719.38 41.0274 719.319 38.4938 718.942 38.5547C718.866 38.5547 717.927 39.0419 717.927 39.0419C717.927 39.0419 719.076 41.4994 718.208 43.287C718.208 43.287 718.537 40.26 717.568 39.2216L716.185 40.0408C716.185 40.0408 717.528 42.5774 716.618 44.6482C716.618 44.6482 716.852 41.472 715.896 40.2357L714.647 41.2071C714.647 41.2071 715.911 43.695 715.149 45.4125C715.149 45.4125 715.049 41.7126 714.385 41.4355C714.385 41.4355 713.294 42.3978 713.13 42.7936C713.13 42.7936 713.992 44.6208 713.456 45.5648C713.456 45.5648 713.127 43.1043 712.847 43.0921C712.847 43.0921 711.759 44.7243 711.646 45.8328C711.699 44.7985 712.022 43.7959 712.582 42.9246C711.954 43.0433 711.376 43.3441 710.918 43.7894C710.918 43.7894 711.086 42.6353 712.85 42.5317C712.85 42.5317 713.748 41.2954 713.989 41.2193C713.989 41.2193 712.234 41.0731 711.171 41.5451C711.171 41.5451 712.106 40.4549 714.312 40.9361L715.53 39.9311C715.53 39.9311 713.221 39.6266 712.24 39.9646C712.24 39.9646 713.368 39.0023 715.862 39.7027L717.202 38.9018C717.202 38.9018 715.235 38.4755 714.062 38.6308C714.062 38.6308 715.299 37.9639 717.595 38.6856L718.555 38.2563C718.555 38.2563 717.111 37.9731 716.691 37.9274C716.27 37.8817 716.246 37.766 716.246 37.766C717.159 37.614 718.097 37.7194 718.954 38.0705C718.954 38.0705 721.004 37.3305 720.97 37.2026Z" fill="white"/>
<path opacity="0.1" d="M704.452 30.6189C704.452 30.6189 694.704 36.9256 700.617 42.6536C700.617 42.6536 701.247 43.9692 702.682 43.7255C702.682 43.7255 702.341 43.2261 703.404 42.6993C703.781 42.5096 704.133 42.2755 704.455 42.0019C704.889 41.634 705.191 41.1348 705.317 40.5798C705.317 40.5798 707.144 37.5651 705.012 32.5283C705.012 32.5283 705.079 31.0361 704.872 30.8168L703.794 32.644C703.794 32.644 705.167 33.384 705.438 34.6386C705.438 34.6386 703.888 32.6379 703.611 32.9089C703.556 32.9637 703.081 33.9047 703.081 33.9047C703.081 33.9047 705.466 35.202 705.822 37.1539C705.822 37.1539 704.299 34.5198 702.895 34.261L702.261 35.7227C702.261 35.7227 704.851 36.9712 705.344 39.179C705.344 39.179 703.647 36.481 702.146 36.0516L701.719 37.5742C701.719 37.5742 704.217 38.841 704.616 40.6803C704.616 40.6803 702.344 37.763 701.643 37.9396C701.643 37.9396 701.338 39.3587 701.436 39.7667C701.436 39.7667 703.209 40.7169 703.343 41.807C703.343 41.807 701.619 40.0195 701.396 40.1687C701.396 40.1687 701.488 42.1268 702.057 43.0952C701.488 42.2306 701.154 41.2323 701.089 40.1992C700.654 40.6663 700.366 41.2508 700.26 41.8801C700.26 41.8801 699.712 40.8508 701.073 39.7241C701.073 39.7241 701.073 38.2015 701.211 37.9914C701.211 37.9914 699.712 38.9049 699.133 39.9221C699.133 39.9221 699.243 38.4908 701.311 37.5833L701.707 36.0455C701.707 36.0455 699.66 37.16 699.078 38.0218C699.078 38.0218 699.416 36.5784 701.838 35.6648L702.447 34.2244C702.447 34.2244 700.62 35.0497 699.755 35.8689C699.755 35.8689 700.364 34.596 702.636 33.8194L703.154 32.9059C703.154 32.9059 701.823 33.5332 701.457 33.7463C701.092 33.9595 701.003 33.8803 701.003 33.8803C701.649 33.2165 702.466 32.7452 703.364 32.5191C703.364 32.5191 704.555 30.7042 704.452 30.6189Z" fill="white"/>
<path opacity="0.1" d="M689.618 37.967C689.618 37.967 683.791 48.0162 691.658 50.4311C691.658 50.4311 692.819 51.3172 693.986 50.4311C693.986 50.4311 693.459 50.1448 694.165 49.1917C694.411 48.8515 694.615 48.4835 694.775 48.0954C694.995 47.5703 695.039 46.9879 694.899 46.4357C694.899 46.4357 695.158 42.9216 690.97 39.3982C690.97 39.3982 690.361 38.0401 690.056 37.9396L689.925 40.0712C689.925 40.0712 691.485 40.1078 692.298 41.1036C692.298 41.1036 690.008 40.0225 689.892 40.3849C689.867 40.458 689.87 41.5116 689.87 41.5116C689.87 41.5116 692.609 41.5938 693.827 43.1713C693.827 43.1713 691.269 41.5177 689.907 41.9197L690.004 43.5093C690.004 43.5093 692.877 43.4484 694.318 45.1933C694.318 45.1933 691.576 43.558 690.053 43.8564L690.358 45.4065C690.358 45.4065 693.16 45.4065 694.348 46.8621C694.348 46.8621 690.997 45.2907 690.452 45.7567C690.452 45.7567 690.821 47.1636 691.101 47.4894C691.101 47.4894 693.111 47.532 693.727 48.4425C693.727 48.4425 691.378 47.6295 691.247 47.867C691.247 47.867 692.219 49.5693 693.166 50.1722C692.267 49.6628 691.517 48.9282 690.988 48.0406C690.813 48.6538 690.822 49.3049 691.013 49.9134C691.013 49.9134 690.056 49.2465 690.757 47.6234C690.757 47.6234 690.056 46.2652 690.096 46.0186C690.096 46.0186 689.182 47.5198 689.121 48.6801C689.121 48.6801 688.567 47.3554 689.998 45.6105L689.654 44.0574C689.654 44.0574 688.335 45.979 688.207 47.0113C688.207 47.0113 687.854 45.5709 689.599 43.6616L689.484 42.1054C689.484 42.1054 688.223 43.6737 687.833 44.7913C687.833 44.7913 687.79 43.3844 689.468 41.6578L689.514 40.6072C689.514 40.6072 688.6 41.7674 688.384 42.1298C688.168 42.4922 688.04 42.4404 688.04 42.4404C688.314 41.5554 688.829 40.7638 689.526 40.1535C689.526 40.1535 689.746 37.9944 689.618 37.967Z" fill="white"/>
<path d="M739.648 152.522C738.786 152.522 737.943 152.778 737.226 153.257C736.509 153.735 735.951 154.416 735.621 155.212C735.291 156.009 735.205 156.885 735.373 157.73C735.541 158.575 735.956 159.352 736.566 159.961C737.175 160.571 737.952 160.986 738.797 161.154C739.643 161.322 740.519 161.236 741.316 160.906C742.112 160.576 742.793 160.018 743.272 159.301C743.751 158.584 744.007 157.742 744.007 156.88C744.003 155.725 743.543 154.619 742.726 153.802C741.91 152.986 740.803 152.525 739.648 152.522ZM726.903 118.327V122.685H731.262L739.109 138.575L735.828 143.913C735.47 144.545 735.282 145.258 735.283 145.984C735.283 148.901 737.278 150.342 739.983 150.342H765.469V146.152H740.516C740.443 146.156 740.37 146.145 740.302 146.119C740.234 146.093 740.172 146.053 740.121 146.002C740.069 145.95 740.029 145.888 740.003 145.82C739.977 145.752 739.966 145.679 739.971 145.607C740.028 145.418 740.106 145.236 740.202 145.064L742.38 141.626H758.618C759.403 141.633 760.174 141.423 760.847 141.019C761.52 140.616 762.068 140.034 762.432 139.339L770.282 125.846C770.435 125.503 770.51 125.131 770.501 124.756C770.498 124.475 770.439 124.199 770.327 123.941C770.215 123.684 770.052 123.452 769.849 123.259C769.645 123.066 769.405 122.916 769.143 122.817C768.88 122.719 768.6 122.674 768.32 122.685H736.06L733.988 118.327H726.903ZM761.107 152.522C760.245 152.523 759.403 152.779 758.686 153.258C757.97 153.737 757.412 154.418 757.082 155.214C756.753 156.011 756.667 156.887 756.835 157.732C757.004 158.577 757.419 159.353 758.029 159.962C758.639 160.572 759.415 160.986 760.261 161.154C761.106 161.322 761.983 161.236 762.779 160.906C763.575 160.576 764.256 160.017 764.735 159.301C765.213 158.584 765.469 157.742 765.469 156.88C765.466 155.725 765.005 154.618 764.188 153.801C763.37 152.984 762.263 152.525 761.107 152.522Z" fill="#1BA58A"/>
<path d="M755.53 130.383H751.875V126.729H749.134V130.383H745.479V133.124H749.134V136.778H751.875V133.124H755.53V130.383Z" fill="white"/>
</g>
</g>
<defs>
<linearGradient id="paint0_linear_339_1762" x1="655.544" y1="208.21" x2="655.544" y2="57.094" gradientUnits="userSpaceOnUse">
<stop stop-color="#808080" stop-opacity="0.25"/>
<stop offset="0.54" stop-color="#808080" stop-opacity="0.12"/>
<stop offset="1" stop-color="#808080" stop-opacity="0.1"/>
</linearGradient>
<clipPath id="clip0_339_1762">
<rect width="889" height="318" fill="white"/>
</clipPath>
<clipPath id="clip1_339_1762">
<rect width="340" height="261" fill="white" transform="translate(469 28)"/>
</clipPath>
</defs>
</svg>
