<svg width="162" height="162" viewBox="0 0 162 162" fill="none" xmlns="http://www.w3.org/2000/svg">
<g clip-path="url(#clip0_908_2270)">
<path d="M111.5 45.375C103.406 38.3312 92.9063 34 81.3125 34C60.9688 34 43.775 47.2562 37.7375 65.5875L48.0625 69C52.6563 55.0437 65.7813 44.9375 81.3125 44.9375C89.8438 44.9375 97.6313 48.0875 103.713 53.1625L87.875 69H127.25V29.625L111.5 45.375Z" fill="#1BA58A"/>
<path d="M55.844 119.501C64.7772 125.444 75.7475 128.388 87.2447 126.895C107.419 124.276 122.763 108.916 126.39 89.9602L115.712 87.9055C112.953 102.337 101.239 114.049 85.8365 116.049C77.3763 117.147 69.248 115.026 62.564 110.776L76.2306 93.0313L37.1834 98.1007L42.2528 137.148L55.844 119.501Z" fill="#1BA58A" fill-opacity="0.2"/>
</g>
<defs>
<clipPath id="clip0_908_2270">
<rect width="162" height="162" fill="white"/>
</clipPath>
</defs>
</svg>
