<svg width="450" height="292" viewBox="0 0 450 292" fill="none" xmlns="http://www.w3.org/2000/svg">
<g clip-path="url(#clip0_722:2271)">
<path opacity="0.1" d="M109.641 120.805H63.9921C62.3755 120.805 61.0649 122.113 61.0649 123.728V133.429C61.0649 135.044 62.3755 136.353 63.9921 136.353H109.641C111.258 136.353 112.568 135.044 112.568 133.429V123.728C112.568 122.113 111.258 120.805 109.641 120.805Z" fill="white"/>
<path opacity="0.1" d="M163.54 136.357H117.891C116.274 136.357 114.963 137.665 114.963 139.28V148.981C114.963 150.596 116.274 151.905 117.891 151.905H163.54C165.156 151.905 166.467 150.596 166.467 148.981V139.28C166.467 137.665 165.156 136.357 163.54 136.357Z" fill="white"/>
<path opacity="0.1" d="M217.442 151.905H171.793C170.177 151.905 168.866 153.213 168.866 154.828V164.529C168.866 166.144 170.177 167.453 171.793 167.453H217.442C219.059 167.453 220.37 166.144 220.37 164.529V154.828C220.37 153.213 219.059 151.905 217.442 151.905Z" fill="white"/>
<path opacity="0.1" d="M109.641 97.4824H63.9921C62.3755 97.4824 61.0649 98.7911 61.0649 100.406V110.107C61.0649 111.722 62.3755 113.03 63.9921 113.03H109.641C111.258 113.03 112.568 111.722 112.568 110.107V100.406C112.568 98.7911 111.258 97.4824 109.641 97.4824Z" fill="white"/>
<path opacity="0.1" d="M163.54 113.031H117.891C116.274 113.031 114.963 114.339 114.963 115.954V125.656C114.963 127.27 116.274 128.579 117.891 128.579H163.54C165.156 128.579 166.467 127.27 166.467 125.656V115.954C166.467 114.339 165.156 113.031 163.54 113.031Z" fill="white"/>
<path opacity="0.1" d="M217.442 128.583H171.793C170.177 128.583 168.866 129.891 168.866 131.506V141.207C168.866 142.822 170.177 144.131 171.793 144.131H217.442C219.059 144.131 220.37 142.822 220.37 141.207V131.506C220.37 129.891 219.059 128.583 217.442 128.583Z" fill="white"/>
<path opacity="0.1" d="M277.329 120.805H231.68C230.063 120.805 228.753 122.113 228.753 123.728V133.429C228.753 135.044 230.063 136.353 231.68 136.353H277.329C278.946 136.353 280.256 135.044 280.256 133.429V123.728C280.256 122.113 278.946 120.805 277.329 120.805Z" fill="white"/>
<path opacity="0.1" d="M331.228 136.357H285.579C283.962 136.357 282.652 137.665 282.652 139.28V148.981C282.652 150.596 283.962 151.905 285.579 151.905H331.228C332.844 151.905 334.155 150.596 334.155 148.981V139.28C334.155 137.665 332.844 136.357 331.228 136.357Z" fill="white"/>
<path opacity="0.1" d="M385.13 151.905H339.481C337.865 151.905 336.554 153.213 336.554 154.828V164.529C336.554 166.144 337.865 167.453 339.481 167.453H385.13C386.747 167.453 388.057 166.144 388.057 164.529V154.828C388.057 153.213 386.747 151.905 385.13 151.905Z" fill="white"/>
<path opacity="0.1" d="M277.329 97.4824H231.68C230.063 97.4824 228.753 98.7911 228.753 100.406V110.107C228.753 111.722 230.063 113.03 231.68 113.03H277.329C278.946 113.03 280.256 111.722 280.256 110.107V100.406C280.256 98.7911 278.946 97.4824 277.329 97.4824Z" fill="white"/>
<path opacity="0.1" d="M331.228 113.031H285.579C283.962 113.031 282.652 114.339 282.652 115.954V125.656C282.652 127.27 283.962 128.579 285.579 128.579H331.228C332.844 128.579 334.155 127.27 334.155 125.656V115.954C334.155 114.339 332.844 113.031 331.228 113.031Z" fill="white"/>
<path opacity="0.1" d="M385.13 128.583H339.481C337.865 128.583 336.554 129.891 336.554 131.506V141.207C336.554 142.822 337.865 144.131 339.481 144.131H385.13C386.747 144.131 388.057 142.822 388.057 141.207V131.506C388.057 129.891 386.747 128.583 385.13 128.583Z" fill="white"/>
<path opacity="0.1" d="M109.641 66.3827H63.9921C62.3755 66.3827 61.0649 67.6914 61.0649 69.3058V79.0076C61.0649 80.622 62.3755 81.9307 63.9921 81.9307H109.641C111.258 81.9307 112.568 80.622 112.568 79.0076V69.3058C112.568 67.6914 111.258 66.3827 109.641 66.3827Z" fill="white"/>
<path opacity="0.1" d="M163.54 81.9307H117.891C116.274 81.9307 114.963 83.2394 114.963 84.8538V94.5556C114.963 96.1699 116.274 97.4787 117.891 97.4787H163.54C165.156 97.4787 166.467 96.1699 166.467 94.5556V84.8538C166.467 83.2394 165.156 81.9307 163.54 81.9307Z" fill="white"/>
<path opacity="0.1" d="M217.442 97.4824H171.793C170.177 97.4824 168.866 98.7911 168.866 100.406V110.107C168.866 111.722 170.177 113.03 171.793 113.03H217.442C219.059 113.03 220.37 111.722 220.37 110.107V100.406C220.37 98.7911 219.059 97.4824 217.442 97.4824Z" fill="white"/>
<path opacity="0.1" d="M109.641 43.0568H63.9921C62.3755 43.0568 61.0649 44.3655 61.0649 45.9799V55.6816C61.0649 57.296 62.3755 58.6048 63.9921 58.6048H109.641C111.258 58.6048 112.568 57.296 112.568 55.6816V45.9799C112.568 44.3655 111.258 43.0568 109.641 43.0568Z" fill="white"/>
<path opacity="0.1" d="M163.54 58.6085H117.891C116.274 58.6085 114.963 59.9172 114.963 61.5316V71.2334C114.963 72.8478 116.274 74.1565 117.891 74.1565H163.54C165.156 74.1565 166.467 72.8478 166.467 71.2334V61.5316C166.467 59.9172 165.156 58.6085 163.54 58.6085Z" fill="white"/>
<path opacity="0.1" d="M217.442 74.1566H171.793C170.177 74.1566 168.866 75.4653 168.866 77.0797V86.7815C168.866 88.3959 170.177 89.7046 171.793 89.7046H217.442C219.059 89.7046 220.37 88.3959 220.37 86.7815V77.0797C220.37 75.4653 219.059 74.1566 217.442 74.1566Z" fill="white"/>
<path opacity="0.1" d="M277.329 66.3827H231.68C230.063 66.3827 228.753 67.6914 228.753 69.3058V79.0076C228.753 80.622 230.063 81.9307 231.68 81.9307H277.329C278.946 81.9307 280.256 80.622 280.256 79.0076V69.3058C280.256 67.6914 278.946 66.3827 277.329 66.3827Z" fill="white"/>
<path opacity="0.1" d="M331.228 81.9307H285.579C283.962 81.9307 282.652 83.2394 282.652 84.8538V94.5556C282.652 96.1699 283.962 97.4787 285.579 97.4787H331.228C332.844 97.4787 334.155 96.1699 334.155 94.5556V84.8538C334.155 83.2394 332.844 81.9307 331.228 81.9307Z" fill="white"/>
<path opacity="0.1" d="M385.13 97.4824H339.481C337.865 97.4824 336.554 98.7911 336.554 100.406V110.107C336.554 111.722 337.865 113.03 339.481 113.03H385.13C386.747 113.03 388.057 111.722 388.057 110.107V100.406C388.057 98.7911 386.747 97.4824 385.13 97.4824Z" fill="white"/>
<path opacity="0.1" d="M277.329 43.0568H231.68C230.063 43.0568 228.753 44.3655 228.753 45.9799V55.6816C228.753 57.296 230.063 58.6048 231.68 58.6048H277.329C278.946 58.6048 280.256 57.296 280.256 55.6816V45.9799C280.256 44.3655 278.946 43.0568 277.329 43.0568Z" fill="white"/>
<path opacity="0.1" d="M331.228 58.6085H285.579C283.962 58.6085 282.652 59.9172 282.652 61.5316V71.2334C282.652 72.8478 283.962 74.1565 285.579 74.1565H331.228C332.844 74.1565 334.155 72.8478 334.155 71.2334V61.5316C334.155 59.9172 332.844 58.6085 331.228 58.6085Z" fill="white"/>
<path opacity="0.1" d="M385.13 74.1566H339.481C337.865 74.1566 336.554 75.4653 336.554 77.0797V86.7815C336.554 88.3959 337.865 89.7046 339.481 89.7046H385.13C386.747 89.7046 388.057 88.3959 388.057 86.7815V77.0797C388.057 75.4653 386.747 74.1566 385.13 74.1566Z" fill="white"/>
<path opacity="0.1" d="M215.5 300C334.517 300 431 282.474 431 260.855C431 239.235 334.517 221.709 215.5 221.709C96.4826 221.709 0 239.235 0 260.855C0 282.474 96.4826 300 215.5 300Z" fill="white"/>
<path d="M94.5522 127.288L76.4297 238.233L158.375 229.578L154.829 220.136L90.8095 225.447L105.78 127.091L94.5522 127.288Z" fill="#3F3D56"/>
<path d="M73.2778 1.39342L183.589 1L215.5 242.167L104.795 257.117L73.2778 1.39342Z" fill="#3F3D56"/>
<path d="M85.2939 10.6388H174.33L205.454 234.889L113.66 247.478L85.2939 10.6388Z" fill="white"/>
<path d="M169.264 224.801C169.823 225.872 170.241 227.028 170.97 227.992C173.097 230.833 177.136 231.277 180.165 233.13C180.317 233.207 180.442 233.328 180.524 233.476C180.662 233.803 180.354 234.145 180.059 234.35C177.762 235.959 174.748 235.994 171.939 235.975C170.995 236.008 170.051 235.918 169.13 235.707C167.645 235.314 166.372 234.279 164.907 233.858C164.147 233.668 163.369 233.559 162.586 233.531L159.509 233.323C158.69 233.311 157.879 233.161 157.11 232.878C156.727 232.732 156.387 232.491 156.123 232.178C155.858 231.865 155.677 231.49 155.597 231.088C155.511 230.435 155.79 229.802 155.956 229.164C156.35 227.654 156.228 225.828 157.406 224.797C157.891 224.426 158.447 224.159 159.041 224.011C161.182 223.29 163.368 222.709 165.584 222.272C167.408 221.914 168.456 223.251 169.264 224.801Z" fill="#3F3D56"/>
<path d="M134.461 233.311C134.54 234.149 134.563 235.109 133.957 235.695C133.579 236.009 133.122 236.213 132.637 236.286C129.725 236.962 126.479 237.009 123.946 235.428C123.682 235.278 123.45 235.079 123.26 234.842C123.049 234.519 122.929 234.145 122.914 233.76C122.823 232.646 123.166 231.549 123.477 230.475C124.214 227.926 124.773 225.33 125.151 222.705C125.183 222.488 132.586 223.885 133.078 224.617C133.697 225.522 133.701 227.693 133.866 228.771C134.116 230.277 134.314 231.79 134.461 233.311Z" fill="#3F3D56"/>
<path d="M162.015 130.935L163.985 149.225C164.379 152.963 164.793 156.72 164.521 160.469C164.206 164.797 162.992 169.124 163.504 173.413C163.705 175.081 164.162 176.717 164.229 178.397C164.242 179.514 164.185 180.631 164.06 181.741C163.169 192.84 165.986 203.852 167.562 214.871C167.816 216.231 167.871 217.619 167.728 218.994C167.523 220.391 167.113 222.224 168.358 222.885L156.665 227.119C155.172 225.25 156.161 222.342 155.877 219.97C155.617 217.834 154.443 215.93 153.817 213.872C153.249 212.023 153.131 210.076 152.946 208.156C151.926 197.703 148.794 187.521 148.061 177.044C148.037 176.032 147.905 175.026 147.667 174.042C147.273 172.74 146.485 171.603 145.91 170.379C145.027 168.542 144.594 166.528 144.168 164.537L141.667 152.833C139.137 156.594 139.24 161.488 138.74 165.997C138.038 172.291 136.47 178.48 135.194 184.696C134.897 186.033 134.675 187.386 134.528 188.748C134.197 192.395 134.855 196.078 134.504 199.721C134.11 203.942 132.334 208.061 132.763 212.283C132.999 214.62 133.898 216.831 134.504 219.097C135.111 221.363 135.411 223.849 134.485 226.009C131.249 224.823 127.773 224.439 124.356 224.892C120.601 221.056 119.936 215.705 119.679 210.335C119.423 204.965 120.042 199.587 119.372 194.268C119.175 192.694 118.868 191.16 118.817 189.59C118.651 184.558 121.074 179.849 122.28 174.959C123.365 170.557 123.468 165.97 122.583 161.524C121.992 158.585 120.976 155.732 120.613 152.754C120.121 148.58 120.956 144.374 121.795 140.251C122.358 137.47 122.918 134.688 123.556 131.923C124.242 128.952 125.057 125.919 126.889 123.488C129.82 119.597 135.024 117.87 139.89 118.247C144.755 118.625 149.298 120.836 153.316 123.59C156.483 125.704 159.402 128.168 162.015 130.935Z" fill="#192534"/>
<path d="M148.943 60.8985C148.722 61.2529 148.569 61.645 148.49 62.0551C148.392 62.8616 148.884 63.6013 149.278 64.3055C149.783 65.2102 150.171 66.1753 150.432 67.1775C150.62 67.7977 150.678 68.4499 150.602 69.0934C150.506 69.5767 150.333 70.0416 150.09 70.4704C149.329 71.9339 148.203 73.2873 146.67 73.8971C145.483 74.3335 144.189 74.3858 142.971 74.0466C141.761 73.7045 140.617 73.1619 139.587 72.4414C138.718 71.8919 137.937 71.2156 137.27 70.435C136.633 69.5814 136.096 68.6573 135.67 67.681C134.851 65.9697 134.02 64.1402 134.169 62.2636C134.177 62.0935 134.209 61.9253 134.264 61.764C134.392 61.4726 134.571 61.2061 134.792 60.9771C136.473 58.9881 137.335 56.4359 137.203 53.8365L142.943 55.1388C144.208 55.426 145.472 55.7132 146.721 56.0712C147.746 56.3662 149.321 56.7754 149.987 57.6881C150.653 58.6009 149.396 60.0644 148.943 60.8985Z" fill="#FBBEBE"/>
<path d="M145.87 59.9226C151.632 59.9226 156.302 55.2584 156.302 49.5048C156.302 43.7512 151.632 39.087 145.87 39.087C140.109 39.087 135.438 43.7512 135.438 49.5048C135.438 55.2584 140.109 59.9226 145.87 59.9226Z" fill="#FBBEBE"/>
<path d="M144.192 70.5214C144.633 69.5575 145.587 68.9477 146.457 68.3418C147.328 67.736 148.211 66.9609 148.38 65.9105C148.39 65.6729 148.449 65.4399 148.553 65.2259C148.888 64.7224 149.684 64.9741 150.161 65.344C151.319 66.2449 152.107 67.5235 152.875 68.7707C153.869 70.2873 154.72 71.8928 155.416 73.5665C156.523 76.4817 156.657 79.6645 156.779 82.7764C156.89 85.6091 156.996 88.485 156.307 91.2311C155.873 92.97 155.125 94.6578 155.081 96.4478C154.951 102.951 152.69 109.167 152.532 115.67C152.521 117.551 152.615 119.43 152.816 121.3L153.186 125.522C147.458 125.194 141.746 124.692 136.049 124.015C135.883 122.071 135.328 120.187 134.82 118.306C132.739 110.618 131.405 102.747 130.837 94.8033C130.533 90.5859 130.222 86.3841 129.753 82.1824C129.332 78.3623 128.504 74.5185 129.001 70.7063C129.261 68.9735 129.806 67.2957 130.616 65.7413C130.872 65.1221 131.312 64.5961 131.877 64.2345C132.159 64.0984 132.458 64.0017 132.767 63.9473C133.66 63.7666 134.567 63.66 135.478 63.6286C135.7 63.6099 135.924 63.6312 136.139 63.6916C136.523 63.8827 136.838 64.1878 137.042 64.565C138.797 67.2003 141.281 69.2696 144.192 70.5214Z" fill="#F2F2F2"/>
<path d="M139.354 69.6874C140.087 70.7339 141.639 70.9817 142.317 72.0479C142.545 72.4935 142.718 72.9651 142.833 73.4524C143.246 74.7704 144.082 75.9152 144.59 77.2017C145.323 79.0508 145.342 81.0966 145.35 83.0834C145.422 84.6659 145.301 86.2513 144.988 87.8044C144.751 88.7762 144.365 89.7007 144.082 90.6607C143.6 92.2931 143.421 93.9998 143.554 95.6965C143.554 96.063 143.652 96.4229 143.837 96.739C144.105 97.055 144.453 97.2917 144.846 97.4236C146 97.9311 147.21 98.4504 148.47 98.3324C148.729 98.3242 148.98 98.2408 149.191 98.0924C149.337 97.9595 149.458 97.8008 149.546 97.6242L150.334 96.2945C151.047 95.0788 151.792 93.7176 151.516 92.3288C151.315 91.612 151.014 90.9271 150.621 90.2948C150.118 89.2685 149.689 88.2075 149.337 87.1199C148.08 83.5122 146.808 79.8534 146.524 76.0451C146.357 74.5957 146.519 73.1275 146.997 71.7489C147.367 70.9005 147.832 70.0967 148.384 69.353C148.259 69.1858 148.086 69.0606 147.889 68.9938C147.691 68.927 147.477 68.922 147.277 68.9792C146.88 69.1015 146.497 69.2609 146.13 69.4553C144.972 69.9431 143.688 69.7661 142.518 69.4317C142.061 69.2979 141.336 68.8415 140.863 68.873C140.701 68.8927 139.382 69.7346 139.354 69.6874Z" fill="white"/>
<path d="M148.577 69.6442C148.341 69.4554 147.974 69.2823 147.765 69.5026C147.695 69.5981 147.644 69.7063 147.616 69.8213C147.411 70.3721 146.808 70.6435 146.26 70.856C145.713 71.0684 145.122 71.1864 144.791 70.7812C144.686 70.6234 144.635 70.4365 144.644 70.2476C144.654 70.0587 144.723 69.8777 144.842 69.7308C145.084 69.4392 145.377 69.1928 145.705 69.003C147.517 67.7256 148.752 65.786 149.14 63.6052C149.649 64.0086 149.985 64.5891 150.082 65.23C150.212 65.8556 150.228 66.5008 150.358 67.1263C150.551 68.0233 150.98 68.8613 151.079 69.7701C151.13 70.254 151.079 70.7419 151.079 71.2258C151.096 71.6989 151.152 72.1699 151.244 72.6342C150.322 71.6585 149.672 70.5137 148.577 69.6442Z" fill="#F2F2F2"/>
<path d="M140.603 66.9727C140.209 66.5989 139.815 66.2448 139.421 65.8632C137.692 64.1782 136.387 62.1089 135.611 59.8242C135.107 60.2176 134.552 60.737 134.54 61.3979C134.585 61.8656 134.765 62.31 135.06 62.6765C136.55 65.0195 137.533 67.6472 137.948 70.3915C138.16 70.0595 138.455 69.7877 138.804 69.6024C139.152 69.417 139.542 69.3243 139.937 69.3332C140.56 69.3332 143.353 70.9856 143.554 70.5686C143.849 69.9155 141.076 67.4172 140.603 66.9727Z" fill="#F2F2F2"/>
<path d="M149.4 63.8411C153.106 67.5252 157.643 70.2679 162.63 71.8393C163.125 71.9473 163.585 72.1803 163.965 72.516C164.249 72.8701 164.44 73.2893 164.521 73.7356C165.482 77.4889 165.805 81.3719 166.124 85.2314C166.208 85.8697 166.194 86.5169 166.085 87.1513C165.852 88.1821 165.119 89.0161 164.398 89.7911C162.137 92.2107 159.557 94.7404 159.174 98.0294C159.145 98.6634 159.07 99.2946 158.95 99.9178C158.753 100.65 158.316 101.295 158.048 102.007C156.732 105.512 159.706 109.757 157.894 113.023C158.875 114.905 159.548 116.932 159.888 119.026C159.948 119.82 160.13 120.6 160.427 121.34C160.967 122.465 162.078 123.181 162.953 124.094C165.62 126.824 165.947 131.002 166.104 134.814C166.203 136.962 166.171 139.429 164.528 140.838C163.579 141.66 162.283 141.927 161.042 142.132C159.391 142.407 157.595 142.604 156.133 141.79C155.085 141.207 154.372 140.188 153.69 139.205C152.398 137.328 151.102 135.456 149.877 133.532C147.938 130.498 146.11 127.032 146.67 123.476C146.512 127.115 145.744 130.782 143.955 133.953C142.167 137.124 139.287 139.771 135.792 140.818C132.298 141.864 128.213 141.125 125.608 138.575C124.758 137.701 124.028 136.718 123.438 135.652C121.955 133.117 120.874 130.369 120.231 127.504C120.061 126.761 119.935 125.931 120.31 125.266C120.487 124.951 120.759 124.703 120.944 124.393C121.566 123.334 120.967 122.001 120.365 120.923C119.447 121.009 118.789 119.931 118.872 119.011C118.954 118.09 119.506 117.291 119.896 116.453C121.038 113.983 120.786 111.107 120.235 108.443C119.683 105.78 118.86 103.132 118.923 100.414C118.99 97.5376 116.918 94.9489 115.338 92.5451C114.455 91.1917 113.427 89.9328 112.659 88.5125C111.057 85.5238 110.687 82.0287 111.627 78.7714C112.178 77.0988 112.902 75.4877 113.785 73.9638L115.086 71.5285C115.328 70.9467 115.703 70.4298 116.182 70.0197C116.662 69.6097 117.23 69.3179 117.843 69.168L126.838 65.6272C127.988 65.2349 129.08 64.6897 130.084 64.0063C131.183 63.1801 132.003 62.0392 133.05 61.158C133.203 60.9978 133.386 60.8697 133.589 60.7812C133.792 60.6927 134.011 60.6455 134.232 60.6426C135.075 60.7173 135.375 61.7796 135.462 62.6097C135.659 64.4666 137.037 66.0403 137.506 67.8461C140.043 77.8193 145.413 87.0175 146.887 97.1993C148.541 93.2296 150.196 89.2522 152.315 85.5147C152.65 84.9781 152.931 84.4102 153.155 83.819C153.409 82.9663 153.504 82.0741 153.434 81.187C153.328 78.6259 152.646 76.1237 151.973 73.6491C151.098 70.2814 150.31 67.1773 149.4 63.8411Z" fill="#3F3D56"/>
<path d="M166.542 94.3154C166.715 95.9914 166.884 97.6713 167.196 99.3276C167.558 101.244 168.11 103.116 168.657 104.989C168.925 106.042 169.308 107.061 169.8 108.03C169.978 108.311 170.12 108.614 170.221 108.931C170.414 109.718 169.973 110.505 169.784 111.291C169.217 113.652 170.919 116.276 169.847 118.452C169.524 119.113 168.961 119.66 168.748 120.368C168.5 121.182 168.748 122.052 168.878 122.893C169.213 125.254 168.405 127.654 167.609 129.924L166.254 133.756C165.017 131.458 163.768 129.137 162.058 127.166C161.448 126.458 160.782 125.801 160.219 125.053C159.379 123.879 158.715 122.588 158.249 121.221C157.046 117.975 156.359 114.561 156.212 111.103C156.114 110.119 156.228 109.127 156.547 108.191C156.807 107.65 157.1 107.125 157.421 106.618C158.477 104.717 158.694 102.467 158.674 100.295C158.654 98.1237 158.422 95.9441 158.674 93.7843C158.88 91.9809 159.414 90.2302 160.25 88.6186C160.743 87.575 161.476 86.6625 162.389 85.9552C163.071 85.4457 163.902 85.176 164.753 85.188C166.041 85.2628 165.746 86.3683 165.856 87.4345L166.542 94.3154Z" fill="#3F3D56"/>
<path d="M108.593 88.961C107.789 91.3216 107.064 93.7031 106.418 96.1056C105.788 98.4661 105.225 100.84 104.728 103.226C104.473 104.276 104.331 105.349 104.303 106.429C104.353 107.686 104.569 108.931 104.945 110.131C107.482 119.262 112.107 127.685 117.315 135.605C118.804 133.752 120.571 132.14 122.555 130.829C122.718 130.733 122.853 130.598 122.949 130.435C122.999 130.282 123.014 130.12 122.992 129.961C122.97 129.801 122.912 129.649 122.823 129.515C121.385 126.572 119.108 123.979 118.391 120.781C118.092 119.451 118.08 118.066 117.741 116.744C117.304 115.033 116.327 113.467 116.102 111.713C115.862 109.801 116.496 107.715 115.598 106.02C117.43 105.308 118.489 103.423 119.266 101.617C120.095 99.77 120.688 97.8256 121.031 95.8302C121.57 92.0047 120.82 88.1087 118.899 84.7554C117.961 83.0827 116.757 81.5732 115.334 80.2861C114.865 79.8651 113.758 78.6574 113.076 78.6692C112.166 78.6888 111.875 80.1602 111.615 80.8212C110.563 83.52 109.523 86.2228 108.593 88.961Z" fill="#3F3D56"/>
<path d="M124.911 132.997C125.03 133.083 125.163 133.201 125.132 133.343C125.1 133.485 124.986 133.52 124.884 133.579C124.351 133.956 123.954 134.494 123.749 135.113C123.094 136.587 122.524 138.096 122.039 139.634C121.158 138.315 120.121 137.106 118.951 136.034C118.052 135.208 117.048 134.425 116.567 133.308C116.567 133.276 118.632 131.754 118.821 131.588C119.4 131.073 120.129 129.645 120.727 129.33C121.405 128.976 122.051 130.365 122.567 130.923C123.277 131.691 124.063 132.386 124.911 132.997Z" fill="#FBBEBE"/>
<path d="M156.949 47.8761C156.921 47.3607 156.854 46.7902 156.46 46.4558C156.114 46.217 155.698 46.1019 155.278 46.1293C152.982 46.0546 150.606 46.4401 148.439 45.669C147.013 45.1615 145.796 44.1858 144.405 43.5799C143.014 42.9741 141.233 42.8128 140.111 43.8317C139.26 44.6186 139.027 45.8264 138.732 46.9397C138.081 49.3971 136.923 51.6913 135.332 53.6751C134.264 53.3446 133.5 52.3926 133.007 51.3933C131.333 47.9862 132.156 43.9183 133.346 40.3067C133.74 39.0949 134.177 37.895 134.615 36.699L135.576 34.0552C136.838 33.9315 138.01 33.349 138.87 32.4186L139.283 33.4218C140.352 33.3834 141.383 33.0196 142.238 32.3792C142.569 33.0008 143.42 33.1661 144.109 32.9654C144.799 32.7648 145.394 32.3792 146.079 32.1786C147.911 31.5885 149.865 32.4973 151.788 32.5996C152.601 32.5798 153.415 32.6034 154.226 32.6704C156.496 33.0363 158.099 35.1686 158.793 37.356C159.253 38.8117 159.636 40.6017 161.074 41.1171C161.105 41.6679 160.128 41.7741 160.045 42.2974C160.036 42.4718 160.077 42.6454 160.164 42.797L161.483 45.6257C160.852 45.7839 160.189 45.751 159.577 45.5313C158.982 46.9279 157.008 48.9423 156.949 47.8761Z" fill="#192534"/>
<path d="M223.828 54.0332C224.497 56.1904 225.024 58.3891 225.404 60.6151C225.688 62.2832 225.853 64.1363 224.896 65.529C228.544 60.0486 232.354 54.403 237.897 50.8662C236.768 49.644 235.91 48.1983 235.377 46.6231C234.844 45.0479 234.649 43.3784 234.804 41.723C234.836 41.3926 230.254 43.1197 229.903 43.3164C228.296 44.2095 226.823 45.3189 225.255 46.2749C224.443 46.7667 221.063 47.9312 221.031 48.6355C221.031 49.0879 222.375 50.4727 222.627 50.9488C223.122 51.9378 223.524 52.9703 223.828 54.0332Z" fill="#FBBEBE"/>
<path d="M240.781 260.729C239.88 260.095 238.824 259.717 237.726 259.634C236.627 259.551 235.526 259.766 234.54 260.257C232.756 261.177 231.554 262.92 229.931 264.101C227.142 266.123 223.458 266.284 220.192 267.378C219.325 267.669 218.403 268.102 218.037 268.951C217.914 269.309 217.865 269.687 217.893 270.064C217.921 270.44 218.025 270.807 218.199 271.143C218.745 272.358 219.701 273.343 220.901 273.924C222.367 274.625 224.053 274.656 225.676 274.676L239.78 274.841C244.114 274.892 248.475 274.943 252.781 275.482C253.786 275.608 254.873 275.746 255.759 275.254C257.201 274.467 257.367 272.476 257.256 270.836C256.966 266.679 256.036 262.592 254.499 258.719C254.329 258.29 254.105 257.802 253.628 257.723C253.29 257.708 252.957 257.814 252.69 258.022C248.711 260.383 243.673 261.716 239.441 259.828" fill="white"/>
<path d="M247.841 170.871C246.265 180.011 247.293 189.401 249.066 198.501C249.392 200.313 249.823 202.105 250.354 203.868C250.989 205.874 251.843 207.802 252.438 209.82C253.951 214.935 253.738 220.403 253.514 225.742L252.482 250.036C252.395 252.073 252.316 254.159 252.931 256.102C253.179 256.889 253.482 257.872 252.856 258.404C252.611 258.579 252.325 258.689 252.025 258.722C249.206 259.241 246.294 258.805 243.751 257.483L243.472 232.941C243.385 225.376 243.294 217.779 242.128 210.308C241.202 204.367 239.595 198.505 239.489 192.494C239.378 186.199 240.923 179.987 242.499 173.885C242.837 172.579 244.074 171.623 245.091 170.738C245.446 170.388 245.877 170.127 246.352 169.974C246.824 169.845 247.549 170.474 247.841 170.871Z" fill="#3F3D56"/>
<path opacity="0.1" d="M247.841 170.871C246.265 180.011 247.293 189.401 249.066 198.501C249.392 200.313 249.823 202.105 250.354 203.868C250.989 205.874 251.843 207.802 252.438 209.82C253.951 214.935 253.738 220.403 253.514 225.742L252.482 250.036C252.395 252.073 252.316 254.159 252.931 256.102C253.179 256.889 253.482 257.872 252.856 258.404C252.611 258.579 252.325 258.689 252.025 258.722C249.206 259.241 246.294 258.805 243.751 257.483L243.472 232.941C243.385 225.376 243.294 217.779 242.128 210.308C241.202 204.367 239.595 198.505 239.489 192.494C239.378 186.199 240.923 179.987 242.499 173.885C242.837 172.579 244.074 171.623 245.091 170.738C245.446 170.388 245.877 170.127 246.352 169.974C246.824 169.845 247.549 170.474 247.841 170.871Z" fill="black"/>
<path d="M218.258 142.309C217.675 144.705 218.912 147.187 218.774 149.65C218.695 151.141 218.108 152.628 218.38 154.092C218.652 155.556 219.7 156.657 220.259 157.999C220.667 159.119 220.883 160.3 220.897 161.492C221.059 164.435 220.929 167.394 220.819 170.325C220.633 175.242 220.496 180.188 221.146 185.062C221.712 189.285 222.861 193.409 224.561 197.317C225.077 198.38 225.502 199.484 225.834 200.618C226.051 201.674 226.196 202.744 226.267 203.82C226.642 207.32 227.582 210.736 229.052 213.935C230.057 216.127 231.81 217.869 232.366 220.195C232.894 222.421 232.539 224.77 232.921 227.024C233.201 228.696 233.883 230.278 234.261 231.93C234.753 234.067 234.741 236.282 234.99 238.461C235.699 244.756 238.563 251.051 236.853 257.157C236.51 258.384 235.978 259.631 236.219 260.882C236.337 261.496 236.636 262.102 236.502 262.712C236.392 263.231 235.99 263.632 235.785 264.124C235.391 265.045 235.809 266.138 236.51 266.85C237.258 267.514 238.128 268.027 239.071 268.361C241.975 269.6 244.981 270.859 248.132 270.832C248.515 270.852 248.897 270.782 249.247 270.627C249.815 270.332 250.094 269.691 250.335 269.101L251.95 265.111C252.147 264.628 252.344 264.061 252.072 263.613C251.883 263.367 251.654 263.154 251.394 262.983C250.09 261.885 250.386 259.836 250.732 258.187C251.618 253.953 252.109 249.647 252.198 245.322C252.371 236.699 250.949 228.126 249.531 219.616C249.038 216.662 248.542 213.687 247.561 210.855C246.58 208.022 245.134 205.296 245.371 202.353C245.623 199.174 244.795 195.842 245.371 192.706C245.946 189.571 246.856 186.502 247.443 183.37C248.203 179.306 248.392 175.164 248.625 171.041C248.723 169.357 248.849 167.618 249.637 166.123C250.098 165.249 250.768 164.502 251.284 163.656C252.616 161.457 252.828 158.73 254.101 156.496C254.704 155.437 255.535 154.505 255.976 153.372C256.286 152.478 256.448 151.54 256.457 150.594C256.582 148.22 256.45 145.839 256.063 143.493C249.356 140.085 241.919 138.362 234.395 138.473C231.515 138.52 228.603 138.812 225.901 139.807C223.324 140.763 220.976 142.104 218.258 142.309Z" fill="#3F3D56"/>
<path d="M234.41 266.953C233.252 268.392 233.331 270.45 232.59 272.146C231.692 274.203 229.691 275.521 227.792 276.721L215.973 284.196C215.327 284.59 214.633 285.074 214.397 285.805C214.285 286.272 214.305 286.762 214.456 287.218C214.738 288.205 215.264 289.106 215.985 289.837C216.707 290.568 217.601 291.107 218.585 291.404C219.631 291.653 220.705 291.762 221.78 291.73L227.094 291.801C228.713 291.864 230.335 291.801 231.944 291.612C233.418 291.4 234.852 290.979 236.317 290.711C238.984 290.227 241.726 290.271 244.397 289.803C246.033 289.481 247.648 289.065 249.235 288.555C251.166 287.977 253.132 287.375 254.786 286.23C255.242 285.953 255.611 285.556 255.854 285.081C256.134 284.432 255.98 283.689 255.822 283L253.285 271.866C253.142 270.939 252.804 270.053 252.293 269.266C251.729 268.518 250.717 268.023 249.838 268.341C249.476 268.506 249.133 268.712 248.818 268.955C247.518 269.809 245.851 269.95 244.315 269.683C243.322 269.506 242.01 269.234 241.21 268.577C240.604 268.078 240.422 267.303 239.906 266.736C239.544 266.365 239.108 266.074 238.627 265.882C238.145 265.69 237.628 265.602 237.11 265.622C236.592 265.642 236.084 265.771 235.619 266.001C235.153 266.23 234.742 266.554 234.41 266.953Z" fill="white"/>
<path d="M226.748 52.4988C234.609 52.4988 240.982 46.1348 240.982 38.2845C240.982 30.4341 234.609 24.0702 226.748 24.0702C218.886 24.0702 212.514 30.4341 212.514 38.2845C212.514 46.1348 218.886 52.4988 226.748 52.4988Z" fill="#FBBEBE"/>
<path d="M215.768 39.1185C217.131 38.3553 217.131 36.1561 218.526 35.4243C219.92 34.6926 221.504 35.9633 222.398 37.2459C223.702 39.1242 224.607 41.2489 225.058 43.4894C225.184 44.1268 225.302 44.8231 225.782 45.2677C226.263 45.7123 226.893 45.7674 227.508 45.8303C229.307 46.0087 231.109 46.1713 232.913 46.3181C234.922 46.4794 237.042 46.6093 238.866 45.7477C239.586 45.4263 240.204 44.9148 240.655 44.2684C241.016 43.6477 241.274 42.9728 241.419 42.2698C242.361 38.6936 243.31 35.0742 243.389 31.376C243.42 29.8495 243.286 28.268 242.55 26.9304C242.12 26.1435 241.49 25.459 241.313 24.5934C241.135 23.7279 241.707 22.6263 242.605 22.7207C241.793 22.7541 240.984 22.6006 240.241 22.2722C239.528 21.8788 239 21.033 239.252 20.2619C237.251 20.5176 235.793 18.5426 234.233 17.264C233.979 17.0128 233.637 16.8715 233.28 16.8706C233.006 16.9389 232.741 17.0406 232.492 17.1735C231.704 17.4489 230.88 16.9257 230.073 16.6975C227.906 16.0916 225.152 17.5551 223.545 15.9814C223.698 16.9847 222.465 17.6574 221.449 17.6377C220.432 17.6181 219.384 17.2443 218.423 17.5827C218.562 17.837 218.644 18.1188 218.661 18.4081C218.679 18.6974 218.632 18.987 218.524 19.2561C218.416 19.5253 218.251 19.7673 218.038 19.965C217.826 20.1627 217.573 20.3111 217.296 20.3996L217.773 21.4382C217.282 21.5362 216.828 21.7694 216.463 22.1115C216.097 22.4535 215.835 22.8907 215.705 23.3738C215.181 25.4393 215.311 28.3742 215.437 30.4987C215.5 31.4311 216.41 38.7684 215.768 39.1185Z" fill="#192534"/>
<path d="M227.914 56.6062C220.763 64.6359 218.943 75.9389 217.419 86.5809L215.173 102.294C214.59 106.37 213.991 110.446 213.483 114.533C213.128 117.331 212.797 120.171 213.183 122.965C213.487 125.168 214.223 127.292 214.838 129.413C216.437 134.975 217.233 140.736 217.202 146.523C217.679 145.122 219.329 144.555 220.779 144.241C232.944 141.605 245.636 142.958 256.969 148.1C258.958 142.533 258.584 136.443 259.14 130.558C259.928 122.166 262.642 114.034 263.446 105.658C263.741 102.538 263.777 99.4025 263.808 96.267C263.832 93.9654 263.855 91.6403 263.375 89.386C262.839 86.8917 261.708 84.5666 260.538 82.3045C257.304 76.0161 253.71 69.9185 249.775 64.0418C247.795 61.0833 245.729 58.1838 243.578 55.3433C242.488 53.9034 241.376 52.4792 240.241 51.0708C239.142 49.7056 238.665 48.5214 236.92 49.3397C233.622 50.8819 230.313 53.9113 227.914 56.6062Z" fill="white"/>
<path d="M232.011 123.441C230.267 123.504 228.52 123.448 226.783 123.275C225.495 123.149 224.179 122.961 222.922 123.275C222.376 123.413 221.864 123.663 221.421 124.011C221.257 124.157 221.139 124.348 221.082 124.56C221.024 124.772 221.03 124.996 221.098 125.204C221.166 125.413 221.294 125.597 221.465 125.735C221.637 125.872 221.845 125.957 222.063 125.978L223.411 126.096C224.266 126.171 225.156 126.257 225.822 126.883C226.095 127.129 226.269 127.466 226.31 127.831C226.393 128.748 225.597 129.247 224.884 129.629C223.871 130.104 222.933 130.728 222.103 131.478C221.453 132.105 221.044 132.941 220.949 133.839C220.946 133.919 220.964 133.998 221.001 134.069C221.039 134.14 221.094 134.2 221.162 134.242C221.23 134.285 221.308 134.309 221.388 134.312C221.468 134.315 221.547 134.297 221.618 134.26C223.194 133.473 224.222 131.14 225.952 131.529C224.379 132.027 223.031 133.062 222.146 134.452C221.928 134.784 221.828 135.18 221.864 135.576C221.899 135.972 222.067 136.344 222.341 136.632C222.614 136.921 222.977 137.108 223.371 137.165C223.765 137.221 224.166 137.143 224.51 136.943C224.766 136.793 225.013 136.629 225.251 136.451C226.422 135.504 227.472 134.415 228.375 133.209C227.114 135.865 225.838 138.973 227.287 141.613C227.36 141.758 227.473 141.879 227.613 141.961C227.752 142.044 227.913 142.084 228.075 142.077C228.532 142.03 228.666 141.601 228.741 141.223C228.978 140.008 229.037 138.725 229.636 137.643C231.022 135.133 234.442 134.889 237.046 133.666C240.17 132.218 242.309 129.102 243.172 125.774C243.474 124.803 243.527 123.772 243.326 122.776C242.747 120.537 239.981 120.022 238.204 121.104C236.026 122.485 234.761 123.354 232.011 123.441Z" fill="#FBBEBE"/>
<path opacity="0.1" d="M229.246 79.4049C232.003 83.6577 236.79 86.0537 240.895 89.0397C241.897 89.6911 242.77 90.5205 243.472 91.4868C244.508 93.0841 244.654 95.1142 244.441 96.9947C244.173 99.4772 243.373 101.865 242.581 104.234L240.86 109.368C239.768 112.625 238.642 115.95 236.565 118.688C236.034 119.384 235.415 120.128 235.439 121.001C235.485 121.506 235.658 121.99 235.943 122.41C236.607 123.492 237.483 124.431 238.518 125.169C239.553 125.907 240.726 126.429 241.967 126.706C242.71 126.895 243.489 126.895 244.232 126.706C245.296 126.391 246.095 125.526 246.836 124.707C250.382 120.801 253.928 116.839 256.488 112.256C258.99 107.782 260.487 102.813 261.866 97.8917C262.434 96.0799 262.83 94.2186 263.048 92.3327C263.339 88.7919 262.41 85.2511 260.889 82.0526C259.368 78.8541 257.276 75.9585 255.121 73.1455C253.087 70.3825 250.827 67.7928 248.365 65.403C244.078 61.4019 238.835 59.0493 233.098 61.3193C229.049 62.9244 227.532 66.2725 227.169 70.5607C226.862 73.657 227.593 76.7674 229.246 79.4049Z" fill="black"/>
<path d="M230.68 78.3268C233.437 82.5797 238.228 84.9757 242.329 87.9617C243.327 88.6195 244.197 89.4542 244.894 90.4245C245.93 92.0218 246.076 94.048 245.863 95.9324C245.591 98.4149 244.795 100.803 244 103.171L242.278 108.286C241.187 111.543 240.06 114.864 237.984 117.606C237.456 118.302 236.837 119.042 236.861 119.919C236.904 120.423 237.078 120.907 237.365 121.324C238.029 122.407 238.903 123.346 239.938 124.085C240.972 124.823 242.144 125.347 243.385 125.624C244.13 125.813 244.91 125.813 245.654 125.624C246.718 125.313 247.514 124.444 248.258 123.629C251.804 119.719 255.35 115.761 257.911 111.178C260.412 106.704 261.909 101.735 263.288 96.8098C263.858 94.9997 264.253 93.1396 264.47 91.2547C264.762 87.7139 263.832 84.1731 262.315 80.9706C260.798 77.7682 258.702 74.8766 256.547 72.0636C254.507 69.315 252.241 66.7398 249.775 64.3643C245.493 60.3672 240.249 58.0106 234.513 60.2846C230.459 61.8897 228.946 65.2338 228.58 69.526C228.291 72.6105 229.029 75.704 230.68 78.3268Z" fill="white"/>
<path d="M317.794 219.443C317.797 220.469 317.691 221.493 317.478 222.496C317.439 222.685 317.396 222.89 317.352 223.051C316.234 227.532 313.078 230.809 309.311 231.018C309.185 231.018 309.059 231.018 308.918 231.018C304.935 231.018 301.566 227.587 300.455 222.862C300.424 222.736 300.396 222.61 300.368 222.469C300.156 221.465 300.05 220.442 300.053 219.416C300.053 213.015 304.021 207.829 308.918 207.829C313.815 207.829 317.794 213.054 317.794 219.443Z" fill="#3F3D56"/>
<path opacity="0.1" d="M317.794 219.443C317.796 220.469 317.691 221.492 317.478 222.496C317.439 222.685 317.396 222.889 317.352 223.051C317.218 223.051 317.088 223.051 316.958 223.051C315.983 222.998 315.013 222.867 314.059 222.657C313.213 222.918 312.349 223.116 311.474 223.247C310.803 223.348 310.127 223.411 309.449 223.436H308.764C307.952 223.436 307.141 223.383 306.337 223.275C305.036 223.102 303.758 222.785 302.527 222.331C301.853 222.555 301.167 222.739 300.471 222.882C300.439 222.756 300.412 222.63 300.384 222.488C300.172 221.484 300.066 220.461 300.069 219.435C300.069 213.034 304.036 207.849 308.933 207.849C313.83 207.849 317.794 213.054 317.794 219.443Z" fill="black"/>
<path d="M336.704 197.86C336.708 195.043 336.046 192.265 334.773 189.752L324.349 192.989L333.501 187.615C331.966 185.401 329.952 183.56 327.609 182.227C325.267 180.894 322.654 180.103 319.964 179.912C319.536 179.263 319.066 178.643 318.558 178.055L303.587 182.709L315.867 175.498C313.518 173.698 310.761 172.503 307.839 172.02C304.918 171.538 301.922 171.781 299.118 172.73C296.313 173.679 293.786 175.303 291.76 177.46C289.734 179.616 288.271 182.238 287.501 185.093L300.325 199.835L286.414 189.787C282.89 192.283 280.381 195.96 279.345 200.148C278.309 204.336 278.814 208.757 280.768 212.605C282.722 216.452 285.995 219.471 289.992 221.11C293.988 222.75 298.441 222.901 302.539 221.536C306.246 222.897 310.298 223.009 314.074 221.855C316.707 222.433 319.437 222.415 322.062 221.802C324.687 221.188 327.141 219.994 329.243 218.309C331.345 216.623 333.042 214.488 334.209 212.061C335.377 209.634 335.984 206.977 335.987 204.285C335.987 203.891 335.987 203.498 335.947 203.104C336.458 201.403 336.713 199.636 336.704 197.86Z" fill="white"/>
<path opacity="0.1" d="M336.393 201.196C330.888 200.154 325.242 200.082 319.712 200.984C313.452 202.019 307.054 204.293 300.932 202.632C297.339 201.657 294.234 199.398 290.724 198.143C287.337 196.963 283.689 196.746 280.185 197.514C278.85 200.703 278.463 204.209 279.07 207.612C279.677 211.016 281.252 214.173 283.607 216.706C285.962 219.239 288.998 221.042 292.352 221.899C295.706 222.755 299.235 222.629 302.519 221.536C306.227 222.897 310.278 223.009 314.055 221.855C316.688 222.434 319.417 222.415 322.042 221.802C324.667 221.188 327.121 219.994 329.224 218.309C331.326 216.623 333.023 214.488 334.19 212.061C335.357 209.634 335.964 206.977 335.967 204.285C335.967 203.891 335.967 203.498 335.928 203.104C336.118 202.477 336.273 201.84 336.393 201.196Z" fill="black"/>
</g>
<defs>
<clipPath id="clip0_722:2271">
<rect width="450" height="292" fill="white"/>
</clipPath>
</defs>
</svg>
