<svg width="112" height="561" viewBox="0 0 112 561" fill="none" xmlns="http://www.w3.org/2000/svg">
<g clip-path="url(#clip0_705:2261)">
<path d="M114 464.32C65.6446 464.32 26.3198 503.653 26.3198 551.995C26.3198 600.347 65.6446 639.68 114 639.68C162.345 639.68 201.68 600.347 201.68 551.995C201.68 503.653 162.345 464.32 114 464.32ZM114 643C63.8192 643 23 602.172 23 551.995C23 501.817 63.8192 461 114 461C164.181 461 205 501.817 205 551.995C205 602.172 164.181 643 114 643Z" fill="#1BA58A"/>
<path d="M114 464.32C65.6446 464.32 26.3198 503.653 26.3198 551.995C26.3198 600.347 65.6446 639.68 114 639.68C162.345 639.68 201.68 600.347 201.68 551.995C201.68 503.653 162.345 464.32 114 464.32ZM114 643C63.8192 643 23 602.172 23 551.995C23 501.817 63.8192 461 114 461C164.181 461 205 501.817 205 551.995C205 602.172 164.181 643 114 643Z" stroke="#1BA58A" stroke-width="0.566667" stroke-miterlimit="10"/>
<path d="M153.229 -8.74922L153.359 -8.95456C157.895 -15.978 163.465 -22.2578 169.932 -27.6016C186.664 -41.4268 207.796 -47.922 229.411 -45.8733C251.03 -43.8338 270.558 -33.4805 284.389 -16.7359C298.234 0.00297379 304.724 21.1216 302.666 42.7331C300.611 64.3667 290.271 83.8873 273.535 97.7218C267.064 103.075 259.851 107.359 252.095 110.491L250.021 111.325L250.076 111.377L24.4592 209.065L153.229 -8.74922ZM251.311 -43.9931C244.438 -46.5518 237.19 -48.2154 229.705 -48.932C207.262 -51.0564 185.346 -44.3253 167.972 -29.9681C161.873 -24.931 156.541 -19.0907 152.085 -12.5969L152.014 -12.7183L150.744 -10.5828L17 215.655L253.726 113.147C261.591 109.919 268.905 105.534 275.495 100.088C292.859 85.7276 303.598 65.4785 305.734 43.0305C307.855 20.5976 301.127 -1.32788 286.756 -18.6956C277.195 -30.2598 265.011 -38.893 251.311 -43.9931Z" fill="#1BA58A"/>
<path d="M153.229 -8.74922L153.359 -8.95456C157.895 -15.978 163.465 -22.2578 169.932 -27.6016C186.664 -41.4268 207.796 -47.922 229.411 -45.8733C251.03 -43.8338 270.558 -33.4805 284.389 -16.7359C298.234 0.00297379 304.724 21.1216 302.666 42.7331C300.611 64.3667 290.271 83.8873 273.535 97.7218C267.064 103.075 259.851 107.359 252.095 110.491L250.021 111.325L250.076 111.377L24.4592 209.065L153.229 -8.74922ZM251.311 -43.9931C244.438 -46.5518 237.19 -48.2154 229.705 -48.932C207.262 -51.0564 185.346 -44.3253 167.972 -29.9681C161.873 -24.931 156.541 -19.0907 152.085 -12.5969L152.014 -12.7183L150.744 -10.5828L17 215.655L253.726 113.147C261.591 109.919 268.905 105.534 275.495 100.088C292.859 85.7276 303.598 65.4785 305.734 43.0305C307.855 20.5976 301.127 -1.32788 286.756 -18.6956C277.195 -30.2598 265.011 -38.893 251.311 -43.9931Z" stroke="#1BA58A" stroke-width="0.566667" stroke-miterlimit="10"/>
</g>
<defs>
<clipPath id="clip0_705:2261">
<rect width="112" height="561" fill="white"/>
</clipPath>
</defs>
</svg>
