<svg width="1440" height="356" viewBox="0 0 1440 356" fill="none" xmlns="http://www.w3.org/2000/svg">
<g clip-path="url(#clip0_740:2294)">
<rect width="1440" height="356" fill="#1BA58A"/>
<path d="M136.26 416.416L136.107 416.645C131.144 424.411 127.402 432.876 125.013 441.809C118.817 464.923 122.002 489.073 133.969 509.798C145.936 530.523 165.266 545.358 188.381 551.543C236.106 564.327 285.347 535.912 298.132 488.189C300.521 479.245 301.525 470.05 301.099 460.854L300.99 458.585L301.056 458.596L295.547 187.502L136.26 416.416ZM211.551 558C203.598 558 195.537 556.975 187.508 554.815C163.509 548.39 143.459 532.999 131.034 511.5C118.61 489.989 115.315 464.923 121.74 440.936C124.009 432.461 127.435 424.389 131.951 416.917L131.82 416.895L133.282 414.768L298.721 177.009L304.503 461.225C304.885 470.595 303.837 479.954 301.405 489.062C290.278 530.556 252.6 558 211.551 558" fill="white"/>
<path d="M136.26 416.416L136.107 416.645C131.144 424.411 127.402 432.876 125.013 441.809C118.817 464.923 122.002 489.073 133.969 509.798C145.936 530.523 165.266 545.358 188.381 551.543C236.106 564.327 285.347 535.912 298.132 488.189C300.521 479.245 301.525 470.05 301.099 460.854L300.99 458.585L301.056 458.596L295.547 187.502L136.26 416.416ZM211.551 558C203.598 558 195.537 556.975 187.508 554.815C163.509 548.39 143.459 532.999 131.034 511.5C118.61 489.989 115.315 464.923 121.74 440.936C124.009 432.461 127.435 424.389 131.951 416.917L131.82 416.895L133.282 414.768L298.721 177.009L304.503 461.225C304.885 470.595 303.837 479.954 301.405 489.062C290.278 530.556 252.6 558 211.551 558V558Z" stroke="white" stroke-width="0.566667" stroke-miterlimit="10"/>
<path d="M123.801 -63.4044C99.868 -63.4044 77.3636 -54.089 60.4443 -37.1599C43.5142 -20.2308 34.1982 2.26127 34.1982 26.1932C34.1982 50.1361 43.5142 72.6282 60.4334 89.5573C77.3636 106.486 99.868 115.802 123.801 115.802C147.735 115.802 170.239 106.486 187.17 89.5573C222.11 54.6193 222.11 -2.22187 187.17 -37.1599C170.239 -54.089 147.735 -63.4044 123.801 -63.4044ZM123.801 119.194C98.9626 119.194 75.6073 109.519 58.0444 91.9461C40.4816 74.3844 30.8057 51.0305 30.8057 26.1932C30.8057 1.35592 40.4816 -21.9979 58.0444 -39.5597C75.6073 -57.1214 98.9626 -66.7967 123.801 -66.7967C148.64 -66.7967 171.996 -57.1214 189.558 -39.5597C225.83 -3.30176 225.83 55.6882 189.558 91.9461C171.996 109.519 148.64 119.194 123.801 119.194Z" fill="white"/>
<path d="M123.801 -63.4044C99.868 -63.4044 77.3636 -54.089 60.4443 -37.1599C43.5142 -20.2308 34.1982 2.26127 34.1982 26.1932C34.1982 50.1361 43.5142 72.6282 60.4334 89.5573C77.3636 106.486 99.868 115.802 123.801 115.802C147.735 115.802 170.239 106.486 187.17 89.5573C222.11 54.6193 222.11 -2.22187 187.17 -37.1599C170.239 -54.089 147.735 -63.4044 123.801 -63.4044ZM123.801 119.194C98.9626 119.194 75.6073 109.519 58.0444 91.9461C40.4816 74.3844 30.8057 51.0305 30.8057 26.1932C30.8057 1.35592 40.4816 -21.9979 58.0444 -39.5597C75.6073 -57.1214 98.9626 -66.7967 123.801 -66.7967C148.64 -66.7967 171.996 -57.1214 189.558 -39.5597C225.83 -3.30176 225.83 55.6882 189.558 91.9461C171.996 109.519 148.64 119.194 123.801 119.194Z" stroke="white" stroke-width="0.566667" stroke-miterlimit="10"/>
<path d="M1205.38 -97.2544L1205.4 -97.5292C1205.81 -106.737 1204.82 -115.938 1202.42 -124.869C1196.23 -147.984 1181.4 -167.306 1160.67 -179.271C1139.95 -191.236 1115.79 -194.419 1092.68 -188.217C1044.95 -175.426 1016.52 -126.197 1029.31 -78.4762C1031.71 -69.5355 1035.44 -61.0703 1040.4 -53.3196L1041.63 -51.4093L1041.57 -51.386L1181.89 180.634L1205.38 -97.2544ZM1069.38 -182.225C1076.27 -186.201 1083.76 -189.344 1091.8 -191.487C1115.79 -197.923 1140.85 -194.619 1162.36 -182.212C1183.88 -169.796 1199.26 -149.735 1205.69 -125.75C1207.97 -117.275 1209.04 -108.572 1208.86 -99.8434L1208.98 -99.89L1208.78 -97.317L1184.39 191.309L1037.27 -51.9391C1032.26 -59.8627 1028.48 -68.4914 1026.04 -77.5956C1014.93 -119.094 1033.83 -161.7 1069.38 -182.225" fill="white"/>
<path d="M1205.38 -97.2544L1205.4 -97.5292C1205.81 -106.737 1204.82 -115.938 1202.42 -124.869C1196.23 -147.984 1181.4 -167.306 1160.67 -179.271C1139.95 -191.236 1115.79 -194.419 1092.68 -188.217C1044.95 -175.426 1016.52 -126.197 1029.31 -78.4762C1031.71 -69.5355 1035.44 -61.0703 1040.4 -53.3196L1041.63 -51.4093L1041.57 -51.386L1181.89 180.634L1205.38 -97.2544ZM1069.38 -182.225C1076.27 -186.201 1083.76 -189.344 1091.8 -191.487C1115.79 -197.923 1140.85 -194.619 1162.36 -182.212C1183.88 -169.796 1199.26 -149.735 1205.69 -125.75C1207.97 -117.275 1209.04 -108.572 1208.86 -99.8434L1208.98 -99.89L1208.78 -97.317L1184.39 191.309L1037.27 -51.9391C1032.26 -59.8627 1028.48 -68.4914 1026.04 -77.5956C1014.93 -119.094 1033.83 -161.7 1069.38 -182.225V-182.225Z" stroke="white" stroke-width="0.566667" stroke-miterlimit="10"/>
<path d="M1456.08 312.053C1476.81 300.086 1491.64 280.766 1497.83 257.646C1504.02 234.52 1500.84 210.383 1488.88 189.657C1476.91 168.922 1457.59 154.101 1434.48 147.9C1411.35 141.704 1387.2 144.889 1366.48 156.856C1345.75 168.822 1330.92 188.142 1324.72 211.268C1311.93 258.995 1340.35 308.221 1388.08 321.008C1411.2 327.204 1435.35 324.019 1456.08 312.053ZM1364.78 153.918C1386.29 141.498 1411.35 138.2 1435.35 144.637C1459.34 151.064 1479.4 166.451 1491.82 187.961C1504.24 209.471 1507.53 234.534 1501.1 258.524C1494.67 282.514 1479.29 302.571 1457.77 314.991C1436.26 327.41 1411.2 330.709 1387.21 324.281C1337.67 311.016 1308.17 259.93 1321.46 210.394C1327.88 186.394 1343.27 166.337 1364.78 153.918Z" fill="white"/>
<path d="M1456.08 312.053C1476.81 300.086 1491.64 280.766 1497.83 257.646C1504.02 234.52 1500.84 210.383 1488.88 189.657C1476.91 168.922 1457.59 154.101 1434.48 147.9C1411.35 141.704 1387.2 144.889 1366.48 156.856C1345.75 168.822 1330.92 188.142 1324.72 211.268C1311.93 258.995 1340.35 308.221 1388.08 321.008C1411.2 327.204 1435.35 324.019 1456.08 312.053ZM1364.78 153.918C1386.29 141.498 1411.35 138.2 1435.35 144.637C1459.34 151.064 1479.4 166.451 1491.82 187.961C1504.24 209.471 1507.53 234.534 1501.1 258.524C1494.67 282.514 1479.29 302.571 1457.77 314.991C1436.26 327.41 1411.2 330.709 1387.21 324.281C1337.67 311.016 1308.17 259.93 1321.46 210.394C1327.88 186.394 1343.27 166.337 1364.78 153.918Z" stroke="white" stroke-width="0.566667" stroke-miterlimit="10"/>
</g>
<defs>
<clipPath id="clip0_740:2294">
<rect width="1440" height="356" fill="white"/>
</clipPath>
</defs>
</svg>
