<svg width="471" height="409" viewBox="0 0 471 409" fill="none" xmlns="http://www.w3.org/2000/svg">
<g clip-path="url(#clip0)">
<rect width="471" height="409" fill="white"/>
<path d="M471 198.704C471 289.698 390.92 366.403 281.648 389.951C263.902 393.766 245.874 396.121 227.743 396.992C226.861 397.036 225.979 397.08 225.091 397.112C220.373 397.307 215.619 397.406 210.829 397.408C202.501 397.408 194.272 397.112 186.141 396.52C181.631 396.199 177.158 395.789 172.723 395.292C129.59 390.455 89.8969 377.538 56.3706 358.612C52.1815 356.25 48.091 353.794 44.0991 351.243C36.7895 346.591 29.7325 341.554 22.9578 336.153C-21.8255 300.468 15.5119 224.299 38.8515 176.346C101.847 46.9206 67.1429 0 210.829 0C354.515 0 471 88.9602 471 198.704Z" fill="#F2F2F2"/>
<path d="M368.027 81.9174C323.368 81.1168 323.375 14.7644 368.028 13.9703C412.686 14.7709 412.679 81.1233 368.027 81.9174Z" fill="white"/>
<path d="M283.571 180.797C238.912 179.996 238.919 113.644 283.572 112.85C328.229 113.651 328.222 180.003 283.571 180.797Z" fill="white"/>
<path d="M371.668 281.204C327.009 280.403 327.016 214.051 371.67 213.257C416.327 214.057 416.32 280.41 371.668 281.204Z" fill="white"/>
<path d="M368.027 81.9174C323.368 81.1168 323.375 14.7644 368.028 13.9703C412.686 14.7709 412.679 81.1233 368.027 81.9174ZM368.027 16.0293C326.075 16.7816 326.081 79.1123 368.028 79.8584C409.979 79.1061 409.972 16.7754 368.027 16.0293Z" fill="#E6E6E6"/>
<path d="M172.566 394.819C172.465 394.499 172.396 394.17 172.358 393.837L159.387 319.898C159.368 319.707 159.338 319.518 159.299 319.331C159.024 317.983 158.34 316.753 157.34 315.808C156.34 314.864 155.073 314.251 153.711 314.053L79.7482 314.374C78.3488 314.164 76.919 314.408 75.6677 315.068C74.4164 315.729 73.4093 316.772 72.7935 318.046C71.5905 320.553 70.4125 323.095 69.2596 325.673C64.5915 336.059 60.2952 347.038 56.3707 358.612C89.897 377.538 129.59 390.455 172.723 395.292L172.566 394.819Z" fill="#2F2E41"/>
<path d="M244.766 196.959C244.584 197.758 244.466 198.571 244.411 199.389L180.751 236.105L165.278 227.199L148.782 248.79L174.643 267.217C176.732 268.705 179.247 269.476 181.812 269.414C184.377 269.352 186.852 268.459 188.866 266.87L254.511 215.095C257.473 216.192 260.699 216.36 263.76 215.579C266.821 214.797 269.571 213.103 271.645 210.72C273.719 208.338 275.018 205.381 275.37 202.242C275.722 199.104 275.11 195.933 273.615 193.15C272.12 190.368 269.813 188.107 267.002 186.667C264.19 185.228 261.006 184.678 257.875 185.091C254.743 185.505 251.811 186.862 249.47 188.982C247.128 191.101 245.487 193.884 244.766 196.959V196.959Z" fill="#FFB8B8"/>
<path d="M179.879 232.436C179.686 231.497 179.293 230.611 178.727 229.837C178.161 229.063 177.434 228.42 176.597 227.952L147.386 211.621C143.505 208.627 138.594 207.294 133.731 207.914C128.867 208.534 124.448 211.056 121.442 214.928C118.436 218.801 117.089 223.707 117.695 228.571C118.301 233.435 120.812 237.86 124.677 240.876L147.966 265.054C148.631 265.744 149.436 266.283 150.328 266.634C151.22 266.985 152.177 267.14 153.134 267.088C154.091 267.036 155.026 266.779 155.874 266.333C156.723 265.888 157.466 265.264 158.052 264.506L162.587 258.624L164.137 256.621L178.626 237.846C179.155 237.161 179.542 236.378 179.766 235.541C180.049 234.53 180.088 233.466 179.879 232.436Z" fill="#DABB4F"/>
<path d="M137.585 182.64C151.799 168.429 151.799 145.389 137.585 131.178C123.371 116.967 100.325 116.967 86.1107 131.178C71.8965 145.389 71.8965 168.429 86.1107 182.64C100.325 196.851 123.371 196.851 137.585 182.64Z" fill="#FFB8B8"/>
<path d="M157.869 294.643C159.33 292.457 168.622 277.707 165.107 260.419C164.849 259.137 164.525 257.87 164.137 256.621C162.48 251.417 159.834 246.582 156.344 242.381C156.388 241.222 156.376 240.082 156.307 238.949V238.942C155.793 231.066 152.45 223.639 146.894 218.031C141.338 212.423 133.942 209.011 126.069 208.422L85.3611 205.33C80.1215 204.902 74.8564 205.755 70.0192 207.813C65.182 209.871 60.9175 213.074 57.5927 217.145C56.827 218.073 56.11 219.04 55.4445 220.042L55.4421 220.042L55.4401 220.044L55.4387 220.046L55.4383 220.048C52.8716 223.921 51.1684 228.301 50.4445 232.89C49.7206 237.479 49.9928 242.17 51.2427 246.645L51.5894 248.169L55.9296 267.196L63.1866 299.032L69.2595 325.673L69.902 328.482C70.2408 329.953 71.0677 331.266 72.2482 332.207C73.4287 333.149 74.8931 333.662 76.403 333.665C76.7661 333.667 77.1287 333.638 77.4867 333.577L156.256 320.666C157.368 320.488 158.415 320.029 159.299 319.331C159.829 318.908 160.294 318.41 160.678 317.851C161.192 317.109 161.547 316.269 161.723 315.384C161.898 314.499 161.89 313.587 161.699 312.705L157.869 294.643Z" fill="#DABB4F"/>
<path d="M2.84823 402.101C1.51219 400.195 0.610246 398.02 0.205924 395.729C-0.198399 393.437 -0.0952619 391.085 0.508068 388.838C1.1114 386.591 2.20025 384.503 3.69792 382.722C5.19559 380.941 7.06565 379.51 9.17638 378.529L54.0248 240.672L80.0155 253.002L30.9441 387.232C32.3563 390.886 32.3788 394.931 31.0071 398.601C29.6355 402.271 26.9651 405.31 23.5019 407.143C20.0388 408.975 16.0234 409.474 12.2168 408.545C8.41022 407.616 5.0768 405.323 2.84823 402.101Z" fill="#FFB8B8"/>
<path d="M79.7104 208.107C74.9057 206.662 69.732 207.089 65.2299 209.304C60.7279 211.518 57.2316 215.355 55.4445 220.042C55.4437 220.042 55.4429 220.042 55.4421 220.042C55.4414 220.043 55.4407 220.043 55.4401 220.044C55.4395 220.044 55.4391 220.045 55.4388 220.046C55.4385 220.046 55.4384 220.047 55.4384 220.048C55.2744 220.47 55.1234 220.911 54.9911 221.352L51.1923 229.407L39.7147 253.749C39.276 254.677 39.0426 255.688 39.0305 256.714C39.0184 257.74 39.2279 258.756 39.6448 259.693C40.0616 260.631 40.6759 261.467 41.4457 262.146C42.2155 262.824 43.1227 263.329 44.1053 263.624L46.3419 264.298L55.9296 267.195L72.9448 272.335L78.6144 274.048C79.5967 274.344 80.6314 274.426 81.6481 274.287C82.6648 274.147 83.6395 273.791 84.5058 273.241C85.372 272.691 86.1096 271.961 86.6681 271.1C87.2266 270.239 87.593 269.269 87.7423 268.254L92.9837 232.707C94.4728 227.685 93.9124 222.278 91.425 217.669C88.9377 213.059 84.7258 209.621 79.7104 208.107Z" fill="#DABB4F"/>
<path d="M145.27 143.676C132.3 155.019 112.39 157.653 96.9157 150.073C103.867 158.317 117.067 199.013 117.067 199.013C117.067 199.013 79.7936 195.097 74.5273 193.971C43.423 187.321 54.7291 106.786 87.8725 107.192C93.4861 107.261 98.3935 107.94 102.13 112.129C104.61 105.179 112.495 101.085 119.857 101.615C127.218 102.145 133.876 106.566 138.611 112.225C142.39 116.807 145.118 122.162 146.602 127.913C148.086 133.663 148.291 139.669 147.201 145.507L145.27 143.676Z" fill="#2F2E41"/>
<path d="M283.571 180.797C238.912 179.996 238.919 113.644 283.572 112.85C328.229 113.651 328.222 180.003 283.571 180.797ZM283.571 114.909C241.618 115.661 241.625 177.992 283.572 178.738C325.523 177.986 325.516 115.655 283.571 114.909Z" fill="#E6E6E6"/>
<path d="M371.668 281.204C327.009 280.403 327.016 214.051 371.67 213.257C416.327 214.057 416.32 280.41 371.668 281.204ZM371.668 215.316C329.716 216.068 329.723 278.399 371.669 279.145C413.62 278.392 413.614 216.062 371.668 215.316Z" fill="#E6E6E6"/>
<path d="M377.462 40.6877C374.643 40.7231 374.653 36.2953 377.472 36.3432C380.291 36.3083 380.281 40.7352 377.462 40.6877Z" fill="white"/>
<path d="M368.027 42.1385C375.561 42.0278 375.561 53.861 368.026 53.7495C360.493 53.8588 360.493 42.028 368.027 42.1385ZM368.027 39.2361C356.727 39.0711 356.725 56.8183 368.028 56.6519C379.329 56.8169 379.327 39.0698 368.027 39.2361V39.2361Z" fill="white"/>
<path fill-rule="evenodd" clip-rule="evenodd" d="M371.675 69.9957C377.816 69.1411 383.439 65.7064 385.703 62.4282C386.314 61.5427 386.731 60.551 386.741 59.4412C386.75 58.2969 386.086 57.6734 385.013 58.0509C384.01 58.405 383.262 58.8611 382.126 59.4383C377.594 62.174 372.625 62.955 367.436 62.9603C362.734 62.9641 358.406 61.6832 354.311 59.4626C353.085 58.7977 351.833 58.1811 350.599 57.5317C347.286 55.7893 344.012 56.0145 340.775 57.7301C339.988 58.1472 339.232 58.6236 338.462 59.0734C333.404 47.7307 335.751 30.9427 349.132 21.1777C362.59 11.3572 381.283 13.4599 392.107 25.957C402.991 38.5251 401.912 55.8283 393.182 66.5783C394.826 64.1141 396.018 61.4597 396.839 58.5964C397.261 57.1214 397.427 55.6385 397.475 54.5066C397.498 53.9612 397.458 53.5039 397.346 53.1766C397.127 52.5349 396.792 51.9464 396.058 51.8312C395.316 51.7132 394.827 52.1995 394.435 52.742C392.961 55.4376 391.713 57.8109 390.027 60.005C382.628 70.518 371.675 69.9957 371.675 69.9957Z" fill="#4B8343"/>
<path d="M382.415 30.0845L367.338 42.6404L366.727 68.4314H370.53L369.919 44.4051L383.433 31.3058L382.415 30.0845Z" fill="white"/>
<path d="M367.49 48.172L352.108 35.5479L351.191 36.4641L367.49 52.5496V48.172Z" fill="white"/>
<path d="M385.114 41.4528L371.667 52.5495V56.2147L385.98 42.369L385.114 41.4528Z" fill="white"/>
<path d="M358.526 28.4215L368.764 38.8567L370.954 36.8714L359.647 27.4542L358.526 28.4215Z" fill="white"/>
<path d="M372.278 24.2473L363.569 31.3738L365.638 32.9818L373.094 25.1127L372.278 24.2473Z" fill="white"/>
<path d="M362.193 46.39L355.673 53.6184L356.335 54.4329L363.976 48.3245L362.193 46.39Z" fill="white"/>
<path d="M354.349 39.1112L350.02 43.4891L350.733 44.4561L355.882 41.0933L354.349 39.1112Z" fill="white"/>
<path d="M385.215 50.4114L381.191 45.8304L379.562 48.1207L384.451 51.2261L385.215 50.4114Z" fill="white"/>
<path d="M377.219 44.6596C377.219 45.6152 376.444 46.39 375.487 46.39C374.531 46.39 373.755 45.6152 373.755 44.6596C373.755 43.7036 374.531 42.9288 375.487 42.9288C376.444 42.9288 377.219 43.7036 377.219 44.6596Z" fill="white"/>
<path d="M373.756 32.1883C373.756 33.144 372.98 33.9193 372.024 33.9193C371.068 33.9193 370.292 33.144 370.292 32.1883C370.292 31.2326 371.068 30.4576 372.024 30.4576C372.98 30.4576 373.756 31.2326 373.756 32.1883Z" fill="white"/>
<path d="M363.976 38.5513C363.976 39.5069 363.201 40.282 362.244 40.282C361.287 40.282 360.512 39.5069 360.512 38.5513C360.512 37.5953 361.287 36.8202 362.244 36.8202C363.201 36.8202 363.976 37.5953 363.976 38.5513Z" fill="white"/>
<path d="M364.485 54.7891C364.485 55.7451 363.71 56.5201 362.754 56.5201C361.797 56.5201 361.022 55.7451 361.022 54.7891C361.022 53.8338 361.797 53.0587 362.754 53.0587C363.71 53.0587 364.485 53.8338 364.485 54.7891Z" fill="white"/>
<path d="M366.217 25.2143C366.217 26.1706 365.442 26.9453 364.485 26.9453C363.529 26.9453 362.753 26.1706 362.753 25.2143C362.753 24.2589 363.529 23.4839 364.485 23.4839C365.442 23.4839 366.217 24.2589 366.217 25.2143Z" fill="white"/>
<path d="M380.038 24.2473C380.038 24.2473 375.655 25.5336 375.487 30.7629C375.487 30.7629 380.072 29.168 380.038 24.2473Z" fill="white"/>
<path d="M359.588 34.0341C359.588 34.0341 356.576 30.6011 351.759 32.6503C351.759 32.6503 355.136 36.1352 359.588 34.0341Z" fill="white"/>
<path d="M385.98 38.1291C385.98 38.1291 381.944 35.9902 378.17 39.6166C378.17 39.6166 382.566 41.6743 385.98 38.1291Z" fill="white"/>
<path d="M382.306 52.6001C382.306 52.6001 377.806 51.8151 375.341 56.4319C375.341 56.4319 380.158 57.0281 382.306 52.6001Z" fill="white"/>
<path d="M358.344 46.2667C358.344 46.2667 354.164 44.4241 350.661 48.3125C350.661 48.3125 355.194 50.0485 358.344 46.2667Z" fill="white"/>
<path fill-rule="evenodd" clip-rule="evenodd" d="M287.232 169.996C293.469 169.125 299.18 165.628 301.479 162.291C302.1 161.389 302.524 160.38 302.534 159.249C302.544 158.084 301.868 157.449 300.779 157.834C299.76 158.194 299 158.658 297.847 159.246C293.244 162.031 288.197 162.827 282.927 162.832C278.152 162.836 273.756 161.532 269.597 159.271C268.352 158.594 267.081 157.966 265.827 157.305C262.463 155.531 259.137 155.76 255.85 157.507C255.05 157.932 254.283 158.417 253.5 158.874C248.364 147.326 250.747 130.232 264.337 120.29C278.005 110.291 296.991 112.432 307.983 125.156C319.038 137.953 317.942 155.571 309.075 166.516C310.745 164.007 311.955 161.304 312.789 158.389C313.218 156.888 313.387 155.377 313.435 154.225C313.459 153.669 313.418 153.204 313.304 152.87C313.082 152.218 312.742 151.618 311.997 151.501C311.243 151.381 310.746 151.876 310.348 152.428C308.851 155.172 307.584 157.589 305.871 159.824C298.356 170.527 287.232 169.996 287.232 169.996Z" fill="#4B8343"/>
<path fill-rule="evenodd" clip-rule="evenodd" d="M283.205 151.531C269.587 143.701 256.734 150.135 256.734 150.135L258.396 144.346C270.899 139.531 282.182 147.921 283.303 148.638C284.425 147.921 295.709 139.531 308.212 144.346L309.874 150.135C309.874 150.135 297.021 143.701 283.403 151.531L283.303 151.586L283.205 151.531Z" fill="white"/>
<path fill-rule="evenodd" clip-rule="evenodd" d="M303.299 128.5C303.143 129.344 303.037 130.137 302.846 130.91C302.34 132.952 301.445 134.817 300.166 136.49C298.934 138.102 297.458 139.45 295.684 140.443C293.643 141.585 291.427 142.034 289.103 141.998C287.806 141.979 286.526 141.806 285.257 141.553C285.2 141.542 285.146 141.514 285.044 141.477C285.134 141.445 285.187 141.418 285.243 141.406C286.965 141.045 288.677 140.642 290.34 140.053C292.175 139.404 293.929 138.601 295.483 137.408C296.486 136.635 297.336 135.72 297.943 134.597C297.99 134.512 298.025 134.422 298.037 134.306C296.43 136.24 293.858 137.188 291.602 138.214C289.351 139.239 287.69 139.727 285.222 140.028C285.212 139.949 285.214 140.053 285.222 140.028C285.834 138.126 286.441 136.768 287.616 135.136C289.221 132.907 291.36 131.388 293.934 130.48C295.43 129.951 297.001 129.833 298.569 129.734C300.163 129.635 301.706 129.345 303.12 128.553C303.145 128.54 303.176 128.536 303.299 128.5Z" fill="white"/>
<path fill-rule="evenodd" clip-rule="evenodd" d="M283.303 145.16C283.303 145.16 276.36 128.19 263.781 129.299C263.781 129.299 270.523 123.25 279.228 123.25C279.228 123.25 282.096 124.158 283.304 132.274C283.304 132.274 281.593 124.914 278.775 123.805C278.775 123.805 273.442 123.805 266.448 128.493C266.448 128.493 276.62 127.264 283.303 145.16Z" fill="white"/>
<path fill-rule="evenodd" clip-rule="evenodd" d="M283.061 146.571C283.061 146.571 272.595 134.46 259.613 137.491C259.613 137.491 261.425 131.045 268.016 130.288C268.016 130.288 261.827 132.658 261.274 136.439C261.274 136.439 273.098 133.413 283.061 146.571Z" fill="white"/>
<path fill-rule="evenodd" clip-rule="evenodd" d="M283.061 147.224C283.061 147.224 274.129 138.241 258.884 141.644C258.884 141.644 259.738 138.444 262.481 137.749C262.481 137.749 260.77 138.657 259.978 140.698C259.978 140.698 272.859 136.585 283.061 147.224Z" fill="white"/>
<path fill-rule="evenodd" clip-rule="evenodd" d="M375.675 268.996C381.816 268.141 387.439 264.706 389.703 261.428C390.314 260.542 390.731 259.551 390.741 258.441C390.751 257.297 390.086 256.673 389.013 257.051C388.01 257.405 387.262 257.861 386.126 258.438C381.594 261.174 376.625 261.955 371.436 261.96C366.734 261.964 362.406 260.683 358.311 258.463C357.085 257.798 355.833 257.181 354.6 256.532C351.287 254.789 348.012 255.015 344.775 256.73C343.988 257.147 343.233 257.624 342.462 258.073C337.405 246.731 339.751 229.942 353.132 220.178C366.59 210.357 385.283 212.46 396.107 224.957C406.992 237.525 405.912 254.828 397.182 265.578C398.826 263.114 400.018 260.46 400.838 257.596C401.261 256.121 401.427 254.638 401.475 253.507C401.498 252.961 401.458 252.504 401.346 252.176C401.127 251.535 400.792 250.946 400.058 250.831C399.316 250.713 398.827 251.2 398.435 251.742C396.961 254.437 395.713 256.811 394.027 259.005C386.628 269.518 375.675 268.996 375.675 268.996Z" fill="#4B8343"/>
<path fill-rule="evenodd" clip-rule="evenodd" d="M348.283 242.606C348.283 242.606 367.132 254.34 386.359 234.933L382.576 233.484L396.003 229.955L392.788 242.745L390.834 238.901C390.834 238.901 370.725 257.284 348.283 242.606Z" fill="white"/>
<path fill-rule="evenodd" clip-rule="evenodd" d="M360.071 244.66V232.35H355.595V243.853C357.123 244.15 358.616 244.609 360.071 244.66Z" fill="white"/>
<path fill-rule="evenodd" clip-rule="evenodd" d="M355.595 245.418V254.778H360.071V246.5C358.414 246.227 356.919 245.848 355.595 245.418Z" fill="white"/>
<path fill-rule="evenodd" clip-rule="evenodd" d="M378.668 239.439V220.191H374.192V241.775C375.851 241.041 377.351 240.235 378.668 239.439Z" fill="white"/>
<path fill-rule="evenodd" clip-rule="evenodd" d="M374.192 245.216V254.778H378.668V242.826C377.302 243.715 375.803 244.541 374.192 245.216Z" fill="white"/>
<path fill-rule="evenodd" clip-rule="evenodd" d="M369.369 243.515V226.806H364.893V244.431C366.452 244.229 367.947 243.913 369.369 243.515Z" fill="white"/>
<path fill-rule="evenodd" clip-rule="evenodd" d="M366.811 246.913C366.155 246.938 365.517 246.942 364.893 246.931V254.778H369.369V246.638C368.535 246.781 367.683 246.88 366.811 246.913Z" fill="white"/>
</g>
<defs>
<clipPath id="clip0">
<rect width="471" height="409" fill="white"/>
</clipPath>
</defs>
</svg>
