<svg width="531" height="499" viewBox="0 0 531 499" fill="none" xmlns="http://www.w3.org/2000/svg">
<path d="M530.461 222.804C527.55 256.416 512.894 288.897 491.987 315.76C491.113 316.884 490.229 317.997 489.334 319.099C487.321 321.58 485.255 324.015 483.138 326.402C480.547 329.344 477.88 332.217 475.139 335.024C472.907 337.333 470.623 339.593 468.287 341.804C466.484 343.528 464.66 345.219 462.816 346.875C440.629 366.919 415.142 383.46 388.881 397.925C337.633 426.146 281.46 447.524 223.032 450.637C164.612 453.742 103.624 437.014 60.78 397.176C3.03855 343.489 -13.0766 253.943 10.3664 178.675C25.9587 128.6 57.7833 83.3008 101.095 53.7148C144.033 24.3863 198.2 11.1849 249.464 19.8142C290.388 -5.05148 343.962 -5.52737 388.452 12.8781C412.192 22.701 433.497 37.3068 452.187 54.9554C460.746 63.0547 468.756 71.7162 476.161 80.8822C476.918 81.8106 477.667 82.7469 478.408 83.691C481.514 87.6155 484.519 91.6206 487.422 95.7064C491.589 101.566 495.546 107.555 499.292 113.675C500.322 115.36 501.344 117.053 502.343 118.762C503.014 119.909 503.693 121.064 504.357 122.226C504.372 122.25 504.382 122.276 504.388 122.304C514.775 140.569 523.265 160.059 527.69 180.431C528.471 184.035 529.126 187.655 529.634 191.307V191.315C530.078 194.412 530.414 197.525 530.64 200.654C531.174 208.03 531.114 215.438 530.461 222.804V222.804Z" fill="#1BA58A" fill-opacity="0.1"/>
<g clip-path="url(#clip0_643:2625)">
<path d="M208.452 172.586L312.667 83.0349L313.15 84.3494L209.303 173.585L208.452 172.586Z" fill="#2F2E41"/>
<path d="M322.111 102.843C330.706 102.843 337.674 96.086 337.674 87.7511C337.674 79.4161 330.706 72.6594 322.111 72.6594C313.515 72.6594 306.548 79.4161 306.548 87.7511C306.548 96.086 313.515 102.843 322.111 102.843Z" fill="#1BA58A"/>
<path d="M451.923 122.651H311.144C310.541 122.651 309.943 122.518 309.386 122.257C308.828 121.997 308.321 121.615 307.894 121.133C307.467 120.652 307.129 120.079 306.898 119.45C306.667 118.82 306.548 118.145 306.548 117.463C306.548 116.781 306.667 116.106 306.898 115.476C307.129 114.846 307.467 114.274 307.894 113.792C308.321 113.311 308.828 112.929 309.386 112.668C309.943 112.408 310.541 112.274 311.144 112.275H451.923C452.527 112.274 453.124 112.408 453.682 112.668C454.24 112.929 454.747 113.311 455.173 113.792C455.6 114.274 455.939 114.846 456.17 115.476C456.401 116.106 456.52 116.781 456.52 117.463C456.52 118.145 456.401 118.82 456.17 119.45C455.939 120.079 455.6 120.652 455.173 121.133C454.747 121.615 454.24 121.997 453.682 122.257C453.124 122.518 452.527 122.651 451.923 122.651Z" fill="#1BA58A"/>
<path d="M451.928 139.629H311.139C309.922 139.629 308.754 139.182 307.893 138.386C307.031 137.59 306.548 136.51 306.548 135.384C306.548 134.259 307.031 133.179 307.893 132.383C308.754 131.587 309.922 131.14 311.139 131.14H451.928C453.146 131.14 454.314 131.587 455.175 132.383C456.036 133.179 456.52 134.259 456.52 135.384C456.52 136.51 456.036 137.59 455.175 138.386C454.314 139.182 453.146 139.629 451.928 139.629V139.629Z" fill="#1BA58A"/>
<path d="M371.781 157.55H311.112C309.902 157.55 308.741 157.103 307.885 156.307C307.029 155.511 306.548 154.431 306.548 153.306C306.548 152.18 307.029 151.1 307.885 150.304C308.741 149.508 309.902 149.061 311.112 149.061H371.781C372.992 149.061 374.153 149.508 375.009 150.304C375.865 151.1 376.346 152.18 376.346 153.306C376.346 154.431 375.865 155.511 375.009 156.307C374.153 157.103 372.992 157.55 371.781 157.55V157.55Z" fill="#1BA58A"/>
<path d="M334 224C340.075 224 345 218.627 345 212C345 205.373 340.075 200 334 200C327.925 200 323 205.373 323 212C323 218.627 327.925 224 334 224Z" fill="#1BA58A" fill-opacity="0.2"/>
<path d="M432.536 238H326.464C326.01 238.001 325.559 237.911 325.139 237.735C324.719 237.559 324.337 237.302 324.015 236.977C323.693 236.652 323.438 236.266 323.264 235.841C323.09 235.416 323 234.96 323 234.5C323 234.04 323.09 233.584 323.264 233.159C323.438 232.734 323.693 232.348 324.015 232.023C324.337 231.698 324.719 231.441 325.139 231.265C325.559 231.089 326.01 230.999 326.464 231H432.536C432.99 230.999 433.441 231.089 433.861 231.265C434.281 231.441 434.663 231.698 434.985 232.023C435.307 232.348 435.562 232.734 435.736 233.159C435.91 233.584 436 234.04 436 234.5C436 234.96 435.91 235.416 435.736 235.841C435.562 236.266 435.307 236.652 434.985 236.977C434.663 237.302 434.281 237.559 433.861 237.735C433.441 237.911 432.99 238.001 432.536 238V238Z" fill="#1BA58A" fill-opacity="0.2"/>
<path d="M352.572 252H326.428C325.519 251.999 324.647 251.629 324.004 250.973C323.361 250.317 323 249.427 323 248.5C323 247.573 323.361 246.683 324.004 246.027C324.647 245.371 325.519 245.001 326.428 245H352.572C353.481 245.001 354.353 245.371 354.996 246.027C355.639 246.683 356 247.573 356 248.5C356 249.427 355.639 250.317 354.996 250.973C354.353 251.629 353.481 251.999 352.572 252V252Z" fill="#1BA58A" fill-opacity="0.2"/>
<path d="M287 307C293.627 307 299 301.627 299 295C299 288.373 293.627 283 287 283C280.373 283 275 288.373 275 295C275 301.627 280.373 307 287 307Z" fill="#1BA58A" fill-opacity="0.2"/>
<path d="M389.382 322H278.618C278.143 322.001 277.672 321.898 277.234 321.697C276.795 321.496 276.396 321.202 276.06 320.83C275.724 320.459 275.457 320.018 275.275 319.532C275.094 319.046 275 318.526 275 318C275 317.474 275.094 316.954 275.275 316.468C275.457 315.982 275.724 315.541 276.06 315.17C276.396 314.798 276.795 314.504 277.234 314.303C277.672 314.102 278.143 313.999 278.618 314H389.382C389.857 313.999 390.328 314.102 390.766 314.303C391.205 314.504 391.604 314.798 391.94 315.17C392.276 315.541 392.543 315.982 392.725 316.468C392.906 316.954 393 317.474 393 318C393 318.526 392.906 319.046 392.725 319.532C392.543 320.018 392.276 320.459 391.94 320.83C391.604 321.202 391.205 321.496 390.766 321.697C390.328 321.898 389.857 322.001 389.382 322V322Z" fill="#1BA58A" fill-opacity="0.2"/>
<path d="M345.377 336H278.623C277.662 336 276.741 335.631 276.061 334.975C275.382 334.318 275 333.428 275 332.5C275 331.572 275.382 330.681 276.061 330.025C276.741 329.369 277.662 329 278.623 329H345.377C346.338 329 347.259 329.369 347.939 330.025C348.618 330.681 349 331.572 349 332.5C349 333.428 348.618 334.318 347.939 334.975C347.259 335.631 346.338 336 345.377 336Z" fill="#1BA58A" fill-opacity="0.2"/>
<path d="M326.403 350H278.597C277.643 350 276.728 349.579 276.053 348.828C275.379 348.078 275 347.061 275 346C275 344.939 275.379 343.922 276.053 343.172C276.728 342.421 277.643 342 278.597 342H326.403C327.357 342 328.272 342.421 328.947 343.172C329.621 343.922 330 344.939 330 346C330 347.061 329.621 348.078 328.947 348.828C328.272 349.579 327.357 350 326.403 350V350Z" fill="#1BA58A" fill-opacity="0.2"/>
<path d="M98.0952 244.037L118.752 266.164L166.832 283.943L172.61 273.116L135.611 253.268C135.611 253.268 118.93 235.687 109.033 232.065L98.0952 244.037Z" fill="#FFB6B6"/>
<path d="M172.138 285.83C176.045 285.83 179.212 282.662 179.212 278.755C179.212 274.848 176.045 271.681 172.138 271.681C168.231 271.681 165.064 274.848 165.064 278.755C165.064 282.662 168.231 285.83 172.138 285.83Z" fill="#FFB6B6"/>
<path d="M114.13 232.955L99.4008 245.955L99.3315 245.973C92.4834 247.72 82.5928 239.646 75.5017 232.565C73.1654 230.228 71.8039 227.092 71.6924 223.79C71.5809 220.488 72.7278 217.267 74.9011 214.778C76.5167 212.953 78.6109 211.616 80.9469 210.918C83.2829 210.22 85.7676 210.19 88.1202 210.829L100.092 214.131L114.13 232.955Z" fill="#3F3D56"/>
<path d="M131.11 493.341L141.335 493.34L146.2 453.725L131.108 453.726L131.11 493.341Z" fill="#FFB6B6"/>
<path d="M128.278 490.149L131.16 490.149L142.411 485.795L148.441 490.148H148.442C151.85 490.148 155.118 491.436 157.527 493.729C159.937 496.022 161.291 499.132 161.291 502.374V502.772L128.279 502.773L128.278 490.149Z" fill="#2F2E41"/>
<path d="M85.8351 493.341L96.0606 493.34L100.925 453.725L85.8333 453.726L85.8351 493.341Z" fill="#FFB6B6"/>
<path d="M83.0037 490.149L85.8854 490.149L97.1363 485.795L103.166 490.148H103.167C106.575 490.148 109.843 491.436 112.253 493.729C114.662 496.022 116.016 499.132 116.016 502.374V502.772L83.0043 502.773L83.0037 490.149Z" fill="#2F2E41"/>
<path d="M70.034 323.031C70.034 323.031 68.8417 337.391 71.8225 351.152C74.8033 364.913 74.8033 403.67 74.8033 403.67L81.3611 479.192L101.034 477.397L106.4 351.152L125.477 393.633L123.688 399.616L126.071 401.112C126.071 401.112 124.285 412.779 125.477 412.779C126.669 412.779 129.65 414.574 129.65 414.574L127.265 476.201L147.535 475.602L154.689 388.846L146.939 339.186L146.342 329.613L143.66 329.723L142.294 325.723L139.785 318.843L70.034 323.031Z" fill="#2F2E41"/>
<path d="M69.0199 326.389L68.9132 326.239C63.213 318.261 71.7861 299.092 73.0792 296.313L67.633 294.546L68.8594 284.125L69.4404 279.479L65.278 275.318L65.2663 275.214L62.8708 254.262L59.3879 240.346C58.0756 235.085 58.1875 229.569 59.712 224.366C61.2365 219.163 64.1187 214.458 68.0629 210.737L76.1135 203.149L85.8975 188.677H101.675L107.085 198.892C112.33 200.104 116.984 203.116 120.235 207.405C123.487 211.694 125.13 216.987 124.878 222.363L123.652 249.153L128.452 282.51L128.455 288.547L133.857 294.548L132.677 300.443L136.788 302.204L138.604 310.672C139.355 311.663 144.313 318.272 144.313 320.078C144.313 320.35 144.113 320.612 143.683 320.903C140.304 323.19 121.627 327.853 113.361 324.547C104.556 321.027 69.5544 326.307 69.2018 326.361L69.0199 326.389Z" fill="#3F3D56"/>
<path d="M95.2656 183.961C106.726 183.961 116.016 174.67 116.016 163.21C116.016 151.749 106.726 142.458 95.2656 142.458C83.8051 142.458 74.5146 151.749 74.5146 163.21C74.5146 174.67 83.8051 183.961 95.2656 183.961Z" fill="#FFB6B6"/>
<path d="M97.2529 184.904C94.0336 184.871 90.823 184.561 87.6561 183.979C84.5209 183.253 77.6036 177.877 75.7183 174.701C74.3176 172.341 73.477 168.691 73.0182 166.044C72.3989 162.542 72.5182 158.948 73.3686 155.495C74.219 152.042 75.7814 148.807 77.9546 146C78.7924 144.824 79.9308 143.897 81.2495 143.318C81.3662 143.275 81.4861 143.238 81.6071 143.207C83.5186 142.754 85.2518 141.737 86.5842 140.287C86.8429 139.993 87.1223 139.719 87.4202 139.466C88.915 138.263 90.6717 137.433 92.5469 137.043C95.5762 136.312 99.9096 137.228 105.426 139.769C108.198 141.045 111.274 140.689 113.645 140.236C113.778 140.214 113.914 140.227 114.041 140.274C114.167 140.321 114.279 140.401 114.365 140.505C115.344 141.478 116.653 142.042 118.029 142.084C118.87 142.143 119.724 143.339 120.754 144.897C120.987 145.25 121.26 145.663 121.458 145.914L121.497 145.442L121.961 145.982C122.689 146.832 123.191 147.853 123.421 148.95C123.65 150.047 123.6 151.185 123.274 152.258C122.949 153.33 122.359 154.303 121.559 155.084C120.758 155.866 119.775 156.431 118.699 156.727C117.845 156.932 116.973 157.049 116.096 157.075C115.564 157.109 115.014 157.145 114.486 157.223C112.789 157.526 111.199 158.267 109.872 159.373C108.545 160.478 107.526 161.91 106.915 163.53C106.77 163.904 106.542 164.24 106.248 164.512C105.954 164.783 105.601 164.983 105.218 165.096C104.835 165.209 104.431 165.232 104.038 165.163C103.644 165.095 103.272 164.936 102.949 164.699C102.412 164.256 101.777 163.95 101.097 163.808C100.417 163.665 99.7126 163.69 99.0442 163.88C98.463 164.185 98.0039 164.682 97.7439 165.287C97.4295 165.961 96.9227 166.525 96.288 166.908C94.1238 167.959 93.8506 172.859 94.5127 176.966C95.1509 180.925 96.5393 183.813 97.889 183.989C98.9281 184.125 99.0453 184.202 99.116 184.389L99.1792 184.557L99.0581 184.709C98.9403 184.845 98.2521 184.904 97.2529 184.904Z" fill="#2F2E41"/>
<path d="M204.679 244.328C226.558 244.328 244.295 226.802 244.295 205.183C244.295 183.565 226.558 166.039 204.679 166.039C182.801 166.039 165.064 183.565 165.064 205.183C165.064 226.802 182.801 244.328 204.679 244.328Z" fill="#1BA58A"/>
<path d="M200.912 220.747C200.828 220.747 200.743 220.745 200.658 220.741C199.911 220.704 199.181 220.506 198.518 220.16C197.855 219.813 197.274 219.327 196.815 218.733L190.679 210.807C189.836 209.714 189.457 208.33 189.628 206.958C189.799 205.586 190.504 204.338 191.589 203.488L191.809 203.316C192.896 202.469 194.273 202.089 195.639 202.26C197.004 202.431 198.247 203.139 199.093 204.229C199.369 204.586 199.717 204.878 200.116 205.086C200.514 205.294 200.952 205.413 201.401 205.434C201.849 205.461 202.298 205.387 202.716 205.219C203.133 205.051 203.508 204.792 203.814 204.461L216.273 191.246C217.22 190.243 218.524 189.659 219.9 189.622C221.275 189.585 222.609 190.097 223.609 191.046L223.811 191.239C224.809 192.191 225.391 193.502 225.428 194.884C225.466 196.266 224.956 197.607 224.011 198.612L204.678 219.118C204.194 219.633 203.61 220.043 202.962 220.323C202.315 220.603 201.617 220.747 200.912 220.747V220.747Z" fill="white"/>
<path d="M102.811 244.621L117.289 271.355L159.532 300.921L167.894 291.92L136.949 263.197C136.949 263.197 125.185 241.887 116.481 235.838L102.811 244.621Z" fill="#FFB6B6"/>
<path d="M165.064 304.694C169.232 304.694 172.61 301.527 172.61 297.62C172.61 293.713 169.232 290.546 165.064 290.546C160.897 290.546 157.518 293.713 157.518 297.62C157.518 301.527 160.897 304.694 165.064 304.694Z" fill="#FFB6B6"/>
<path d="M103.417 248.1L94.3224 226.341L97.6118 214.316C98.2663 211.957 99.5693 209.829 101.374 208.17C103.178 206.511 105.412 205.388 107.823 204.929C111.095 204.327 114.474 204.987 117.277 206.775C120.08 208.563 122.097 211.345 122.921 214.558C125.412 224.307 127.325 236.98 122.294 241.996L122.243 242.046L103.417 248.1Z" fill="#3F3D56"/>
<path d="M319.805 95.2969C319.769 95.2969 319.734 95.296 319.698 95.2943C319.383 95.2788 319.076 95.1947 318.797 95.0478C318.517 94.9008 318.273 94.6944 318.08 94.4428L315.496 91.0799C315.141 90.6165 314.982 90.0294 315.054 89.4474C315.125 88.8653 315.422 88.3359 315.879 87.9752L315.972 87.9022C316.429 87.5425 317.009 87.3813 317.584 87.4539C318.159 87.5265 318.682 87.8271 319.039 88.2896C319.155 88.4407 319.302 88.5646 319.469 88.6528C319.637 88.7411 319.822 88.7916 320.01 88.8008C320.199 88.812 320.388 88.7808 320.564 88.7094C320.74 88.6381 320.898 88.5283 321.027 88.388L326.272 82.7814C326.671 82.3561 327.22 82.1084 327.799 82.0925C328.379 82.0766 328.94 82.2939 329.361 82.6968L329.447 82.7784C329.867 83.1822 330.112 83.7384 330.127 84.3248C330.143 84.9112 329.928 85.48 329.531 85.9064L321.39 94.606C321.186 94.8244 320.941 94.9982 320.668 95.117C320.395 95.2358 320.102 95.297 319.805 95.2969Z" fill="white"/>
<path d="M333.091 256.626C334.208 255.867 333.152 254.041 332.027 254.805C328.856 256.958 325.624 259.149 323.047 262.019C318.918 266.617 316.694 273.354 320.026 279.034C322.844 283.837 328.164 286.372 331.366 290.847C332.149 291.943 333.977 290.889 333.186 289.783C331.459 287.369 329.216 285.469 326.99 283.535C325.116 281.908 323.196 280.219 321.906 278.069C321.204 276.88 320.75 275.561 320.571 274.192C320.392 272.823 320.491 271.431 320.863 270.102C322.482 263.875 328.067 260.037 333.091 256.626L333.091 256.626Z" fill="#E6E7E8"/>
<path d="M315.523 256.626C316.64 255.867 315.584 254.041 314.458 254.805C311.288 256.958 308.056 259.149 305.479 262.019C301.349 266.617 299.126 273.354 302.458 279.034C305.275 283.837 310.596 286.372 313.797 290.847C314.581 291.943 316.409 290.889 315.618 289.783C313.891 287.369 311.648 285.469 309.422 283.535C307.548 281.908 305.627 280.219 304.338 278.069C303.636 276.88 303.182 275.561 303.003 274.192C302.823 272.823 302.923 271.431 303.295 270.102C304.914 263.875 310.498 260.037 315.523 256.626L315.523 256.626Z" fill="#E6E7E8"/>
</g>
<defs>
<clipPath id="clip0_643:2625">
<rect width="515" height="432" fill="white" transform="translate(0 67)"/>
</clipPath>
</defs>
</svg>
