<svg width="493" height="576" viewBox="0 0 493 576" fill="none" xmlns="http://www.w3.org/2000/svg">
<g clip-path="url(#clip0_740:2291)">
<path d="M506.203 36.8591C500.718 43.4023 496.464 50.5634 493.378 58.0604L493.371 58.0542L400.424 289.318L611.381 156.991L611.367 156.979C618.218 152.638 624.519 147.194 630.005 140.651C658.66 106.471 654.168 55.5289 619.985 26.8715C585.796 -1.79213 534.859 2.67901 506.203 36.8591Z" fill="#1BA58A"/>
<path d="M181.891 523.389L181.69 523.283C174.46 519.514 166.713 516.872 158.657 515.455C137.806 511.786 116.764 516.455 99.4362 528.606C82.0936 540.745 70.5297 558.924 66.8729 579.78C63.2026 600.636 67.8764 621.665 80.0331 638.995C92.1984 656.345 110.361 667.909 131.22 671.585C139.276 673.001 147.462 673.166 155.538 672.08L157.333 671.847L157.331 671.909L395.994 646.042L181.891 523.389ZM81.7785 540.745C86.3716 535.266 91.7068 530.36 97.7134 526.154C115.706 513.541 137.534 508.7 159.178 512.506C166.907 513.861 174.362 516.296 181.366 519.764L181.391 519.659L183.122 520.644L405.491 648.037L155.348 675.131C147.159 676.172 138.866 675.968 130.699 674.534C109.061 670.721 90.195 658.72 77.5757 640.724C64.9699 622.728 60.1093 600.901 63.9228 579.258C66.4555 564.85 72.6234 551.665 81.7785 540.745Z" fill="#1BA58A"/>
<path d="M181.891 523.389L181.69 523.283C174.46 519.514 166.713 516.872 158.657 515.455C137.806 511.786 116.764 516.455 99.4362 528.606C82.0936 540.745 70.5297 558.924 66.8729 579.78C63.2026 600.636 67.8764 621.665 80.0331 638.995C92.1984 656.345 110.361 667.909 131.22 671.585C139.276 673.001 147.462 673.166 155.538 672.08L157.333 671.847L157.331 671.909L395.994 646.042L181.891 523.389ZM81.7785 540.745C86.3716 535.266 91.7068 530.36 97.7134 526.154C115.706 513.541 137.534 508.7 159.178 512.506C166.907 513.861 174.362 516.296 181.366 519.764L181.391 519.659L183.122 520.644L405.491 648.037L155.348 675.131C147.159 676.172 138.866 675.968 130.699 674.534C109.061 670.721 90.195 658.72 77.5757 640.724C64.9699 622.728 60.1093 600.901 63.9228 579.258C66.4555 564.85 72.6234 551.665 81.7785 540.745Z" stroke="#1BA58A" stroke-width="0.566667" stroke-miterlimit="10"/>
<path d="M585.564 533.173C613.643 499.68 609.225 449.595 575.723 421.508C542.229 393.427 492.141 397.817 464.062 431.309C435.989 464.794 440.4 514.887 473.895 542.968C507.397 571.055 557.491 566.658 585.564 533.173ZM461.762 429.381C490.901 394.624 542.892 390.067 577.651 419.208C612.418 448.356 617.003 500.344 587.864 535.101C558.725 569.858 506.734 574.414 471.967 545.267C437.208 516.126 432.623 464.138 461.762 429.381Z" fill="#1BA58A"/>
<path d="M585.564 533.173C613.643 499.68 609.225 449.595 575.723 421.508C542.229 393.427 492.141 397.817 464.062 431.309C435.989 464.794 440.4 514.887 473.895 542.968C507.397 571.055 557.491 566.658 585.564 533.173ZM461.762 429.381C490.901 394.624 542.892 390.067 577.651 419.208C612.418 448.356 617.003 500.344 587.864 535.101C558.725 569.858 506.734 574.414 471.967 545.267C437.208 516.126 432.623 464.138 461.762 429.381Z" stroke="#1BA58A" stroke-width="0.566667" stroke-miterlimit="10"/>
</g>
<defs>
<clipPath id="clip0_740:2291">
<rect width="493" height="576" fill="white"/>
</clipPath>
</defs>
</svg>
