<svg width="169" height="213" viewBox="0 0 169 213" fill="none" xmlns="http://www.w3.org/2000/svg">
<g clip-path="url(#clip0_723:2273)">
<path d="M46 41.9548C2.95835 41.9548 -32.045 76.9656 -32.045 119.995C-32.045 163.034 2.95835 198.045 46 198.045C89.0321 198.045 124.045 163.034 124.045 119.995C124.045 76.9656 89.0321 41.9548 46 41.9548ZM46 201C1.3336 201 -35 164.659 -35 119.995C-35 75.3315 1.3336 39 46 39C90.6664 39 127 75.3315 127 119.995C127 164.659 90.6664 201 46 201Z" fill="#1BA58A"/>
<path d="M46 41.9548C2.95835 41.9548 -32.045 76.9656 -32.045 119.995C-32.045 163.034 2.95835 198.045 46 198.045C89.0321 198.045 124.045 163.034 124.045 119.995C124.045 76.9656 89.0321 41.9548 46 41.9548ZM46 201C1.3336 201 -35 164.659 -35 119.995C-35 75.3315 1.3336 39 46 39C90.6664 39 127 75.3315 127 119.995C127 164.659 90.6664 201 46 201Z" stroke="#1BA58A" stroke-width="0.566667" stroke-miterlimit="10"/>
</g>
<defs>
<clipPath id="clip0_723:2273">
<rect width="169" height="224" fill="white" transform="translate(0 -11)"/>
</clipPath>
</defs>
</svg>
