<svg width="269" height="416" viewBox="0 0 269 416" fill="none" xmlns="http://www.w3.org/2000/svg">
<g clip-path="url(#clip0_821_2268)">
<path d="M169.813 447.043L169.753 448.485C169.529 453.089 170.037 457.693 171.239 462.171C177.639 486.066 202.286 500.293 226.18 493.897C250.073 487.496 264.311 462.854 257.904 438.949C256.708 434.476 254.841 430.238 252.35 426.355L252.263 426.218L172.533 311.625L169.775 447.059L169.813 447.043ZM168.006 450.549C168.006 449.905 168.017 449.271 168.044 448.632L168.049 448.43L170.944 306.365L254.508 426.475L254.431 426.486C256.692 430.227 258.407 434.269 259.548 438.512C266.184 463.313 251.416 488.889 226.617 495.53C201.822 502.177 176.241 487.409 169.595 462.608C168.541 458.654 168.006 454.607 168.006 450.549Z" fill="white"/>
<path d="M169.813 447.043L169.753 448.485C169.529 453.089 170.037 457.693 171.239 462.171C177.639 486.066 202.286 500.293 226.18 493.897C250.073 487.496 264.311 462.854 257.904 438.949C256.708 434.476 254.841 430.238 252.35 426.355L252.263 426.218L172.533 311.625L169.775 447.059L169.813 447.043ZM168.006 450.549C168.006 449.905 168.017 449.271 168.044 448.632L168.049 448.43L170.944 306.365L254.508 426.475L254.431 426.486C256.692 430.227 258.407 434.269 259.548 438.512C266.184 463.313 251.416 488.889 226.617 495.53C201.822 502.177 176.241 487.409 169.595 462.608C168.541 458.654 168.006 454.607 168.006 450.549Z" stroke="white" stroke-width="0.566667" stroke-miterlimit="10"/>
<path d="M60.0129 52.5758L-2.35 175.383L120.819 112.39C124.915 110.271 128.651 107.535 131.922 104.264C149.415 86.7703 149.42 58.3104 131.922 40.8171C114.435 23.3239 85.9707 23.3239 68.478 40.8171C65.2067 44.0886 62.4705 47.8242 60.3516 51.9204L60.0129 52.5758ZM-6.22755 179.272L59.363 50.1017L59.3849 50.1235C61.5039 46.2732 64.1581 42.7396 67.282 39.6156C85.4354 21.4615 114.97 21.4615 133.124 39.6156C151.277 57.7697 151.277 87.3056 133.124 105.465C130.044 108.545 126.57 111.167 122.78 113.264L122.802 113.286L121.6 113.903L-6.22755 179.272Z" fill="white"/>
<path d="M60.0129 52.5758L-2.35 175.383L120.819 112.39C124.915 110.271 128.651 107.535 131.922 104.264C149.415 86.7703 149.42 58.3104 131.922 40.8171C114.435 23.3239 85.9707 23.3239 68.478 40.8171C65.2067 44.0886 62.4705 47.8242 60.3516 51.9204L60.0129 52.5758ZM-6.22755 179.272L59.363 50.1017L59.3849 50.1235C61.5039 46.2732 64.1581 42.7396 67.282 39.6156C85.4354 21.4615 114.97 21.4615 133.124 39.6156C151.277 57.7697 151.277 87.3056 133.124 105.465C130.044 108.545 126.57 111.167 122.78 113.264L122.802 113.286L121.6 113.903L-6.22755 179.272Z" stroke="white" stroke-width="0.566667" stroke-miterlimit="10"/>
<path d="M101.122 292.253C101.122 280.27 96.4585 269.003 87.9825 260.532C79.5065 252.056 68.2452 247.392 56.263 247.392C44.2754 247.392 33.0141 252.056 24.5382 260.527C16.0622 269.003 11.3982 280.27 11.3982 292.253C11.3982 304.235 16.0622 315.503 24.5381 323.979C42.0308 341.472 70.4898 341.472 87.9825 323.979C96.4585 315.503 101.122 304.235 101.122 292.253ZM9.6997 292.253C9.69971 279.817 14.5439 268.124 23.3421 259.331C32.1349 250.538 43.8276 245.693 56.263 245.693C68.6985 245.693 80.3912 250.538 89.184 259.331C97.9767 268.124 102.821 279.817 102.821 292.253C102.821 304.689 97.9767 316.382 89.184 325.175C71.0305 343.334 41.4956 343.334 23.3421 325.175C14.5439 316.382 9.6997 304.689 9.6997 292.253Z" fill="white"/>
<path d="M101.122 292.253C101.122 280.27 96.4585 269.003 87.9825 260.532C79.5065 252.056 68.2452 247.392 56.263 247.392C44.2754 247.392 33.0141 252.056 24.5382 260.527C16.0622 269.003 11.3982 280.27 11.3982 292.253C11.3982 304.235 16.0622 315.503 24.5381 323.979C42.0308 341.472 70.4898 341.472 87.9825 323.979C96.4585 315.503 101.122 304.235 101.122 292.253ZM9.6997 292.253C9.69971 279.817 14.5439 268.124 23.3421 259.331C32.1349 250.538 43.8276 245.693 56.263 245.693C68.6985 245.693 80.3912 250.538 89.184 259.331C97.9767 268.124 102.821 279.817 102.821 292.253C102.821 304.689 97.9767 316.382 89.184 325.175C71.0305 343.334 41.4956 343.334 23.3421 325.175C14.5439 316.382 9.6997 304.689 9.6997 292.253Z" stroke="white" stroke-width="0.566667" stroke-miterlimit="10"/>
</g>
<defs>
<clipPath id="clip0_821_2268">
<rect width="269" height="416" fill="white"/>
</clipPath>
</defs>
</svg>
