<svg width="238" height="355" viewBox="0 0 238 355" fill="none" xmlns="http://www.w3.org/2000/svg">
<g clip-path="url(#clip0_722:2272)">
<path d="M91.6814 -218.17L22.0192 118.509L277.284 -114.007C285.759 -121.801 292.955 -130.845 298.693 -140.88C329.337 -194.474 310.678 -263.006 257.102 -293.641C203.525 -324.275 134.999 -305.595 104.354 -252.001C98.6165 -241.966 94.4724 -231.177 92.054 -219.919L91.6814 -218.17ZM15.2309 130.409L88.4905 -223.653L88.5615 -223.612C91.1302 -234.281 95.2014 -244.531 100.675 -254.104C132.477 -309.722 203.594 -329.119 259.206 -297.321C314.817 -265.523 334.173 -194.394 302.372 -138.776C296.898 -129.203 290.13 -120.496 282.249 -112.863L282.285 -112.843L280.154 -110.874L15.2309 130.409Z" fill="white"/>
<path d="M91.6814 -218.17L22.0192 118.509L277.284 -114.007C285.759 -121.801 292.955 -130.845 298.693 -140.88C329.337 -194.474 310.678 -263.006 257.102 -293.641C203.525 -324.275 134.999 -305.595 104.354 -252.001C98.6165 -241.966 94.4724 -231.177 92.054 -219.919L91.6814 -218.17ZM15.2309 130.409L88.4905 -223.653L88.5615 -223.612C91.1302 -234.281 95.2014 -244.531 100.675 -254.104C132.477 -309.722 203.594 -329.119 259.206 -297.321C314.817 -265.523 334.173 -194.394 302.372 -138.776C296.898 -129.203 290.13 -120.496 282.249 -112.863L282.285 -112.843L280.154 -110.874L15.2309 130.409Z" stroke="white" stroke-width="0.566667" stroke-miterlimit="10"/>
<path d="M295.341 264.242C241.753 233.6 173.238 252.288 142.594 305.882C111.943 359.487 130.59 428.013 184.178 458.654C237.755 489.289 306.281 470.608 336.932 417.003C367.577 363.409 348.918 294.877 295.341 264.242ZM182.074 462.334C126.462 430.536 107.107 359.407 138.915 303.778C170.716 248.161 241.834 228.764 297.446 260.562C353.057 292.36 372.413 363.489 340.611 419.106C308.803 474.735 237.685 494.132 182.074 462.334Z" fill="white"/>
<path d="M295.341 264.242C241.753 233.6 173.238 252.288 142.594 305.882C111.943 359.487 130.59 428.013 184.178 458.654C237.755 489.289 306.281 470.608 336.932 417.003C367.577 363.409 348.918 294.877 295.341 264.242ZM182.074 462.334C126.462 430.536 107.107 359.407 138.915 303.778C170.716 248.161 241.834 228.764 297.446 260.562C353.057 292.36 372.413 363.489 340.611 419.106C308.803 474.735 237.685 494.132 182.074 462.334Z" stroke="white" stroke-width="0.566667" stroke-miterlimit="10"/>
</g>
<defs>
<clipPath id="clip0_722:2272">
<rect width="238" height="355" fill="white"/>
</clipPath>
</defs>
</svg>
