<svg width="168" height="409" viewBox="0 0 168 409" fill="none" xmlns="http://www.w3.org/2000/svg">
<g clip-path="url(#clip0_719:2270)">
<path d="M261.28 255.674L261.503 255.77C269.147 259.159 276.216 263.684 282.501 269.242C298.76 283.62 308.462 303.485 309.8 325.156C311.147 346.829 303.957 367.729 289.567 383.996C275.185 400.276 255.332 409.971 233.664 411.299C211.974 412.633 191.082 405.454 174.814 391.074C168.519 385.514 163.165 379.055 158.865 371.881L157.72 369.962L157.677 370.024L26.0904 162.344L261.28 255.674ZM311.348 347.082C312.807 339.895 313.323 332.476 312.867 324.971C311.475 302.47 301.418 281.867 284.534 266.938C278.609 261.696 272.011 257.337 264.903 253.945L265.012 253.856L262.705 252.934L18.4204 156L156.495 373.904C160.908 381.172 166.376 387.715 172.781 393.378C189.667 408.298 211.34 415.756 233.847 414.376C256.337 412.982 276.949 402.926 291.871 386.029C301.807 374.786 308.441 361.408 311.348 347.082Z" fill="#1BA58A"/>
<path d="M261.28 255.674L261.503 255.77C269.147 259.159 276.216 263.684 282.501 269.242C298.76 283.62 308.462 303.485 309.8 325.156C311.147 346.829 303.957 367.729 289.567 383.996C275.185 400.276 255.332 409.971 233.664 411.299C211.974 412.633 191.082 405.454 174.814 391.074C168.519 385.514 163.165 379.055 158.865 371.881L157.72 369.962L157.677 370.024L26.0904 162.344L261.28 255.674ZM311.348 347.082C312.807 339.895 313.323 332.476 312.867 324.971C311.475 302.47 301.418 281.867 284.534 266.938C278.609 261.696 272.011 257.337 264.903 253.945L265.012 253.856L262.705 252.934L18.4204 156L156.495 373.904C160.908 381.172 166.376 387.715 172.781 393.378C189.667 408.298 211.34 415.756 233.847 414.376C256.337 412.982 276.949 402.926 291.871 386.029C301.807 374.786 308.441 361.408 311.348 347.082Z" stroke="#1BA58A" stroke-width="0.566667" stroke-miterlimit="10"/>
</g>
<defs>
<clipPath id="clip0_719:2270">
<rect width="168" height="409" fill="white"/>
</clipPath>
</defs>
</svg>
