<svg width="57" height="154" viewBox="0 0 57 154" fill="none" xmlns="http://www.w3.org/2000/svg">
<g clip-path="url(#clip0_753_2268)">
<path d="M-61.3835 99.5384L-61.4716 99.5828C-64.4896 101.15 -67.2462 103.164 -69.6582 105.577C-75.8986 111.821 -79.3402 120.127 -79.341 128.958C-79.3456 137.79 -75.9037 146.094 -69.6553 152.337C-63.4097 158.586 -55.1082 162.025 -46.2788 162.022C-37.4407 162.02 -29.1397 158.584 -22.8954 152.339C-20.4795 149.925 -18.4676 147.169 -16.9016 144.149L-16.4846 143.341L-16.4656 143.365L31.754 55.767L-61.3835 99.5384ZM-79.4209 137.897C-80.1929 135.016 -80.5881 132.017 -80.5907 128.959C-80.5888 119.791 -77.0216 111.176 -70.5411 104.693C-68.2673 102.416 -65.6979 100.482 -62.8974 98.9272L-62.9438 98.8938L-62.0304 98.4615L34.7088 53L-15.8889 144.911C-17.4982 147.971 -19.5544 150.764 -22.0125 153.223C-28.494 159.702 -37.1052 163.272 -46.2763 163.275C-55.4406 163.272 -64.0596 159.706 -70.5397 153.22C-74.8547 148.905 -77.8822 143.64 -79.4209 137.897Z" fill="#1BA58A"/>
<path d="M-61.3835 99.5384L-61.4716 99.5828C-64.4896 101.15 -67.2462 103.164 -69.6582 105.577C-75.8986 111.821 -79.3402 120.127 -79.341 128.958C-79.3456 137.79 -75.9037 146.094 -69.6553 152.337C-63.4097 158.586 -55.1082 162.025 -46.2788 162.022C-37.4407 162.02 -29.1397 158.584 -22.8954 152.339C-20.4795 149.925 -18.4676 147.169 -16.9016 144.149L-16.4846 143.341L-16.4656 143.365L31.754 55.767L-61.3835 99.5384ZM-79.4209 137.897C-80.1929 135.016 -80.5881 132.017 -80.5907 128.959C-80.5888 119.791 -77.0216 111.176 -70.5411 104.693C-68.2673 102.416 -65.6979 100.482 -62.8974 98.9272L-62.9438 98.8938L-62.0304 98.4615L34.7088 53L-15.8889 144.911C-17.4982 147.971 -19.5544 150.764 -22.0125 153.223C-28.494 159.702 -37.1052 163.272 -46.2763 163.275C-55.4406 163.272 -64.0596 159.706 -70.5397 153.22C-74.8547 148.905 -77.8822 143.64 -79.4209 137.897Z" stroke="#1BA58A" stroke-width="0.566667" stroke-miterlimit="10"/>
</g>
<defs>
<clipPath id="clip0_753_2268">
<rect width="57" height="154" fill="white"/>
</clipPath>
</defs>
</svg>
