<svg width="534" height="493" viewBox="0 0 534 493" fill="none" xmlns="http://www.w3.org/2000/svg">
<rect width="534" height="493" fill="white"/>
<path d="M274.521 431.696C373.094 431.696 453.003 417.577 453.003 400.16C453.003 382.743 373.094 368.624 274.521 368.624C175.948 368.624 96.0391 382.743 96.0391 400.16C96.0391 417.577 175.948 431.696 274.521 431.696Z" fill="#E6E6E6"/>
<path d="M267.48 382.641L183.913 372.62H164.828L168.621 374.714L161.307 344.243L244.311 333.501L164.828 305.915L171.849 304.25L299.657 325.067L292.618 372.62L282.558 398.753L267.48 382.641Z" fill="#4B8343"/>
<path d="M360.76 350.475C360.76 350.475 352.853 360.112 359.134 374.689L295.972 402.039L289.91 403.314L287.118 391.12L289.013 375.734V367.314L360.76 350.475Z" fill="white"/>
<path d="M161.307 344.242L248.726 328.334L364.567 346.758L292.618 372.62L161.307 344.242Z" fill="#215B4A"/>
<path d="M161.294 344.242C161.294 344.242 153.114 359.708 162.536 373.992L292.175 402.039C292.175 402.039 284.132 389.709 292.605 372.616L161.294 344.242Z" fill="#215B4A"/>
<path opacity="0.1" d="M161.294 344.242C161.294 344.242 153.114 359.708 162.536 373.992L292.175 402.039C292.175 402.039 284.132 389.709 292.605 372.616L251.608 363.756L161.294 344.242Z" fill="#215B4A"/>
<path opacity="0.1" d="M165.167 349.604C165.167 349.604 160.497 360.917 165.167 368.244V349.604Z" fill="black"/>
<path d="M292.189 402.039L364.568 371.205C364.568 371.205 368.612 372.076 365.995 375.038C363.378 377.999 293.585 405 293.585 405L162.55 373.992L292.189 402.039Z" fill="#215B4A"/>
<path opacity="0.1" d="M292.189 402.039L364.568 371.205C364.568 371.205 368.612 372.076 365.995 375.038C363.378 377.999 293.585 405 293.585 405L162.55 373.992L292.189 402.039Z" fill="#215B4A"/>
<path opacity="0.1" d="M286.257 375.734C286.257 375.734 279.278 384.096 286.257 396.638V375.734Z" fill="black"/>
<path opacity="0.1" d="M320.049 375.597L288.744 386.024L288.854 386.355L320.159 375.927L320.049 375.597Z" fill="black"/>
<path opacity="0.1" d="M326.323 374.557L288.738 388.827L288.862 389.152L326.447 374.883L326.323 374.557Z" fill="black"/>
<path opacity="0.1" d="M332.076 374.503L288.942 392.13L289.074 392.452L332.208 374.825L332.076 374.503Z" fill="black"/>
<path opacity="0.1" d="M338.343 372.994L289.451 395.044L289.594 395.362L338.487 373.311L338.343 372.994Z" fill="black"/>
<path opacity="0.1" d="M343.598 372.997L289.832 396.46L289.972 396.779L343.738 373.316L343.598 372.997Z" fill="black"/>
<path opacity="0.1" d="M355.108 371.046L290.646 398.843L290.784 399.163L355.247 371.365L355.108 371.046Z" fill="black"/>
<path opacity="0.45" d="M193.786 345.946L255.203 333.055L292.619 340.197L242.292 356.398L193.786 345.946Z" fill="white"/>
<path d="M364.568 346.758C364.568 346.758 367.74 348.037 365.88 350.009C364.02 351.98 292.619 372.616 292.619 372.616L364.568 346.758Z" fill="#215B4A"/>
<path d="M364.041 312.141C364.041 312.141 356.13 329.446 362.411 344.019L299.249 363.704L293.201 364.983L290.409 352.789L292.276 337.4V328.979L364.041 312.141Z" fill="white"/>
<path d="M164.598 305.911L252.02 290L367.862 308.423L295.909 334.285L164.598 305.911Z" fill="#4B8343"/>
<path d="M164.598 305.908C164.598 305.908 156.408 321.373 165.83 335.658L295.47 363.704C295.47 363.704 287.423 351.374 295.895 334.285L164.598 305.908Z" fill="#4B8343"/>
<path opacity="0.1" d="M164.598 305.908C164.598 305.908 156.408 321.373 165.83 335.658L295.47 363.704C295.47 363.704 287.423 351.374 295.895 334.285L164.598 305.908Z" fill="black"/>
<path opacity="0.1" d="M168.461 311.27C168.461 311.27 163.788 322.586 168.461 329.909V311.27Z" fill="black"/>
<path d="M295.483 363.704L367.858 340.536C367.858 340.536 371.906 341.407 369.289 344.368C366.672 347.329 296.879 366.666 296.879 366.666L165.844 335.658L295.483 363.704Z" fill="#4B8343"/>
<path opacity="0.1" d="M295.483 363.704L367.858 340.536C367.858 340.536 371.906 341.407 369.289 344.368C366.672 347.329 296.879 366.666 296.879 366.666L165.844 335.658L295.483 363.704Z" fill="black"/>
<path opacity="0.1" d="M289.551 337.4C289.551 337.4 282.572 345.762 289.551 358.304V337.4Z" fill="black"/>
<path opacity="0.1" d="M323.344 337.262L292.039 347.689L292.149 348.019L323.454 337.592L323.344 337.262Z" fill="black"/>
<path opacity="0.1" d="M329.616 336.224L292.031 350.493L292.155 350.819L329.74 336.55L329.616 336.224Z" fill="black"/>
<path opacity="0.1" d="M335.366 336.171L292.232 353.798L292.364 354.12L335.498 336.493L335.366 336.171Z" fill="black"/>
<path opacity="0.1" d="M341.637 334.659L292.745 356.71L292.889 357.027L341.781 334.977L341.637 334.659Z" fill="black"/>
<path opacity="0.1" d="M346.894 334.665L293.128 358.128L293.268 358.448L347.034 334.984L346.894 334.665Z" fill="black"/>
<path opacity="0.1" d="M358.403 332.716L293.941 360.514L294.079 360.833L358.542 333.036L358.403 332.716Z" fill="black"/>
<path opacity="0.3" d="M197.076 307.612L258.494 294.721L295.909 301.863L245.582 318.064L197.076 307.612Z" fill="white"/>
<path d="M367.858 308.423C367.858 308.423 371.033 309.702 369.17 311.678C367.307 313.653 295.909 334.285 295.909 334.285L367.858 308.423Z" fill="#4B8343"/>
<path d="M158.805 208.109C167.545 195.106 171.34 179.399 169.502 163.837C167.663 148.274 160.313 133.886 148.784 123.282C137.255 112.677 122.311 106.559 106.662 106.036C91.0119 105.514 75.6932 110.621 63.4835 120.433C51.2738 130.244 42.9814 144.109 40.1103 159.515C37.2391 174.92 39.9793 190.845 47.8338 204.402C55.6884 217.959 68.1372 228.25 82.9228 233.409C97.7084 238.568 113.852 238.253 128.425 232.521C129.37 235.896 131.136 238.984 133.566 241.509C135.996 244.033 139.013 245.915 142.347 246.986C145.682 248.057 149.23 248.284 152.674 247.646C156.118 247.008 159.349 245.526 162.08 243.331C164.811 241.137 166.956 238.299 168.322 235.072C169.688 231.845 170.233 228.328 169.909 224.839C169.584 221.349 168.4 217.994 166.462 215.074C164.525 212.154 161.894 209.761 158.805 208.109Z" fill="#4B8343"/>
<path d="M144 158H66V164H144V158Z" fill="white"/>
<path d="M144 168H66V174H144V168Z" fill="white"/>
<path d="M144 179H66V185H144V179Z" fill="white"/>
<path d="M329.426 115.918C321.286 103.831 317.752 89.2305 319.464 74.7637C321.176 60.297 328.021 46.9221 338.758 37.0647C349.495 27.2072 363.413 21.5198 377.987 21.0339C392.561 20.548 406.828 25.2957 418.199 34.4162C429.569 43.5366 437.292 56.4257 439.966 70.7462C442.64 85.0667 440.088 99.8703 432.773 112.473C425.458 125.075 413.865 134.641 400.095 139.436C386.325 144.232 371.291 143.939 357.719 138.611C356.839 141.749 355.194 144.619 352.931 146.966C350.668 149.312 347.858 151.062 344.753 152.057C341.647 153.053 338.343 153.264 335.136 152.671C331.929 152.078 328.919 150.7 326.376 148.66C323.832 146.62 321.835 143.982 320.563 140.982C319.29 137.982 318.783 134.714 319.085 131.47C319.387 128.225 320.49 125.107 322.295 122.393C324.099 119.679 326.549 117.454 329.426 115.918Z" fill="#4B8343"/>
<path d="M344 76L416 76V70L344 70V76Z" fill="white"/>
<path d="M344 85L416 85V80L344 80V85Z" fill="white"/>
<path d="M344 95L416 95V89L344 89V95Z" fill="white"/>
<path d="M233.986 167.463C233.986 167.463 258.485 168.129 262.531 169.601C266.578 171.073 268.387 181.602 268.387 181.602L249.365 187.582L235.137 186.776L224.43 187.532L230.408 171.871L233.986 167.463Z" fill="#2F2E41"/>
<path d="M235.043 159.422C235.043 159.422 236.655 165.649 233.077 170.058C229.5 174.466 248.456 190.177 248.456 190.177L258.457 188.458C258.457 188.458 256.252 169.325 259.213 164.481C262.174 159.636 235.043 159.422 235.043 159.422Z" fill="#FFB8B8"/>
<path opacity="0.1" d="M235.043 159.422C235.043 159.422 236.655 165.649 233.077 170.058C229.5 174.466 248.456 190.177 248.456 190.177L258.457 188.458C258.457 188.458 256.252 169.325 259.213 164.481C262.174 159.636 235.043 159.422 235.043 159.422Z" fill="black"/>
<path d="M301.551 341.473L279.486 370.739L294.544 379.532L315.269 345.619L301.551 341.473Z" fill="#FFB8B8"/>
<path d="M286.073 371.233C286.073 371.233 277.948 361.79 278.31 363.896C278.672 366.001 272.528 383.858 278.244 385.586C283.96 387.313 332.975 391.894 333.649 386.359C334.324 380.823 319.027 376.949 319.027 376.949C319.027 376.949 309.939 368.214 307.925 369.102C305.91 369.99 286.073 371.233 286.073 371.233Z" fill="#2F2E41"/>
<path d="M296.6 369.423L314.225 399.453L327.531 391.746L309.759 367.161L296.6 369.423Z" fill="#FFB8B8"/>
<path d="M324.422 297.978L319.191 305.38C319.191 305.38 294.256 340.017 296.904 342.814C299.553 345.611 310.581 356.18 316.19 354.132C321.799 352.084 341.725 316.682 341.725 316.682L336.528 295.897L324.422 297.978Z" fill="#2F2E41"/>
<path d="M217.008 290.97C217.008 290.97 222.592 301.391 236.745 304.92C250.899 308.449 265.686 315.662 266.212 315.572C266.738 315.481 268.227 314.683 268.589 316.789C268.951 318.895 272.833 322.563 272.833 322.563C272.833 322.563 288.467 375.699 294.437 375.756C300.408 375.814 312.678 371.537 312.933 369.867C313.188 368.197 294.651 313.935 294.47 312.882L292.299 300.248C292.299 300.248 316.815 304.163 319.101 304.854C321.387 305.545 341.725 316.682 341.725 316.682C341.725 316.682 362.458 301.737 343.066 286.643C323.673 271.55 290.341 260.478 290.341 260.478L278.384 257.114L267.962 256.492L266.427 250.607L241.745 252.031L215.988 262.963L217.008 290.97Z" fill="#2F2E41"/>
<path d="M249.583 171.816C260.201 171.816 268.809 163.207 268.809 152.587C268.809 141.967 260.201 133.358 249.583 133.358C238.964 133.358 230.357 141.967 230.357 152.587C230.357 163.207 238.964 171.816 249.583 171.816Z" fill="#FFB8B8"/>
<path d="M232.189 168.042L234.501 167.645C234.501 167.645 238.678 183.728 251.598 186.385C251.598 186.385 257.973 178.747 257.701 177.458C257.428 176.169 262.749 169.293 265.578 173.142C268.408 176.991 264.888 244.801 267.265 246.018C269.641 247.236 274.74 248.527 270.637 253.026C266.533 257.526 250.233 263.579 246.622 261.49C243.012 259.401 235.635 241.7 232.444 235.745C229.253 229.79 224.146 209.531 224.146 209.531C224.146 209.531 217.624 187.347 221.637 182.322C225.651 177.296 232.189 168.042 232.189 168.042Z" fill="#DABB4F"/>
<path d="M250.589 251.523C250.159 256.246 249.424 260.937 248.387 265.565C247.444 269.331 246.346 271.605 245.093 271.508C241.896 271.269 240.443 275.958 239.694 281.365C238.893 287.101 238.893 293.644 238.454 295.956C237.873 299.012 234.153 301.343 226.719 300.659C222.292 300.155 217.948 299.089 213.79 297.487C203.754 293.838 204.051 264.241 205.73 242.28C206.757 228.819 208.301 218.219 208.301 218.219C208.301 218.219 205.252 209.124 204.277 202.891C204.083 201.754 203.986 200.602 203.986 199.448C204.135 194.003 214.074 179.289 220.08 170.123C226.093 160.958 234.295 167.682 234.295 167.682L231.44 176.298C231.44 176.298 235.864 183.126 235.897 189.624C235.929 196.122 246.488 200.811 250.279 203.957C252.662 205.933 252.604 232.32 250.589 251.523Z" fill="#2F2E41"/>
<path d="M258.938 170.761C258.938 170.761 259.63 171.58 262.803 171.18C266.607 170.701 271.839 172.018 273.054 175.651C275.283 182.313 281.566 209.416 281.566 209.416C281.566 209.416 284.181 240.4 285.357 247.244C286.534 254.087 285.95 260.149 287.109 263.744C288.269 267.338 275.661 257.04 271.015 258.381C266.368 259.722 263.383 242.35 263.967 236.288C264.551 230.226 265.044 223.637 263.432 217.411C261.82 211.184 264.678 194.705 264.571 190.929C264.464 187.154 254.325 177.639 258.938 170.761Z" fill="#2F2E41"/>
<path d="M272.541 267.061C272.541 267.061 292.898 278.169 294.846 293.978C296.794 309.787 267.618 278.67 267.618 278.67L272.541 267.061Z" fill="#FFB8B8"/>
<path d="M284.162 255.85C284.162 255.85 290.399 287.296 300.116 285.626C309.833 283.955 294.689 254.04 294.689 254.04L284.162 255.85Z" fill="#FFB8B8"/>
<path d="M317.44 392.939C317.44 392.939 312.464 398.672 311.231 397.8C309.997 396.928 307.16 408.798 309.718 411.068C312.275 413.338 322.128 417.064 322.235 420.839C322.342 424.615 348.765 423.866 349.711 419.91C350.657 415.953 346.397 406.93 343.403 405.277C340.41 403.624 329.341 388.407 329.341 388.407C329.341 388.407 320.672 389.674 317.44 392.939Z" fill="#2F2E41"/>
<path opacity="0.1" d="M269.299 286.293C264.578 282.96 251.397 282.133 239.694 281.365C234.56 281.035 229.71 280.712 225.983 280.189C222.393 279.692 219.163 276.41 216.296 271.521C211.95 264.112 208.436 253.002 205.73 242.28C206.757 228.819 208.301 218.219 208.301 218.219C208.301 218.219 205.252 209.124 204.277 202.891C204.965 201.934 205.85 201.137 206.873 200.553C219.286 195.224 231.137 247.667 232.642 255.896C232.668 256.031 232.687 256.161 232.706 256.27C233.436 260.508 241.322 264.131 248.387 265.565C252.74 266.45 256.789 266.508 258.656 265.359C263.557 262.349 278.631 274.395 279.774 274.738C280.917 275.086 276.08 291.092 269.299 286.293Z" fill="black"/>
<path d="M206.875 197.325C206.875 197.325 197.854 201.585 201.818 221.499C205.782 241.412 213.767 275.268 225.98 276.962C238.193 278.657 262.511 278.27 269.296 283.065C276.081 287.861 280.917 271.854 279.773 271.509C278.63 271.163 263.556 259.121 258.654 262.132C253.753 265.142 233.883 259.886 232.707 253.043C231.531 246.199 219.491 191.904 206.875 197.325Z" fill="#2F2E41"/>
<path d="M271.886 187.775L281.802 210.786C281.802 210.786 282.8 210.287 283.959 213.882C285.119 217.476 285.662 220.635 287.693 222.996C289.724 225.356 298.763 259.031 299.034 260.61C299.306 262.189 286.551 267.634 283.701 263.246C280.851 258.858 271.886 187.775 271.886 187.775Z" fill="#2F2E41"/>
<path d="M238.644 152.319C239.381 152.123 239.489 151.144 239.514 150.382C239.646 146.299 242.104 142.11 246.012 140.922C247.511 140.51 249.081 140.424 250.616 140.668C252.808 140.96 254.924 141.666 256.852 142.749C257.869 143.321 258.868 144.01 260.022 144.185C260.784 144.3 264.085 145.26 264.844 145.395C266.513 145.692 268.064 147.186 269.666 146.63C271.198 146.098 271.537 144.114 271.574 142.493C271.659 138.798 268.854 133.685 266.385 130.937C264.51 128.851 261.688 127.889 258.929 127.388C255.707 126.87 252.441 126.671 249.179 126.795C244.764 126.873 240.227 127.214 236.246 129.125C232.265 131.035 228.921 134.838 228.73 139.25C228.69 140.169 228.785 141.092 228.708 142.009C228.519 144.245 227.332 146.265 226.775 148.439C226.377 150.035 226.317 151.695 226.6 153.315C226.883 154.935 227.502 156.477 228.418 157.842C229.895 160.017 232.218 161.984 232.132 164.612L235.336 161.292C235.814 160.927 236.153 160.408 236.295 159.823C236.438 159.238 236.375 158.622 236.118 158.078L234.984 153.654C234.693 152.864 234.658 152.002 234.886 151.192C236.102 148.188 237.416 152.647 238.644 152.319Z" fill="#2F2E41"/>
</svg>
