<svg width="658" height="439" viewBox="0 0 658 439" fill="none" xmlns="http://www.w3.org/2000/svg">
<path opacity="0.1" d="M640.96 408.681C634.023 414.433 625.648 418.533 616.605 421.567C615.289 422.017 613.954 422.437 612.6 422.828C609.107 423.869 605.531 424.771 601.924 425.559C600.145 425.957 598.354 426.322 596.563 426.663C593.517 427.25 590.459 427.773 587.419 428.252C576.137 430.025 564.779 431.337 553.365 432.333C549.846 432.644 546.325 432.924 542.802 433.172L541.395 433.273L538.873 433.443L537.321 433.544C534.963 433.702 532.604 433.841 530.252 433.973C520.824 434.503 511.383 434.888 501.943 435.234C495.006 435.474 488.138 435.676 481.239 435.865L467.207 436.275L463.581 436.382L461.992 436.427C457.838 436.553 453.68 436.673 449.518 436.786L448.345 436.818L444.687 436.925L437.75 437.114L435.682 437.171L433.79 437.221C389.752 438.407 345.683 439.271 301.671 438.899C298.148 438.874 294.627 438.836 291.108 438.786C258.429 438.363 225.787 437.221 193.202 435.001C181.749 434.219 170.221 433.273 158.756 431.967C155.225 431.568 151.704 431.133 148.193 430.662C120.029 426.877 92.5585 420.494 67.9511 408.586C49.4167 399.598 32.3075 386.813 25.1309 369.803C17.8849 352.634 21.7191 333.353 29.9931 316.525C38.267 299.697 50.7158 284.616 61.4492 268.804C65.1385 263.361 68.6259 257.691 71.7854 251.863C71.9746 251.509 72.1701 251.15 72.3529 250.797C73.9716 247.757 75.4977 244.679 76.9314 241.563C78.2935 238.594 79.5548 235.596 80.7152 232.569C81.0641 231.665 81.3984 230.763 81.7179 229.863C81.7557 229.762 81.7936 229.661 81.8251 229.56C81.8566 229.459 81.9071 229.333 81.9449 229.219C83.985 223.493 85.5749 217.615 86.6999 211.641L86.8513 210.809C86.9207 210.411 86.99 210.02 87.0531 209.623C87.1161 209.225 87.1729 208.885 87.2297 208.513C88.106 202.913 88.4334 197.241 88.2071 191.578C88.2071 191.369 88.2071 191.161 88.2071 190.947C88.0672 188.044 87.7513 185.152 87.2612 182.287C87.2234 182.041 87.1855 181.801 87.1351 181.562C86.4003 177.452 85.2878 173.419 83.8116 169.515C83.7485 169.344 83.6792 169.168 83.6098 168.991C83.6098 168.916 83.5531 168.834 83.5215 168.758C83.0485 167.553 82.544 166.361 81.9891 165.169C81.9008 164.967 81.7999 164.759 81.7053 164.538C81.5224 164.154 81.3395 163.769 81.144 163.39C80.2569 161.578 79.2689 159.789 78.18 158.023C76.9188 155.923 75.4872 153.866 74.0178 151.848L73.8097 151.564L73.6394 151.324C71.7097 148.694 69.6917 146.108 67.7241 143.497C66.179 141.46 64.6655 139.41 63.2465 137.322L62.9943 136.944C61.2744 134.424 59.74 131.783 58.4033 129.041C58.1384 128.479 57.8798 127.918 57.6402 127.35C57.2114 126.354 56.8141 125.351 56.4609 124.342C51.6176 110.655 53.087 95.7068 55.414 81.4523C58.8636 60.2724 65.2835 37.4464 85.1549 24.2263C102.504 12.6776 125.982 11.3279 148.219 14.1346C151.782 14.5761 155.307 15.1249 158.782 15.7556L160.674 16.1151C188.8 21.5078 215.4 31.0571 241.673 41.2812C247.809 43.6717 253.932 46.1 260.049 48.5157C264.83 50.4036 269.612 52.2811 274.396 54.1481C279.925 56.301 285.495 58.4034 291.108 60.4554C294.615 61.742 298.136 63.0035 301.671 64.2397C307.343 66.2118 313.052 68.0851 318.799 69.8595C322.869 71.121 326.96 72.3089 331.072 73.4231C350.621 78.7465 370.676 82.4363 391.203 83.149C406.839 83.6994 422.481 82.2496 437.75 78.8348C441.313 78.0275 444.845 77.1003 448.313 76.0533C453.156 74.5949 457.913 72.8704 462.566 70.8876C474.302 65.8418 484.852 59.1813 493.202 50.7043L493.271 50.6349C505.638 38.0897 523.769 31.713 542.764 30.6471C546.282 30.4484 549.807 30.4295 553.327 30.5903C566.533 31.1368 579.517 34.1756 591.594 39.5467C621.637 53.1704 641.067 82.0137 639.604 110.819C637.479 152.75 597.062 184.936 572.946 221.619C571.243 224.205 569.623 226.873 568.115 229.598C567.56 230.594 567.031 231.597 566.514 232.607C560.573 244.212 557.004 256.745 558.946 268.785C559.284 270.908 559.799 272.999 560.485 275.036C560.781 275.925 561.115 276.814 561.487 277.697C564.256 284.295 568.632 289.889 574.031 294.866C576.478 297.103 579.054 299.196 581.743 301.135C604.245 317.496 636.836 327.815 651.233 350.168C663.278 368.705 658.826 393.84 640.96 408.681Z" fill="#1BA58A"/>
<path opacity="0.1" d="M553.377 329.726V232.537H566.564C567.081 231.528 567.611 230.525 568.166 229.529H553.377V127.35H605.09C604.976 126.348 604.85 125.332 604.724 124.342H553.377V30.5209C549.858 30.3601 546.332 30.379 542.814 30.5777V124.323H448.364V76.0028C444.895 77.0498 441.364 77.977 437.801 78.7843V124.323H302.977L302.655 123.749L331.122 73.3727C327.01 72.2584 322.92 71.0705 318.85 69.809L301.722 100.116V64.164C298.186 62.9362 294.665 61.6748 291.159 60.3797V103.446L260.1 48.4841C253.983 46.0684 247.859 43.6401 241.723 41.2496L288.39 123.781L288.062 124.354H158.807V15.6925C155.332 15.0618 151.807 14.513 148.244 14.0715V124.323H56.4609C56.8141 125.332 57.2113 126.335 57.6402 127.332H148.244V229.51H81.8629C81.8314 229.611 81.7936 229.711 81.7557 229.812C81.4362 230.712 81.102 231.614 80.753 232.518H148.231V329.726H53.2194C53.5137 330.727 53.8185 331.73 54.1338 332.735H148.244V432.188C151.775 433.122 155.296 434.097 158.807 435.115V332.735H291.165V438.798C294.684 438.849 298.205 438.886 301.728 438.912V332.735H437.801V437.101L444.738 436.912L448.395 436.805V332.735H542.789V433.185C546.312 432.932 549.833 432.653 553.352 432.346V332.735H594.659C594.545 331.732 594.438 330.729 594.331 329.726H553.377ZM291.159 329.726H158.807V232.537H291.165L291.159 329.726ZM291.159 229.529H158.807V127.35H289.273L291.165 130.082L291.159 229.529ZM437.801 329.726H301.722V232.537H437.801V329.726ZM437.801 229.529H301.722V127.35H437.801V229.529ZM542.789 329.726H448.364V232.537H542.789V329.726ZM542.789 229.529H448.364V127.35H542.789V229.529Z" fill="#1BA58A"/>
<path opacity="0.1" d="M500.896 60.7202C500.933 61.6852 500.587 62.6256 499.932 63.3352C499.277 64.0447 498.367 64.4652 497.402 64.5046H490.351C491.137 64.7368 491.824 65.2207 492.307 65.8817C492.79 66.5427 493.042 67.3442 493.025 68.1628C493.063 69.1278 492.716 70.0683 492.061 70.7778C491.406 71.4873 490.496 71.9079 489.532 71.9472H465.038C464.583 71.9449 464.134 71.8497 463.718 71.6675C463.301 71.4853 462.926 71.2199 462.616 70.8876C474.352 65.8418 484.903 59.1813 493.252 50.7043L493.322 50.6349H494.091C494.556 50.6383 495.015 50.7381 495.44 50.9281C495.864 51.1181 496.245 51.3941 496.557 51.7387C497.21 52.4639 497.572 53.4053 497.572 54.3814C497.572 55.3575 497.21 56.299 496.557 57.0242H497.383C498.336 57.0587 499.237 57.4649 499.893 58.1558C500.55 58.8466 500.91 59.7672 500.896 60.7202Z" fill="#1BA58A"/>
<path opacity="0.1" d="M231.973 92.7865H231.16C231.806 92.0657 232.161 91.1306 232.156 90.1627C232.194 89.1977 231.847 88.2573 231.192 87.5478C230.537 86.8383 229.627 86.4177 228.663 86.3783H204.169C203.204 86.4177 202.294 86.8383 201.639 87.5478C200.984 88.2573 200.637 89.1977 200.675 90.1627C200.637 91.1276 200.984 92.0681 201.639 92.7776C202.294 93.4871 203.204 93.9077 204.169 93.947H204.988C204.34 94.6669 203.983 95.6021 203.986 96.5709C203.97 97.3893 204.223 98.1903 204.706 98.8511C205.189 99.5119 205.875 99.996 206.66 100.229H199.609C198.682 100.33 197.824 100.769 197.201 101.464C196.578 102.158 196.233 103.058 196.233 103.991C196.233 104.924 196.578 105.825 197.201 106.519C197.824 107.213 198.682 107.653 199.609 107.754H224.103C225.068 107.714 225.978 107.294 226.633 106.584C227.288 105.875 227.634 104.934 227.597 103.969C227.621 103.15 227.374 102.347 226.895 101.682C226.417 101.017 225.732 100.529 224.948 100.292H231.999C232.932 100.198 233.797 99.7613 234.427 99.0655C235.056 98.3698 235.405 97.465 235.405 96.5267C235.405 95.5885 235.056 94.6837 234.427 93.9879C233.797 93.2921 232.932 92.855 231.999 92.7613L231.973 92.7865Z" fill="#1BA58A"/>
<path opacity="0.1" d="M534.969 246.148H534.149C534.798 245.429 535.153 244.493 535.146 243.524C535.183 242.56 534.836 241.619 534.181 240.91C533.526 240.2 532.617 239.779 531.652 239.74H507.158C506.194 239.781 505.285 240.202 504.63 240.911C503.976 241.62 503.628 242.56 503.664 243.524C503.628 244.489 503.976 245.429 504.63 246.138C505.285 246.847 506.194 247.268 507.158 247.309H507.978C507.331 248.029 506.976 248.965 506.981 249.933C506.964 250.751 507.216 251.552 507.699 252.212C508.183 252.872 508.87 253.355 509.655 253.585H502.605C501.671 253.678 500.806 254.115 500.177 254.811C499.547 255.507 499.199 256.412 499.199 257.35C499.199 258.288 499.547 259.193 500.177 259.889C500.806 260.585 501.671 261.022 502.605 261.116H527.099C528.063 261.075 528.972 260.653 529.626 259.944C530.281 259.235 530.628 258.296 530.592 257.331C530.609 256.513 530.356 255.713 529.873 255.053C529.39 254.393 528.703 253.91 527.919 253.679H534.969C535.902 253.586 536.768 253.148 537.397 252.453C538.027 251.757 538.375 250.852 538.375 249.914C538.375 248.976 538.027 248.071 537.397 247.375C536.768 246.679 535.902 246.242 534.969 246.148Z" fill="#1BA58A"/>
<path opacity="0.1" d="M102.389 259.808C129.933 255.838 147.997 223.018 142.735 186.502C137.474 149.986 110.88 123.603 83.3363 127.572C55.7924 131.542 37.7287 164.362 42.9899 200.878C48.2511 237.394 74.845 263.777 102.389 259.808Z" fill="black"/>
<path d="M103.693 259.268C131.237 255.298 149.301 222.478 144.039 185.963C138.778 149.447 112.184 123.063 84.6403 127.033C57.0964 131.003 39.0327 163.823 44.2939 200.338C49.5551 236.854 76.149 263.238 103.693 259.268Z" fill="#3A3768"/>
<path d="M140.6 201.947C140.24 208.131 139.083 214.243 137.157 220.131C134.974 226.991 131.441 233.346 126.764 238.819C121.089 245.309 113.874 249.605 105.688 250.803C104.336 250.996 102.974 251.101 101.608 251.118C79.4728 251.421 58.8006 228.412 54.342 197.462C49.6311 164.627 64.9241 135.203 88.5477 131.829C95.5793 130.813 102.548 132.213 108.999 135.556C118.289 140.35 126.506 149.167 132.257 160.558C136.115 168.291 138.694 176.598 139.894 185.157C140.707 190.714 140.943 196.341 140.6 201.947Z" fill="#1BA58A"/>
<path d="M107.133 193.892L104.08 221.701C104.08 221.701 113.843 220.787 116.693 215.905L107.694 193.426L107.133 193.892Z" fill="#1BA58A"/>
<path opacity="0.2" d="M107.133 193.892L104.08 221.701C104.08 221.701 113.843 220.787 116.693 215.905L107.694 193.426L107.133 193.892Z" fill="black"/>
<path opacity="0.2" d="M64.1799 192.965L79.5359 191.931C79.5359 191.931 81.1314 203.599 85.981 210.165L75.0773 222.023C75.0773 222.023 63.77 204.003 64.1799 192.965Z" fill="black"/>
<path opacity="0.3" d="M103.067 191.519L66.8449 230.368L67.3062 230.798L103.529 191.949L103.067 191.519Z" fill="white"/>
<path opacity="0.3" d="M53.9131 194.05L53.8627 193.419L104.238 189.749L104.288 190.373L53.9131 194.05Z" fill="white"/>
<path opacity="0.2" d="M132.245 160.533L127.887 165.819C117.109 145.188 108.116 144.027 108.116 144.027L108.987 135.525C118.289 140.325 126.506 149.142 132.245 160.533Z" fill="black"/>
<path opacity="0.2" d="M84.5747 167.086L104.465 187.9L103.071 188.487L79.9395 179.392C79.9395 179.392 81.7936 171.993 84.5747 167.086Z" fill="black"/>
<path opacity="0.3" d="M55.3109 169.04L55.0802 169.627L103.07 188.485L103.3 187.898L55.3109 169.04Z" fill="white"/>
<path opacity="0.2" d="M108.779 189.629L124.998 187.333C124.998 187.333 126.14 194.044 125.535 196.005C125.515 196.066 125.492 196.125 125.465 196.182L108.779 189.629Z" fill="black"/>
<path opacity="0.2" d="M71.7917 154.119C71.7917 154.119 78.571 144.323 87.0153 141.725L94.482 159.581C94.482 159.581 87.2044 162.274 84.6567 167.648L71.7917 154.119Z" fill="black"/>
<path opacity="0.3" d="M106.029 186.261L105.487 186.191C105.367 186.191 105.234 186.153 105.146 185.775L82.9161 133.172L83.4963 132.926L105.007 183.839C105.007 181.007 105.348 174.699 106.527 160.64C107.568 148.228 108.779 135.676 108.791 135.55L109.422 135.613C107.618 154.289 105.209 182.287 105.688 185.441L106.029 186.261Z" fill="white"/>
<path opacity="0.3" d="M65.0659 146.85L64.6137 147.29L103.496 187.307L103.948 186.868L65.0659 146.85Z" fill="white"/>
<path opacity="0.2" d="M120.811 173.249L127.603 165.554C127.603 165.554 134.054 181.467 133.329 186.197L125.263 187.333C125.263 187.333 122.362 173.678 120.811 173.249Z" fill="black"/>
<path opacity="0.3" d="M132.011 160.34L108.154 187.206L108.625 187.625L132.483 160.758L132.011 160.34Z" fill="white"/>
<path opacity="0.3" d="M125.56 187.617L125.522 187.282C125.522 187.181 125.522 187.087 125.478 186.992C125.434 186.898 125.478 186.734 125.427 186.601C124.782 181.995 123.371 177.528 121.252 173.387C121.183 173.255 121.114 173.123 121.038 172.99C121.009 172.925 120.976 172.861 120.937 172.801C117.544 166.494 112.676 161.782 107.246 159.556C107.044 159.467 106.842 159.392 106.615 159.316C103.804 158.241 100.767 157.896 97.7865 158.313C96.6778 158.471 95.5877 158.739 94.5324 159.114C94.4504 159.135 94.3703 159.162 94.2928 159.196L93.9333 159.329C90.1359 160.894 86.8909 163.555 84.6125 166.973L84.5431 167.074L84.3603 167.345C84.3209 167.395 84.2851 167.448 84.253 167.503C83.9882 167.9 83.7296 168.304 83.4837 168.726C83.2377 169.149 83.017 169.534 82.7963 169.988C81.373 172.721 80.3331 175.637 79.7062 178.654C79.6557 178.862 79.6116 179.077 79.5737 179.285C78.7965 183.341 78.6306 187.491 79.0818 191.597L79.1197 191.969C79.1197 192.051 79.1197 192.139 79.1512 192.221C79.1953 192.568 79.2395 192.915 79.2899 193.262C80.116 199.307 82.293 205.089 85.6594 210.178C85.6972 210.241 85.7413 210.298 85.7855 210.361C85.8296 210.424 85.9432 210.594 86.0314 210.708C86.2459 211.023 86.4666 211.338 86.6999 211.629C91.1144 217.501 97.0234 221.241 103.216 221.682C103.487 221.682 103.765 221.714 104.042 221.72H104.673C105.416 221.713 106.158 221.657 106.893 221.55C110.678 220.956 114.182 219.192 116.914 216.504C117.078 216.353 117.242 216.195 117.399 216.031C119.974 213.363 121.98 210.2 123.296 206.734C123.384 206.52 123.466 206.305 123.548 206.103C124.65 203.078 125.358 199.924 125.654 196.718L125.711 196.056C125.939 193.245 125.889 190.418 125.56 187.617ZM123.094 205.624C123.018 205.845 122.936 206.066 122.854 206.255C121.596 209.656 119.666 212.768 117.179 215.407C117.021 215.571 116.863 215.735 116.699 215.886C114.032 218.561 110.581 220.315 106.849 220.894C106.162 220.996 105.468 221.05 104.774 221.058H104.143C97.6667 220.925 91.4612 217.021 86.9017 210.764L86.5107 210.216C86.3846 210.039 86.2648 209.862 86.1513 209.68C82.8806 204.698 80.7668 199.047 79.9647 193.142C79.9143 192.808 79.8701 192.473 79.8323 192.145C79.8323 191.931 79.7818 191.723 79.7629 191.515C79.3204 187.505 79.4756 183.451 80.2233 179.487C80.2611 179.272 80.299 179.064 80.3494 178.856C80.9629 175.858 81.9924 172.96 83.408 170.246L83.8242 169.483C84.1206 168.96 84.4548 168.449 84.7512 167.963C84.8458 167.818 84.9404 167.673 85.0413 167.534C85.0622 167.497 85.0854 167.461 85.1107 167.427C87.3286 164.062 90.5054 161.441 94.2297 159.902L94.8225 159.682C96.9584 158.943 99.2216 158.645 101.476 158.805C103.227 158.937 104.95 159.324 106.59 159.953L107.221 160.199C112.506 162.419 117.229 167.086 120.521 173.287C120.628 173.482 120.729 173.684 120.83 173.886C122.844 177.913 124.186 182.242 124.803 186.702L124.86 187.087C124.86 187.163 124.86 187.245 124.86 187.32C124.86 187.396 124.891 187.579 124.904 187.711C125.232 190.396 125.297 193.106 125.099 195.804C125.099 195.873 125.099 195.942 125.099 196.005L125.062 196.466C124.801 199.59 124.14 202.668 123.094 205.624Z" fill="white"/>
<path opacity="0.2" d="M140.6 201.947C140.24 208.131 139.083 214.243 137.157 220.131L130.681 213.577C132.446 210.916 133.531 199.449 133.531 199.449L133.903 199.708C134.231 200.408 137.813 201.322 140.6 201.947Z" fill="black"/>
<path opacity="0.3" d="M109.343 191.916L108.898 192.364L136.958 220.281L137.402 219.834L109.343 191.916Z" fill="white"/>
<path opacity="0.3" d="M140.449 202.685L108.097 189.603L139.844 184.829L139.938 185.453L110.475 189.881L140.682 202.098L140.449 202.685Z" fill="white"/>
<path opacity="0.2" d="M126.764 238.844C121.089 245.335 113.874 249.63 105.688 250.828C104.337 251.021 102.974 251.126 101.608 251.144L102.933 237.898C102.933 237.898 115.06 238.081 122.085 228.292L126.764 238.844Z" fill="black"/>
<path opacity="0.3" d="M108.221 194.012L107.639 194.256L126.389 239.062L126.971 238.819L108.221 194.012Z" fill="white"/>
<path opacity="0.3" d="M106.433 194.479L101.52 251.095L102.149 251.149L107.061 194.533L106.433 194.479Z" fill="white"/>
<path opacity="0.3" d="M133.695 186.393C133.695 186.185 133.651 185.977 133.619 185.762C133.563 185.245 133.493 184.728 133.417 184.211C132.518 177.829 130.702 171.611 128.026 165.749V165.692L127.761 165.131C123.138 155.386 116.378 147.78 108.69 143.604C108.539 143.516 108.381 143.434 108.224 143.352L108.091 143.283C103.078 140.581 97.3392 139.532 91.6946 140.287C90.1263 140.513 88.5828 140.887 87.0846 141.403L86.4918 141.618C81.4051 143.609 76.9619 146.958 73.6457 151.299C73.0151 152.094 72.4118 152.922 71.8358 153.784C71.716 153.961 71.5962 154.138 71.4827 154.32C67.9634 159.9 65.5664 166.114 64.4258 172.612C64.3817 172.82 64.3439 173.028 64.3123 173.242C63.2065 179.665 63.0556 186.215 63.8646 192.681C63.8646 192.89 63.915 193.098 63.9465 193.312C63.9781 193.527 64.0222 193.911 64.0664 194.214C64.1357 194.7 64.2114 195.192 64.2934 195.671C64.2934 195.671 64.2934 195.671 64.2934 195.715C64.6024 197.607 64.9871 199.443 65.4412 201.247C65.4382 201.265 65.4382 201.285 65.4412 201.303C67.2315 208.694 70.3839 215.687 74.7367 221.922C74.8566 222.099 74.9764 222.269 75.1088 222.445C76.3478 224.152 77.696 225.776 79.1449 227.308C79.99 228.204 80.8602 229.043 81.7431 229.831C87.463 234.959 93.8513 237.873 100.328 238.334C101.085 238.384 101.848 238.403 102.605 238.384H102.869C102.993 238.39 103.118 238.39 103.242 238.384C104.086 238.352 104.928 238.276 105.764 238.157C111.97 237.261 117.589 234.133 122.161 229.106C122.217 229.049 122.268 228.986 122.318 228.929L122.627 228.589C124.832 226.053 126.711 223.252 128.221 220.251C129.212 218.307 130.072 216.299 130.794 214.24C130.838 214.13 130.875 214.019 130.908 213.905C130.951 213.796 130.989 213.684 131.021 213.571C132.492 209.19 133.432 204.647 133.821 200.042C133.821 199.941 133.821 199.846 133.853 199.746C133.884 199.645 133.853 199.506 133.884 199.386C134.014 197.67 134.082 195.936 134.086 194.183C134.103 191.581 133.972 188.98 133.695 186.393ZM133.26 199.777C132.895 204.296 131.993 208.755 130.573 213.06C130.502 213.279 130.426 213.489 130.346 213.691C129.614 215.823 128.733 217.901 127.71 219.91C126.269 222.772 124.486 225.449 122.4 227.882C122.255 228.059 122.098 228.236 121.94 228.406C117.399 233.452 111.85 236.605 105.695 237.482C104.9 237.596 104.105 237.671 103.311 237.709H102.68C95.4973 237.86 88.3207 234.89 81.9891 229.138C81.1882 228.412 80.3999 227.636 79.6242 226.823C78.1671 225.28 76.8106 223.645 75.5629 221.928L75.38 221.663L75.1908 221.398C69.8367 213.83 66.1727 204.369 64.6907 194.069C64.6466 193.785 64.6087 193.501 64.5709 193.217C64.5709 193.11 64.5709 193.003 64.5267 192.89C64.4826 192.776 64.5267 192.694 64.4952 192.593C63.6931 186.22 63.8312 179.764 64.9051 173.432L65.0186 172.801C66.1346 166.386 68.4909 160.25 71.9556 154.737C72.0187 154.632 72.0881 154.524 72.1637 154.415C72.2079 154.339 72.2583 154.264 72.3088 154.194C72.8638 153.355 73.4502 152.548 74.0557 151.779C77.3228 147.457 81.7236 144.125 86.7693 142.154L87.1918 142.002L87.3684 141.939C88.8158 141.444 90.3064 141.085 91.8207 140.867C93.5623 140.619 95.3253 140.555 97.0802 140.678C100.919 140.981 104.652 142.083 108.041 143.913L108.167 143.977L108.64 144.235C112.99 146.711 116.84 149.977 119.991 153.866C122.928 157.451 125.398 161.393 127.344 165.598C127.376 165.655 127.401 165.718 127.426 165.774L127.635 166.216C130.218 171.952 131.976 178.025 132.856 184.255C132.932 184.772 133.001 185.283 133.064 185.8C133.064 185.926 133.064 186.046 133.108 186.172C133.153 186.298 133.108 186.343 133.108 186.431C133.588 190.619 133.671 194.842 133.354 199.045C133.317 199.31 133.285 199.554 133.26 199.777Z" fill="white"/>
<path d="M106.781 194.509C108.515 194.26 109.642 192.123 109.298 189.737C108.954 187.351 107.27 185.619 105.536 185.869C103.802 186.119 102.675 188.256 103.019 190.642C103.362 193.028 105.047 194.759 106.781 194.509Z" fill="#1BA58A"/>
<path opacity="0.2" d="M106.781 194.509C108.515 194.26 109.642 192.123 109.298 189.737C108.954 187.351 107.27 185.619 105.536 185.869C103.802 186.119 102.675 188.256 103.019 190.642C103.362 193.028 105.047 194.759 106.781 194.509Z" fill="black"/>
<path opacity="0.1" d="M422.81 37.4653C427.526 37.4653 431.349 33.6418 431.349 28.9252C431.349 24.2087 427.526 20.3851 422.81 20.3851C418.094 20.3851 414.271 24.2087 414.271 28.9252C414.271 33.6418 418.094 37.4653 422.81 37.4653Z" fill="#1BA58A"/>
<path opacity="0.1" d="M29.8859 128.883C34.6017 128.883 38.4247 125.06 38.4247 120.343C38.4247 115.627 34.6017 111.803 29.8859 111.803C25.17 111.803 21.347 115.627 21.347 120.343C21.347 125.06 25.17 128.883 29.8859 128.883Z" fill="#1BA58A"/>
<path opacity="0.1" d="M630.126 189.54C634.842 189.54 638.665 185.717 638.665 181C638.665 176.284 634.842 172.46 630.126 172.46C625.41 172.46 621.587 176.284 621.587 181C621.587 185.717 625.41 189.54 630.126 189.54Z" fill="#1BA58A"/>
<path opacity="0.1" d="M595.58 241.077C600.295 241.077 604.118 237.254 604.118 232.537C604.118 227.821 600.295 223.997 595.58 223.997C590.864 223.997 587.041 227.821 587.041 232.537C587.041 237.254 590.864 241.077 595.58 241.077Z" fill="#1BA58A"/>
<path opacity="0.1" d="M447.941 19.9562C450.115 19.9562 451.876 18.1941 451.876 16.0205C451.876 13.8468 450.115 12.0847 447.941 12.0847C445.768 12.0847 444.006 13.8468 444.006 16.0205C444.006 18.1941 445.768 19.9562 447.941 19.9562Z" fill="#1BA58A"/>
<path opacity="0.1" d="M3.93517 104.449C6.10851 104.449 7.87035 102.687 7.87035 100.513C7.87035 98.3394 6.10851 96.5773 3.93517 96.5773C1.76184 96.5773 0 98.3394 0 100.513C0 102.687 1.76184 104.449 3.93517 104.449Z" fill="#1BA58A"/>
<path opacity="0.1" d="M625.522 285.071C627.696 285.071 629.457 283.309 629.457 281.135C629.457 278.961 627.696 277.199 625.522 277.199C623.349 277.199 621.587 278.961 621.587 281.135C621.587 283.309 623.349 285.071 625.522 285.071Z" fill="#1BA58A"/>
<path opacity="0.1" d="M469.37 5.56303C470.906 5.56303 472.151 4.3177 472.151 2.78151C472.151 1.24533 470.906 0 469.37 0C467.834 0 466.589 1.24533 466.589 2.78151C466.589 4.3177 467.834 5.56303 469.37 5.56303Z" fill="#1BA58A"/>
<path opacity="0.1" d="M21.3471 162.375C22.883 162.375 24.1282 161.13 24.1282 159.593C24.1282 158.057 22.883 156.812 21.3471 156.812C19.8111 156.812 18.5659 158.057 18.5659 159.593C18.5659 161.13 19.8111 162.375 21.3471 162.375Z" fill="#1BA58A"/>
<path d="M609.769 404.171C609.769 404.171 605.052 383.881 601.911 359.213C598.771 334.545 574.422 293.554 574.422 293.554C574.315 293.346 574.201 293.131 574.087 292.923C570.312 285.757 565.77 279.021 560.541 272.834C549.821 260.176 540.096 254.487 539.611 254.209C538.841 253.036 538.015 251.743 537.145 250.362C533.878 245.196 529.993 238.699 526.285 231.686C526.285 231.522 526.228 231.364 526.197 231.2C524.545 221.209 524.482 210.701 529.451 202.073C531.904 197.816 535.442 194.309 538.141 190.209C542.556 183.523 544.561 175.544 546.182 167.673C547.323 162.167 548.307 156.553 548.017 150.946C548.017 150.858 548.017 150.776 548.017 150.694C548.017 150.303 547.967 149.912 547.929 149.521C547.002 139.353 541.673 130.22 536.476 121.472C533.739 116.868 530.864 112.118 526.455 109.141C517.286 102.954 506.048 106.827 496.248 103.282C485.836 99.4975 476.32 95.9717 464.987 94.8112C460.97 94.4012 456.556 94.3003 453.302 96.7034C449.884 99.2263 448.748 103.831 446.478 107.47C442.146 114.408 433.973 117.562 427.073 121.926C421.833 125.212 416.807 130.466 415.722 136.25C415.722 136.25 415.722 136.219 415.722 136.2C415.608 136.824 415.54 137.457 415.52 138.092C415.52 138.13 415.52 138.174 415.52 138.212V138.401C415.499 139.568 415.657 140.731 415.987 141.851C416.378 142.053 416.775 142.229 417.179 142.406C416.927 142.816 416.674 143.226 416.435 143.667L415.905 144.607C411.692 152.209 409.141 160.619 408.419 169.281C407.698 177.942 408.824 186.658 411.721 194.853C414.619 203.047 419.223 210.533 425.229 216.815C431.234 223.097 438.505 228.032 446.56 231.295C446.932 232.203 447.317 233.143 447.695 234.114C454.205 250.496 457.626 267.941 457.785 285.569C457.785 285.733 457.785 285.897 457.785 286.061C457.785 286.692 457.785 287.322 457.785 287.985C452.11 295.175 446.226 304.093 446.434 310.262C446.775 320.593 433.001 344.63 429.287 350.912L428.543 352.174C424.835 349.487 420.427 347.071 418.289 348.768L416.498 347.62C407.442 341.805 391.272 331.032 385.174 324.592C376.534 315.44 359.646 307.083 359.646 307.083C359.646 307.083 346.295 291.163 347.084 285.197C347.474 282.226 342.114 258.511 335.473 241.109C340.323 241.62 345.305 242.231 346.825 242.421L347.197 242.749L347.72 242.831C366.078 258.965 370.095 251.774 370.095 251.774C371.596 250.759 372.107 247.7 372.252 246.527C372.252 246.413 372.252 246.325 372.252 246.249H372.347C372.347 246.155 372.347 246.079 372.347 246.016C372.385 245.947 372.419 245.875 372.448 245.801L372.492 245.719L372.523 245.656C372.523 245.606 372.568 245.549 372.593 245.492C372.699 245.292 372.781 245.081 372.839 244.862H372.788C373.03 243.542 373.158 242.204 373.173 240.863C373.177 239.826 372.827 238.819 372.18 238.009C371.533 237.199 370.628 236.634 369.616 236.41C369.616 236.378 369.616 236.347 369.585 236.309C367.201 229.22 349.865 239.734 347.947 240.926L347.481 240.976C344.006 240.283 338.652 239.015 334.118 237.917C327.969 222.956 320.994 214.58 316.523 232.991L312.411 232.285C311.9 232.193 311.375 232.207 310.87 232.326C310.364 232.445 309.888 232.667 309.472 232.979C308.894 233.405 308.414 233.952 308.066 234.581L290.225 231.755L286.019 231.9L289.582 233.622L289.847 233.748L307.688 236.656C307.796 237.499 308.179 238.282 308.778 238.885C309.376 239.488 310.157 239.877 310.998 239.992L315.003 240.573C307.852 282.321 323.832 295.944 323.832 295.944C323.832 295.944 343.073 314.816 343.073 319.281C343.073 323.066 380.633 368.018 392.048 381.585C394.091 384.019 395.302 385.445 395.302 385.445C399.786 390.598 421.347 408.201 431.381 416.313C432.365 424.512 433.273 432.712 433.796 437.209L435.688 437.158L444.662 436.912L449.493 436.767C453.655 436.654 457.813 436.534 461.967 436.408L463.556 436.364L467.182 436.25C471.861 436.115 476.538 435.977 481.214 435.834C488.113 435.626 495.012 435.424 501.917 435.203C511.377 434.869 520.799 434.484 530.227 433.942C532.579 433.809 534.938 433.67 537.296 433.513L538.848 433.405L541.37 433.235C556.795 432.144 572.158 430.573 587.407 428.151C590.446 427.666 593.505 427.136 596.551 426.537C598.342 426.196 600.133 425.824 601.911 425.42C605.518 424.619 609.094 423.705 612.588 422.652C611.1 411.992 609.769 404.171 609.769 404.171Z" fill="url(#paint0_linear_645:2328)"/>
<path d="M349.663 245.089L347.317 245.007C347.317 245.007 331.406 243.032 326.31 242.913C325.797 242.839 325.274 242.88 324.778 243.032L325.907 238.479L327.288 238.819C332.137 240.018 348.212 243.953 350.798 244.042C353.857 244.143 349.663 245.089 349.663 245.089Z" fill="#1BA58A"/>
<path d="M347.815 243.575C347.815 243.575 367.113 231.503 369.635 238.914C372.158 246.325 365.58 247.416 365.58 247.416L347.815 243.575Z" fill="#1BA58A"/>
<path opacity="0.2" d="M347.815 243.575C347.815 243.575 367.113 231.503 369.635 238.914C372.158 246.325 365.58 247.416 365.58 247.416L347.815 243.575Z" fill="black"/>
<path d="M370.089 254.19C370.089 254.19 366.022 261.393 347.292 245.007L347.55 244.672L348.326 243.67C348.326 243.67 372.568 232.525 373.198 243.411C373.189 244.827 373.037 246.239 372.744 247.624C372.676 247.926 372.545 248.21 372.359 248.457L372.271 248.539C372.271 248.539 372.271 248.709 372.221 248.999C372.101 250.16 371.59 253.175 370.089 254.19Z" fill="#1BA58A"/>
<path opacity="0.1" d="M370.089 254.19C370.089 254.19 366.022 261.393 347.292 245.007L347.55 244.672L347.985 244.225L372.359 248.457L372.271 248.539C372.271 248.539 372.271 248.709 372.221 248.999C372.101 250.16 371.59 253.175 370.089 254.19Z" fill="black"/>
<path opacity="0.1" d="M372.372 248.741L347.437 244.729L346.175 243.657L348.458 243.392L372.87 247.347C372.806 247.69 372.644 248.008 372.404 248.261C372.404 248.261 372.41 248.45 372.372 248.741Z" fill="black"/>
<path opacity="0.1" d="M372.126 249.258L347.191 245.265L345.929 244.199L348.206 243.928L372.643 247.883C372.58 248.228 372.416 248.547 372.17 248.797C372.17 248.797 372.164 248.974 372.126 249.258Z" fill="black"/>
<path d="M372.246 248.999L347.292 245.007L346.03 243.941L348.307 243.67L372.725 247.624C372.655 247.967 372.491 248.284 372.252 248.539C372.252 248.539 372.284 248.709 372.246 248.999Z" fill="#4C4C56"/>
<path opacity="0.1" d="M326.31 242.913C325.797 242.839 325.274 242.88 324.778 243.032L325.907 238.479L327.288 238.819C327.132 240.219 326.804 241.594 326.31 242.913Z" fill="black"/>
<path d="M326.481 237.312L312.474 234.94C311.963 234.849 311.439 234.863 310.934 234.981C310.429 235.099 309.953 235.319 309.535 235.628C308.96 236 308.49 236.516 308.173 237.124C307.856 237.732 307.702 238.411 307.725 239.097C307.806 239.966 308.181 240.781 308.787 241.408C309.394 242.036 310.196 242.437 311.062 242.547L325.106 244.54C325.106 244.54 327.641 238.352 326.481 237.312Z" fill="#D1D9EC"/>
<path opacity="0.1" d="M286.328 234.688L290.541 234.537L308.697 237.381C308.83 237.402 308.957 237.449 309.072 237.52C309.187 237.591 309.286 237.684 309.363 237.794C309.441 237.904 309.496 238.029 309.524 238.161C309.553 238.292 309.554 238.428 309.529 238.561C309.478 238.815 309.331 239.04 309.118 239.188C308.906 239.336 308.644 239.396 308.388 239.355L289.904 236.385L286.328 234.688Z" fill="black"/>
<path d="M286.069 234.562L290.276 234.417L308.438 237.255C308.569 237.276 308.695 237.324 308.808 237.394C308.921 237.465 309.019 237.557 309.096 237.665C309.172 237.774 309.227 237.897 309.256 238.027C309.285 238.157 309.288 238.291 309.264 238.422C309.215 238.676 309.069 238.902 308.858 239.051C308.646 239.2 308.385 239.262 308.129 239.223L289.639 236.246L286.069 234.562Z" fill="#DFE6F5"/>
<path d="M422.836 352.76L395.346 386.145C395.346 386.145 394.135 384.738 392.092 382.329C380.678 368.939 343.117 324.592 343.117 320.833C343.117 316.418 323.876 297.773 323.876 297.773C323.876 297.773 306.597 283.267 316.018 238.056C325.44 192.845 347.828 281.274 347.046 287.165C346.264 293.056 359.608 308.767 359.608 308.767C359.608 308.767 376.496 317.017 385.136 326.049C391.215 332.407 407.404 343.041 416.46 348.755C420.282 351.203 422.836 352.76 422.836 352.76Z" fill="#FFB6B6"/>
<path opacity="0.1" d="M422.836 352.76L395.346 386.145C395.346 386.145 394.135 384.738 392.092 382.329C392.533 372.982 412.272 352.357 415.766 349.222C415.972 349.038 416.206 348.889 416.46 348.781C420.282 351.203 422.836 352.76 422.836 352.76Z" fill="black"/>
<path d="M434.616 358.26C434.616 358.26 422.047 346.478 418.125 350.017C414.202 353.555 389.456 379.472 395.346 386.151C401.236 392.831 436.577 420.703 436.577 420.703L434.616 358.26Z" fill="#3F3D56"/>
<path opacity="0.1" d="M434.616 358.26C434.616 358.26 422.047 346.478 418.125 350.017C414.202 353.555 389.456 379.472 395.346 386.151C401.236 392.831 436.577 420.703 436.577 420.703L434.616 358.26Z" fill="#3F3D56"/>
<path d="M544.965 264.389C544.965 264.389 532.699 276.228 517.336 289.069L516.756 289.549L515.861 290.293C491.354 310.565 459.772 332.438 456.518 313.718C456.153 311.275 456.139 308.792 456.474 306.345C456.512 305.986 456.562 305.613 456.612 305.235C456.663 304.856 456.713 304.503 456.751 304.144C457.363 299.426 457.702 294.677 457.767 289.921C457.767 289.12 457.767 288.325 457.767 287.537C457.605 270.124 454.182 252.896 447.676 236.744C447.298 235.785 446.913 234.852 446.541 233.963C441.496 221.928 436.558 214.902 436.558 214.902C436.558 214.902 443.855 210.487 453.97 204.81C457.685 202.741 461.771 200.515 466.022 198.282C489.355 186.046 517.412 173.81 513.527 188.191C511.692 194.996 513.395 204.028 516.775 213.483C516.964 214.006 517.154 214.517 517.349 215.034C519.541 220.748 522.067 226.327 524.917 231.742L525.106 232.108C529.161 239.879 533.531 247.138 537.151 252.784C538.021 254.146 538.847 255.42 539.617 256.568C542.789 261.424 544.965 264.389 544.965 264.389Z" fill="#FFB6B6"/>
<path opacity="0.1" d="M517.368 215.034C517.185 215.306 516.99 215.577 516.794 215.842C510.904 223.852 504.087 228.62 495.983 231.307C490.396 233.168 484.178 234.045 477.209 234.322C475.475 234.385 473.703 234.417 471.874 234.417C467.659 234.424 463.447 234.182 459.261 233.691C457.06 233.344 454.758 234.827 452.532 235.912C450.874 236.713 449.253 237.299 447.739 236.744C447.361 235.785 446.976 234.852 446.604 233.963C441.559 221.928 436.621 214.902 436.621 214.902C436.621 214.902 443.918 210.487 454.033 204.81C457.748 202.741 461.834 200.515 466.085 198.282C489.418 186.046 517.475 173.81 513.591 188.191C511.755 194.996 513.458 204.028 516.838 213.483C516.983 214.006 517.173 214.517 517.368 215.034Z" fill="black"/>
<path d="M528.474 177.872C528.474 178.793 528.474 179.701 528.41 180.609C527.807 193.964 522.773 206.737 514.103 216.911C505.433 227.086 493.621 234.082 480.533 236.795C473.373 238.268 466.006 238.433 458.788 237.28C456.663 236.948 454.557 236.498 452.482 235.93C450.473 235.385 448.494 234.735 446.554 233.982C438.526 230.86 431.261 226.053 425.25 219.883C419.239 213.713 414.622 206.325 411.71 198.218C408.798 190.111 407.66 181.473 408.372 172.889C409.083 164.304 411.629 155.972 415.836 148.455L416.365 147.528C423.033 136.115 433.272 127.215 445.502 122.204C457.731 117.193 471.27 116.348 484.027 119.801C496.785 123.254 508.05 130.813 516.083 141.308C524.117 151.804 528.471 164.654 528.474 177.872Z" fill="#FFB6B6"/>
<path opacity="0.1" d="M544.965 264.389C544.965 264.389 449.537 356.683 456.606 305.235C457.408 299.37 457.799 293.456 457.779 287.537C461.091 283.442 464.608 279.518 468.317 275.78L481.724 266.086C495.549 255.994 512.405 250.929 529.501 251.73C532.08 251.796 534.644 252.149 537.145 252.784C541.641 259.829 544.965 264.389 544.965 264.389Z" fill="black"/>
<path d="M612.6 422.841C609.107 423.881 605.531 424.783 601.924 425.572C600.145 425.969 598.354 426.335 596.563 426.676C593.517 427.262 590.459 427.786 587.419 428.265C572.196 430.655 556.833 432.207 541.383 433.311L538.86 433.481L537.309 433.582C534.95 433.74 532.592 433.878 530.239 434.011C520.811 434.541 511.371 434.925 501.93 435.272C494.993 435.512 488.125 435.714 481.226 435.903L467.195 436.313L463.568 436.42L461.979 436.464C457.825 436.591 453.667 436.71 449.505 436.824L444.674 436.963L435.701 437.209L433.809 437.259C433.304 432.806 432.377 424.714 431.393 416.634L431.166 414.742C430.082 405.83 428.959 397.271 428.309 394.029C426.739 386.176 428.309 353.574 428.309 353.574L428.48 353.303L429.224 352.041C432.938 345.841 446.711 322.113 446.371 311.914C446.169 305.828 452.047 297.023 457.722 289.927C458.467 289.006 459.204 288.111 459.93 287.259C464.451 281.942 468.323 278.158 468.323 278.158L481.724 268.457C495.556 258.376 512.412 253.316 529.508 254.114C534.553 254.373 538.576 255.079 539.598 256.6C540.033 256.845 549.808 262.459 560.529 274.985C565.75 281.084 570.293 287.733 574.075 294.815C574.188 295.017 574.302 295.225 574.409 295.446C574.409 295.446 598.758 335.901 601.898 360.253C605.039 384.606 609.756 404.632 609.756 404.632C609.756 404.632 611.099 412.32 612.6 422.841Z" fill="#3F3D56"/>
<path opacity="0.1" d="M539.863 404.209C537.927 407.363 539.421 422.128 541.408 433.286L538.885 433.456L537.334 433.557C534.975 433.714 532.617 433.853 530.265 433.986C520.837 434.515 511.396 434.9 501.955 435.247C495.018 435.487 488.151 435.689 481.251 435.878L467.22 436.288C467.22 434.85 466.778 433.607 465.637 432.882C464.84 432.308 464.134 431.617 463.543 430.832C463.36 430.611 463.171 430.372 462.982 430.126C458.612 424.323 453.075 412.465 453.075 412.465C453.075 412.465 446.005 414.036 445.217 356.33C444.965 337.522 449.833 323.759 456.512 313.75C470.348 293.024 491.947 288.382 491.947 288.382C499.95 286.99 508.176 287.66 515.848 290.331C518.858 291.387 521.756 292.737 524.501 294.361C528.18 296.575 531.612 299.178 534.736 302.125L535.745 303.09C557.767 324.535 562.969 358.021 549.367 385.602C545.009 394.414 541.08 402.228 539.863 404.209Z" fill="black"/>
<path d="M536.722 401.068C534.591 404.537 536.621 422.153 538.892 433.456L537.34 433.557C534.982 433.714 532.623 433.853 530.271 433.986C520.843 434.515 511.402 434.9 501.962 435.247C495.025 435.487 488.157 435.689 481.258 435.878L467.226 436.288L463.6 436.395C464.155 434.358 464.363 432.257 463.549 430.832C463.398 430.57 463.209 430.332 462.988 430.126C462.843 429.977 462.68 429.848 462.503 429.741C458.183 426.991 449.934 409.312 449.934 409.312C449.934 409.312 442.871 410.888 442.083 353.177C441.793 331.568 448.263 316.594 456.474 306.364C470.209 289.227 488.813 285.228 488.813 285.228C491.248 284.824 493.71 284.596 496.179 284.547H496.254C503.539 284.386 510.759 285.941 517.33 289.088C522.981 291.846 528.139 295.516 532.598 299.949C533.329 300.662 534.048 301.387 534.736 302.125C554.916 323.627 559.381 355.8 546.226 382.461C541.868 391.273 537.939 399.087 536.722 401.068Z" fill="#3F3D56"/>
<path opacity="0.1" d="M488.144 362.291C488.144 362.291 449.392 389.797 452.696 393.581C456.001 397.366 488.144 362.291 488.144 362.291Z" fill="black"/>
<path opacity="0.1" d="M542.524 372.199C542.524 372.199 530.416 361.414 531.293 365.596C532.169 369.777 542.524 372.199 542.524 372.199Z" fill="black"/>
<path opacity="0.1" d="M530.271 433.986C520.843 434.515 511.402 434.9 501.962 435.247C485.798 433.355 468.992 430.573 468.992 430.573C470.449 429.722 522.016 428.694 530.271 433.986Z" fill="black"/>
<path opacity="0.1" d="M601.924 425.572C600.145 425.969 598.354 426.335 596.563 426.676C595.863 415.392 595.586 405.672 595.586 405.672C598.043 412.191 600.159 418.833 601.924 425.572Z" fill="black"/>
<path opacity="0.1" d="M449.537 436.799L444.706 436.938C440.859 426.43 437.555 413.966 436.205 408.675C435.789 407.041 435.574 406.089 435.574 406.089L436.174 407.35C438.16 411.494 444.744 425.32 449.537 436.799Z" fill="black"/>
<path opacity="0.1" d="M524.501 199.361C522.576 204.395 519.979 209.145 516.782 213.483C516.971 214.006 517.16 214.517 517.355 215.034C519.547 220.748 522.074 226.327 524.923 231.742L525.112 232.108C525.44 234.631 525.894 237.154 526.418 239.614C516.832 240.118 507.236 240.339 497.629 240.276C493.454 240.276 489.216 240.156 485.237 238.907C483.593 238.388 482.018 237.672 480.545 236.776C479.361 236.058 478.243 235.237 477.203 234.322C472.017 229.635 468.742 223.198 468.008 216.245C467.434 210.827 468.254 205.214 466.684 199.998C466.503 199.418 466.292 198.847 466.053 198.289C464.769 195.317 462.741 192.727 460.165 190.767C457.59 188.808 454.552 187.544 451.347 187.099C450.419 186.897 449.45 187.029 448.61 187.472C447.893 188.068 447.376 188.869 447.128 189.767L440.626 206.728C435.997 207.888 432.73 201.84 433.115 197.084C433.5 192.328 435.638 187.459 434.055 182.956C433.569 181.562 432.743 180.294 432.39 178.868C430.983 173.249 437.025 168.26 437.075 162.469C437.113 157.707 433.039 153.86 428.713 151.88C424.746 150.063 420.364 149.281 416.391 147.509C423.064 136.107 433.304 127.219 445.531 122.216C457.757 117.214 471.289 116.375 484.04 119.829C496.79 123.283 508.049 130.838 516.08 141.328C524.11 151.818 528.466 164.66 528.474 177.872C528.474 178.793 528.474 179.701 528.41 180.609C528.123 187.029 526.803 193.361 524.501 199.361Z" fill="black"/>
<path d="M464.962 99.2767C460.945 98.873 456.531 98.7721 453.276 101.169C449.858 103.692 448.723 108.208 446.453 111.797C442.12 118.659 433.947 121.794 427.048 126.064C420.149 130.334 413.616 137.959 415.924 145.743C420.174 147.887 424.999 148.638 429.325 150.618C433.651 152.599 437.725 156.446 437.687 161.208C437.637 166.998 431.595 171.987 433.001 177.607C433.355 179.032 434.181 180.3 434.666 181.694C436.237 186.197 434.111 191.067 433.727 195.822C433.342 200.578 436.609 206.627 441.238 205.466L447.784 188.506C448.032 187.607 448.549 186.806 449.266 186.21C450.106 185.767 451.075 185.636 452.003 185.838C455.507 186.329 458.801 187.8 461.506 190.082C464.211 192.364 466.216 195.364 467.289 198.736C468.859 203.952 468.04 209.566 468.614 214.984C469.667 224.975 476.269 234.637 485.855 237.646C489.834 238.907 494.053 238.989 498.247 239.015C507.845 239.086 517.442 238.865 527.036 238.352C524.671 227.226 523.706 214.933 529.438 205.119C531.892 200.919 535.429 197.456 538.129 193.407C542.543 186.809 544.548 178.931 546.169 171.167C547.43 165.282 548.458 159.265 547.903 153.28C546.976 143.245 541.648 134.225 536.451 125.597C533.714 121.049 530.838 116.357 526.43 113.418C517.261 107.312 506.023 111.141 496.223 107.634C485.811 103.919 476.295 100.425 464.962 99.2767Z" fill="#2F2E41"/>
<g opacity="0.1">
<path opacity="0.1" d="M435.07 183.183C435.406 181.175 435.266 179.116 434.66 177.172C434.219 175.91 433.506 174.743 433.109 173.469C432.726 174.781 432.689 176.169 433.001 177.5C433.355 178.925 434.181 180.193 434.66 181.587C434.841 182.106 434.979 182.64 435.07 183.183Z" fill="black"/>
<path opacity="0.1" d="M437.391 158.893C437.572 158.171 437.67 157.43 437.681 156.686C437.719 151.93 433.651 148.076 429.325 146.096C424.999 144.115 420.174 143.365 415.924 141.22C415.82 140.869 415.733 140.514 415.665 140.154C415.311 141.976 415.4 143.855 415.924 145.635C420.174 147.78 424.999 148.53 429.325 150.511C432.964 152.176 436.401 155.166 437.391 158.893Z" fill="black"/>
<path opacity="0.1" d="M498.241 234.492C494.072 234.492 489.834 234.373 485.855 233.124C476.269 230.115 469.667 220.452 468.614 210.462C468.04 205.044 468.859 199.437 467.289 194.214C466.214 190.838 464.205 187.836 461.496 185.553C458.786 183.271 455.486 181.802 451.977 181.316C451.05 181.113 450.08 181.245 449.24 181.688C448.522 182.282 448.004 183.084 447.758 183.984L441.257 200.944C437.536 201.877 434.698 198.156 433.922 194.189C433.853 194.7 433.783 195.211 433.746 195.715C433.355 200.471 436.628 206.52 441.257 205.359L447.803 188.399C448.048 187.499 448.566 186.697 449.284 186.103C450.124 185.66 451.094 185.528 452.021 185.731C455.526 186.221 458.82 187.693 461.525 189.975C464.23 192.257 466.234 195.257 467.308 198.629C468.878 203.852 468.059 209.459 468.632 214.877C469.686 224.868 476.288 234.53 485.874 237.539C489.853 238.8 494.072 238.882 498.26 238.908C507.866 238.979 517.465 238.769 527.055 238.277C526.752 236.832 526.468 235.369 526.216 233.9C516.895 234.358 507.57 234.556 498.241 234.492Z" fill="black"/>
<path opacity="0.1" d="M546.169 166.645C544.542 174.409 542.53 182.287 538.129 188.884C535.429 192.934 531.892 196.396 529.438 200.597C525.932 206.595 524.936 213.521 525.226 220.541C525.465 215.06 526.67 209.749 529.438 205.012C531.892 200.811 535.429 197.349 538.129 193.3C542.543 186.702 544.542 178.824 546.169 171.06C547.317 165.579 548.313 159.984 547.998 154.402C547.7 158.524 547.088 162.616 546.169 166.645Z" fill="black"/>
</g>
<defs>
<linearGradient id="paint0_linear_645:2328" x1="449.335" y1="437.234" x2="449.335" y2="94.6156" gradientUnits="userSpaceOnUse">
<stop stop-color="#808080" stop-opacity="0.25"/>
<stop offset="0.54" stop-color="#808080" stop-opacity="0.12"/>
<stop offset="1" stop-color="#808080" stop-opacity="0.1"/>
</linearGradient>
</defs>
</svg>
