<svg width="701" height="588" viewBox="0 0 701 588" fill="none" xmlns="http://www.w3.org/2000/svg">
<g clip-path="url(#clip0_723:2274)">
<path d="M74.4683 390.163C145.604 500.312 298.515 546.752 450.191 501.22C530.377 477.148 608.063 427.741 647.593 330.501C718.259 156.673 575.882 98.8184 482.518 79.6992C437.372 70.4542 394.942 55.3981 356.262 35.1699C286.671 -1.22256 163.048 -34.3484 67.4018 111.778C-1.92241 217.69 27.0849 316.792 74.4683 390.163Z" fill="#1BA58A" fill-opacity="0.1"/>
<path d="M559.751 382.69H122.242C118.713 382.686 115.33 381.282 112.834 378.786C110.339 376.29 108.935 372.906 108.931 369.377V122.638H573.062V369.377C573.058 372.906 571.655 376.29 569.159 378.786C566.664 381.282 563.28 382.686 559.751 382.69V382.69Z" fill="#E6E6E6"/>
<path d="M542.34 357.206H139.653C137.835 357.204 136.092 356.481 134.807 355.195C133.521 353.91 132.798 352.166 132.796 350.348V154.979C132.798 153.161 133.521 151.417 134.807 150.132C136.092 148.846 137.835 148.123 139.653 148.121H542.34C544.158 148.123 545.901 148.846 547.187 150.132C548.472 151.417 549.195 153.161 549.197 154.979V350.348C549.195 352.166 548.472 353.91 547.187 355.195C545.901 356.481 544.158 357.204 542.34 357.206Z" fill="white"/>
<path d="M573.993 131.631H108V120.942C108.004 117.413 109.408 114.029 111.903 111.533C114.398 109.037 117.782 107.633 121.311 107.629H560.683C564.212 107.633 567.595 109.037 570.09 111.533C572.586 114.029 573.989 117.413 573.993 120.942V131.631Z" fill="#1BA58A"/>
<path d="M242.115 186.464H170.439C168.621 186.466 166.878 187.188 165.592 188.474C164.306 189.76 163.583 191.504 163.582 193.323V240.443C163.583 242.262 164.306 244.006 165.592 245.292C166.878 246.578 168.621 247.301 170.439 247.302H242.115C243.933 247.299 245.676 246.576 246.961 245.29C248.246 244.005 248.97 242.262 248.972 240.443V193.323C248.97 191.504 248.246 189.762 246.961 188.476C245.676 187.19 243.933 186.467 242.115 186.464Z" fill="#E6E6E6"/>
<path d="M376.835 186.464H305.159C303.341 186.466 301.598 187.188 300.312 188.474C299.026 189.76 298.303 191.504 298.302 193.323V240.443C298.303 242.262 299.026 244.006 300.312 245.292C301.598 246.578 303.341 247.301 305.159 247.302H376.835C378.653 247.299 380.396 246.576 381.681 245.29C382.966 244.005 383.69 242.262 383.692 240.443V193.323C383.69 191.504 382.966 189.762 381.681 188.476C380.396 187.19 378.653 186.467 376.835 186.464Z" fill="#E6E6E6"/>
<path d="M511.555 186.464H439.879C438.061 186.466 436.318 187.188 435.032 188.474C433.746 189.76 433.023 191.504 433.022 193.323V240.443C433.023 242.262 433.746 244.006 435.032 245.292C436.318 246.578 438.061 247.301 439.879 247.302H511.555C513.373 247.299 515.116 246.576 516.401 245.29C517.686 244.005 518.41 242.262 518.412 240.443V193.323C518.41 191.504 517.686 189.762 516.401 188.476C515.116 187.19 513.373 186.467 511.555 186.464V186.464Z" fill="#E6E6E6"/>
<path d="M231.975 269.571H180.58C179.569 269.571 178.599 269.973 177.884 270.688C177.17 271.403 176.768 272.373 176.768 273.384C176.768 274.395 177.17 275.365 177.884 276.08C178.599 276.795 179.569 277.196 180.58 277.196H231.975C232.986 277.196 233.955 276.795 234.67 276.08C235.385 275.365 235.787 274.395 235.787 273.384C235.787 272.373 235.385 271.403 234.67 270.688C233.955 269.973 232.986 269.571 231.975 269.571V269.571Z" fill="#E6E6E6"/>
<path d="M231.975 290.405H180.58C179.707 290.403 178.861 290.701 178.182 291.249C177.503 291.796 177.032 292.561 176.849 293.414C176.665 294.267 176.78 295.157 177.175 295.936C177.569 296.714 178.218 297.334 179.014 297.691C179.506 297.915 180.04 298.03 180.58 298.029H231.975C232.986 298.029 233.955 297.628 234.67 296.913C235.385 296.198 235.787 295.228 235.787 294.217C235.787 293.206 235.385 292.236 234.67 291.521C233.955 290.806 232.986 290.405 231.975 290.405Z" fill="#E6E6E6"/>
<path d="M231.975 311.238H180.58C179.569 311.238 178.599 311.64 177.884 312.354C177.17 313.069 176.768 314.039 176.768 315.05C176.768 316.061 177.17 317.031 177.884 317.746C178.599 318.461 179.569 318.863 180.58 318.863H231.975C232.986 318.863 233.955 318.461 234.67 317.746C235.385 317.031 235.787 316.061 235.787 315.05C235.787 314.039 235.385 313.069 234.67 312.354C233.955 311.64 232.986 311.238 231.975 311.238V311.238Z" fill="#E6E6E6"/>
<path d="M366.695 269.571H315.3C314.289 269.571 313.319 269.973 312.604 270.688C311.89 271.403 311.488 272.373 311.488 273.384C311.488 274.395 311.89 275.365 312.604 276.08C313.319 276.795 314.289 277.196 315.3 277.196H366.695C367.706 277.196 368.675 276.795 369.39 276.08C370.105 275.365 370.507 274.395 370.507 273.384C370.507 272.373 370.105 271.403 369.39 270.688C368.675 269.973 367.706 269.571 366.695 269.571V269.571Z" fill="#E6E6E6"/>
<path d="M366.695 290.405H315.3C314.289 290.405 313.319 290.806 312.604 291.521C311.89 292.236 311.488 293.206 311.488 294.217C311.488 295.228 311.89 296.198 312.604 296.913C313.319 297.628 314.289 298.029 315.3 298.029H366.695C367.706 298.029 368.675 297.628 369.39 296.913C370.105 296.198 370.507 295.228 370.507 294.217C370.507 293.206 370.105 292.236 369.39 291.521C368.675 290.806 367.706 290.405 366.695 290.405Z" fill="#E6E6E6"/>
<path d="M366.695 311.238H315.3C314.394 311.237 313.517 311.559 312.826 312.146C312.136 312.733 311.677 313.546 311.533 314.441C311.388 315.336 311.567 316.253 312.037 317.028C312.507 317.802 313.237 318.384 314.098 318.669C314.485 318.799 314.891 318.865 315.3 318.863H366.695C367.706 318.863 368.675 318.461 369.39 317.746C370.105 317.031 370.507 316.061 370.507 315.05C370.507 314.039 370.105 313.069 369.39 312.354C368.675 311.64 367.706 311.238 366.695 311.238V311.238Z" fill="#E6E6E6"/>
<path d="M501.415 269.571H450.02C449.009 269.571 448.039 269.973 447.324 270.688C446.61 271.403 446.208 272.373 446.208 273.384C446.208 274.395 446.61 275.365 447.324 276.08C448.039 276.795 449.009 277.196 450.02 277.196H501.415C502.426 277.196 503.395 276.795 504.11 276.08C504.825 275.365 505.227 274.395 505.227 273.384C505.227 272.373 504.825 271.403 504.11 270.688C503.395 269.973 502.426 269.571 501.415 269.571V269.571Z" fill="#E6E6E6"/>
<path d="M501.415 290.405H450.02C449.147 290.403 448.301 290.701 447.622 291.249C446.942 291.796 446.472 292.561 446.289 293.414C446.105 294.267 446.22 295.157 446.615 295.936C447.009 296.714 447.658 297.334 448.454 297.691C448.946 297.915 449.48 298.03 450.02 298.029H501.415C502.426 298.029 503.395 297.628 504.11 296.913C504.825 296.198 505.227 295.228 505.227 294.217C505.227 293.206 504.825 292.236 504.11 291.521C503.395 290.806 502.426 290.405 501.415 290.405Z" fill="#E6E6E6"/>
<path d="M501.415 311.238H450.02C449.009 311.238 448.039 311.64 447.324 312.354C446.61 313.069 446.208 314.039 446.208 315.05C446.208 316.061 446.61 317.031 447.324 317.746C448.039 318.461 449.009 318.863 450.02 318.863H501.415C502.426 318.863 503.395 318.461 504.11 317.746C504.825 317.031 505.227 316.061 505.227 315.05C505.227 314.039 504.825 313.069 504.11 312.354C503.395 311.64 502.426 311.238 501.415 311.238V311.238Z" fill="#E6E6E6"/>
<path d="M123.267 123.227C125.176 123.227 126.723 121.68 126.723 119.771C126.723 117.863 125.176 116.315 123.267 116.315C121.359 116.315 119.812 117.863 119.812 119.771C119.812 121.68 121.359 123.227 123.267 123.227Z" fill="white"/>
<path d="M136.383 123.227C138.292 123.227 139.839 121.68 139.839 119.771C139.839 117.863 138.292 116.315 136.383 116.315C134.475 116.315 132.928 117.863 132.928 119.771C132.928 121.68 134.475 123.227 136.383 123.227Z" fill="white"/>
<path d="M149.499 123.227C151.408 123.227 152.955 121.68 152.955 119.771C152.955 117.863 151.408 116.315 149.499 116.315C147.591 116.315 146.044 117.863 146.044 119.771C146.044 121.68 147.591 123.227 149.499 123.227Z" fill="white"/>
<path d="M217.349 269.571H180.58C179.569 269.571 178.599 269.973 177.884 270.688C177.17 271.403 176.768 272.373 176.768 273.384C176.768 274.395 177.17 275.365 177.884 276.08C178.599 276.795 179.569 277.196 180.58 277.196H216.583C217.311 276.898 217.945 276.407 218.416 275.776C218.886 275.145 219.177 274.397 219.256 273.614C219.334 272.831 219.198 272.04 218.863 271.328C218.527 270.616 218.004 270.009 217.349 269.571V269.571Z" fill="#1BA58A"/>
<path d="M200.368 290.405H180.58C179.707 290.403 178.861 290.701 178.182 291.249C177.503 291.796 177.032 292.561 176.849 293.414C176.665 294.267 176.78 295.157 177.175 295.936C177.569 296.714 178.218 297.334 179.014 297.691H197.19C198.341 297.69 199.444 297.233 200.258 296.419C201.072 295.605 201.529 294.501 201.53 293.35C201.536 292.255 201.12 291.2 200.368 290.405V290.405Z" fill="#1BA58A"/>
<path d="M228.135 311.238H180.58C179.569 311.238 178.599 311.64 177.884 312.354C177.17 313.069 176.768 314.039 176.768 315.05C176.768 316.061 177.17 317.031 177.884 317.746C178.599 318.461 179.569 318.863 180.58 318.863H228.441C229.115 318.465 229.669 317.892 230.044 317.204C230.418 316.517 230.599 315.741 230.568 314.959C230.536 314.176 230.293 313.417 229.865 312.762C229.437 312.107 228.839 311.58 228.135 311.238V311.238Z" fill="#1BA58A"/>
<path d="M462.677 269.571H450.02C449.176 269.57 448.355 269.85 447.687 270.365C447.019 270.881 446.54 271.604 446.327 272.421C446.114 273.238 446.178 274.102 446.509 274.879C446.84 275.656 447.419 276.3 448.156 276.712H459.369C460.52 276.712 461.624 276.254 462.438 275.44C463.252 274.626 463.709 273.522 463.709 272.371C463.713 271.344 463.346 270.35 462.677 269.571Z" fill="#1BA58A"/>
<path d="M472.228 290.405H450.02C449.147 290.403 448.301 290.701 447.622 291.249C446.942 291.796 446.472 292.561 446.289 293.414C446.105 294.267 446.22 295.157 446.615 295.936C447.009 296.714 447.658 297.334 448.454 297.691H469.05C470.201 297.69 471.304 297.233 472.118 296.419C472.932 295.605 473.389 294.501 473.39 293.35C473.396 292.255 472.98 291.2 472.228 290.405V290.405Z" fill="#1BA58A"/>
<path d="M487.894 311.238H450.02C449.009 311.238 448.039 311.64 447.324 312.354C446.61 313.069 446.208 314.039 446.208 315.05C446.208 316.061 446.61 317.031 447.324 317.746C448.039 318.461 449.009 318.863 450.02 318.863H488.201C488.875 318.465 489.429 317.892 489.803 317.204C490.177 316.517 490.359 315.741 490.327 314.959C490.296 314.176 490.053 313.417 489.625 312.762C489.196 312.107 488.598 311.58 487.894 311.238V311.238Z" fill="#1BA58A"/>
<path d="M363.121 290.405H315.3C314.289 290.405 313.319 290.806 312.604 291.521C311.89 292.236 311.488 293.206 311.488 294.217C311.488 295.228 311.89 296.198 312.604 296.913C313.319 297.628 314.289 298.029 315.3 298.029H362.903C363.602 297.679 364.193 297.145 364.613 296.485C365.033 295.825 365.267 295.064 365.289 294.282C365.312 293.5 365.122 292.727 364.74 292.044C364.358 291.361 363.799 290.795 363.121 290.405V290.405Z" fill="#1BA58A"/>
<path d="M320.43 311.238H315.3C314.394 311.237 313.517 311.559 312.826 312.146C312.136 312.733 311.677 313.546 311.533 314.441C311.388 315.336 311.567 316.253 312.037 317.028C312.507 317.802 313.237 318.384 314.098 318.669H317.389C318.54 318.669 319.644 318.211 320.457 317.397C321.271 316.583 321.729 315.479 321.729 314.328C321.731 313.752 321.617 313.182 321.394 312.651C321.171 312.12 320.843 311.639 320.43 311.238V311.238Z" fill="#1BA58A"/>
<path d="M343.195 269.571H315.3C314.289 269.571 313.319 269.973 312.604 270.688C311.89 271.403 311.488 272.373 311.488 273.384C311.488 274.395 311.89 275.365 312.604 276.08C313.319 276.795 314.289 277.196 315.3 277.196H342.429C343.158 276.898 343.791 276.407 344.262 275.776C344.733 275.145 345.023 274.397 345.102 273.614C345.18 272.831 345.045 272.04 344.709 271.328C344.373 270.616 343.85 270.009 343.195 269.571V269.571Z" fill="#1BA58A"/>
<path d="M407.054 325.769C408.153 325.023 409.402 324.528 410.713 324.317C412.025 324.106 413.366 324.186 414.643 324.549C415.921 324.913 417.103 325.553 418.106 326.423C419.109 327.293 419.91 328.373 420.451 329.586L441.203 329.038L444.612 341.57L415.295 341.932C413.197 342.706 410.889 342.684 408.806 341.869C406.724 341.055 405.013 339.504 403.997 337.512C402.981 335.52 402.731 333.224 403.295 331.06C403.858 328.895 405.196 327.013 407.054 325.769L407.054 325.769Z" fill="#FFB8B8"/>
<path d="M430.329 345.802C429.036 344.596 428.249 342.943 428.131 341.179L427.301 328.721C427.224 327.581 427.43 326.439 427.901 325.398C428.371 324.356 429.092 323.448 429.999 322.752L463.456 297.043L482.904 273.431C484.875 271.044 487.681 269.498 490.75 269.107C493.82 268.715 496.924 269.507 499.431 271.323L499.431 271.323C500.735 272.27 501.838 273.467 502.676 274.845C503.513 276.222 504.068 277.752 504.309 279.346C504.55 280.94 504.471 282.566 504.078 284.13C503.685 285.693 502.985 287.163 502.019 288.453L479.365 318.702L463.238 335.785C458.111 341.19 451.396 344.822 444.068 346.155L436.287 347.552C435.325 347.725 434.338 347.692 433.39 347.458C432.442 347.223 431.554 346.791 430.784 346.189C430.626 346.066 430.475 345.937 430.329 345.802Z" fill="#1BA58A"/>
<path d="M583.633 540.827L572.888 543.511L557.423 503.334L573.282 499.373L583.633 540.827Z" fill="#FFB8B8"/>
<path d="M564.446 542.358L585.169 537.182L588.428 550.232L554.656 558.667C554.229 556.954 554.142 555.172 554.403 553.425C554.663 551.678 555.265 549.999 556.174 548.485C557.083 546.97 558.281 545.65 559.701 544.598C561.12 543.547 562.732 542.786 564.446 542.358V542.358Z" fill="#2F2E41"/>
<path d="M486.652 548.381L475.577 548.38L470.311 505.652L486.656 505.653L486.652 548.381Z" fill="#FFB8B8"/>
<path d="M467.666 545.214H489.026V558.666H454.218C454.218 556.899 454.565 555.15 455.241 553.518C455.917 551.886 456.908 550.403 458.157 549.154C459.405 547.905 460.888 546.914 462.52 546.238C464.151 545.562 465.9 545.214 467.666 545.214V545.214Z" fill="#2F2E41"/>
<path d="M481.851 239.975C494.992 239.975 505.645 229.32 505.645 216.176C505.645 203.032 494.992 192.377 481.851 192.377C468.709 192.377 458.056 203.032 458.056 216.176C458.056 229.32 468.709 239.975 481.851 239.975Z" fill="#FFB8B8"/>
<path d="M481.805 217.02C481.849 213.837 487.327 213.438 489.033 216.151C490.739 218.864 489.644 222.404 488.141 225.229C486.576 228.17 484.546 231.14 484.859 234.48C484.967 235.323 485.286 236.125 485.787 236.812C486.288 237.499 486.954 238.047 487.724 238.407C488.494 238.766 489.343 238.925 490.19 238.869C491.038 238.812 491.858 238.542 492.574 238.083C500.346 233.297 506.907 226.329 509.81 217.838C512.863 208.907 511.338 198.262 504.734 191.4C498.13 184.539 486.292 182.598 478.454 188.083L465.076 178.969C464.761 178.748 464.385 178.629 464 178.629C463.614 178.629 463.239 178.749 462.924 178.971C462.61 179.194 462.371 179.508 462.242 179.871C462.113 180.234 462.1 180.628 462.204 181L464.16 187.359L457.403 185.658C457.115 185.578 456.809 185.587 456.527 185.684C456.244 185.78 455.996 185.96 455.817 186.2C455.638 186.439 455.535 186.727 455.522 187.026C455.509 187.324 455.587 187.62 455.745 187.874L458.065 191.479C454.971 188.933 449.626 191.834 449.183 195.761C448.74 199.687 451.93 203.306 455.682 204.785C459.433 206.265 463.624 206.096 467.665 205.905C467.229 207.86 467.421 209.903 468.214 211.743C469.007 213.583 470.36 215.126 472.08 216.152C475.575 218.178 480.401 217.7 481.805 217.02Z" fill="#2F2E41"/>
<path d="M486.96 530.337C486.914 530.337 486.868 530.337 486.822 530.335L469.715 529.802C469.134 529.783 468.563 529.649 468.034 529.407C467.506 529.165 467.032 528.82 466.639 528.391C466.246 527.963 465.943 527.461 465.747 526.914C465.551 526.367 465.466 525.786 465.498 525.206L474.054 368.07L539.796 386.717L582.906 521.194C583.112 521.839 583.166 522.523 583.063 523.192C582.959 523.861 582.702 524.497 582.31 525.049C581.919 525.601 581.404 526.054 580.807 526.373C580.21 526.692 579.547 526.867 578.87 526.885L559.167 527.409C558.277 527.426 557.403 527.174 556.659 526.685C555.916 526.196 555.338 525.492 555.003 524.668L510.66 413.726C510.542 413.43 510.329 413.18 510.054 413.017C509.78 412.853 509.459 412.785 509.142 412.822C508.824 412.859 508.528 413 508.299 413.223C508.07 413.445 507.92 413.737 507.873 414.053L491.271 526.613C491.118 527.648 490.599 528.593 489.808 529.277C489.016 529.96 488.006 530.337 486.96 530.337V530.337Z" fill="#2F2E41"/>
<path d="M536.605 407.493C531.935 407.489 527.386 406.01 523.606 403.268L502.451 387.994C497.81 384.65 492.433 382.471 486.773 381.639L476.594 380.155C475.031 379.93 473.608 379.133 472.6 377.917C471.593 376.701 471.073 375.154 471.143 373.577L475.199 276.438L472.791 262.59C472.597 261.461 472.73 260.3 473.176 259.245C473.621 258.189 474.359 257.284 475.304 256.635L494.158 243.733C495.643 242.718 497.431 242.241 499.224 242.381L499.913 242.436C501.844 242.587 503.678 243.341 505.157 244.593C506.635 245.844 507.682 247.528 508.151 249.408L508.873 252.3L521.417 274.604C525.124 281.196 527.91 288.264 529.698 295.613L541.589 344.487C542.623 348.739 543.338 353.063 543.73 357.421L547.668 401.373C547.758 402.324 547.536 403.278 547.037 404.092C546.537 404.906 545.787 405.536 544.898 405.887C542.261 406.945 539.447 407.491 536.605 407.493V407.493Z" fill="#1BA58A"/>
<path d="M497.144 372.292C496.885 370.989 496.915 369.645 497.231 368.355C497.548 367.065 498.143 365.86 498.976 364.825C499.808 363.79 500.857 362.95 502.049 362.365C503.241 361.779 504.547 361.462 505.875 361.436L513.451 342.105L526.319 343.844L515.237 370.993C515.133 373.227 514.214 375.346 512.653 376.947C511.092 378.548 508.998 379.521 506.768 379.681C504.537 379.841 502.326 379.177 500.552 377.815C498.779 376.454 497.566 374.488 497.144 372.292V372.292Z" fill="#FFB8B8"/>
<path d="M524.654 358.649C523.041 359.372 521.212 359.453 519.541 358.875L507.746 354.788C506.666 354.416 505.695 353.781 504.919 352.942C504.143 352.103 503.587 351.085 503.3 349.979L492.65 309.146L478.479 282.036C477.049 279.291 476.717 276.104 477.552 273.123C478.387 270.143 480.325 267.592 482.972 265.989L482.972 265.989C484.353 265.156 485.885 264.606 487.479 264.371C489.074 264.136 490.699 264.22 492.261 264.619C493.823 265.018 495.289 265.723 496.576 266.694C497.863 267.665 498.943 268.883 499.756 270.275L518.791 302.923L528.243 324.432C531.224 331.26 531.955 338.86 530.329 346.13L528.586 353.843C528.371 354.796 527.957 355.692 527.371 356.474C526.786 357.257 526.042 357.906 525.189 358.381C525.014 358.479 524.836 358.568 524.654 358.649Z" fill="#1BA58A"/>
</g>
<defs>
<clipPath id="clip0_723:2274">
<rect width="701" height="588" fill="white"/>
</clipPath>
</defs>
</svg>
