<svg width="90" height="90" viewBox="0 0 90 90" fill="none" xmlns="http://www.w3.org/2000/svg">
<rect width="90" height="90" rx="20" fill="#1BA58A" fill-opacity="0.1"/>
<rect x="33.7192" y="16" width="6.96523" height="39.875" fill="#1BA58A"/>
<rect x="51.2837" y="25.9688" width="10.2964" height="25.0729" fill="#BCD8D3"/>
<rect x="48.8608" y="28.3854" width="2.42269" height="7.55208" fill="#1BA58A"/>
<path d="M45.0754 41.073C45.0754 41.073 42.4909 38.6922 40.6843 37.1667V36.5417C42.4909 38.0672 45.3783 40.6198 45.3783 40.6198L51.2836 38.2032V38.8073L45.6811 41.073H45.0754Z" fill="#1BA58A"/>
<rect x="40.6843" y="35.0312" width="0.605672" height="13.5938" fill="#BCD8D3"/>
<rect x="40.6843" y="41.073" width="10.5993" height="3.32292" fill="#0F6F5C"/>
<rect x="23.1199" y="55.875" width="46.0311" height="18.125" fill="#BCD8D3"/>
<rect x="23.1199" y="64.9375" width="46.0311" height="9.0625" fill="#1BA58A"/>
<path d="M59.3089 51.0417H53.4036V53.9115L54.9177 55.8751H57.9461L59.3089 53.9115V51.0417Z" fill="#1BA58A"/>
<path d="M32.5077 55.875C32.5077 55.875 38.5763 55.875 46.0624 55.875C53.5485 55.875 60.8958 55.875 59.6171 55.875C59.6171 58.878 53.5485 61.3125 46.0624 61.3125C38.5763 61.3125 32.5077 58.878 32.5077 55.875Z" fill="#0F6F5C"/>
<rect x="51.2837" y="25.9688" width="10.2964" height="0.90625" fill="#1BA58A"/>
<rect x="51.2837" y="49.2292" width="10.2964" height="0.90625" fill="#1BA58A"/>
<path d="M39.3215 16H40.6843V37.75H40.0786L39.3215 16Z" fill="#0F6F5C"/>
<rect x="21.9084" y="59.1979" width="1.21134" height="0.604167" fill="#1BA58A"/>
<rect x="21" y="57.9895" width="0.908508" height="2.71875" fill="#1BA58A"/>
</svg>
