<svg width="90" height="90" viewBox="0 0 90 90" fill="none" xmlns="http://www.w3.org/2000/svg">
<rect width="90" height="90" rx="20" fill="#1BA58A" fill-opacity="0.1"/>
<path d="M39.5967 51.5833C32.7919 51.5833 19.2078 54.9985 19.2078 61.7778V66.875H59.9855V61.7778C59.9855 54.9985 46.4014 51.5833 39.5967 51.5833ZM24.305 61.7778C24.8657 59.9428 32.7409 56.6806 39.5967 56.6806C46.4779 56.6806 54.3786 59.9683 54.8883 61.7778H24.305Z" fill="#1BA58A"/>
<path d="M28.7395 36.2917H29.4022C29.4022 41.9241 33.9642 46.4861 39.5966 46.4861C45.2291 46.4861 49.7911 41.9241 49.7911 36.2917H50.4537C51.1418 36.2917 51.7025 35.731 51.7025 35.0429V34.9919C51.7025 34.3038 51.1418 33.7431 50.4537 33.7431H49.7911C49.7911 29.9711 47.7267 26.7344 44.6938 24.9504V27.3716C44.6938 28.0852 44.1332 28.6459 43.4195 28.6459C42.7059 28.6459 42.1452 28.0852 42.1452 27.3716V23.9055C41.3297 23.7016 40.4886 23.5486 39.5966 23.5486C38.7046 23.5486 37.8636 23.7016 37.048 23.9055V27.3716C37.048 28.0852 36.4873 28.6459 35.7737 28.6459C35.0601 28.6459 34.4994 28.0852 34.4994 27.3716V24.9504C31.4666 26.7344 29.4022 29.9711 29.4022 33.7431H28.7395C28.0514 33.7431 27.4907 34.3038 27.4907 34.9919V35.0684C27.4907 35.731 28.0514 36.2917 28.7395 36.2917ZM44.6938 36.2917C44.6938 39.0952 42.4001 41.3889 39.5966 41.3889C36.7932 41.3889 34.4994 39.0952 34.4994 36.2917H44.6938Z" fill="#1BA58A"/>
<path d="M72.6776 29.232L75.0478 27.1167L73.1363 23.8035L70.1035 24.7974C69.7467 24.5171 69.3389 24.2877 68.9056 24.1093L68.2685 21H64.4456L63.8084 24.1093C63.3751 24.2877 62.9674 24.5171 62.5851 24.7974L59.5777 23.8035L57.6663 27.1167L60.0365 29.232C59.9855 29.6653 59.9855 30.124 60.0365 30.5573L57.6663 32.7236L59.5777 36.0368L62.6361 35.0683C62.9674 35.3232 63.3497 35.5271 63.732 35.7055L64.4456 38.8403H68.2685L68.9566 35.731C69.3644 35.5526 69.7212 35.3487 70.078 35.0938L73.1108 36.0623L75.0223 32.7491L72.6521 30.5828C72.7286 30.0985 72.7031 29.6653 72.6776 29.232ZM66.357 33.1059C64.5985 33.1059 63.1713 31.6787 63.1713 29.9201C63.1713 28.1616 64.5985 26.7344 66.357 26.7344C68.1156 26.7344 69.5428 28.1616 69.5428 29.9201C69.5428 31.6787 68.1156 33.1059 66.357 33.1059Z" fill="#1BA58A"/>
<path d="M66.1021 40.8537L63.9358 41.5673C63.681 41.3634 63.4006 41.2105 63.0948 41.0831L62.636 38.8403H59.909L59.4503 41.0576C59.1444 41.185 58.8386 41.3634 58.5837 41.5418L56.4429 40.8282L55.0667 43.1984L56.7487 44.7021C56.7232 45.0334 56.7232 45.3393 56.7487 45.6451L55.0667 47.1998L56.4429 49.57L58.6347 48.8818C58.8896 49.0602 59.1444 49.2132 59.4248 49.3406L59.8835 51.5834H62.6105L63.0948 49.3661C63.3751 49.2387 63.6555 49.0857 63.9103 48.9073L66.0766 49.5955L67.4529 47.2252L65.7708 45.6706C65.7963 45.3393 65.7963 45.0334 65.7708 44.7276L67.4529 43.2239L66.1021 40.8537ZM61.2598 47.4801C60.011 47.4801 58.9915 46.4607 58.9915 45.2118C58.9915 43.963 60.011 42.9436 61.2598 42.9436C62.5086 42.9436 63.528 43.963 63.528 45.2118C63.528 46.4607 62.5086 47.4801 61.2598 47.4801Z" fill="#1BA58A"/>
</svg>
