<svg width="90" height="90" viewBox="0 0 90 90" fill="none" xmlns="http://www.w3.org/2000/svg">
<rect width="90" height="90" rx="20" fill="#1BA58A" fill-opacity="0.1"/>
<path d="M20.8407 46.4822L20.8676 46.4658L20.8386 46.4808C20.7058 46.5509 20.5806 46.6275 20.46 46.7181L20.8407 46.484V46.4822Z" fill="#82BFAB"/>
<path d="M39.6828 53.4726C38.9377 52.866 38.2355 52.1925 37.5878 51.4527L29.9983 56.152L32.6777 57.8111L33.4117 57.357C33.5749 57.2264 33.752 57.1108 33.9474 57.0242L39.6828 53.4726Z" fill="#1BA58A" fill-opacity="0.2"/>
<path d="M34.8202 47.1575C34.4165 46.2686 34.0894 45.3614 33.8453 44.4427L23.56 50.8111L23.2497 51.0015L23.1631 51.0566L23.2551 51.0065C23.8441 51.7516 24.5123 52.4451 25.2602 53.075L25.6671 52.8227L26.4169 52.3596L34.8202 47.1575Z" fill="#1BA58A" fill-opacity="0.2"/>
<path d="M33.3109 38.7625L41.2997 33.817L41.303 33.8238L44.7439 31.6955L44.8721 31.615L45.0789 31.3981C44.8721 31.1476 44.7715 30.8284 44.8216 30.5091L44.8338 30.4573C44.8602 30.3288 44.9036 30.2035 44.9744 30.0851L45.0789 29.9748C45.4332 29.545 46.0423 29.4151 46.5337 29.7057L46.5691 29.7275L56.3978 35.8655L58.3711 37.0983C58.9287 37.4874 59.6391 37.6495 60.3523 37.4845C61.6918 37.1735 62.5257 35.8368 62.2165 34.5002C62.0576 33.8152 61.6296 33.2677 61.0734 32.9334L61.0036 32.8901L48.6906 25.2001L48.6841 25.2065L48.6541 25.1865C47.5064 24.4747 46.3036 23.9318 45.0789 23.5159C42.0516 22.4867 38.8587 22.3231 35.8393 22.9744C35.1307 23.1251 34.4353 23.3191 33.7532 23.5574C33.1402 23.7714 32.5407 24.0219 31.9524 24.3043C30.7192 24.5552 29.3947 24.3594 28.2398 23.6462L25.4938 21.9452L14.7261 39.339L17.2208 40.8822L18.7726 41.8427C19.5735 42.5649 20.1078 43.5036 20.3354 44.5128L20.3801 44.7519C20.4481 45.1173 20.5423 45.4766 20.6403 45.8359C20.7001 46.0527 20.7699 46.2668 20.8386 46.4808L20.8676 46.4657L33.3109 38.7625Z" fill="#BCD8D3"/>
<path d="M64.6644 21.9452L61.9181 23.6462C60.7625 24.3594 59.4384 24.5552 58.2051 24.3043C57.6193 24.0219 57.0177 23.7714 56.4043 23.5574C55.7226 23.3191 55.0261 23.1251 54.3208 22.9744C51.2989 22.3231 48.1063 22.4867 45.079 23.5159C46.3036 23.9318 47.5065 24.4747 48.6542 25.1865L48.6842 25.2065L48.6907 25.2001L61.0037 32.8901L61.0735 32.9334C61.6296 33.2677 62.0577 33.8152 62.2166 34.5002C62.5258 35.8368 61.6919 37.1735 60.3524 37.4845C59.6391 37.6495 58.9288 37.4874 58.3712 37.0984L56.3979 35.8655L46.5692 29.7275L46.5337 29.7057C46.0424 29.4151 45.4333 29.545 45.079 29.9748L45.1842 30.0851C45.4465 30.5124 45.381 31.032 45.079 31.3981L44.8721 31.615L44.744 31.6955L41.303 33.8238L41.2998 33.817L33.311 38.7625L20.8677 46.4657L20.8408 46.484L20.46 46.718C19.842 47.189 19.4358 47.9241 19.4358 48.7629C19.4358 50.1862 20.5881 51.3389 22.0121 51.3389C22.428 51.3389 22.8159 51.2301 23.1631 51.0566L23.2497 51.0015L23.5599 50.8111L33.8453 44.4427C34.0894 45.3613 34.4165 46.2686 34.8201 47.1575L26.4169 52.3596L25.6671 52.8227C25.1303 53.2951 24.7821 53.9786 24.7821 54.7506C24.7821 56.1738 25.9366 57.3265 27.3599 57.3265C28.038 57.3265 28.6522 57.0592 29.1124 56.6283L29.1492 56.6784L29.9985 56.152L37.5879 51.4527C38.2357 52.1925 38.9378 52.866 39.6829 53.4726L33.9476 57.0241C33.7522 57.1107 33.5751 57.2263 33.4119 57.357C32.8164 57.8243 32.4281 58.5412 32.4281 59.3546C32.4281 60.7682 33.5737 61.9109 34.988 61.9109C35.7295 61.9109 36.3926 61.5921 36.8593 61.0871L36.9366 61.1859L37.5457 60.8083L42.4006 57.8011L43.8579 56.8989V55.6027L43.8457 55.3568L43.8579 55.1113C43.9828 53.8115 45.0776 52.7941 46.4106 52.7941C47.8153 52.7962 48.9562 53.9285 48.9702 55.3317V55.3833L48.968 58.5516L48.9669 63.0636L51.787 61.3179V60.9772L51.7834 60.9518L51.787 60.9271V58.1987L51.7902 54.2857V52.2712L51.7913 51.5862L51.7834 51.4642L51.7913 51.3407C51.8203 50.7055 52.0822 50.1311 52.4934 49.7017C52.9594 49.2139 53.6122 48.9097 54.3408 48.9079C55.068 48.9097 55.7226 49.2139 56.1878 49.7017C56.6262 50.1612 56.8957 50.781 56.8957 51.466L56.8907 51.5894L56.9025 51.5877V54.1339L56.9014 58.1704L59.72 56.4243V53.5023L59.7225 49.8702V49.862L59.7189 49.77L59.7354 49.5313V49.2171H59.7855C59.9598 48.4405 60.4852 47.7956 61.1905 47.4631C61.5216 47.306 61.8891 47.2108 62.2785 47.2108C63.5028 47.2126 64.5209 48.0712 64.7725 49.2171H64.8212V49.615L64.8323 49.7185L64.8391 49.7736L64.8323 49.8906V53.1319C66.7483 51.5325 68.1741 49.5148 69.043 47.2942C69.3658 46.4708 69.6106 45.6187 69.7799 44.7519L69.8225 44.5128C70.0515 43.5036 70.5848 42.5649 71.3868 41.8427L72.9374 40.8822L75.4311 39.339L64.6644 21.9452Z" fill="#1BA58A"/>
<path d="M56.9025 51.5877L56.8907 51.5895L56.8957 51.466C56.8957 50.781 56.6262 50.1612 56.1878 49.7017C55.7226 49.2139 55.068 48.9097 54.3408 48.9079C53.6122 48.9097 52.9594 49.2139 52.4935 49.7017C52.0823 50.1311 51.8203 50.7055 51.7913 51.3407L51.7834 51.4642L51.7913 51.5862L51.7902 52.2712V54.2857L51.787 58.1987V60.9271L51.7834 60.9518L51.787 60.9772V61.3179L51.8178 61.2975C51.9903 62.544 53.0442 63.5063 54.3376 63.5063C55.6378 63.5063 56.7007 62.529 56.8585 61.2711H56.8803V61.0638L56.8918 60.9518L56.8803 60.8402V58.1819L56.9014 58.1704L56.9025 54.1339V51.5877Z" fill="#1BA58A" fill-opacity="0.2"/>
<path d="M48.9701 55.3832V55.3317C48.9562 53.9285 47.8152 52.7962 46.4106 52.794C45.0775 52.794 43.9828 53.8114 43.8579 55.1112L43.8457 55.3568L43.8579 55.6026V58.7032L42.4006 57.801L37.5457 60.8083L40.224 62.4652L40.9576 62.0111L41.0131 61.9778L43.8557 60.2171V63.2171L43.8546 66.2229V66.2297L43.9878 66.1474C44.3138 67.1802 45.2697 67.9321 46.4106 67.9321C47.7104 67.9321 48.7726 66.9562 48.9318 65.6983H48.9536V65.4911L48.9651 65.3791L48.9536 65.2674V63.0736L48.9669 63.0636L48.968 58.5515L48.9701 55.3832Z" fill="#1BA58A" fill-opacity="0.2"/>
<path d="M64.8391 49.7736L64.8323 49.7185L64.8212 49.615V49.2171H64.7725C64.521 48.0712 63.5028 47.2126 62.2785 47.2108C61.8891 47.2108 61.5216 47.306 61.1906 47.4631C60.4852 47.7956 59.9598 48.4405 59.7856 49.2171H59.7355V49.5313L59.719 49.77L59.7226 49.862V49.8702L59.7201 53.5023V56.4243L59.7355 56.4143V56.8269L59.7247 56.9339L59.7355 57.0427V57.2532H59.758C59.9158 58.5111 60.9776 59.4885 62.2785 59.4885C63.5783 59.4885 64.6426 58.5111 64.799 57.2532H64.8212V57.0456L64.8323 56.9339L64.8212 56.8237V53.1401L64.8323 53.1319V49.8906L64.8391 49.7736Z" fill="#1BA58A" fill-opacity="0.2"/>
<path d="M43.8558 62.018V60.2171L41.0132 61.9779L40.9577 62.0112C40.2856 62.4725 39.8447 63.2437 39.8447 64.118C39.8447 65.5312 40.9892 66.6754 42.4021 66.6754C42.9421 66.6754 43.4403 66.5068 43.8547 66.223L43.8558 63.2172V62.018Z" fill="#1BA58A"/>
</svg>
