<svg width="90" height="91" viewBox="0 0 90 91" fill="none" xmlns="http://www.w3.org/2000/svg">
<rect width="90" height="90" rx="20" fill="#1BA58A" fill-opacity="0.1"/>
<g clip-path="url(#clip0_723:2277)">
<path d="M59.2961 58.9435C59.8698 58.3033 60.4216 57.648 60.938 56.9033C61.4544 56.1586 61.8748 55.4122 62.2733 54.6505L69.4011 54.2415C70.0451 54.2016 70.5647 53.6862 70.6361 53.022L71.5111 42.4057C71.557 41.9185 71.3214 41.4632 70.9271 41.1898C70.7957 41.0986 70.6491 41.0294 70.5092 40.9972L63.5364 39.4053C63.005 37.7393 62.2797 36.1659 61.3234 34.6918L64.5163 28.3103C64.8152 27.739 64.6286 27.0258 64.0811 26.6461L55.3199 20.5702C54.7723 20.1905 54.0389 20.2657 53.6087 20.7458L48.7511 25.9729C47.0353 25.5939 45.2923 25.488 43.5609 25.5523L39.6261 19.5798C39.525 19.4449 39.4088 19.3318 39.2774 19.2407C38.905 18.9825 38.396 18.9214 37.9558 19.1351L28.3196 23.6756C27.7007 23.96 27.422 24.6425 27.6103 25.2597L29.7255 32.0787C29.1518 32.7188 28.5849 33.396 28.0836 34.1188C27.5823 34.8416 27.1468 35.61 26.7483 36.3716L19.6205 36.7806C18.9765 36.8205 18.4569 37.336 18.3856 38.0001L17.5105 48.6164C17.4646 49.1036 17.7003 49.559 18.0945 49.8324C18.2259 49.9235 18.3725 49.9927 18.5124 50.0249L25.4852 51.6168C26.0166 53.2828 26.7419 54.8562 27.6982 56.3304L24.5053 62.7118C24.2064 63.2831 24.393 63.9963 24.9406 64.3761L33.7017 70.4519C34.2493 70.8317 34.9827 70.7564 35.4129 70.2763L40.2705 65.0492C41.9863 65.4282 43.7293 65.5341 45.4607 65.4698L49.3955 71.4423C49.4966 71.5773 49.6128 71.6903 49.7442 71.7814C50.1166 72.0397 50.6256 72.1008 51.0658 71.887L60.702 67.3465C61.299 67.0469 61.5996 66.3796 61.4113 65.7625L59.2961 58.9435ZM57.5567 52.1905C57.1735 52.9303 56.8764 53.4054 56.5574 53.8654C56.2384 54.3253 55.8605 54.7768 55.3391 55.3883L53.316 57.6507L54.2021 60.5358L55.2917 64.0161L51.9205 65.6031L49.9135 62.557L48.2736 60.0573L45.2694 60.1797C43.8415 60.2274 42.5789 60.1303 41.4227 59.8799L38.4478 59.2116L36.3809 61.4436L33.8923 64.0967L30.8259 61.9701L32.4603 58.7246L33.8263 56.0066L32.1577 53.4546C31.4893 52.4072 30.9626 51.2959 30.5422 50.0312L29.6123 47.1157L26.6374 46.4475L23.081 45.6354L23.3858 41.9219L27.0272 41.7225L30.0399 41.5412L31.4497 38.8535C31.8548 38.129 32.1604 37.5948 32.4642 37.1567C32.768 36.7187 33.1612 36.2453 33.6826 35.6338L35.7056 33.3714L34.8195 30.4863L33.73 27.006L37.1011 25.419L39.1081 28.4651L40.748 30.9648L43.7522 30.8425C45.1801 30.7947 46.4427 30.8918 47.5989 31.1423L50.5738 31.8105L52.6407 29.5785L55.1293 26.9254L58.1738 29.0368L56.5394 32.2823L55.1734 35.0004L56.842 37.5523C57.5104 38.5997 58.0371 39.7111 58.4576 40.9757L59.3874 43.8912L62.3623 44.5595L65.9187 45.3715L65.6139 49.085L61.9792 49.3215L58.9665 49.5028L57.5567 52.1905ZM50.5867 36.7499C45.7461 33.393 39.1065 34.5946 35.7496 39.4352C32.3927 44.2757 33.5944 50.9153 38.4349 54.2722C43.2755 57.6292 49.9151 56.4275 53.272 51.5869C56.6289 46.7464 55.4272 40.1068 50.5867 36.7499ZM41.4729 49.8916C39.0635 48.2208 38.4594 44.8825 40.1302 42.4731C41.8011 40.0638 45.1394 39.4596 47.5487 41.1305C49.9581 42.8013 50.5623 46.1397 48.8914 48.549C47.2205 50.9583 43.8822 51.5625 41.4729 49.8916Z" fill="#1BA58A"/>
</g>
<defs>
<clipPath id="clip0_723:2277">
<rect width="63.9709" height="63.9709" fill="white" transform="translate(36.4551 1) rotate(34.7413)"/>
</clipPath>
</defs>
</svg>
